<svg width="1440" height="1024" viewBox="0 0 1440 1024" fill="none" xmlns="http://www.w3.org/2000/svg">
<g clip-path="url(#clip0)">
<rect width="1440" height="1024" fill="white"/>
<rect width="1440" height="92" fill="#DCDCDC"/>
<path d="M646.552 59L646.48 47.516L641.008 56.732H637.264L631.792 47.912V59H624.052V33.8H631.036L639.244 47.228L647.236 33.8H654.22L654.292 59H646.552ZM671.612 59.576C668.9 59.576 666.464 59.012 664.304 57.884C662.144 56.756 660.452 55.196 659.228 53.204C658.004 51.188 657.392 48.92 657.392 46.4C657.392 43.88 658.004 41.624 659.228 39.632C660.452 37.616 662.144 36.044 664.304 34.916C666.464 33.788 668.9 33.224 671.612 33.224C674.324 33.224 676.76 33.788 678.92 34.916C681.08 36.044 682.772 37.616 683.996 39.632C685.22 41.624 685.832 43.88 685.832 46.4C685.832 48.92 685.22 51.188 683.996 53.204C682.772 55.196 681.08 56.756 678.92 57.884C676.76 59.012 674.324 59.576 671.612 59.576ZM671.612 52.7C672.668 52.7 673.616 52.448 674.456 51.944C675.32 51.416 676.004 50.684 676.508 49.748C677.012 48.788 677.264 47.672 677.264 46.4C677.264 45.128 677.012 44.024 676.508 43.088C676.004 42.128 675.32 41.396 674.456 40.892C673.616 40.364 672.668 40.1 671.612 40.1C670.556 40.1 669.596 40.364 668.732 40.892C667.892 41.396 667.22 42.128 666.716 43.088C666.212 44.024 665.96 45.128 665.96 46.4C665.96 47.672 666.212 48.788 666.716 49.748C667.22 50.684 667.892 51.416 668.732 51.944C669.596 52.448 670.556 52.7 671.612 52.7ZM702.127 59.576C699.415 59.576 696.979 59.012 694.819 57.884C692.659 56.756 690.967 55.196 689.743 53.204C688.519 51.188 687.907 48.92 687.907 46.4C687.907 43.88 688.519 41.624 689.743 39.632C690.967 37.616 692.659 36.044 694.819 34.916C696.979 33.788 699.415 33.224 702.127 33.224C704.839 33.224 707.275 33.788 709.435 34.916C711.595 36.044 713.287 37.616 714.511 39.632C715.735 41.624 716.347 43.88 716.347 46.4C716.347 48.92 715.735 51.188 714.511 53.204C713.287 55.196 711.595 56.756 709.435 57.884C707.275 59.012 704.839 59.576 702.127 59.576ZM702.127 52.7C703.183 52.7 704.131 52.448 704.971 51.944C705.835 51.416 706.519 50.684 707.023 49.748C707.527 48.788 707.779 47.672 707.779 46.4C707.779 45.128 707.527 44.024 707.023 43.088C706.519 42.128 705.835 41.396 704.971 40.892C704.131 40.364 703.183 40.1 702.127 40.1C701.071 40.1 700.111 40.364 699.247 40.892C698.407 41.396 697.735 42.128 697.231 43.088C696.727 44.024 696.475 45.128 696.475 46.4C696.475 47.672 696.727 48.788 697.231 49.748C697.735 50.684 698.407 51.416 699.247 51.944C700.111 52.448 701.071 52.7 702.127 52.7ZM728.827 59.576C726.739 59.576 724.699 59.348 722.707 58.892C720.739 58.412 719.119 57.776 717.847 56.984L720.583 50.792C721.783 51.488 723.127 52.052 724.615 52.484C726.103 52.892 727.531 53.096 728.899 53.096C730.075 53.096 730.915 52.988 731.419 52.772C731.923 52.532 732.175 52.184 732.175 51.728C732.175 51.2 731.839 50.804 731.167 50.54C730.519 50.276 729.439 49.988 727.927 49.676C725.983 49.268 724.363 48.836 723.067 48.38C721.771 47.9 720.643 47.132 719.683 46.076C718.723 44.996 718.243 43.544 718.243 41.72C718.243 40.136 718.687 38.696 719.575 37.4C720.463 36.104 721.783 35.084 723.535 34.34C725.311 33.596 727.459 33.224 729.979 33.224C731.707 33.224 733.399 33.416 735.055 33.8C736.735 34.16 738.211 34.7 739.483 35.42L736.927 41.576C734.455 40.328 732.115 39.704 729.907 39.704C727.723 39.704 726.631 40.232 726.631 41.288C726.631 41.792 726.955 42.176 727.603 42.44C728.251 42.68 729.319 42.944 730.807 43.232C732.727 43.592 734.347 44.012 735.667 44.492C736.987 44.948 738.127 45.704 739.087 46.76C740.071 47.816 740.563 49.256 740.563 51.08C740.563 52.664 740.119 54.104 739.231 55.4C738.343 56.672 737.011 57.692 735.235 58.46C733.483 59.204 731.347 59.576 728.827 59.576ZM764.043 52.592V59H743.091V33.8H763.575V40.208H751.443V43.16H762.099V49.28H751.443V52.592H764.043Z" fill="#3A3A3A"/>
<circle cx="799" cy="45" r="18" fill="#C4C4C4"/>
<g clip-path="url(#clip1)">
<path d="M1298 801.774L1293.46 797.143C1293.13 796.801 1292.59 796.801 1292.25 797.143C1291.92 797.484 1291.92 798.038 1292.25 798.38L1297.39 803.63C1297.73 803.972 1298.27 803.972 1298.61 803.63L1303.75 798.38C1304.08 798.038 1304.08 797.484 1303.75 797.143C1303.41 796.801 1302.87 796.801 1302.54 797.143L1298 801.774Z" fill="#3A3A3A"/>
</g>
<rect x="1093" y="29" width="146" height="36" rx="9" fill="#F8F8F8" stroke="#C4C4C4" stroke-width="2"/>
<path d="M1143.33 41.8H1145.92V50.888H1151.54V53H1143.33V41.8ZM1156.84 53.128C1155.94 53.128 1155.12 52.9413 1154.39 52.568C1153.68 52.184 1153.12 51.656 1152.71 50.984C1152.31 50.312 1152.11 49.5493 1152.11 48.696C1152.11 47.8427 1152.31 47.08 1152.71 46.408C1153.12 45.736 1153.68 45.2133 1154.39 44.84C1155.12 44.456 1155.94 44.264 1156.84 44.264C1157.75 44.264 1158.56 44.456 1159.27 44.84C1159.99 45.2133 1160.55 45.736 1160.95 46.408C1161.36 47.08 1161.56 47.8427 1161.56 48.696C1161.56 49.5493 1161.36 50.312 1160.95 50.984C1160.55 51.656 1159.99 52.184 1159.27 52.568C1158.56 52.9413 1157.75 53.128 1156.84 53.128ZM1156.84 51.08C1157.48 51.08 1158 50.8667 1158.41 50.44C1158.83 50.0027 1159.03 49.4213 1159.03 48.696C1159.03 47.9707 1158.83 47.3947 1158.41 46.968C1158 46.5307 1157.48 46.312 1156.84 46.312C1156.2 46.312 1155.67 46.5307 1155.26 46.968C1154.84 47.3947 1154.63 47.9707 1154.63 48.696C1154.63 49.4213 1154.84 50.0027 1155.26 50.44C1155.67 50.8667 1156.2 51.08 1156.84 51.08ZM1172.11 44.392V51.56C1172.11 53.1387 1171.7 54.312 1170.88 55.08C1170.06 55.848 1168.86 56.232 1167.28 56.232C1166.45 56.232 1165.66 56.1307 1164.91 55.928C1164.16 55.7253 1163.54 55.432 1163.05 55.048L1164.05 53.256C1164.41 53.5547 1164.87 53.7893 1165.42 53.96C1165.98 54.1413 1166.53 54.232 1167.09 54.232C1167.95 54.232 1168.58 54.0347 1168.99 53.64C1169.41 53.256 1169.61 52.6693 1169.61 51.88V51.512C1168.96 52.2267 1168.06 52.584 1166.89 52.584C1166.1 52.584 1165.38 52.4133 1164.72 52.072C1164.07 51.72 1163.55 51.2293 1163.17 50.6C1162.78 49.9707 1162.59 49.2453 1162.59 48.424C1162.59 47.6027 1162.78 46.8773 1163.17 46.248C1163.55 45.6187 1164.07 45.1333 1164.72 44.792C1165.38 44.44 1166.1 44.264 1166.89 44.264C1168.14 44.264 1169.09 44.6747 1169.74 45.496V44.392H1172.11ZM1167.39 50.536C1168.05 50.536 1168.59 50.344 1169.01 49.96C1169.43 49.5653 1169.65 49.0533 1169.65 48.424C1169.65 47.7947 1169.43 47.288 1169.01 46.904C1168.59 46.5093 1168.05 46.312 1167.39 46.312C1166.73 46.312 1166.18 46.5093 1165.76 46.904C1165.33 47.288 1165.12 47.7947 1165.12 48.424C1165.12 49.0533 1165.33 49.5653 1165.76 49.96C1166.18 50.344 1166.73 50.536 1167.39 50.536ZM1174.43 44.392H1176.93V53H1174.43V44.392ZM1175.68 43.192C1175.22 43.192 1174.85 43.0587 1174.56 42.792C1174.27 42.5253 1174.13 42.1947 1174.13 41.8C1174.13 41.4053 1174.27 41.0747 1174.56 40.808C1174.85 40.5413 1175.22 40.408 1175.68 40.408C1176.14 40.408 1176.51 40.536 1176.8 40.792C1177.09 41.048 1177.23 41.368 1177.23 41.752C1177.23 42.168 1177.09 42.5147 1176.8 42.792C1176.51 43.0587 1176.14 43.192 1175.68 43.192ZM1184.48 44.264C1185.54 44.264 1186.4 44.584 1187.05 45.224C1187.72 45.864 1188.05 46.8133 1188.05 48.072V53H1185.55V48.456C1185.55 47.7733 1185.4 47.2667 1185.1 46.936C1184.8 46.5947 1184.37 46.424 1183.81 46.424C1183.18 46.424 1182.68 46.6213 1182.3 47.016C1181.93 47.4 1181.74 47.976 1181.74 48.744V53H1179.25V44.392H1181.63V45.4C1181.96 45.0373 1182.37 44.76 1182.86 44.568C1183.35 44.3653 1183.89 44.264 1184.48 44.264Z" fill="#3A3A3A"/>
<rect x="1256" y="28" width="148" height="38" rx="10" fill="#C4C4C4"/>
<path d="M1302.01 53.192C1301.12 53.192 1300.26 53.0747 1299.43 52.84C1298.61 52.5947 1297.95 52.28 1297.45 51.896L1298.33 49.944C1298.81 50.296 1299.38 50.5787 1300.04 50.792C1300.7 51.0053 1301.36 51.112 1302.02 51.112C1302.76 51.112 1303.3 51.0053 1303.66 50.792C1304.01 50.568 1304.18 50.2747 1304.18 49.912C1304.18 49.6453 1304.08 49.4267 1303.86 49.256C1303.66 49.0747 1303.39 48.9307 1303.06 48.824C1302.74 48.7173 1302.31 48.6 1301.75 48.472C1300.9 48.2693 1300.2 48.0667 1299.66 47.864C1299.11 47.6613 1298.64 47.336 1298.25 46.888C1297.86 46.44 1297.67 45.8427 1297.67 45.096C1297.67 44.4453 1297.85 43.8587 1298.2 43.336C1298.55 42.8027 1299.08 42.3813 1299.78 42.072C1300.5 41.7627 1301.37 41.608 1302.39 41.608C1303.11 41.608 1303.81 41.6933 1304.49 41.864C1305.17 42.0347 1305.77 42.28 1306.28 42.6L1305.48 44.568C1304.45 43.9813 1303.41 43.688 1302.38 43.688C1301.65 43.688 1301.11 43.8053 1300.76 44.04C1300.42 44.2747 1300.25 44.584 1300.25 44.968C1300.25 45.352 1300.45 45.64 1300.84 45.832C1301.25 46.0133 1301.86 46.1947 1302.68 46.376C1303.53 46.5787 1304.23 46.7813 1304.78 46.984C1305.32 47.1867 1305.78 47.5067 1306.17 47.944C1306.56 48.3813 1306.76 48.9733 1306.76 49.72C1306.76 50.36 1306.58 50.9467 1306.22 51.48C1305.86 52.0027 1305.33 52.4187 1304.62 52.728C1303.9 53.0373 1303.03 53.192 1302.01 53.192ZM1308.36 44.392H1310.85V53H1308.36V44.392ZM1309.6 43.192C1309.14 43.192 1308.77 43.0587 1308.48 42.792C1308.2 42.5253 1308.05 42.1947 1308.05 41.8C1308.05 41.4053 1308.2 41.0747 1308.48 40.808C1308.77 40.5413 1309.14 40.408 1309.6 40.408C1310.06 40.408 1310.44 40.536 1310.72 40.792C1311.01 41.048 1311.16 41.368 1311.16 41.752C1311.16 42.168 1311.01 42.5147 1310.72 42.792C1310.44 43.0587 1310.06 43.192 1309.6 43.192ZM1322.05 44.392V51.56C1322.05 53.1387 1321.64 54.312 1320.82 55.08C1319.99 55.848 1318.79 56.232 1317.22 56.232C1316.38 56.232 1315.59 56.1307 1314.85 55.928C1314.1 55.7253 1313.48 55.432 1312.99 55.048L1313.98 53.256C1314.35 53.5547 1314.8 53.7893 1315.36 53.96C1315.91 54.1413 1316.47 54.232 1317.02 54.232C1317.89 54.232 1318.52 54.0347 1318.93 53.64C1319.34 53.256 1319.55 52.6693 1319.55 51.88V51.512C1318.9 52.2267 1317.99 52.584 1316.83 52.584C1316.04 52.584 1315.32 52.4133 1314.66 52.072C1314 51.72 1313.49 51.2293 1313.1 50.6C1312.72 49.9707 1312.53 49.2453 1312.53 48.424C1312.53 47.6027 1312.72 46.8773 1313.1 46.248C1313.49 45.6187 1314 45.1333 1314.66 44.792C1315.32 44.44 1316.04 44.264 1316.83 44.264C1318.08 44.264 1319.03 44.6747 1319.68 45.496V44.392H1322.05ZM1317.33 50.536C1317.99 50.536 1318.53 50.344 1318.94 49.96C1319.37 49.5653 1319.58 49.0533 1319.58 48.424C1319.58 47.7947 1319.37 47.288 1318.94 46.904C1318.53 46.5093 1317.99 46.312 1317.33 46.312C1316.67 46.312 1316.12 46.5093 1315.7 46.904C1315.27 47.288 1315.06 47.7947 1315.06 48.424C1315.06 49.0533 1315.27 49.5653 1315.7 49.96C1316.12 50.344 1316.67 50.536 1317.33 50.536ZM1329.6 44.264C1330.67 44.264 1331.53 44.584 1332.18 45.224C1332.84 45.864 1333.17 46.8133 1333.17 48.072V53H1330.67V48.456C1330.67 47.7733 1330.53 47.2667 1330.23 46.936C1329.93 46.5947 1329.5 46.424 1328.93 46.424C1328.3 46.424 1327.8 46.6213 1327.43 47.016C1327.05 47.4 1326.87 47.976 1326.87 48.744V53H1324.37V44.392H1326.75V45.4C1327.09 45.0373 1327.5 44.76 1327.99 44.568C1328.48 44.3653 1329.02 44.264 1329.6 44.264ZM1345.12 53.192C1343.52 53.192 1342.27 52.7493 1341.37 51.864C1340.49 50.9787 1340.04 49.7147 1340.04 48.072V41.8H1342.64V47.976C1342.64 49.9813 1343.47 50.984 1345.13 50.984C1345.94 50.984 1346.56 50.744 1346.99 50.264C1347.42 49.7733 1347.63 49.0107 1347.63 47.976V41.8H1350.19V48.072C1350.19 49.7147 1349.74 50.9787 1348.84 51.864C1347.96 52.7493 1346.72 53.192 1345.12 53.192ZM1357.66 44.264C1358.46 44.264 1359.19 44.4507 1359.84 44.824C1360.5 45.1867 1361.02 45.704 1361.39 46.376C1361.76 47.0373 1361.95 47.8107 1361.95 48.696C1361.95 49.5813 1361.76 50.36 1361.39 51.032C1361.02 51.6933 1360.5 52.2107 1359.84 52.584C1359.19 52.9467 1358.46 53.128 1357.66 53.128C1356.56 53.128 1355.7 52.7813 1355.07 52.088V56.104H1352.57V44.392H1354.96V45.384C1355.58 44.6373 1356.48 44.264 1357.66 44.264ZM1357.23 51.08C1357.87 51.08 1358.39 50.8667 1358.8 50.44C1359.21 50.0027 1359.42 49.4213 1359.42 48.696C1359.42 47.9707 1359.21 47.3947 1358.8 46.968C1358.39 46.5307 1357.87 46.312 1357.23 46.312C1356.59 46.312 1356.06 46.5307 1355.65 46.968C1355.24 47.3947 1355.04 47.9707 1355.04 48.696C1355.04 49.4213 1355.24 50.0027 1355.65 50.44C1356.06 50.8667 1356.59 51.08 1357.23 51.08Z" fill="black"/>
<path d="M37.572 52L37.554 42.82L33 50.47H32.172L27.618 42.874V52H25.89V39.4H27.366L32.622 48.256L37.806 39.4H39.282L39.3 52H37.572ZM51.4514 47.284C51.4514 47.416 51.4394 47.59 51.4154 47.806H43.6754C43.7834 48.646 44.1494 49.324 44.7734 49.84C45.4094 50.344 46.1954 50.596 47.1314 50.596C48.2714 50.596 49.1894 50.212 49.8854 49.444L50.8394 50.56C50.4074 51.064 49.8674 51.448 49.2194 51.712C48.5834 51.976 47.8694 52.108 47.0774 52.108C46.0694 52.108 45.1754 51.904 44.3954 51.496C43.6154 51.076 43.0094 50.494 42.5774 49.75C42.1574 49.006 41.9474 48.166 41.9474 47.23C41.9474 46.306 42.1514 45.472 42.5594 44.728C42.9794 43.984 43.5494 43.408 44.2694 43C45.0014 42.58 45.8234 42.37 46.7354 42.37C47.6474 42.37 48.4574 42.58 49.1654 43C49.8854 43.408 50.4434 43.984 50.8394 44.728C51.2474 45.472 51.4514 46.324 51.4514 47.284ZM46.7354 43.828C45.9074 43.828 45.2114 44.08 44.6474 44.584C44.0954 45.088 43.7714 45.748 43.6754 46.564H49.7954C49.6994 45.76 49.3694 45.106 48.8054 44.602C48.2534 44.086 47.5634 43.828 46.7354 43.828ZM58.9449 42.37C60.1569 42.37 61.1169 42.724 61.8249 43.432C62.5449 44.128 62.9049 45.154 62.9049 46.51V52H61.1769V46.708C61.1769 45.784 60.9549 45.088 60.5109 44.62C60.0669 44.152 59.4309 43.918 58.6029 43.918C57.6669 43.918 56.9289 44.194 56.3889 44.746C55.8489 45.286 55.5789 46.066 55.5789 47.086V52H53.8509V42.46H55.5069V43.9C55.8549 43.408 56.3229 43.03 56.9109 42.766C57.5109 42.502 58.1889 42.37 58.9449 42.37ZM71.4668 51.442C71.2148 51.658 70.9028 51.826 70.5308 51.946C70.1588 52.054 69.7748 52.108 69.3788 52.108C68.4188 52.108 67.6748 51.85 67.1468 51.334C66.6188 50.818 66.3548 50.08 66.3548 49.12V43.882H64.7348V42.46H66.3548V40.372H68.0828V42.46H70.8188V43.882H68.0828V49.048C68.0828 49.564 68.2088 49.96 68.4608 50.236C68.7248 50.512 69.0968 50.65 69.5768 50.65C70.1048 50.65 70.5548 50.5 70.9268 50.2L71.4668 51.442ZM77.03 42.37C78.35 42.37 79.358 42.694 80.054 43.342C80.762 43.99 81.116 44.956 81.116 46.24V52H79.478V50.74C79.19 51.184 78.776 51.526 78.236 51.766C77.708 51.994 77.078 52.108 76.346 52.108C75.278 52.108 74.42 51.85 73.772 51.334C73.136 50.818 72.818 50.14 72.818 49.3C72.818 48.46 73.124 47.788 73.736 47.284C74.348 46.768 75.32 46.51 76.652 46.51H79.388V46.168C79.388 45.424 79.172 44.854 78.74 44.458C78.308 44.062 77.672 43.864 76.832 43.864C76.268 43.864 75.716 43.96 75.176 44.152C74.636 44.332 74.18 44.578 73.808 44.89L73.088 43.594C73.58 43.198 74.168 42.898 74.852 42.694C75.536 42.478 76.262 42.37 77.03 42.37ZM76.634 50.776C77.294 50.776 77.864 50.632 78.344 50.344C78.824 50.044 79.172 49.624 79.388 49.084V47.752H76.724C75.26 47.752 74.528 48.244 74.528 49.228C74.528 49.708 74.714 50.086 75.086 50.362C75.458 50.638 75.974 50.776 76.634 50.776ZM84.3138 38.644H86.0418V52H84.3138V38.644ZM105.263 39.4V52H103.463V46.384H96.2271V52H94.4271V39.4H96.2271V44.818H103.463V39.4H105.263ZM117.405 47.284C117.405 47.416 117.393 47.59 117.369 47.806H109.629C109.737 48.646 110.103 49.324 110.727 49.84C111.363 50.344 112.149 50.596 113.085 50.596C114.225 50.596 115.143 50.212 115.839 49.444L116.793 50.56C116.361 51.064 115.821 51.448 115.173 51.712C114.537 51.976 113.823 52.108 113.031 52.108C112.023 52.108 111.129 51.904 110.349 51.496C109.569 51.076 108.963 50.494 108.531 49.75C108.111 49.006 107.901 48.166 107.901 47.23C107.901 46.306 108.105 45.472 108.513 44.728C108.933 43.984 109.503 43.408 110.223 43C110.955 42.58 111.777 42.37 112.689 42.37C113.601 42.37 114.411 42.58 115.119 43C115.839 43.408 116.397 43.984 116.793 44.728C117.201 45.472 117.405 46.324 117.405 47.284ZM112.689 43.828C111.861 43.828 111.165 44.08 110.601 44.584C110.049 45.088 109.725 45.748 109.629 46.564H115.749C115.653 45.76 115.323 45.106 114.759 44.602C114.207 44.086 113.517 43.828 112.689 43.828ZM123.014 42.37C124.334 42.37 125.342 42.694 126.038 43.342C126.746 43.99 127.1 44.956 127.1 46.24V52H125.462V50.74C125.174 51.184 124.76 51.526 124.22 51.766C123.692 51.994 123.062 52.108 122.33 52.108C121.262 52.108 120.404 51.85 119.756 51.334C119.12 50.818 118.802 50.14 118.802 49.3C118.802 48.46 119.108 47.788 119.72 47.284C120.332 46.768 121.304 46.51 122.636 46.51H125.372V46.168C125.372 45.424 125.156 44.854 124.724 44.458C124.292 44.062 123.656 43.864 122.816 43.864C122.252 43.864 121.7 43.96 121.16 44.152C120.62 44.332 120.164 44.578 119.792 44.89L119.072 43.594C119.564 43.198 120.152 42.898 120.836 42.694C121.52 42.478 122.246 42.37 123.014 42.37ZM122.618 50.776C123.278 50.776 123.848 50.632 124.328 50.344C124.808 50.044 125.156 49.624 125.372 49.084V47.752H122.708C121.244 47.752 120.512 48.244 120.512 49.228C120.512 49.708 120.698 50.086 121.07 50.362C121.442 50.638 121.958 50.776 122.618 50.776ZM130.298 38.644H132.026V52H130.298V38.644ZM140.918 51.442C140.666 51.658 140.354 51.826 139.982 51.946C139.61 52.054 139.226 52.108 138.83 52.108C137.87 52.108 137.126 51.85 136.598 51.334C136.07 50.818 135.806 50.08 135.806 49.12V43.882H134.186V42.46H135.806V40.372H137.534V42.46H140.27V43.882H137.534V49.048C137.534 49.564 137.66 49.96 137.912 50.236C138.176 50.512 138.548 50.65 139.028 50.65C139.556 50.65 140.006 50.5 140.378 50.2L140.918 51.442ZM148.101 42.37C149.313 42.37 150.273 42.724 150.981 43.432C151.701 44.128 152.061 45.154 152.061 46.51V52H150.333V46.708C150.333 45.784 150.111 45.088 149.667 44.62C149.223 44.152 148.587 43.918 147.759 43.918C146.823 43.918 146.085 44.194 145.545 44.746C145.005 45.286 144.735 46.066 144.735 47.086V52H143.007V38.644H144.735V43.81C145.095 43.354 145.563 43 146.139 42.748C146.727 42.496 147.381 42.37 148.101 42.37ZM168.769 52L166.051 48.13C165.715 48.154 165.451 48.166 165.259 48.166H162.145V52H160.345V39.4H165.259C166.891 39.4 168.175 39.79 169.111 40.57C170.047 41.35 170.515 42.424 170.515 43.792C170.515 44.764 170.275 45.592 169.795 46.276C169.315 46.96 168.631 47.458 167.743 47.77L170.731 52H168.769ZM165.205 46.636C166.345 46.636 167.215 46.39 167.815 45.898C168.415 45.406 168.715 44.704 168.715 43.792C168.715 42.88 168.415 42.184 167.815 41.704C167.215 41.212 166.345 40.966 165.205 40.966H162.145V46.636H165.205ZM181.793 47.284C181.793 47.416 181.781 47.59 181.757 47.806H174.017C174.125 48.646 174.491 49.324 175.115 49.84C175.751 50.344 176.537 50.596 177.473 50.596C178.613 50.596 179.531 50.212 180.227 49.444L181.181 50.56C180.749 51.064 180.209 51.448 179.561 51.712C178.925 51.976 178.211 52.108 177.419 52.108C176.411 52.108 175.517 51.904 174.737 51.496C173.957 51.076 173.351 50.494 172.919 49.75C172.499 49.006 172.289 48.166 172.289 47.23C172.289 46.306 172.493 45.472 172.901 44.728C173.321 43.984 173.891 43.408 174.611 43C175.343 42.58 176.165 42.37 177.077 42.37C177.989 42.37 178.799 42.58 179.507 43C180.227 43.408 180.785 43.984 181.181 44.728C181.589 45.472 181.793 46.324 181.793 47.284ZM177.077 43.828C176.249 43.828 175.553 44.08 174.989 44.584C174.437 45.088 174.113 45.748 174.017 46.564H180.137C180.041 45.76 179.711 45.106 179.147 44.602C178.595 44.086 177.905 43.828 177.077 43.828ZM186.929 52.108C186.149 52.108 185.399 52.006 184.679 51.802C183.959 51.586 183.395 51.316 182.987 50.992L183.707 49.624C184.127 49.924 184.637 50.164 185.237 50.344C185.837 50.524 186.443 50.614 187.055 50.614C188.567 50.614 189.323 50.182 189.323 49.318C189.323 49.03 189.221 48.802 189.017 48.634C188.813 48.466 188.555 48.346 188.243 48.274C187.943 48.19 187.511 48.1 186.947 48.004C186.179 47.884 185.549 47.746 185.057 47.59C184.577 47.434 184.163 47.17 183.815 46.798C183.467 46.426 183.293 45.904 183.293 45.232C183.293 44.368 183.653 43.678 184.373 43.162C185.093 42.634 186.059 42.37 187.271 42.37C187.907 42.37 188.543 42.448 189.179 42.604C189.815 42.76 190.337 42.97 190.745 43.234L190.007 44.602C189.227 44.098 188.309 43.846 187.253 43.846C186.521 43.846 185.963 43.966 185.579 44.206C185.195 44.446 185.003 44.764 185.003 45.16C185.003 45.472 185.111 45.718 185.327 45.898C185.543 46.078 185.807 46.21 186.119 46.294C186.443 46.378 186.893 46.474 187.469 46.582C188.237 46.714 188.855 46.858 189.323 47.014C189.803 47.158 190.211 47.41 190.547 47.77C190.883 48.13 191.051 48.634 191.051 49.282C191.051 50.146 190.679 50.836 189.935 51.352C189.203 51.856 188.201 52.108 186.929 52.108ZM197.296 52.108C196.348 52.108 195.496 51.898 194.74 51.478C193.984 51.058 193.39 50.482 192.958 49.75C192.538 49.006 192.328 48.166 192.328 47.23C192.328 46.294 192.538 45.46 192.958 44.728C193.39 43.984 193.984 43.408 194.74 43C195.496 42.58 196.348 42.37 197.296 42.37C198.244 42.37 199.09 42.58 199.834 43C200.59 43.408 201.178 43.984 201.598 44.728C202.03 45.46 202.246 46.294 202.246 47.23C202.246 48.166 202.03 49.006 201.598 49.75C201.178 50.482 200.59 51.058 199.834 51.478C199.09 51.898 198.244 52.108 197.296 52.108ZM197.296 50.596C197.908 50.596 198.454 50.458 198.934 50.182C199.426 49.894 199.81 49.498 200.086 48.994C200.362 48.478 200.5 47.89 200.5 47.23C200.5 46.57 200.362 45.988 200.086 45.484C199.81 44.968 199.426 44.572 198.934 44.296C198.454 44.02 197.908 43.882 197.296 43.882C196.684 43.882 196.132 44.02 195.64 44.296C195.16 44.572 194.776 44.968 194.488 45.484C194.212 45.988 194.074 46.57 194.074 47.23C194.074 47.89 194.212 48.478 194.488 48.994C194.776 49.498 195.16 49.894 195.64 50.182C196.132 50.458 196.684 50.596 197.296 50.596ZM213.528 42.46V52H211.89V50.56C211.542 51.052 211.08 51.436 210.504 51.712C209.94 51.976 209.322 52.108 208.65 52.108C207.378 52.108 206.376 51.76 205.644 51.064C204.912 50.356 204.546 49.318 204.546 47.95V42.46H206.274V47.752C206.274 48.676 206.496 49.378 206.94 49.858C207.384 50.326 208.02 50.56 208.848 50.56C209.76 50.56 210.48 50.284 211.008 49.732C211.536 49.18 211.8 48.4 211.8 47.392V42.46H213.528ZM218.474 44.062C218.774 43.51 219.218 43.09 219.806 42.802C220.394 42.514 221.108 42.37 221.948 42.37V44.044C221.852 44.032 221.72 44.026 221.552 44.026C220.616 44.026 219.878 44.308 219.338 44.872C218.81 45.424 218.546 46.216 218.546 47.248V52H216.818V42.46H218.474V44.062ZM228.148 52.108C227.176 52.108 226.306 51.898 225.538 51.478C224.782 51.058 224.188 50.482 223.756 49.75C223.324 49.006 223.108 48.166 223.108 47.23C223.108 46.294 223.324 45.46 223.756 44.728C224.188 43.984 224.782 43.408 225.538 43C226.306 42.58 227.176 42.37 228.148 42.37C229.012 42.37 229.78 42.544 230.452 42.892C231.136 43.24 231.664 43.744 232.036 44.404L230.722 45.25C230.422 44.794 230.05 44.452 229.606 44.224C229.162 43.996 228.67 43.882 228.13 43.882C227.506 43.882 226.942 44.02 226.438 44.296C225.946 44.572 225.556 44.968 225.268 45.484C224.992 45.988 224.854 46.57 224.854 47.23C224.854 47.902 224.992 48.496 225.268 49.012C225.556 49.516 225.946 49.906 226.438 50.182C226.942 50.458 227.506 50.596 228.13 50.596C228.67 50.596 229.162 50.482 229.606 50.254C230.05 50.026 230.422 49.684 230.722 49.228L232.036 50.056C231.664 50.716 231.136 51.226 230.452 51.586C229.78 51.934 229.012 52.108 228.148 52.108ZM242.754 47.284C242.754 47.416 242.742 47.59 242.718 47.806H234.978C235.086 48.646 235.452 49.324 236.076 49.84C236.712 50.344 237.498 50.596 238.434 50.596C239.574 50.596 240.492 50.212 241.188 49.444L242.142 50.56C241.71 51.064 241.17 51.448 240.522 51.712C239.886 51.976 239.172 52.108 238.38 52.108C237.372 52.108 236.478 51.904 235.698 51.496C234.918 51.076 234.312 50.494 233.88 49.75C233.46 49.006 233.25 48.166 233.25 47.23C233.25 46.306 233.454 45.472 233.862 44.728C234.282 43.984 234.852 43.408 235.572 43C236.304 42.58 237.126 42.37 238.038 42.37C238.95 42.37 239.76 42.58 240.468 43C241.188 43.408 241.746 43.984 242.142 44.728C242.55 45.472 242.754 46.324 242.754 47.284ZM238.038 43.828C237.21 43.828 236.514 44.08 235.95 44.584C235.398 45.088 235.074 45.748 234.978 46.564H241.098C241.002 45.76 240.672 45.106 240.108 44.602C239.556 44.086 238.866 43.828 238.038 43.828ZM247.89 52.108C247.11 52.108 246.36 52.006 245.64 51.802C244.92 51.586 244.356 51.316 243.948 50.992L244.668 49.624C245.088 49.924 245.598 50.164 246.198 50.344C246.798 50.524 247.404 50.614 248.016 50.614C249.528 50.614 250.284 50.182 250.284 49.318C250.284 49.03 250.182 48.802 249.978 48.634C249.774 48.466 249.516 48.346 249.204 48.274C248.904 48.19 248.472 48.1 247.908 48.004C247.14 47.884 246.51 47.746 246.018 47.59C245.538 47.434 245.124 47.17 244.776 46.798C244.428 46.426 244.254 45.904 244.254 45.232C244.254 44.368 244.614 43.678 245.334 43.162C246.054 42.634 247.02 42.37 248.232 42.37C248.868 42.37 249.504 42.448 250.14 42.604C250.776 42.76 251.298 42.97 251.706 43.234L250.968 44.602C250.188 44.098 249.27 43.846 248.214 43.846C247.482 43.846 246.924 43.966 246.54 44.206C246.156 44.446 245.964 44.764 245.964 45.16C245.964 45.472 246.072 45.718 246.288 45.898C246.504 46.078 246.768 46.21 247.08 46.294C247.404 46.378 247.854 46.474 248.43 46.582C249.198 46.714 249.816 46.858 250.284 47.014C250.764 47.158 251.172 47.41 251.508 47.77C251.844 48.13 252.012 48.634 252.012 49.282C252.012 50.146 251.64 50.836 250.896 51.352C250.164 51.856 249.162 52.108 247.89 52.108Z" fill="black"/>
<path d="M215.649 457.576C212.993 457.576 210.417 457.224 207.921 456.52C205.457 455.784 203.473 454.84 201.969 453.688L204.609 447.832C206.049 448.888 207.761 449.736 209.745 450.376C211.729 451.016 213.713 451.336 215.697 451.336C217.905 451.336 219.537 451.016 220.593 450.376C221.649 449.704 222.177 448.824 222.177 447.736C222.177 446.936 221.857 446.28 221.217 445.768C220.609 445.224 219.809 444.792 218.817 444.472C217.857 444.152 216.545 443.8 214.881 443.416C212.321 442.808 210.225 442.2 208.593 441.592C206.961 440.984 205.553 440.008 204.369 438.664C203.217 437.32 202.641 435.528 202.641 433.288C202.641 431.336 203.169 429.576 204.225 428.008C205.281 426.408 206.865 425.144 208.977 424.216C211.121 423.288 213.729 422.824 216.801 422.824C218.945 422.824 221.041 423.08 223.089 423.592C225.137 424.104 226.929 424.84 228.465 425.8L226.065 431.704C222.961 429.944 219.857 429.064 216.753 429.064C214.577 429.064 212.961 429.416 211.905 430.12C210.881 430.824 210.369 431.752 210.369 432.904C210.369 434.056 210.961 434.92 212.145 435.496C213.361 436.04 215.201 436.584 217.665 437.128C220.225 437.736 222.321 438.344 223.953 438.952C225.585 439.56 226.977 440.52 228.129 441.832C229.313 443.144 229.905 444.92 229.905 447.16C229.905 449.08 229.361 450.84 228.273 452.44C227.217 454.008 225.617 455.256 223.473 456.184C221.329 457.112 218.721 457.576 215.649 457.576ZM251.346 455.752C250.61 456.296 249.698 456.712 248.61 457C247.554 457.256 246.434 457.384 245.25 457.384C242.178 457.384 239.794 456.6 238.098 455.032C236.434 453.464 235.602 451.16 235.602 448.12V437.512H231.618V431.752H235.602V425.464H243.09V431.752H249.522V437.512H243.09V448.024C243.09 449.112 243.362 449.96 243.906 450.568C244.482 451.144 245.282 451.432 246.306 451.432C247.49 451.432 248.498 451.112 249.33 450.472L251.346 455.752ZM265.966 430.792C269.966 430.792 273.038 431.752 275.182 433.672C277.326 435.56 278.398 438.424 278.398 442.264V457H271.39V453.784C269.982 456.184 267.358 457.384 263.518 457.384C261.534 457.384 259.806 457.048 258.334 456.376C256.894 455.704 255.79 454.776 255.022 453.592C254.254 452.408 253.87 451.064 253.87 449.56C253.87 447.16 254.766 445.272 256.558 443.896C258.382 442.52 261.182 441.832 264.958 441.832H270.91C270.91 440.2 270.414 438.952 269.422 438.088C268.43 437.192 266.942 436.744 264.958 436.744C263.582 436.744 262.222 436.968 260.878 437.416C259.566 437.832 258.446 438.408 257.518 439.144L254.83 433.912C256.238 432.92 257.918 432.152 259.87 431.608C261.854 431.064 263.886 430.792 265.966 430.792ZM265.39 452.344C266.67 452.344 267.806 452.056 268.798 451.48C269.79 450.872 270.494 449.992 270.91 448.84V446.2H265.774C262.702 446.2 261.166 447.208 261.166 449.224C261.166 450.184 261.534 450.952 262.27 451.528C263.038 452.072 264.078 452.344 265.39 452.344ZM310.338 431.176L298.674 458.584C297.49 461.56 296.018 463.656 294.258 464.872C292.53 466.088 290.434 466.696 287.97 466.696C286.626 466.696 285.298 466.488 283.986 466.072C282.674 465.656 281.602 465.08 280.77 464.344L283.506 459.016C284.082 459.528 284.738 459.928 285.474 460.216C286.242 460.504 286.994 460.648 287.73 460.648C288.754 460.648 289.586 460.392 290.226 459.88C290.866 459.4 291.442 458.584 291.954 457.432L292.05 457.192L280.866 431.176H288.594L295.842 448.696L303.138 431.176H310.338ZM339.467 457.384C336.715 457.384 334.235 456.824 332.027 455.704C329.851 454.552 328.139 452.968 326.891 450.952C325.675 448.936 325.067 446.648 325.067 444.088C325.067 441.528 325.675 439.24 326.891 437.224C328.139 435.208 329.851 433.64 332.027 432.52C334.235 431.368 336.715 430.792 339.467 430.792C342.187 430.792 344.555 431.368 346.571 432.52C348.619 433.64 350.107 435.256 351.035 437.368L345.227 440.488C343.883 438.12 341.947 436.936 339.419 436.936C337.467 436.936 335.851 437.576 334.571 438.856C333.291 440.136 332.651 441.88 332.651 444.088C332.651 446.296 333.291 448.04 334.571 449.32C335.851 450.6 337.467 451.24 339.419 451.24C341.979 451.24 343.915 450.056 345.227 447.688L351.035 450.856C350.107 452.904 348.619 454.504 346.571 455.656C344.555 456.808 342.187 457.384 339.467 457.384ZM367.307 457.384C364.587 457.384 362.139 456.824 359.963 455.704C357.819 454.552 356.139 452.968 354.923 450.952C353.707 448.936 353.099 446.648 353.099 444.088C353.099 441.528 353.707 439.24 354.923 437.224C356.139 435.208 357.819 433.64 359.963 432.52C362.139 431.368 364.587 430.792 367.307 430.792C370.027 430.792 372.459 431.368 374.603 432.52C376.747 433.64 378.427 435.208 379.643 437.224C380.859 439.24 381.467 441.528 381.467 444.088C381.467 446.648 380.859 448.936 379.643 450.952C378.427 452.968 376.747 454.552 374.603 455.704C372.459 456.824 370.027 457.384 367.307 457.384ZM367.307 451.24C369.227 451.24 370.795 450.6 372.011 449.32C373.259 448.008 373.883 446.264 373.883 444.088C373.883 441.912 373.259 440.184 372.011 438.904C370.795 437.592 369.227 436.936 367.307 436.936C365.387 436.936 363.803 437.592 362.555 438.904C361.307 440.184 360.683 441.912 360.683 444.088C360.683 446.264 361.307 448.008 362.555 449.32C363.803 450.6 365.387 451.24 367.307 451.24ZM402.168 430.792C405.368 430.792 407.944 431.752 409.896 433.672C411.88 435.592 412.872 438.44 412.872 442.216V457H405.384V443.368C405.384 441.32 404.936 439.8 404.04 438.808C403.144 437.784 401.848 437.272 400.152 437.272C398.264 437.272 396.76 437.864 395.64 439.048C394.52 440.2 393.96 441.928 393.96 444.232V457H386.472V431.176H393.624V434.2C394.616 433.112 395.848 432.28 397.32 431.704C398.792 431.096 400.408 430.792 402.168 430.792ZM435.355 430.792C438.555 430.792 441.131 431.752 443.083 433.672C445.067 435.592 446.059 438.44 446.059 442.216V457H438.571V443.368C438.571 441.32 438.123 439.8 437.227 438.808C436.331 437.784 435.035 437.272 433.339 437.272C431.451 437.272 429.947 437.864 428.827 439.048C427.707 440.2 427.147 441.928 427.147 444.232V457H419.659V431.176H426.811V434.2C427.803 433.112 429.035 432.28 430.507 431.704C431.979 431.096 433.595 430.792 435.355 430.792ZM478.424 444.184C478.424 444.28 478.376 444.952 478.28 446.2H458.744C459.096 447.8 459.928 449.064 461.24 449.992C462.552 450.92 464.184 451.384 466.136 451.384C467.48 451.384 468.664 451.192 469.688 450.808C470.744 450.392 471.72 449.752 472.616 448.888L476.6 453.208C474.168 455.992 470.616 457.384 465.944 457.384C463.032 457.384 460.456 456.824 458.216 455.704C455.976 454.552 454.248 452.968 453.032 450.952C451.816 448.936 451.208 446.648 451.208 444.088C451.208 441.56 451.8 439.288 452.984 437.272C454.2 435.224 455.848 433.64 457.928 432.52C460.04 431.368 462.392 430.792 464.984 430.792C467.512 430.792 469.8 431.336 471.848 432.424C473.896 433.512 475.496 435.08 476.648 437.128C477.832 439.144 478.424 441.496 478.424 444.184ZM465.032 436.456C463.336 436.456 461.912 436.936 460.76 437.896C459.608 438.856 458.904 440.168 458.648 441.832H471.368C471.112 440.2 470.408 438.904 469.256 437.944C468.104 436.952 466.696 436.456 465.032 436.456ZM495.889 457.384C493.137 457.384 490.657 456.824 488.449 455.704C486.273 454.552 484.561 452.968 483.313 450.952C482.097 448.936 481.489 446.648 481.489 444.088C481.489 441.528 482.097 439.24 483.313 437.224C484.561 435.208 486.273 433.64 488.449 432.52C490.657 431.368 493.137 430.792 495.889 430.792C498.609 430.792 500.977 431.368 502.993 432.52C505.041 433.64 506.529 435.256 507.457 437.368L501.649 440.488C500.305 438.12 498.369 436.936 495.841 436.936C493.889 436.936 492.273 437.576 490.993 438.856C489.713 440.136 489.073 441.88 489.073 444.088C489.073 446.296 489.713 448.04 490.993 449.32C492.273 450.6 493.889 451.24 495.841 451.24C498.401 451.24 500.337 450.056 501.649 447.688L507.457 450.856C506.529 452.904 505.041 454.504 502.993 455.656C500.977 456.808 498.609 457.384 495.889 457.384ZM528.8 455.752C528.064 456.296 527.152 456.712 526.064 457C525.008 457.256 523.888 457.384 522.704 457.384C519.632 457.384 517.248 456.6 515.552 455.032C513.888 453.464 513.056 451.16 513.056 448.12V437.512H509.072V431.752H513.056V425.464H520.544V431.752H526.976V437.512H520.544V448.024C520.544 449.112 520.816 449.96 521.359 450.568C521.936 451.144 522.736 451.432 523.76 451.432C524.944 451.432 525.952 451.112 526.784 450.472L528.8 455.752ZM557.502 444.184C557.502 444.28 557.454 444.952 557.358 446.2H537.822C538.174 447.8 539.006 449.064 540.318 449.992C541.63 450.92 543.262 451.384 545.214 451.384C546.558 451.384 547.742 451.192 548.766 450.808C549.822 450.392 550.798 449.752 551.694 448.888L555.678 453.208C553.246 455.992 549.694 457.384 545.022 457.384C542.11 457.384 539.534 456.824 537.294 455.704C535.054 454.552 533.326 452.968 532.11 450.952C530.894 448.936 530.286 446.648 530.286 444.088C530.286 441.56 530.878 439.288 532.062 437.272C533.278 435.224 534.926 433.64 537.006 432.52C539.118 431.368 541.47 430.792 544.062 430.792C546.59 430.792 548.878 431.336 550.926 432.424C552.974 433.512 554.574 435.08 555.726 437.128C556.91 439.144 557.502 441.496 557.502 444.184ZM544.11 436.456C542.414 436.456 540.99 436.936 539.838 437.896C538.686 438.856 537.982 440.168 537.726 441.832H550.446C550.19 440.2 549.486 438.904 548.334 437.944C547.182 436.952 545.774 436.456 544.11 436.456ZM588.791 421.384V457H581.639V454.024C579.783 456.264 577.095 457.384 573.575 457.384C571.143 457.384 568.935 456.84 566.951 455.752C564.999 454.664 563.463 453.112 562.343 451.096C561.223 449.08 560.663 446.744 560.663 444.088C560.663 441.432 561.223 439.096 562.343 437.08C563.463 435.064 564.999 433.512 566.951 432.424C568.935 431.336 571.143 430.792 573.575 430.792C576.871 430.792 579.447 431.832 581.303 433.912V421.384H588.791ZM574.871 451.24C576.759 451.24 578.327 450.6 579.575 449.32C580.823 448.008 581.447 446.264 581.447 444.088C581.447 441.912 580.823 440.184 579.575 438.904C578.327 437.592 576.759 436.936 574.871 436.936C572.951 436.936 571.367 437.592 570.119 438.904C568.871 440.184 568.247 441.912 568.247 444.088C568.247 446.264 568.871 448.008 570.119 449.32C571.367 450.6 572.951 451.24 574.871 451.24ZM619.731 430.792C623.731 430.792 626.803 431.752 628.947 433.672C631.091 435.56 632.163 438.424 632.163 442.264V457H625.155V453.784C623.747 456.184 621.123 457.384 617.283 457.384C615.299 457.384 613.571 457.048 612.099 456.376C610.659 455.704 609.555 454.776 608.787 453.592C608.019 452.408 607.635 451.064 607.635 449.56C607.635 447.16 608.531 445.272 610.323 443.896C612.147 442.52 614.947 441.832 618.723 441.832H624.675C624.675 440.2 624.179 438.952 623.187 438.088C622.195 437.192 620.707 436.744 618.723 436.744C617.347 436.744 615.987 436.968 614.643 437.416C613.331 437.832 612.211 438.408 611.283 439.144L608.595 433.912C610.003 432.92 611.683 432.152 613.635 431.608C615.619 431.064 617.651 430.792 619.731 430.792ZM619.155 452.344C620.435 452.344 621.571 452.056 622.563 451.48C623.555 450.872 624.259 449.992 624.675 448.84V446.2H619.539C616.467 446.2 614.931 447.208 614.931 449.224C614.931 450.184 615.299 450.952 616.035 451.528C616.803 452.072 617.843 452.344 619.155 452.344ZM654.636 430.792C657.836 430.792 660.412 431.752 662.364 433.672C664.348 435.592 665.34 438.44 665.34 442.216V457H657.852V443.368C657.852 441.32 657.404 439.8 656.508 438.808C655.612 437.784 654.316 437.272 652.62 437.272C650.732 437.272 649.228 437.864 648.108 439.048C646.988 440.2 646.428 441.928 646.428 444.232V457H638.94V431.176H646.092V434.2C647.084 433.112 648.316 432.28 649.788 431.704C651.26 431.096 652.876 430.792 654.636 430.792ZM698.713 421.384V457H691.561V454.024C689.705 456.264 687.017 457.384 683.497 457.384C681.065 457.384 678.857 456.84 676.873 455.752C674.921 454.664 673.385 453.112 672.265 451.096C671.145 449.08 670.585 446.744 670.585 444.088C670.585 441.432 671.145 439.096 672.265 437.08C673.385 435.064 674.921 433.512 676.873 432.424C678.857 431.336 681.065 430.792 683.497 430.792C686.793 430.792 689.369 431.832 691.225 433.912V421.384H698.713ZM684.793 451.24C686.681 451.24 688.249 450.6 689.497 449.32C690.745 448.008 691.369 446.264 691.369 444.088C691.369 441.912 690.745 440.184 689.497 438.904C688.249 437.592 686.681 436.936 684.793 436.936C682.873 436.936 681.289 437.592 680.041 438.904C678.793 440.184 678.169 441.912 678.169 444.088C678.169 446.264 678.793 448.008 680.041 449.32C681.289 450.6 682.873 451.24 684.793 451.24ZM719.237 421.384H726.725V457H719.237V421.384ZM758.971 444.184C758.971 444.28 758.923 444.952 758.827 446.2H739.291C739.643 447.8 740.475 449.064 741.787 449.992C743.099 450.92 744.731 451.384 746.683 451.384C748.027 451.384 749.211 451.192 750.235 450.808C751.291 450.392 752.267 449.752 753.163 448.888L757.147 453.208C754.715 455.992 751.163 457.384 746.491 457.384C743.579 457.384 741.003 456.824 738.763 455.704C736.523 454.552 734.795 452.968 733.579 450.952C732.363 448.936 731.755 446.648 731.755 444.088C731.755 441.56 732.347 439.288 733.531 437.272C734.747 435.224 736.395 433.64 738.475 432.52C740.587 431.368 742.939 430.792 745.531 430.792C748.059 430.792 750.347 431.336 752.395 432.424C754.443 433.512 756.043 435.08 757.195 437.128C758.379 439.144 758.971 441.496 758.971 444.184ZM745.579 436.456C743.883 436.456 742.459 436.936 741.307 437.896C740.155 438.856 739.451 440.168 739.195 441.832H751.915C751.659 440.2 750.955 438.904 749.803 437.944C748.651 436.952 747.243 436.456 745.579 436.456ZM773.669 430.792C777.669 430.792 780.741 431.752 782.885 433.672C785.029 435.56 786.101 438.424 786.101 442.264V457H779.093V453.784C777.685 456.184 775.061 457.384 771.221 457.384C769.237 457.384 767.509 457.048 766.037 456.376C764.597 455.704 763.493 454.776 762.725 453.592C761.957 452.408 761.573 451.064 761.573 449.56C761.573 447.16 762.469 445.272 764.261 443.896C766.085 442.52 768.885 441.832 772.661 441.832H778.613C778.613 440.2 778.117 438.952 777.125 438.088C776.133 437.192 774.645 436.744 772.661 436.744C771.285 436.744 769.925 436.968 768.581 437.416C767.269 437.832 766.149 438.408 765.221 439.144L762.533 433.912C763.941 432.92 765.621 432.152 767.573 431.608C769.557 431.064 771.589 430.792 773.669 430.792ZM773.093 452.344C774.373 452.344 775.509 452.056 776.501 451.48C777.493 450.872 778.197 449.992 778.613 448.84V446.2H773.477C770.405 446.2 768.869 447.208 768.869 449.224C768.869 450.184 769.237 450.952 769.973 451.528C770.741 452.072 771.781 452.344 773.093 452.344ZM800.03 434.584C800.926 433.336 802.126 432.392 803.63 431.752C805.166 431.112 806.926 430.792 808.91 430.792V437.704C808.078 437.64 807.518 437.608 807.23 437.608C805.086 437.608 803.406 438.216 802.19 439.432C800.974 440.616 800.366 442.408 800.366 444.808V457H792.878V431.176H800.03V434.584ZM829.058 430.792C832.258 430.792 834.834 431.752 836.786 433.672C838.77 435.592 839.762 438.44 839.762 442.216V457H832.274V443.368C832.274 441.32 831.826 439.8 830.93 438.808C830.034 437.784 828.738 437.272 827.042 437.272C825.154 437.272 823.65 437.864 822.53 439.048C821.41 440.2 820.85 441.928 820.85 444.232V457H813.362V431.176H820.514V434.2C821.506 433.112 822.738 432.28 824.21 431.704C825.682 431.096 827.298 430.792 829.058 430.792ZM875.84 430.792C879.04 430.792 881.616 431.752 883.568 433.672C885.552 435.592 886.544 438.44 886.544 442.216V457H879.056V443.368C879.056 441.32 878.608 439.8 877.712 438.808C876.816 437.784 875.52 437.272 873.824 437.272C871.936 437.272 870.432 437.864 869.312 439.048C868.192 440.2 867.632 441.928 867.632 444.232V457H860.144V431.176H867.296V434.2C868.288 433.112 869.52 432.28 870.992 431.704C872.464 431.096 874.08 430.792 875.84 430.792ZM918.908 444.184C918.908 444.28 918.86 444.952 918.764 446.2H899.228C899.58 447.8 900.412 449.064 901.724 449.992C903.036 450.92 904.668 451.384 906.62 451.384C907.964 451.384 909.148 451.192 910.172 450.808C911.228 450.392 912.204 449.752 913.1 448.888L917.084 453.208C914.652 455.992 911.1 457.384 906.428 457.384C903.516 457.384 900.94 456.824 898.7 455.704C896.46 454.552 894.732 452.968 893.516 450.952C892.3 448.936 891.692 446.648 891.692 444.088C891.692 441.56 892.284 439.288 893.468 437.272C894.684 435.224 896.332 433.64 898.412 432.52C900.524 431.368 902.876 430.792 905.468 430.792C907.996 430.792 910.284 431.336 912.332 432.424C914.38 433.512 915.98 435.08 917.132 437.128C918.316 439.144 918.908 441.496 918.908 444.184ZM905.516 436.456C903.82 436.456 902.396 436.936 901.244 437.896C900.092 438.856 899.388 440.168 899.132 441.832H911.852C911.596 440.2 910.892 438.904 909.74 437.944C908.588 436.952 907.18 436.456 905.516 436.456ZM964.897 431.176L955.537 457H948.337L942.529 440.968L936.529 457H929.329L920.017 431.176H927.073L933.169 448.648L939.505 431.176H945.841L951.985 448.648L958.273 431.176H964.897ZM990.66 457.384C988.516 457.384 986.42 457.128 984.372 456.616C982.324 456.072 980.692 455.4 979.476 454.6L981.972 449.224C983.124 449.96 984.516 450.568 986.148 451.048C987.78 451.496 989.38 451.72 990.948 451.72C994.116 451.72 995.7 450.936 995.7 449.368C995.7 448.632 995.268 448.104 994.404 447.784C993.54 447.464 992.212 447.192 990.42 446.968C988.308 446.648 986.564 446.28 985.188 445.864C983.812 445.448 982.612 444.712 981.588 443.656C980.596 442.6 980.1 441.096 980.1 439.144C980.1 437.512 980.564 436.072 981.492 434.824C982.452 433.544 983.828 432.552 985.62 431.848C987.444 431.144 989.588 430.792 992.052 430.792C993.876 430.792 995.684 431 997.476 431.416C999.3 431.8 1000.8 432.344 1001.99 433.048L999.492 438.376C997.22 437.096 994.74 436.456 992.052 436.456C990.452 436.456 989.252 436.68 988.452 437.128C987.652 437.576 987.252 438.152 987.252 438.856C987.252 439.656 987.684 440.216 988.548 440.536C989.412 440.856 990.788 441.16 992.676 441.448C994.788 441.8 996.516 442.184 997.86 442.6C999.204 442.984 1000.37 443.704 1001.36 444.76C1002.36 445.816 1002.85 447.288 1002.85 449.176C1002.85 450.776 1002.37 452.2 1001.41 453.448C1000.45 454.696 999.044 455.672 997.188 456.376C995.364 457.048 993.188 457.384 990.66 457.384ZM1018.56 446.872L1014.96 450.424V457H1007.47V421.384H1014.96V441.544L1025.9 431.176H1034.83L1024.08 442.12L1035.79 457H1026.72L1018.56 446.872ZM1038.97 431.176H1046.46V457H1038.97V431.176ZM1042.72 427.576C1041.34 427.576 1040.22 427.176 1039.36 426.376C1038.49 425.576 1038.06 424.584 1038.06 423.4C1038.06 422.216 1038.49 421.224 1039.36 420.424C1040.22 419.624 1041.34 419.224 1042.72 419.224C1044.09 419.224 1045.21 419.608 1046.08 420.376C1046.94 421.144 1047.37 422.104 1047.37 423.256C1047.37 424.504 1046.94 425.544 1046.08 426.376C1045.21 427.176 1044.09 427.576 1042.72 427.576ZM1053.41 421.384H1060.9V457H1053.41V421.384ZM1067.85 421.384H1075.33V457H1067.85V421.384ZM1090.97 457.384C1088.83 457.384 1086.73 457.128 1084.68 456.616C1082.64 456.072 1081 455.4 1079.79 454.6L1082.28 449.224C1083.44 449.96 1084.83 450.568 1086.46 451.048C1088.09 451.496 1089.69 451.72 1091.26 451.72C1094.43 451.72 1096.01 450.936 1096.01 449.368C1096.01 448.632 1095.58 448.104 1094.72 447.784C1093.85 447.464 1092.52 447.192 1090.73 446.968C1088.62 446.648 1086.88 446.28 1085.5 445.864C1084.12 445.448 1082.92 444.712 1081.9 443.656C1080.91 442.6 1080.41 441.096 1080.41 439.144C1080.41 437.512 1080.88 436.072 1081.8 434.824C1082.76 433.544 1084.14 432.552 1085.93 431.848C1087.76 431.144 1089.9 430.792 1092.36 430.792C1094.19 430.792 1096 431 1097.79 431.416C1099.61 431.8 1101.12 432.344 1102.3 433.048L1099.8 438.376C1097.53 437.096 1095.05 436.456 1092.36 436.456C1090.76 436.456 1089.56 436.68 1088.76 437.128C1087.96 437.576 1087.56 438.152 1087.56 438.856C1087.56 439.656 1088 440.216 1088.86 440.536C1089.72 440.856 1091.1 441.16 1092.99 441.448C1095.1 441.8 1096.83 442.184 1098.17 442.6C1099.52 442.984 1100.68 443.704 1101.68 444.76C1102.67 445.816 1103.16 447.288 1103.16 449.176C1103.16 450.776 1102.68 452.2 1101.72 453.448C1100.76 454.696 1099.36 455.672 1097.5 456.376C1095.68 457.048 1093.5 457.384 1090.97 457.384ZM1129.59 431.752H1136.21V437.512H1129.78V457H1122.29V437.512H1118.31V431.752H1122.29V430.6C1122.29 427.656 1123.15 425.32 1124.88 423.592C1126.64 421.864 1129.11 421 1132.27 421C1133.39 421 1134.45 421.128 1135.44 421.384C1136.47 421.608 1137.31 421.944 1137.99 422.392L1136.02 427.816C1135.15 427.208 1134.15 426.904 1132.99 426.904C1130.72 426.904 1129.59 428.152 1129.59 430.648V431.752ZM1150.94 434.584C1151.83 433.336 1153.03 432.392 1154.54 431.752C1156.07 431.112 1157.83 430.792 1159.82 430.792V437.704C1158.98 437.64 1158.42 437.608 1158.14 437.608C1155.99 437.608 1154.31 438.216 1153.1 439.432C1151.88 440.616 1151.27 442.408 1151.27 444.808V457H1143.78V431.176H1150.94V434.584ZM1176.32 457.384C1173.6 457.384 1171.15 456.824 1168.98 455.704C1166.83 454.552 1165.15 452.968 1163.94 450.952C1162.72 448.936 1162.11 446.648 1162.11 444.088C1162.11 441.528 1162.72 439.24 1163.94 437.224C1165.15 435.208 1166.83 433.64 1168.98 432.52C1171.15 431.368 1173.6 430.792 1176.32 430.792C1179.04 430.792 1181.47 431.368 1183.62 432.52C1185.76 433.64 1187.44 435.208 1188.66 437.224C1189.87 439.24 1190.48 441.528 1190.48 444.088C1190.48 446.648 1189.87 448.936 1188.66 450.952C1187.44 452.968 1185.76 454.552 1183.62 455.704C1181.47 456.824 1179.04 457.384 1176.32 457.384ZM1176.32 451.24C1178.24 451.24 1179.81 450.6 1181.03 449.32C1182.27 448.008 1182.9 446.264 1182.9 444.088C1182.9 441.912 1182.27 440.184 1181.03 438.904C1179.81 437.592 1178.24 436.936 1176.32 436.936C1174.4 436.936 1172.82 437.592 1171.57 438.904C1170.32 440.184 1169.7 441.912 1169.7 444.088C1169.7 446.264 1170.32 448.008 1171.57 449.32C1172.82 450.6 1174.4 451.24 1176.32 451.24ZM1228.56 430.792C1231.79 430.792 1234.35 431.752 1236.24 433.672C1238.16 435.56 1239.12 438.408 1239.12 442.216V457H1231.63V443.368C1231.63 441.32 1231.2 439.8 1230.34 438.808C1229.5 437.784 1228.3 437.272 1226.74 437.272C1224.98 437.272 1223.58 437.848 1222.56 439C1221.54 440.12 1221.02 441.8 1221.02 444.04V457H1213.54V443.368C1213.54 439.304 1211.9 437.272 1208.64 437.272C1206.91 437.272 1205.54 437.848 1204.51 439C1203.49 440.12 1202.98 441.8 1202.98 444.04V457H1195.49V431.176H1202.64V434.152C1203.6 433.064 1204.77 432.232 1206.14 431.656C1207.55 431.08 1209.09 430.792 1210.75 430.792C1212.58 430.792 1214.22 431.16 1215.7 431.896C1217.17 432.6 1218.35 433.64 1219.25 435.016C1220.3 433.672 1221.63 432.632 1223.23 431.896C1224.86 431.16 1226.64 430.792 1228.56 430.792ZM348.612 514.752C347.876 515.296 346.964 515.712 345.876 516C344.82 516.256 343.7 516.384 342.516 516.384C339.444 516.384 337.06 515.6 335.364 514.032C333.7 512.464 332.868 510.16 332.868 507.12V496.512H328.884V490.752H332.868V484.464H340.356V490.752H346.788V496.512H340.356V507.024C340.356 508.112 340.628 508.96 341.172 509.568C341.748 510.144 342.548 510.432 343.572 510.432C344.756 510.432 345.764 510.112 346.596 509.472L348.612 514.752ZM368.511 489.792C371.711 489.792 374.287 490.752 376.239 492.672C378.223 494.592 379.215 497.44 379.215 501.216V516H371.727V502.368C371.727 500.32 371.279 498.8 370.383 497.808C369.487 496.784 368.191 496.272 366.495 496.272C364.607 496.272 363.103 496.864 361.983 498.048C360.863 499.2 360.303 500.928 360.303 503.232V516H352.815V480.384H360.303V492.864C361.295 491.872 362.495 491.12 363.903 490.608C365.311 490.064 366.847 489.792 368.511 489.792ZM411.58 503.184C411.58 503.28 411.532 503.952 411.436 505.2H391.9C392.252 506.8 393.084 508.064 394.396 508.992C395.708 509.92 397.34 510.384 399.292 510.384C400.636 510.384 401.82 510.192 402.844 509.808C403.9 509.392 404.876 508.752 405.772 507.888L409.756 512.208C407.324 514.992 403.772 516.384 399.1 516.384C396.188 516.384 393.612 515.824 391.372 514.704C389.132 513.552 387.404 511.968 386.188 509.952C384.972 507.936 384.364 505.648 384.364 503.088C384.364 500.56 384.956 498.288 386.14 496.272C387.356 494.224 389.004 492.64 391.084 491.52C393.196 490.368 395.548 489.792 398.14 489.792C400.668 489.792 402.956 490.336 405.004 491.424C407.052 492.512 408.652 494.08 409.804 496.128C410.988 498.144 411.58 500.496 411.58 503.184ZM398.188 495.456C396.492 495.456 395.068 495.936 393.916 496.896C392.764 497.856 392.06 499.168 391.804 500.832H404.524C404.268 499.2 403.564 497.904 402.412 496.944C401.26 495.952 399.852 495.456 398.188 495.456ZM442.639 516.384C439.887 516.384 437.407 515.824 435.199 514.704C433.023 513.552 431.311 511.968 430.063 509.952C428.847 507.936 428.239 505.648 428.239 503.088C428.239 500.528 428.847 498.24 430.063 496.224C431.311 494.208 433.023 492.64 435.199 491.52C437.407 490.368 439.887 489.792 442.639 489.792C445.359 489.792 447.727 490.368 449.743 491.52C451.791 492.64 453.279 494.256 454.207 496.368L448.399 499.488C447.055 497.12 445.119 495.936 442.591 495.936C440.639 495.936 439.023 496.576 437.743 497.856C436.463 499.136 435.823 500.88 435.823 503.088C435.823 505.296 436.463 507.04 437.743 508.32C439.023 509.6 440.639 510.24 442.591 510.24C445.151 510.24 447.087 509.056 448.399 506.688L454.207 509.856C453.279 511.904 451.791 513.504 449.743 514.656C447.727 515.808 445.359 516.384 442.639 516.384ZM470.478 516.384C467.758 516.384 465.31 515.824 463.134 514.704C460.99 513.552 459.31 511.968 458.094 509.952C456.878 507.936 456.27 505.648 456.27 503.088C456.27 500.528 456.878 498.24 458.094 496.224C459.31 494.208 460.99 492.64 463.134 491.52C465.31 490.368 467.758 489.792 470.478 489.792C473.198 489.792 475.63 490.368 477.774 491.52C479.918 492.64 481.598 494.208 482.814 496.224C484.03 498.24 484.638 500.528 484.638 503.088C484.638 505.648 484.03 507.936 482.814 509.952C481.598 511.968 479.918 513.552 477.774 514.704C475.63 515.824 473.198 516.384 470.478 516.384ZM470.478 510.24C472.398 510.24 473.966 509.6 475.182 508.32C476.43 507.008 477.054 505.264 477.054 503.088C477.054 500.912 476.43 499.184 475.182 497.904C473.966 496.592 472.398 495.936 470.478 495.936C468.558 495.936 466.974 496.592 465.726 497.904C464.478 499.184 463.854 500.912 463.854 503.088C463.854 505.264 464.478 507.008 465.726 508.32C466.974 509.6 468.558 510.24 470.478 510.24ZM522.716 489.792C525.948 489.792 528.508 490.752 530.396 492.672C532.316 494.56 533.276 497.408 533.276 501.216V516H525.788V502.368C525.788 500.32 525.356 498.8 524.492 497.808C523.66 496.784 522.46 496.272 520.892 496.272C519.132 496.272 517.74 496.848 516.716 498C515.692 499.12 515.18 500.8 515.18 503.04V516H507.692V502.368C507.692 498.304 506.06 496.272 502.796 496.272C501.068 496.272 499.692 496.848 498.668 498C497.644 499.12 497.132 500.8 497.132 503.04V516H489.644V490.176H496.796V493.152C497.756 492.064 498.924 491.232 500.299 490.656C501.708 490.08 503.244 489.792 504.908 489.792C506.732 489.792 508.38 490.16 509.852 490.896C511.324 491.6 512.508 492.64 513.404 494.016C514.46 492.672 515.788 491.632 517.388 490.896C519.02 490.16 520.796 489.792 522.716 489.792ZM548.195 490.752H554.819V496.512H548.387V516H540.899V496.512H536.915V490.752H540.899V489.6C540.899 486.656 541.763 484.32 543.491 482.592C545.251 480.864 547.715 480 550.883 480C552.003 480 553.059 480.128 554.051 480.384C555.075 480.608 555.923 480.944 556.595 481.392L554.627 486.816C553.763 486.208 552.755 485.904 551.603 485.904C549.331 485.904 548.195 487.152 548.195 489.648V490.752ZM570.51 516.384C567.79 516.384 565.342 515.824 563.166 514.704C561.022 513.552 559.342 511.968 558.126 509.952C556.91 507.936 556.302 505.648 556.302 503.088C556.302 500.528 556.91 498.24 558.126 496.224C559.342 494.208 561.022 492.64 563.166 491.52C565.342 490.368 567.79 489.792 570.51 489.792C573.23 489.792 575.662 490.368 577.806 491.52C579.95 492.64 581.63 494.208 582.846 496.224C584.062 498.24 584.67 500.528 584.67 503.088C584.67 505.648 584.062 507.936 582.846 509.952C581.63 511.968 579.95 513.552 577.806 514.704C575.662 515.824 573.23 516.384 570.51 516.384ZM570.51 510.24C572.43 510.24 573.998 509.6 575.214 508.32C576.462 507.008 577.086 505.264 577.086 503.088C577.086 500.912 576.462 499.184 575.214 497.904C573.998 496.592 572.43 495.936 570.51 495.936C568.59 495.936 567.006 496.592 565.758 497.904C564.51 499.184 563.886 500.912 563.886 503.088C563.886 505.264 564.51 507.008 565.758 508.32C567.006 509.6 568.59 510.24 570.51 510.24ZM596.827 493.584C597.723 492.336 598.923 491.392 600.427 490.752C601.963 490.112 603.723 489.792 605.707 489.792V496.704C604.875 496.64 604.315 496.608 604.027 496.608C601.883 496.608 600.203 497.216 598.987 498.432C597.771 499.616 597.163 501.408 597.163 503.808V516H589.675V490.176H596.827V493.584ZM627.706 514.752C626.97 515.296 626.058 515.712 624.97 516C623.914 516.256 622.794 516.384 621.61 516.384C618.538 516.384 616.154 515.6 614.458 514.032C612.794 512.464 611.962 510.16 611.962 507.12V496.512H607.978V490.752H611.962V484.464H619.45V490.752H625.882V496.512H619.45V507.024C619.45 508.112 619.722 508.96 620.266 509.568C620.842 510.144 621.642 510.432 622.666 510.432C623.85 510.432 624.858 510.112 625.69 509.472L627.706 514.752ZM657.791 516.384C655.071 516.384 652.623 515.824 650.447 514.704C648.303 513.552 646.623 511.968 645.407 509.952C644.191 507.936 643.583 505.648 643.583 503.088C643.583 500.528 644.191 498.24 645.407 496.224C646.623 494.208 648.303 492.64 650.447 491.52C652.623 490.368 655.071 489.792 657.791 489.792C660.511 489.792 662.943 490.368 665.087 491.52C667.231 492.64 668.911 494.208 670.127 496.224C671.343 498.24 671.951 500.528 671.951 503.088C671.951 505.648 671.343 507.936 670.127 509.952C668.911 511.968 667.231 513.552 665.087 514.704C662.943 515.824 660.511 516.384 657.791 516.384ZM657.791 510.24C659.711 510.24 661.279 509.6 662.495 508.32C663.743 507.008 664.367 505.264 664.367 503.088C664.367 500.912 663.743 499.184 662.495 497.904C661.279 496.592 659.711 495.936 657.791 495.936C655.871 495.936 654.287 496.592 653.039 497.904C651.791 499.184 651.167 500.912 651.167 503.088C651.167 505.264 651.791 507.008 653.039 508.32C654.287 509.6 655.871 510.24 657.791 510.24ZM685.164 490.752H691.788V496.512H685.356V516H677.868V496.512H673.884V490.752H677.868V489.6C677.868 486.656 678.732 484.32 680.46 482.592C682.22 480.864 684.684 480 687.852 480C688.972 480 690.028 480.128 691.02 480.384C692.044 480.608 692.892 480.944 693.564 481.392L691.596 486.816C690.732 486.208 689.724 485.904 688.572 485.904C686.3 485.904 685.164 487.152 685.164 489.648V490.752ZM734.744 490.176L723.08 517.584C721.896 520.56 720.424 522.656 718.664 523.872C716.936 525.088 714.84 525.696 712.376 525.696C711.032 525.696 709.704 525.488 708.392 525.072C707.08 524.656 706.008 524.08 705.176 523.344L707.912 518.016C708.488 518.528 709.144 518.928 709.88 519.216C710.648 519.504 711.4 519.648 712.136 519.648C713.16 519.648 713.992 519.392 714.632 518.88C715.272 518.4 715.848 517.584 716.36 516.432L716.456 516.192L705.272 490.176H713L720.248 507.696L727.544 490.176H734.744ZM749.385 516.384C746.665 516.384 744.217 515.824 742.041 514.704C739.897 513.552 738.217 511.968 737.001 509.952C735.785 507.936 735.177 505.648 735.177 503.088C735.177 500.528 735.785 498.24 737.001 496.224C738.217 494.208 739.897 492.64 742.041 491.52C744.217 490.368 746.665 489.792 749.385 489.792C752.105 489.792 754.537 490.368 756.681 491.52C758.825 492.64 760.505 494.208 761.721 496.224C762.937 498.24 763.545 500.528 763.545 503.088C763.545 505.648 762.937 507.936 761.721 509.952C760.505 511.968 758.825 513.552 756.681 514.704C754.537 515.824 752.105 516.384 749.385 516.384ZM749.385 510.24C751.305 510.24 752.873 509.6 754.089 508.32C755.337 507.008 755.961 505.264 755.961 503.088C755.961 500.912 755.337 499.184 754.089 497.904C752.873 496.592 751.305 495.936 749.385 495.936C747.465 495.936 745.881 496.592 744.633 497.904C743.385 499.184 742.761 500.912 742.761 503.088C742.761 505.264 743.385 507.008 744.633 508.32C745.881 509.6 747.465 510.24 749.385 510.24ZM794.566 490.176V516H787.462V512.928C786.47 514.048 785.286 514.912 783.91 515.52C782.534 516.096 781.046 516.384 779.446 516.384C776.054 516.384 773.366 515.408 771.382 513.456C769.398 511.504 768.406 508.608 768.406 504.768V490.176H775.894V503.664C775.894 507.824 777.638 509.904 781.126 509.904C782.918 509.904 784.358 509.328 785.446 508.176C786.534 506.992 787.078 505.248 787.078 502.944V490.176H794.566ZM808.655 493.584C809.551 492.336 810.751 491.392 812.255 490.752C813.791 490.112 815.551 489.792 817.535 489.792V496.704C816.703 496.64 816.143 496.608 815.855 496.608C813.711 496.608 812.031 497.216 810.815 498.432C809.599 499.616 808.991 501.408 808.991 503.808V516H801.503V490.176H808.655V493.584ZM848.057 516.384C845.337 516.384 842.889 515.824 840.713 514.704C838.569 513.552 836.889 511.968 835.673 509.952C834.457 507.936 833.849 505.648 833.849 503.088C833.849 500.528 834.457 498.24 835.673 496.224C836.889 494.208 838.569 492.64 840.713 491.52C842.889 490.368 845.337 489.792 848.057 489.792C850.777 489.792 853.209 490.368 855.353 491.52C857.497 492.64 859.177 494.208 860.393 496.224C861.609 498.24 862.217 500.528 862.217 503.088C862.217 505.648 861.609 507.936 860.393 509.952C859.177 511.968 857.497 513.552 855.353 514.704C853.209 515.824 850.777 516.384 848.057 516.384ZM848.057 510.24C849.977 510.24 851.545 509.6 852.761 508.32C854.009 507.008 854.633 505.264 854.633 503.088C854.633 500.912 854.009 499.184 852.761 497.904C851.545 496.592 849.977 495.936 848.057 495.936C846.137 495.936 844.553 496.592 843.305 497.904C842.057 499.184 841.433 500.912 841.433 503.088C841.433 505.264 842.057 507.008 843.305 508.32C844.553 509.6 846.137 510.24 848.057 510.24ZM907.991 490.176L898.631 516H891.431L885.623 499.968L879.623 516H872.423L863.111 490.176H870.167L876.263 507.648L882.599 490.176H888.935L895.079 507.648L901.367 490.176H907.991ZM927.168 489.792C930.368 489.792 932.944 490.752 934.896 492.672C936.88 494.592 937.872 497.44 937.872 501.216V516H930.384V502.368C930.384 500.32 929.936 498.8 929.04 497.808C928.144 496.784 926.848 496.272 925.152 496.272C923.264 496.272 921.76 496.864 920.64 498.048C919.52 499.2 918.96 500.928 918.96 503.232V516H911.472V490.176H918.624V493.2C919.616 492.112 920.848 491.28 922.32 490.704C923.792 490.096 925.408 489.792 927.168 489.792ZM973.949 489.792C977.149 489.792 979.725 490.752 981.677 492.672C983.661 494.592 984.653 497.44 984.653 501.216V516H977.165V502.368C977.165 500.32 976.717 498.8 975.821 497.808C974.925 496.784 973.629 496.272 971.933 496.272C970.045 496.272 968.541 496.864 967.421 498.048C966.301 499.2 965.741 500.928 965.741 503.232V516H958.253V480.384H965.741V492.864C966.733 491.872 967.933 491.12 969.341 490.608C970.749 490.064 972.285 489.792 973.949 489.792ZM1004.01 516.384C1001.29 516.384 998.842 515.824 996.666 514.704C994.522 513.552 992.842 511.968 991.626 509.952C990.41 507.936 989.802 505.648 989.802 503.088C989.802 500.528 990.41 498.24 991.626 496.224C992.842 494.208 994.522 492.64 996.666 491.52C998.842 490.368 1001.29 489.792 1004.01 489.792C1006.73 489.792 1009.16 490.368 1011.31 491.52C1013.45 492.64 1015.13 494.208 1016.35 496.224C1017.56 498.24 1018.17 500.528 1018.17 503.088C1018.17 505.648 1017.56 507.936 1016.35 509.952C1015.13 511.968 1013.45 513.552 1011.31 514.704C1009.16 515.824 1006.73 516.384 1004.01 516.384ZM1004.01 510.24C1005.93 510.24 1007.5 509.6 1008.71 508.32C1009.96 507.008 1010.59 505.264 1010.59 503.088C1010.59 500.912 1009.96 499.184 1008.71 497.904C1007.5 496.592 1005.93 495.936 1004.01 495.936C1002.09 495.936 1000.51 496.592 999.258 497.904C998.01 499.184 997.386 500.912 997.386 503.088C997.386 505.264 998.01 507.008 999.258 508.32C1000.51 509.6 1002.09 510.24 1004.01 510.24ZM1056.25 489.792C1059.48 489.792 1062.04 490.752 1063.93 492.672C1065.85 494.56 1066.81 497.408 1066.81 501.216V516H1059.32V502.368C1059.32 500.32 1058.89 498.8 1058.02 497.808C1057.19 496.784 1055.99 496.272 1054.42 496.272C1052.66 496.272 1051.27 496.848 1050.25 498C1049.22 499.12 1048.71 500.8 1048.71 503.04V516H1041.22V502.368C1041.22 498.304 1039.59 496.272 1036.33 496.272C1034.6 496.272 1033.22 496.848 1032.2 498C1031.17 499.12 1030.66 500.8 1030.66 503.04V516H1023.17V490.176H1030.33V493.152C1031.29 492.064 1032.45 491.232 1033.83 490.656C1035.24 490.08 1036.77 489.792 1038.44 489.792C1040.26 489.792 1041.91 490.16 1043.38 490.896C1044.85 491.6 1046.04 492.64 1046.93 494.016C1047.99 492.672 1049.32 491.632 1050.92 490.896C1052.55 490.16 1054.33 489.792 1056.25 489.792ZM1099.1 503.184C1099.1 503.28 1099.05 503.952 1098.95 505.2H1079.42C1079.77 506.8 1080.6 508.064 1081.91 508.992C1083.22 509.92 1084.86 510.384 1086.81 510.384C1088.15 510.384 1089.34 510.192 1090.36 509.808C1091.42 509.392 1092.39 508.752 1093.29 507.888L1097.27 512.208C1094.84 514.992 1091.29 516.384 1086.62 516.384C1083.7 516.384 1081.13 515.824 1078.89 514.704C1076.65 513.552 1074.92 511.968 1073.7 509.952C1072.49 507.936 1071.88 505.648 1071.88 503.088C1071.88 500.56 1072.47 498.288 1073.66 496.272C1074.87 494.224 1076.52 492.64 1078.6 491.52C1080.71 490.368 1083.06 489.792 1085.66 489.792C1088.18 489.792 1090.47 490.336 1092.52 491.424C1094.57 492.512 1096.17 494.08 1097.32 496.128C1098.5 498.144 1099.1 500.496 1099.1 503.184ZM1085.7 495.456C1084.01 495.456 1082.58 495.936 1081.43 496.896C1080.28 497.856 1079.58 499.168 1079.32 500.832H1092.04C1091.78 499.2 1091.08 497.904 1089.93 496.944C1088.78 495.952 1087.37 495.456 1085.7 495.456ZM1103.12 482.4H1112.05L1110.56 504.336H1104.61L1103.12 482.4ZM1107.59 516.384C1106.27 516.384 1105.17 515.968 1104.27 515.136C1103.41 514.272 1102.98 513.232 1102.98 512.016C1102.98 510.8 1103.41 509.792 1104.27 508.992C1105.14 508.16 1106.24 507.744 1107.59 507.744C1108.93 507.744 1110.03 508.16 1110.9 508.992C1111.76 509.792 1112.19 510.8 1112.19 512.016C1112.19 513.232 1111.75 514.272 1110.85 515.136C1109.99 515.968 1108.9 516.384 1107.59 516.384Z" fill="black"/>
<rect x="595" y="646" width="250" height="72" rx="20" fill="#C4C4C4"/>
<path d="M647.047 691.281C651.266 691.281 653.855 689.195 653.855 685.891C653.855 683.324 652.309 681.883 648.723 681.168L646.941 680.805C644.938 680.406 644.129 679.762 644.129 678.719C644.129 677.477 645.289 676.656 647.035 676.656C648.488 676.656 649.578 677.184 650.141 678.461C650.539 679.188 651.031 679.504 651.828 679.504C652.73 679.504 653.34 678.93 653.34 678.086C653.34 677.781 653.293 677.535 653.211 677.301C652.461 675.098 650.129 673.797 647.035 673.797C643.273 673.797 640.578 675.848 640.578 678.941C640.578 681.461 642.23 683.078 645.605 683.746L647.398 684.098C649.52 684.531 650.316 685.164 650.316 686.277C650.316 687.52 649.027 688.434 647.129 688.434C645.512 688.434 644.188 687.848 643.637 686.559C643.215 685.809 642.734 685.527 642.008 685.527C641.094 685.527 640.449 686.148 640.449 687.086C640.449 687.402 640.52 687.73 640.637 688.035C641.316 689.887 643.555 691.281 647.047 691.281ZM656.645 687.789C656.645 690.004 657.805 691.141 660.09 691.141H660.207C661.648 691.141 662.633 690.625 662.633 689.617C662.633 688.82 662.176 688.469 661.332 688.375L661.109 688.352C660.371 688.293 660.066 687.918 660.066 687.027V681.016H661.273C662.082 681.016 662.586 680.512 662.586 679.727C662.586 678.941 662.082 678.438 661.273 678.438H660.066V677.043C660.066 675.941 659.422 675.262 658.355 675.262C657.289 675.262 656.645 675.941 656.645 677.043V678.438H655.988C655.18 678.438 654.664 678.93 654.664 679.727C654.664 680.523 655.18 681.016 655.988 681.016H656.645V687.789ZM667.859 691.199C669.43 691.199 671 690.414 671.703 689.078H671.773V689.723C671.844 690.73 672.488 691.246 673.414 691.246C674.387 691.246 675.078 690.66 675.078 689.523V682.363C675.078 679.832 672.98 678.168 669.758 678.168C667.156 678.168 665.141 679.094 664.555 680.594C664.438 680.852 664.379 681.098 664.379 681.367C664.379 682.141 664.977 682.68 665.809 682.68C666.359 682.68 666.793 682.469 667.168 682.047C667.93 681.062 668.562 680.723 669.605 680.723C670.895 680.723 671.715 681.402 671.715 682.574V683.406L668.551 683.594C665.41 683.781 663.652 685.105 663.652 687.391C663.652 689.652 665.469 691.199 667.859 691.199ZM668.984 688.727C667.836 688.727 667.062 688.141 667.062 687.203C667.062 686.312 667.789 685.738 669.066 685.645L671.715 685.48V686.395C671.715 687.754 670.484 688.727 668.984 688.727ZM679.004 691.246C680.047 691.246 680.715 690.602 680.715 689.465V683.887C680.715 682.398 681.266 681.52 682.824 681.496C683.492 681.484 683.984 681.332 684.312 681.051C684.641 680.77 684.805 680.359 684.805 679.82C684.805 679.234 684.641 678.812 684.312 678.555C684.066 678.344 683.703 678.238 683.246 678.238C681.992 678.238 680.961 679.164 680.633 680.723H680.562V679.902C680.562 678.812 679.906 678.18 678.945 678.18C677.961 678.18 677.293 678.812 677.293 679.902V689.465C677.293 690.602 677.973 691.246 679.004 691.246ZM686.949 687.789C686.949 690.004 688.109 691.141 690.395 691.141H690.512C691.953 691.141 692.938 690.625 692.938 689.617C692.938 688.82 692.48 688.469 691.637 688.375L691.414 688.352C690.676 688.293 690.371 687.918 690.371 687.027V681.016H691.578C692.387 681.016 692.891 680.512 692.891 679.727C692.891 678.941 692.387 678.438 691.578 678.438H690.371V677.043C690.371 675.941 689.727 675.262 688.66 675.262C687.594 675.262 686.949 675.941 686.949 677.043V678.438H686.293C685.484 678.438 684.969 678.93 684.969 679.727C684.969 680.523 685.484 681.016 686.293 681.016H686.949V687.789ZM701.387 691H709.156C710.129 691 710.762 690.449 710.762 689.535C710.762 688.621 710.117 688.07 709.156 688.07H703.156V675.707C703.156 674.535 702.5 673.855 701.387 673.855C700.273 673.855 699.617 674.535 699.617 675.707V689.148C699.617 690.32 700.273 691 701.387 691ZM717.945 691.27C720.371 691.27 722.316 690.355 723.148 688.809C723.301 688.527 723.383 688.246 723.383 687.977C723.383 687.191 722.785 686.723 722.047 686.723C721.602 686.723 721.297 686.852 720.934 687.227C720.008 688.316 719.188 688.738 717.934 688.738C716.199 688.738 715.074 687.52 715.074 685.656V685.504H722.246C723.195 685.504 723.734 684.965 723.734 684.016C723.734 680.605 721.344 678.168 717.781 678.168C714.066 678.168 711.711 680.734 711.711 684.777C711.711 688.844 714.02 691.27 717.945 691.27ZM715.109 683.406C715.227 681.801 716.316 680.699 717.816 680.699C719.316 680.699 720.371 681.766 720.441 683.406H715.109ZM729.219 691.199C730.789 691.199 732.359 690.414 733.062 689.078H733.133V689.723C733.203 690.73 733.848 691.246 734.773 691.246C735.746 691.246 736.438 690.66 736.438 689.523V682.363C736.438 679.832 734.34 678.168 731.117 678.168C728.516 678.168 726.5 679.094 725.914 680.594C725.797 680.852 725.738 681.098 725.738 681.367C725.738 682.141 726.336 682.68 727.168 682.68C727.719 682.68 728.152 682.469 728.527 682.047C729.289 681.062 729.922 680.723 730.965 680.723C732.254 680.723 733.074 681.402 733.074 682.574V683.406L729.91 683.594C726.77 683.781 725.012 685.105 725.012 687.391C725.012 689.652 726.828 691.199 729.219 691.199ZM730.344 688.727C729.195 688.727 728.422 688.141 728.422 687.203C728.422 686.312 729.148 685.738 730.426 685.645L733.074 685.48V686.395C733.074 687.754 731.844 688.727 730.344 688.727ZM740.363 691.246C741.406 691.246 742.074 690.602 742.074 689.465V683.887C742.074 682.398 742.625 681.52 744.184 681.496C744.852 681.484 745.344 681.332 745.672 681.051C746 680.77 746.164 680.359 746.164 679.82C746.164 679.234 746 678.812 745.672 678.555C745.426 678.344 745.062 678.238 744.605 678.238C743.352 678.238 742.32 679.164 741.992 680.723H741.922V679.902C741.922 678.812 741.266 678.18 740.305 678.18C739.32 678.18 738.652 678.812 738.652 679.902V689.465C738.652 690.602 739.332 691.246 740.363 691.246ZM749.105 691.246C750.113 691.246 750.816 690.637 750.816 689.465V683.793C750.816 682.164 751.789 681.039 753.324 681.039C754.859 681.039 755.633 681.977 755.633 683.617V689.465C755.633 690.637 756.336 691.246 757.344 691.246C758.34 691.246 759.055 690.637 759.055 689.465V682.902C759.055 679.961 757.484 678.203 754.695 678.203C752.762 678.203 751.496 679.059 750.828 680.617H750.758V679.914C750.758 678.836 750.078 678.18 749.047 678.18C748.016 678.18 747.395 678.836 747.395 679.902V689.465C747.395 690.637 748.109 691.246 749.105 691.246ZM762.992 676.879C764.023 676.879 764.82 676.094 764.82 675.109C764.82 674.113 764.023 673.34 762.992 673.34C761.961 673.34 761.164 674.113 761.164 675.109C761.164 676.094 761.961 676.879 762.992 676.879ZM762.992 691.246C764.047 691.246 764.703 690.578 764.703 689.465V679.973C764.703 678.859 764.047 678.18 762.992 678.18C761.926 678.18 761.281 678.859 761.281 679.973V689.465C761.281 690.578 761.926 691.246 762.992 691.246ZM768.699 691.246C769.707 691.246 770.41 690.637 770.41 689.465V683.793C770.41 682.164 771.383 681.039 772.918 681.039C774.453 681.039 775.227 681.977 775.227 683.617V689.465C775.227 690.637 775.93 691.246 776.938 691.246C777.934 691.246 778.648 690.637 778.648 689.465V682.902C778.648 679.961 777.078 678.203 774.289 678.203C772.355 678.203 771.09 679.059 770.422 680.617H770.352V679.914C770.352 678.836 769.672 678.18 768.641 678.18C767.609 678.18 766.988 678.836 766.988 679.902V689.465C766.988 690.637 767.703 691.246 768.699 691.246ZM786.43 695.723C790.473 695.746 792.84 693.777 792.84 690.508V679.914C792.84 678.754 792.125 678.18 791.141 678.18C790.156 678.18 789.418 678.754 789.418 679.914V680.605H789.348C788.691 679.188 787.32 678.238 785.516 678.238C782.281 678.238 780.359 680.57 780.359 684.508C780.359 688.34 782.328 690.73 785.457 690.73C787.273 690.73 788.738 689.828 789.324 688.48H789.395V690.484C789.395 692.055 788.293 693.086 786.418 693.074C785.281 693.062 784.391 692.582 783.465 691.703C783.078 691.352 782.727 691.211 782.281 691.211C781.426 691.211 780.887 691.75 780.887 692.465C780.887 692.781 780.957 693.098 781.145 693.414C781.953 694.738 783.863 695.711 786.43 695.723ZM786.617 688.188C784.918 688.188 783.863 686.84 783.863 684.543C783.863 682.27 784.93 680.84 786.617 680.84C788.328 680.84 789.43 682.293 789.43 684.555C789.43 686.828 788.328 688.188 786.617 688.188ZM797.75 685.598C798.723 685.598 799.238 685.012 799.273 684.016L799.449 675.906C799.461 675.789 799.461 675.648 799.461 675.555C799.461 674.477 798.805 673.832 797.762 673.832C796.707 673.832 796.039 674.477 796.039 675.555C796.039 675.648 796.051 675.789 796.051 675.906L796.238 684.016C796.262 685.012 796.777 685.598 797.75 685.598ZM797.75 691.293C798.816 691.293 799.66 690.484 799.66 689.453C799.66 688.422 798.816 687.613 797.75 687.613C796.684 687.613 795.84 688.422 795.84 689.453C795.84 690.484 796.684 691.293 797.75 691.293Z" fill="#3A3A3A"/>
</g>
<defs>
<clipPath id="clip0">
<rect width="1440" height="1024" fill="white"/>
</clipPath>
<clipPath id="clip1">
<rect x="1304" y="796.886" width="7" height="12" transform="rotate(90 1304 796.886)" fill="white"/>
</clipPath>
</defs>
</svg>
