<svg width="1440" height="1024" viewBox="0 0 1440 1024" fill="none" xmlns="http://www.w3.org/2000/svg">
<rect width="1440" height="1024" fill="white"/>
<rect width="1440" height="92" fill="#DCDCDC"/>
<path d="M646.552 59L646.48 47.516L641.008 56.732H637.264L631.792 47.912V59H624.052V33.8H631.036L639.244 47.228L647.236 33.8H654.22L654.292 59H646.552ZM671.612 59.576C668.9 59.576 666.464 59.012 664.304 57.884C662.144 56.756 660.452 55.196 659.228 53.204C658.004 51.188 657.392 48.92 657.392 46.4C657.392 43.88 658.004 41.624 659.228 39.632C660.452 37.616 662.144 36.044 664.304 34.916C666.464 33.788 668.9 33.224 671.612 33.224C674.324 33.224 676.76 33.788 678.92 34.916C681.08 36.044 682.772 37.616 683.996 39.632C685.22 41.624 685.832 43.88 685.832 46.4C685.832 48.92 685.22 51.188 683.996 53.204C682.772 55.196 681.08 56.756 678.92 57.884C676.76 59.012 674.324 59.576 671.612 59.576ZM671.612 52.7C672.668 52.7 673.616 52.448 674.456 51.944C675.32 51.416 676.004 50.684 676.508 49.748C677.012 48.788 677.264 47.672 677.264 46.4C677.264 45.128 677.012 44.024 676.508 43.088C676.004 42.128 675.32 41.396 674.456 40.892C673.616 40.364 672.668 40.1 671.612 40.1C670.556 40.1 669.596 40.364 668.732 40.892C667.892 41.396 667.22 42.128 666.716 43.088C666.212 44.024 665.96 45.128 665.96 46.4C665.96 47.672 666.212 48.788 666.716 49.748C667.22 50.684 667.892 51.416 668.732 51.944C669.596 52.448 670.556 52.7 671.612 52.7ZM702.127 59.576C699.415 59.576 696.979 59.012 694.819 57.884C692.659 56.756 690.967 55.196 689.743 53.204C688.519 51.188 687.907 48.92 687.907 46.4C687.907 43.88 688.519 41.624 689.743 39.632C690.967 37.616 692.659 36.044 694.819 34.916C696.979 33.788 699.415 33.224 702.127 33.224C704.839 33.224 707.275 33.788 709.435 34.916C711.595 36.044 713.287 37.616 714.511 39.632C715.735 41.624 716.347 43.88 716.347 46.4C716.347 48.92 715.735 51.188 714.511 53.204C713.287 55.196 711.595 56.756 709.435 57.884C707.275 59.012 704.839 59.576 702.127 59.576ZM702.127 52.7C703.183 52.7 704.131 52.448 704.971 51.944C705.835 51.416 706.519 50.684 707.023 49.748C707.527 48.788 707.779 47.672 707.779 46.4C707.779 45.128 707.527 44.024 707.023 43.088C706.519 42.128 705.835 41.396 704.971 40.892C704.131 40.364 703.183 40.1 702.127 40.1C701.071 40.1 700.111 40.364 699.247 40.892C698.407 41.396 697.735 42.128 697.231 43.088C696.727 44.024 696.475 45.128 696.475 46.4C696.475 47.672 696.727 48.788 697.231 49.748C697.735 50.684 698.407 51.416 699.247 51.944C700.111 52.448 701.071 52.7 702.127 52.7ZM728.827 59.576C726.739 59.576 724.699 59.348 722.707 58.892C720.739 58.412 719.119 57.776 717.847 56.984L720.583 50.792C721.783 51.488 723.127 52.052 724.615 52.484C726.103 52.892 727.531 53.096 728.899 53.096C730.075 53.096 730.915 52.988 731.419 52.772C731.923 52.532 732.175 52.184 732.175 51.728C732.175 51.2 731.839 50.804 731.167 50.54C730.519 50.276 729.439 49.988 727.927 49.676C725.983 49.268 724.363 48.836 723.067 48.38C721.771 47.9 720.643 47.132 719.683 46.076C718.723 44.996 718.243 43.544 718.243 41.72C718.243 40.136 718.687 38.696 719.575 37.4C720.463 36.104 721.783 35.084 723.535 34.34C725.311 33.596 727.459 33.224 729.979 33.224C731.707 33.224 733.399 33.416 735.055 33.8C736.735 34.16 738.211 34.7 739.483 35.42L736.927 41.576C734.455 40.328 732.115 39.704 729.907 39.704C727.723 39.704 726.631 40.232 726.631 41.288C726.631 41.792 726.955 42.176 727.603 42.44C728.251 42.68 729.319 42.944 730.807 43.232C732.727 43.592 734.347 44.012 735.667 44.492C736.987 44.948 738.127 45.704 739.087 46.76C740.071 47.816 740.563 49.256 740.563 51.08C740.563 52.664 740.119 54.104 739.231 55.4C738.343 56.672 737.011 57.692 735.235 58.46C733.483 59.204 731.347 59.576 728.827 59.576ZM764.043 52.592V59H743.091V33.8H763.575V40.208H751.443V43.16H762.099V49.28H751.443V52.592H764.043Z" fill="#3A3A3A"/>
<circle cx="799" cy="45" r="18" fill="#C4C4C4"/>
<circle cx="1388" cy="46" r="28" fill="#C4C4C4"/>
<path d="M1268.73 39.4V52H1266.93V46.384H1259.69V52H1257.89V39.4H1259.69V44.818H1266.93V39.4H1268.73ZM1272.25 42.46H1273.97V52H1272.25V42.46ZM1273.11 40.624C1272.77 40.624 1272.49 40.516 1272.26 40.3C1272.05 40.084 1271.94 39.82 1271.94 39.508C1271.94 39.196 1272.05 38.932 1272.26 38.716C1272.49 38.488 1272.77 38.374 1273.11 38.374C1273.45 38.374 1273.72 38.482 1273.94 38.698C1274.17 38.902 1274.28 39.16 1274.28 39.472C1274.28 39.796 1274.17 40.072 1273.94 40.3C1273.72 40.516 1273.45 40.624 1273.11 40.624ZM1277.7 49.642C1278.04 49.642 1278.32 49.762 1278.53 50.002C1278.76 50.23 1278.87 50.518 1278.87 50.866C1278.87 51.046 1278.85 51.22 1278.8 51.388C1278.77 51.556 1278.69 51.814 1278.57 52.162L1277.72 54.664H1276.59L1277.25 51.982C1277.03 51.898 1276.84 51.76 1276.7 51.568C1276.56 51.364 1276.5 51.13 1276.5 50.866C1276.5 50.506 1276.61 50.212 1276.84 49.984C1277.07 49.756 1277.36 49.642 1277.7 49.642ZM1288.06 52.144C1287.3 52.144 1286.6 51.988 1285.95 51.676C1285.3 51.352 1284.78 50.902 1284.38 50.326L1285.43 49.102C1286.12 50.098 1287 50.596 1288.06 50.596C1288.76 50.596 1289.3 50.38 1289.66 49.948C1290.03 49.516 1290.22 48.88 1290.22 48.04V40.966H1285.66V39.4H1292V47.95C1292 49.342 1291.66 50.392 1290.99 51.1C1290.33 51.796 1289.35 52.144 1288.06 52.144ZM1304.04 47.284C1304.04 47.416 1304.02 47.59 1304 47.806H1296.26C1296.37 48.646 1296.73 49.324 1297.36 49.84C1297.99 50.344 1298.78 50.596 1299.72 50.596C1300.86 50.596 1301.77 50.212 1302.47 49.444L1303.42 50.56C1302.99 51.064 1302.45 51.448 1301.8 51.712C1301.17 51.976 1300.45 52.108 1299.66 52.108C1298.65 52.108 1297.76 51.904 1296.98 51.496C1296.2 51.076 1295.59 50.494 1295.16 49.75C1294.74 49.006 1294.53 48.166 1294.53 47.23C1294.53 46.306 1294.74 45.472 1295.14 44.728C1295.56 43.984 1296.13 43.408 1296.85 43C1297.59 42.58 1298.41 42.37 1299.32 42.37C1300.23 42.37 1301.04 42.58 1301.75 43C1302.47 43.408 1303.03 43.984 1303.42 44.728C1303.83 45.472 1304.04 46.324 1304.04 47.284ZM1299.32 43.828C1298.49 43.828 1297.8 44.08 1297.23 44.584C1296.68 45.088 1296.36 45.748 1296.26 46.564H1302.38C1302.28 45.76 1301.95 45.106 1301.39 44.602C1300.84 44.086 1300.15 43.828 1299.32 43.828ZM1311.53 42.37C1312.74 42.37 1313.7 42.724 1314.41 43.432C1315.13 44.128 1315.49 45.154 1315.49 46.51V52H1313.76V46.708C1313.76 45.784 1313.54 45.088 1313.09 44.62C1312.65 44.152 1312.01 43.918 1311.19 43.918C1310.25 43.918 1309.51 44.194 1308.97 44.746C1308.43 45.286 1308.16 46.066 1308.16 47.086V52H1306.43V42.46H1308.09V43.9C1308.44 43.408 1308.91 43.03 1309.49 42.766C1310.09 42.502 1310.77 42.37 1311.53 42.37ZM1323.78 42.37C1324.99 42.37 1325.95 42.724 1326.66 43.432C1327.38 44.128 1327.74 45.154 1327.74 46.51V52H1326.01V46.708C1326.01 45.784 1325.79 45.088 1325.35 44.62C1324.9 44.152 1324.27 43.918 1323.44 43.918C1322.5 43.918 1321.76 44.194 1321.22 44.746C1320.68 45.286 1320.41 46.066 1320.41 47.086V52H1318.69V42.46H1320.34V43.9C1320.69 43.408 1321.16 43.03 1321.75 42.766C1322.35 42.502 1323.02 42.37 1323.78 42.37ZM1339.21 42.46L1334.58 52.954C1334.17 53.926 1333.69 54.61 1333.14 55.006C1332.6 55.402 1331.95 55.6 1331.18 55.6C1330.71 55.6 1330.25 55.522 1329.81 55.366C1329.38 55.222 1329.02 55.006 1328.73 54.718L1329.47 53.422C1329.96 53.89 1330.53 54.124 1331.18 54.124C1331.6 54.124 1331.95 54.01 1332.22 53.782C1332.51 53.566 1332.77 53.188 1333 52.648L1333.3 51.982L1329.09 42.46H1330.89L1334.22 50.092L1337.51 42.46H1339.21ZM1340.58 39.4H1342.62L1342.28 48.022H1340.91L1340.58 39.4ZM1341.61 52.108C1341.27 52.108 1340.99 52 1340.76 51.784C1340.54 51.556 1340.42 51.28 1340.42 50.956C1340.42 50.632 1340.54 50.362 1340.76 50.146C1340.99 49.918 1341.27 49.804 1341.61 49.804C1341.95 49.804 1342.22 49.918 1342.44 50.146C1342.65 50.362 1342.76 50.632 1342.76 50.956C1342.76 51.28 1342.65 51.556 1342.42 51.784C1342.2 52 1341.93 52.108 1341.61 52.108Z" fill="black"/>
<path d="M37.572 52L37.554 42.82L33 50.47H32.172L27.618 42.874V52H25.89V39.4H27.366L32.622 48.256L37.806 39.4H39.282L39.3 52H37.572ZM51.4514 47.284C51.4514 47.416 51.4394 47.59 51.4154 47.806H43.6754C43.7834 48.646 44.1494 49.324 44.7734 49.84C45.4094 50.344 46.1954 50.596 47.1314 50.596C48.2714 50.596 49.1894 50.212 49.8854 49.444L50.8394 50.56C50.4074 51.064 49.8674 51.448 49.2194 51.712C48.5834 51.976 47.8694 52.108 47.0774 52.108C46.0694 52.108 45.1754 51.904 44.3954 51.496C43.6154 51.076 43.0094 50.494 42.5774 49.75C42.1574 49.006 41.9474 48.166 41.9474 47.23C41.9474 46.306 42.1514 45.472 42.5594 44.728C42.9794 43.984 43.5494 43.408 44.2694 43C45.0014 42.58 45.8234 42.37 46.7354 42.37C47.6474 42.37 48.4574 42.58 49.1654 43C49.8854 43.408 50.4434 43.984 50.8394 44.728C51.2474 45.472 51.4514 46.324 51.4514 47.284ZM46.7354 43.828C45.9074 43.828 45.2114 44.08 44.6474 44.584C44.0954 45.088 43.7714 45.748 43.6754 46.564H49.7954C49.6994 45.76 49.3694 45.106 48.8054 44.602C48.2534 44.086 47.5634 43.828 46.7354 43.828ZM58.9449 42.37C60.1569 42.37 61.1169 42.724 61.8249 43.432C62.5449 44.128 62.9049 45.154 62.9049 46.51V52H61.1769V46.708C61.1769 45.784 60.9549 45.088 60.5109 44.62C60.0669 44.152 59.4309 43.918 58.6029 43.918C57.6669 43.918 56.9289 44.194 56.3889 44.746C55.8489 45.286 55.5789 46.066 55.5789 47.086V52H53.8509V42.46H55.5069V43.9C55.8549 43.408 56.3229 43.03 56.9109 42.766C57.5109 42.502 58.1889 42.37 58.9449 42.37ZM71.4668 51.442C71.2148 51.658 70.9028 51.826 70.5308 51.946C70.1588 52.054 69.7748 52.108 69.3788 52.108C68.4188 52.108 67.6748 51.85 67.1468 51.334C66.6188 50.818 66.3548 50.08 66.3548 49.12V43.882H64.7348V42.46H66.3548V40.372H68.0828V42.46H70.8188V43.882H68.0828V49.048C68.0828 49.564 68.2088 49.96 68.4608 50.236C68.7248 50.512 69.0968 50.65 69.5768 50.65C70.1048 50.65 70.5548 50.5 70.9268 50.2L71.4668 51.442ZM77.03 42.37C78.35 42.37 79.358 42.694 80.054 43.342C80.762 43.99 81.116 44.956 81.116 46.24V52H79.478V50.74C79.19 51.184 78.776 51.526 78.236 51.766C77.708 51.994 77.078 52.108 76.346 52.108C75.278 52.108 74.42 51.85 73.772 51.334C73.136 50.818 72.818 50.14 72.818 49.3C72.818 48.46 73.124 47.788 73.736 47.284C74.348 46.768 75.32 46.51 76.652 46.51H79.388V46.168C79.388 45.424 79.172 44.854 78.74 44.458C78.308 44.062 77.672 43.864 76.832 43.864C76.268 43.864 75.716 43.96 75.176 44.152C74.636 44.332 74.18 44.578 73.808 44.89L73.088 43.594C73.58 43.198 74.168 42.898 74.852 42.694C75.536 42.478 76.262 42.37 77.03 42.37ZM76.634 50.776C77.294 50.776 77.864 50.632 78.344 50.344C78.824 50.044 79.172 49.624 79.388 49.084V47.752H76.724C75.26 47.752 74.528 48.244 74.528 49.228C74.528 49.708 74.714 50.086 75.086 50.362C75.458 50.638 75.974 50.776 76.634 50.776ZM84.3138 38.644H86.0418V52H84.3138V38.644ZM105.263 39.4V52H103.463V46.384H96.2271V52H94.4271V39.4H96.2271V44.818H103.463V39.4H105.263ZM117.405 47.284C117.405 47.416 117.393 47.59 117.369 47.806H109.629C109.737 48.646 110.103 49.324 110.727 49.84C111.363 50.344 112.149 50.596 113.085 50.596C114.225 50.596 115.143 50.212 115.839 49.444L116.793 50.56C116.361 51.064 115.821 51.448 115.173 51.712C114.537 51.976 113.823 52.108 113.031 52.108C112.023 52.108 111.129 51.904 110.349 51.496C109.569 51.076 108.963 50.494 108.531 49.75C108.111 49.006 107.901 48.166 107.901 47.23C107.901 46.306 108.105 45.472 108.513 44.728C108.933 43.984 109.503 43.408 110.223 43C110.955 42.58 111.777 42.37 112.689 42.37C113.601 42.37 114.411 42.58 115.119 43C115.839 43.408 116.397 43.984 116.793 44.728C117.201 45.472 117.405 46.324 117.405 47.284ZM112.689 43.828C111.861 43.828 111.165 44.08 110.601 44.584C110.049 45.088 109.725 45.748 109.629 46.564H115.749C115.653 45.76 115.323 45.106 114.759 44.602C114.207 44.086 113.517 43.828 112.689 43.828ZM123.014 42.37C124.334 42.37 125.342 42.694 126.038 43.342C126.746 43.99 127.1 44.956 127.1 46.24V52H125.462V50.74C125.174 51.184 124.76 51.526 124.22 51.766C123.692 51.994 123.062 52.108 122.33 52.108C121.262 52.108 120.404 51.85 119.756 51.334C119.12 50.818 118.802 50.14 118.802 49.3C118.802 48.46 119.108 47.788 119.72 47.284C120.332 46.768 121.304 46.51 122.636 46.51H125.372V46.168C125.372 45.424 125.156 44.854 124.724 44.458C124.292 44.062 123.656 43.864 122.816 43.864C122.252 43.864 121.7 43.96 121.16 44.152C120.62 44.332 120.164 44.578 119.792 44.89L119.072 43.594C119.564 43.198 120.152 42.898 120.836 42.694C121.52 42.478 122.246 42.37 123.014 42.37ZM122.618 50.776C123.278 50.776 123.848 50.632 124.328 50.344C124.808 50.044 125.156 49.624 125.372 49.084V47.752H122.708C121.244 47.752 120.512 48.244 120.512 49.228C120.512 49.708 120.698 50.086 121.07 50.362C121.442 50.638 121.958 50.776 122.618 50.776ZM130.298 38.644H132.026V52H130.298V38.644ZM140.918 51.442C140.666 51.658 140.354 51.826 139.982 51.946C139.61 52.054 139.226 52.108 138.83 52.108C137.87 52.108 137.126 51.85 136.598 51.334C136.07 50.818 135.806 50.08 135.806 49.12V43.882H134.186V42.46H135.806V40.372H137.534V42.46H140.27V43.882H137.534V49.048C137.534 49.564 137.66 49.96 137.912 50.236C138.176 50.512 138.548 50.65 139.028 50.65C139.556 50.65 140.006 50.5 140.378 50.2L140.918 51.442ZM148.101 42.37C149.313 42.37 150.273 42.724 150.981 43.432C151.701 44.128 152.061 45.154 152.061 46.51V52H150.333V46.708C150.333 45.784 150.111 45.088 149.667 44.62C149.223 44.152 148.587 43.918 147.759 43.918C146.823 43.918 146.085 44.194 145.545 44.746C145.005 45.286 144.735 46.066 144.735 47.086V52H143.007V38.644H144.735V43.81C145.095 43.354 145.563 43 146.139 42.748C146.727 42.496 147.381 42.37 148.101 42.37ZM168.769 52L166.051 48.13C165.715 48.154 165.451 48.166 165.259 48.166H162.145V52H160.345V39.4H165.259C166.891 39.4 168.175 39.79 169.111 40.57C170.047 41.35 170.515 42.424 170.515 43.792C170.515 44.764 170.275 45.592 169.795 46.276C169.315 46.96 168.631 47.458 167.743 47.77L170.731 52H168.769ZM165.205 46.636C166.345 46.636 167.215 46.39 167.815 45.898C168.415 45.406 168.715 44.704 168.715 43.792C168.715 42.88 168.415 42.184 167.815 41.704C167.215 41.212 166.345 40.966 165.205 40.966H162.145V46.636H165.205ZM181.793 47.284C181.793 47.416 181.781 47.59 181.757 47.806H174.017C174.125 48.646 174.491 49.324 175.115 49.84C175.751 50.344 176.537 50.596 177.473 50.596C178.613 50.596 179.531 50.212 180.227 49.444L181.181 50.56C180.749 51.064 180.209 51.448 179.561 51.712C178.925 51.976 178.211 52.108 177.419 52.108C176.411 52.108 175.517 51.904 174.737 51.496C173.957 51.076 173.351 50.494 172.919 49.75C172.499 49.006 172.289 48.166 172.289 47.23C172.289 46.306 172.493 45.472 172.901 44.728C173.321 43.984 173.891 43.408 174.611 43C175.343 42.58 176.165 42.37 177.077 42.37C177.989 42.37 178.799 42.58 179.507 43C180.227 43.408 180.785 43.984 181.181 44.728C181.589 45.472 181.793 46.324 181.793 47.284ZM177.077 43.828C176.249 43.828 175.553 44.08 174.989 44.584C174.437 45.088 174.113 45.748 174.017 46.564H180.137C180.041 45.76 179.711 45.106 179.147 44.602C178.595 44.086 177.905 43.828 177.077 43.828ZM186.929 52.108C186.149 52.108 185.399 52.006 184.679 51.802C183.959 51.586 183.395 51.316 182.987 50.992L183.707 49.624C184.127 49.924 184.637 50.164 185.237 50.344C185.837 50.524 186.443 50.614 187.055 50.614C188.567 50.614 189.323 50.182 189.323 49.318C189.323 49.03 189.221 48.802 189.017 48.634C188.813 48.466 188.555 48.346 188.243 48.274C187.943 48.19 187.511 48.1 186.947 48.004C186.179 47.884 185.549 47.746 185.057 47.59C184.577 47.434 184.163 47.17 183.815 46.798C183.467 46.426 183.293 45.904 183.293 45.232C183.293 44.368 183.653 43.678 184.373 43.162C185.093 42.634 186.059 42.37 187.271 42.37C187.907 42.37 188.543 42.448 189.179 42.604C189.815 42.76 190.337 42.97 190.745 43.234L190.007 44.602C189.227 44.098 188.309 43.846 187.253 43.846C186.521 43.846 185.963 43.966 185.579 44.206C185.195 44.446 185.003 44.764 185.003 45.16C185.003 45.472 185.111 45.718 185.327 45.898C185.543 46.078 185.807 46.21 186.119 46.294C186.443 46.378 186.893 46.474 187.469 46.582C188.237 46.714 188.855 46.858 189.323 47.014C189.803 47.158 190.211 47.41 190.547 47.77C190.883 48.13 191.051 48.634 191.051 49.282C191.051 50.146 190.679 50.836 189.935 51.352C189.203 51.856 188.201 52.108 186.929 52.108ZM197.296 52.108C196.348 52.108 195.496 51.898 194.74 51.478C193.984 51.058 193.39 50.482 192.958 49.75C192.538 49.006 192.328 48.166 192.328 47.23C192.328 46.294 192.538 45.46 192.958 44.728C193.39 43.984 193.984 43.408 194.74 43C195.496 42.58 196.348 42.37 197.296 42.37C198.244 42.37 199.09 42.58 199.834 43C200.59 43.408 201.178 43.984 201.598 44.728C202.03 45.46 202.246 46.294 202.246 47.23C202.246 48.166 202.03 49.006 201.598 49.75C201.178 50.482 200.59 51.058 199.834 51.478C199.09 51.898 198.244 52.108 197.296 52.108ZM197.296 50.596C197.908 50.596 198.454 50.458 198.934 50.182C199.426 49.894 199.81 49.498 200.086 48.994C200.362 48.478 200.5 47.89 200.5 47.23C200.5 46.57 200.362 45.988 200.086 45.484C199.81 44.968 199.426 44.572 198.934 44.296C198.454 44.02 197.908 43.882 197.296 43.882C196.684 43.882 196.132 44.02 195.64 44.296C195.16 44.572 194.776 44.968 194.488 45.484C194.212 45.988 194.074 46.57 194.074 47.23C194.074 47.89 194.212 48.478 194.488 48.994C194.776 49.498 195.16 49.894 195.64 50.182C196.132 50.458 196.684 50.596 197.296 50.596ZM213.528 42.46V52H211.89V50.56C211.542 51.052 211.08 51.436 210.504 51.712C209.94 51.976 209.322 52.108 208.65 52.108C207.378 52.108 206.376 51.76 205.644 51.064C204.912 50.356 204.546 49.318 204.546 47.95V42.46H206.274V47.752C206.274 48.676 206.496 49.378 206.94 49.858C207.384 50.326 208.02 50.56 208.848 50.56C209.76 50.56 210.48 50.284 211.008 49.732C211.536 49.18 211.8 48.4 211.8 47.392V42.46H213.528ZM218.474 44.062C218.774 43.51 219.218 43.09 219.806 42.802C220.394 42.514 221.108 42.37 221.948 42.37V44.044C221.852 44.032 221.72 44.026 221.552 44.026C220.616 44.026 219.878 44.308 219.338 44.872C218.81 45.424 218.546 46.216 218.546 47.248V52H216.818V42.46H218.474V44.062ZM228.148 52.108C227.176 52.108 226.306 51.898 225.538 51.478C224.782 51.058 224.188 50.482 223.756 49.75C223.324 49.006 223.108 48.166 223.108 47.23C223.108 46.294 223.324 45.46 223.756 44.728C224.188 43.984 224.782 43.408 225.538 43C226.306 42.58 227.176 42.37 228.148 42.37C229.012 42.37 229.78 42.544 230.452 42.892C231.136 43.24 231.664 43.744 232.036 44.404L230.722 45.25C230.422 44.794 230.05 44.452 229.606 44.224C229.162 43.996 228.67 43.882 228.13 43.882C227.506 43.882 226.942 44.02 226.438 44.296C225.946 44.572 225.556 44.968 225.268 45.484C224.992 45.988 224.854 46.57 224.854 47.23C224.854 47.902 224.992 48.496 225.268 49.012C225.556 49.516 225.946 49.906 226.438 50.182C226.942 50.458 227.506 50.596 228.13 50.596C228.67 50.596 229.162 50.482 229.606 50.254C230.05 50.026 230.422 49.684 230.722 49.228L232.036 50.056C231.664 50.716 231.136 51.226 230.452 51.586C229.78 51.934 229.012 52.108 228.148 52.108ZM242.754 47.284C242.754 47.416 242.742 47.59 242.718 47.806H234.978C235.086 48.646 235.452 49.324 236.076 49.84C236.712 50.344 237.498 50.596 238.434 50.596C239.574 50.596 240.492 50.212 241.188 49.444L242.142 50.56C241.71 51.064 241.17 51.448 240.522 51.712C239.886 51.976 239.172 52.108 238.38 52.108C237.372 52.108 236.478 51.904 235.698 51.496C234.918 51.076 234.312 50.494 233.88 49.75C233.46 49.006 233.25 48.166 233.25 47.23C233.25 46.306 233.454 45.472 233.862 44.728C234.282 43.984 234.852 43.408 235.572 43C236.304 42.58 237.126 42.37 238.038 42.37C238.95 42.37 239.76 42.58 240.468 43C241.188 43.408 241.746 43.984 242.142 44.728C242.55 45.472 242.754 46.324 242.754 47.284ZM238.038 43.828C237.21 43.828 236.514 44.08 235.95 44.584C235.398 45.088 235.074 45.748 234.978 46.564H241.098C241.002 45.76 240.672 45.106 240.108 44.602C239.556 44.086 238.866 43.828 238.038 43.828ZM247.89 52.108C247.11 52.108 246.36 52.006 245.64 51.802C244.92 51.586 244.356 51.316 243.948 50.992L244.668 49.624C245.088 49.924 245.598 50.164 246.198 50.344C246.798 50.524 247.404 50.614 248.016 50.614C249.528 50.614 250.284 50.182 250.284 49.318C250.284 49.03 250.182 48.802 249.978 48.634C249.774 48.466 249.516 48.346 249.204 48.274C248.904 48.19 248.472 48.1 247.908 48.004C247.14 47.884 246.51 47.746 246.018 47.59C245.538 47.434 245.124 47.17 244.776 46.798C244.428 46.426 244.254 45.904 244.254 45.232C244.254 44.368 244.614 43.678 245.334 43.162C246.054 42.634 247.02 42.37 248.232 42.37C248.868 42.37 249.504 42.448 250.14 42.604C250.776 42.76 251.298 42.97 251.706 43.234L250.968 44.602C250.188 44.098 249.27 43.846 248.214 43.846C247.482 43.846 246.924 43.966 246.54 44.206C246.156 44.446 245.964 44.764 245.964 45.16C245.964 45.472 246.072 45.718 246.288 45.898C246.504 46.078 246.768 46.21 247.08 46.294C247.404 46.378 247.854 46.474 248.43 46.582C249.198 46.714 249.816 46.858 250.284 47.014C250.764 47.158 251.172 47.41 251.508 47.77C251.844 48.13 252.012 48.634 252.012 49.282C252.012 50.146 251.64 50.836 250.896 51.352C250.164 51.856 249.162 52.108 247.89 52.108Z" fill="black"/>
<path d="M1229.19 31.375H1226.38V30.8125C1226.38 30.3649 1226.2 29.9357 1225.88 29.6193C1225.56 29.3028 1225.14 29.125 1224.69 29.125H1223.56C1223.11 29.125 1222.69 29.3028 1222.37 29.6193C1222.05 29.9357 1221.88 30.3649 1221.88 30.8125V31.375H1206.12V30.8125C1206.12 30.3649 1205.95 29.9357 1205.63 29.6193C1205.31 29.3028 1204.89 29.125 1204.44 29.125H1203.31C1202.86 29.125 1202.44 29.3028 1202.12 29.6193C1201.8 29.9357 1201.62 30.3649 1201.62 30.8125V31.375H1198.81C1198.36 31.375 1197.94 31.5528 1197.62 31.8693C1197.3 32.1857 1197.12 32.6149 1197.12 33.0625V61.1875C1197.12 61.6351 1197.3 62.0643 1197.62 62.3807C1197.94 62.6972 1198.36 62.875 1198.81 62.875H1229.19C1229.64 62.875 1230.06 62.6972 1230.38 62.3807C1230.7 62.0643 1230.88 61.6351 1230.88 61.1875V33.0625C1230.88 32.6149 1230.7 32.1857 1230.38 31.8693C1230.06 31.5528 1229.64 31.375 1229.19 31.375ZM1223 30.8125C1223 30.6633 1223.06 30.5202 1223.16 30.4148C1223.27 30.3093 1223.41 30.25 1223.56 30.25H1224.69C1224.84 30.25 1224.98 30.3093 1225.09 30.4148C1225.19 30.5202 1225.25 30.6633 1225.25 30.8125V34.1875C1225.25 34.3367 1225.19 34.4798 1225.09 34.5852C1224.98 34.6907 1224.84 34.75 1224.69 34.75H1223.56C1223.41 34.75 1223.27 34.6907 1223.16 34.5852C1223.06 34.4798 1223 34.3367 1223 34.1875V30.8125ZM1202.75 30.8125C1202.75 30.6633 1202.81 30.5202 1202.91 30.4148C1203.02 30.3093 1203.16 30.25 1203.31 30.25H1204.44C1204.59 30.25 1204.73 30.3093 1204.84 30.4148C1204.94 30.5202 1205 30.6633 1205 30.8125V34.1875C1205 34.3367 1204.94 34.4798 1204.84 34.5852C1204.73 34.6907 1204.59 34.75 1204.44 34.75H1203.31C1203.16 34.75 1203.02 34.6907 1202.91 34.5852C1202.81 34.4798 1202.75 34.3367 1202.75 34.1875V30.8125ZM1198.25 33.0625C1198.25 32.9133 1198.31 32.7702 1198.41 32.6648C1198.52 32.5593 1198.66 32.5 1198.81 32.5H1201.62V34.1875C1201.62 34.6351 1201.8 35.0643 1202.12 35.3807C1202.44 35.6972 1202.86 35.875 1203.31 35.875H1204.44C1204.89 35.875 1205.31 35.6972 1205.63 35.3807C1205.95 35.0643 1206.12 34.6351 1206.12 34.1875V32.5H1221.88V34.1875C1221.88 34.6351 1222.05 35.0643 1222.37 35.3807C1222.69 35.6972 1223.11 35.875 1223.56 35.875H1224.69C1225.14 35.875 1225.56 35.6972 1225.88 35.3807C1226.2 35.0643 1226.38 34.6351 1226.38 34.1875V32.5H1229.19C1229.34 32.5 1229.48 32.5593 1229.59 32.6648C1229.69 32.7702 1229.75 32.9133 1229.75 33.0625V37H1198.25V33.0625ZM1229.75 61.1875C1229.75 61.3367 1229.69 61.4798 1229.59 61.5852C1229.48 61.6907 1229.34 61.75 1229.19 61.75H1198.81C1198.66 61.75 1198.52 61.6907 1198.41 61.5852C1198.31 61.4798 1198.25 61.3367 1198.25 61.1875V38.125H1229.75V61.1875Z" fill="#3A3A3A"/>
<path d="M1215.12 51.625H1212.88C1212.73 51.625 1212.58 51.5657 1212.48 51.4602C1212.37 51.3548 1212.31 51.2117 1212.31 51.0625V48.8125C1212.31 48.6633 1212.37 48.5202 1212.48 48.4148C1212.58 48.3093 1212.73 48.25 1212.88 48.25H1215.12C1215.27 48.25 1215.42 48.3093 1215.52 48.4148C1215.63 48.5202 1215.69 48.6633 1215.69 48.8125V51.0625C1215.69 51.2117 1215.63 51.3548 1215.52 51.4602C1215.42 51.5657 1215.27 51.625 1215.12 51.625ZM1213.44 50.5H1214.56V49.375H1213.44V50.5Z" fill="#3A3A3A"/>
<path d="M1220.75 51.625H1218.5C1218.35 51.625 1218.21 51.5657 1218.1 51.4602C1218 51.3548 1217.94 51.2117 1217.94 51.0625V48.8125C1217.94 48.6633 1218 48.5202 1218.1 48.4148C1218.21 48.3093 1218.35 48.25 1218.5 48.25H1220.75C1220.9 48.25 1221.04 48.3093 1221.15 48.4148C1221.25 48.5202 1221.31 48.6633 1221.31 48.8125V51.0625C1221.31 51.2117 1221.25 51.3548 1221.15 51.4602C1221.04 51.5657 1220.9 51.625 1220.75 51.625ZM1219.06 50.5H1220.19V49.375H1219.06V50.5Z" fill="#3A3A3A"/>
<path d="M1209.5 51.625H1207.25C1207.1 51.625 1206.96 51.5657 1206.85 51.4602C1206.75 51.3548 1206.69 51.2117 1206.69 51.0625V48.8125C1206.69 48.6633 1206.75 48.5202 1206.85 48.4148C1206.96 48.3093 1207.1 48.25 1207.25 48.25H1209.5C1209.65 48.25 1209.79 48.3093 1209.9 48.4148C1210 48.5202 1210.06 48.6633 1210.06 48.8125V51.0625C1210.06 51.2117 1210 51.3548 1209.9 51.4602C1209.79 51.5657 1209.65 51.625 1209.5 51.625ZM1207.81 50.5H1208.94V49.375H1207.81V50.5Z" fill="#3A3A3A"/>
<path d="M1226.38 51.625H1224.12C1223.98 51.625 1223.83 51.5657 1223.73 51.4602C1223.62 51.3548 1223.56 51.2117 1223.56 51.0625V48.8125C1223.56 48.6633 1223.62 48.5202 1223.73 48.4148C1223.83 48.3093 1223.98 48.25 1224.12 48.25H1226.38C1226.52 48.25 1226.67 48.3093 1226.77 48.4148C1226.88 48.5202 1226.94 48.6633 1226.94 48.8125V51.0625C1226.94 51.2117 1226.88 51.3548 1226.77 51.4602C1226.67 51.5657 1226.52 51.625 1226.38 51.625ZM1224.69 50.5H1225.81V49.375H1224.69V50.5Z" fill="#3A3A3A"/>
<path d="M1203.88 51.625H1201.62C1201.48 51.625 1201.33 51.5657 1201.23 51.4602C1201.12 51.3548 1201.06 51.2117 1201.06 51.0625V48.8125C1201.06 48.6633 1201.12 48.5202 1201.23 48.4148C1201.33 48.3093 1201.48 48.25 1201.62 48.25H1203.88C1204.02 48.25 1204.17 48.3093 1204.27 48.4148C1204.38 48.5202 1204.44 48.6633 1204.44 48.8125V51.0625C1204.44 51.2117 1204.38 51.3548 1204.27 51.4602C1204.17 51.5657 1204.02 51.625 1203.88 51.625ZM1202.19 50.5H1203.31V49.375H1202.19V50.5Z" fill="#3A3A3A"/>
<path d="M1215.12 46H1212.88C1212.73 46 1212.58 45.9407 1212.48 45.8352C1212.37 45.7298 1212.31 45.5867 1212.31 45.4375V43.1875C1212.31 43.0383 1212.37 42.8952 1212.48 42.7898C1212.58 42.6843 1212.73 42.625 1212.88 42.625H1215.12C1215.27 42.625 1215.42 42.6843 1215.52 42.7898C1215.63 42.8952 1215.69 43.0383 1215.69 43.1875V45.4375C1215.69 45.5867 1215.63 45.7298 1215.52 45.8352C1215.42 45.9407 1215.27 46 1215.12 46ZM1213.44 44.875H1214.56V43.75H1213.44V44.875Z" fill="#3A3A3A"/>
<path d="M1220.75 46H1218.5C1218.35 46 1218.21 45.9407 1218.1 45.8352C1218 45.7298 1217.94 45.5867 1217.94 45.4375V43.1875C1217.94 43.0383 1218 42.8952 1218.1 42.7898C1218.21 42.6843 1218.35 42.625 1218.5 42.625H1220.75C1220.9 42.625 1221.04 42.6843 1221.15 42.7898C1221.25 42.8952 1221.31 43.0383 1221.31 43.1875V45.4375C1221.31 45.5867 1221.25 45.7298 1221.15 45.8352C1221.04 45.9407 1220.9 46 1220.75 46ZM1219.06 44.875H1220.19V43.75H1219.06V44.875Z" fill="#3A3A3A"/>
<path d="M1209.5 46H1207.25C1207.1 46 1206.96 45.9407 1206.85 45.8352C1206.75 45.7298 1206.69 45.5867 1206.69 45.4375V43.1875C1206.69 43.0383 1206.75 42.8952 1206.85 42.7898C1206.96 42.6843 1207.1 42.625 1207.25 42.625H1209.5C1209.65 42.625 1209.79 42.6843 1209.9 42.7898C1210 42.8952 1210.06 43.0383 1210.06 43.1875V45.4375C1210.06 45.5867 1210 45.7298 1209.9 45.8352C1209.79 45.9407 1209.65 46 1209.5 46ZM1207.81 44.875H1208.94V43.75H1207.81V44.875Z" fill="#3A3A3A"/>
<path d="M1226.38 46H1224.12C1223.98 46 1223.83 45.9407 1223.73 45.8352C1223.62 45.7298 1223.56 45.5867 1223.56 45.4375V43.1875C1223.56 43.0383 1223.62 42.8952 1223.73 42.7898C1223.83 42.6843 1223.98 42.625 1224.12 42.625H1226.38C1226.52 42.625 1226.67 42.6843 1226.77 42.7898C1226.88 42.8952 1226.94 43.0383 1226.94 43.1875V45.4375C1226.94 45.5867 1226.88 45.7298 1226.77 45.8352C1226.67 45.9407 1226.52 46 1226.38 46ZM1224.69 44.875H1225.81V43.75H1224.69V44.875Z" fill="#3A3A3A"/>
<path d="M1203.88 46H1201.62C1201.48 46 1201.33 45.9407 1201.23 45.8352C1201.12 45.7298 1201.06 45.5867 1201.06 45.4375V43.1875C1201.06 43.0383 1201.12 42.8952 1201.23 42.7898C1201.33 42.6843 1201.48 42.625 1201.62 42.625H1203.88C1204.02 42.625 1204.17 42.6843 1204.27 42.7898C1204.38 42.8952 1204.44 43.0383 1204.44 43.1875V45.4375C1204.44 45.5867 1204.38 45.7298 1204.27 45.8352C1204.17 45.9407 1204.02 46 1203.88 46ZM1202.19 44.875H1203.31V43.75H1202.19V44.875Z" fill="#3A3A3A"/>
<path d="M1215.12 57.25H1212.88C1212.73 57.25 1212.58 57.1907 1212.48 57.0852C1212.37 56.9798 1212.31 56.8367 1212.31 56.6875V54.4375C1212.31 54.2883 1212.37 54.1452 1212.48 54.0398C1212.58 53.9343 1212.73 53.875 1212.88 53.875H1215.12C1215.27 53.875 1215.42 53.9343 1215.52 54.0398C1215.63 54.1452 1215.69 54.2883 1215.69 54.4375V56.6875C1215.69 56.8367 1215.63 56.9798 1215.52 57.0852C1215.42 57.1907 1215.27 57.25 1215.12 57.25ZM1213.44 56.125H1214.56V55H1213.44V56.125Z" fill="#3A3A3A"/>
<path d="M1220.75 57.25H1218.5C1218.35 57.25 1218.21 57.1907 1218.1 57.0852C1218 56.9798 1217.94 56.8367 1217.94 56.6875V54.4375C1217.94 54.2883 1218 54.1452 1218.1 54.0398C1218.21 53.9343 1218.35 53.875 1218.5 53.875H1220.75C1220.9 53.875 1221.04 53.9343 1221.15 54.0398C1221.25 54.1452 1221.31 54.2883 1221.31 54.4375V56.6875C1221.31 56.8367 1221.25 56.9798 1221.15 57.0852C1221.04 57.1907 1220.9 57.25 1220.75 57.25ZM1219.06 56.125H1220.19V55H1219.06V56.125Z" fill="#3A3A3A"/>
<path d="M1209.5 57.25H1207.25C1207.1 57.25 1206.96 57.1907 1206.85 57.0852C1206.75 56.9798 1206.69 56.8367 1206.69 56.6875V54.4375C1206.69 54.2883 1206.75 54.1452 1206.85 54.0398C1206.96 53.9343 1207.1 53.875 1207.25 53.875H1209.5C1209.65 53.875 1209.79 53.9343 1209.9 54.0398C1210 54.1452 1210.06 54.2883 1210.06 54.4375V56.6875C1210.06 56.8367 1210 56.9798 1209.9 57.0852C1209.79 57.1907 1209.65 57.25 1209.5 57.25ZM1207.81 56.125H1208.94V55H1207.81V56.125Z" fill="#3A3A3A"/>
<path d="M1226.38 57.25H1224.12C1223.98 57.25 1223.83 57.1907 1223.73 57.0852C1223.62 56.9798 1223.56 56.8367 1223.56 56.6875V54.4375C1223.56 54.2883 1223.62 54.1452 1223.73 54.0398C1223.83 53.9343 1223.98 53.875 1224.12 53.875H1226.38C1226.52 53.875 1226.67 53.9343 1226.77 54.0398C1226.88 54.1452 1226.94 54.2883 1226.94 54.4375V56.6875C1226.94 56.8367 1226.88 56.9798 1226.77 57.0852C1226.67 57.1907 1226.52 57.25 1226.38 57.25ZM1224.69 56.125H1225.81V55H1224.69V56.125Z" fill="#3A3A3A"/>
<path d="M1203.88 57.25H1201.62C1201.48 57.25 1201.33 57.1907 1201.23 57.0852C1201.12 56.9798 1201.06 56.8367 1201.06 56.6875V54.4375C1201.06 54.2883 1201.12 54.1452 1201.23 54.0398C1201.33 53.9343 1201.48 53.875 1201.62 53.875H1203.88C1204.02 53.875 1204.17 53.9343 1204.27 54.0398C1204.38 54.1452 1204.44 54.2883 1204.44 54.4375V56.6875C1204.44 56.8367 1204.38 56.9798 1204.27 57.0852C1204.17 57.1907 1204.02 57.25 1203.88 57.25ZM1202.19 56.125H1203.31V55H1202.19V56.125Z" fill="#3A3A3A"/>
<path d="M296.319 342.4V376H291.519V361.024H272.223V376H267.423V342.4H272.223V356.848H291.519V342.4H296.319ZM316.6 376.288C314.072 376.288 311.8 375.728 309.784 374.608C307.768 373.488 306.184 371.952 305.032 370C303.912 368.016 303.352 365.776 303.352 363.28C303.352 360.784 303.912 358.56 305.032 356.608C306.184 354.624 307.768 353.088 309.784 352C311.8 350.88 314.072 350.32 316.6 350.32C319.128 350.32 321.384 350.88 323.368 352C325.384 353.088 326.952 354.624 328.072 356.608C329.224 358.56 329.8 360.784 329.8 363.28C329.8 365.776 329.224 368.016 328.072 370C326.952 371.952 325.384 373.488 323.368 374.608C321.384 375.728 319.128 376.288 316.6 376.288ZM316.6 372.256C318.232 372.256 319.688 371.888 320.968 371.152C322.28 370.384 323.304 369.328 324.04 367.984C324.776 366.608 325.144 365.04 325.144 363.28C325.144 361.52 324.776 359.968 324.04 358.624C323.304 357.248 322.28 356.192 320.968 355.456C319.688 354.72 318.232 354.352 316.6 354.352C314.968 354.352 313.496 354.72 312.184 355.456C310.904 356.192 309.88 357.248 309.112 358.624C308.376 359.968 308.008 361.52 308.008 363.28C308.008 365.04 308.376 366.608 309.112 367.984C309.88 369.328 310.904 370.384 312.184 371.152C313.496 371.888 314.968 372.256 316.6 372.256ZM373.966 350.56L364.462 376H360.046L352.702 356.704L345.262 376H340.846L331.39 350.56H335.758L343.15 370.816L350.83 350.56H354.718L362.254 370.912L369.838 350.56H373.966ZM430.028 350.56L420.524 376H416.108L408.764 356.704L401.324 376H396.908L387.452 350.56H391.82L399.212 370.816L406.892 350.56H410.78L418.316 370.912L425.9 350.56H430.028ZM443.171 350.32C446.691 350.32 449.379 351.184 451.235 352.912C453.123 354.64 454.067 357.216 454.067 360.64V376H449.699V372.64C448.931 373.824 447.827 374.736 446.387 375.376C444.979 375.984 443.299 376.288 441.347 376.288C438.499 376.288 436.211 375.6 434.483 374.224C432.787 372.848 431.939 371.04 431.939 368.8C431.939 366.56 432.755 364.768 434.387 363.424C436.019 362.048 438.611 361.36 442.163 361.36H449.459V360.448C449.459 358.464 448.883 356.944 447.731 355.888C446.579 354.832 444.883 354.304 442.643 354.304C441.139 354.304 439.667 354.56 438.227 355.072C436.787 355.552 435.571 356.208 434.579 357.04L432.659 353.584C433.971 352.528 435.539 351.728 437.363 351.184C439.187 350.608 441.123 350.32 443.171 350.32ZM442.115 372.736C443.875 372.736 445.395 372.352 446.675 371.584C447.955 370.784 448.883 369.664 449.459 368.224V364.672H442.355C438.451 364.672 436.499 365.984 436.499 368.608C436.499 369.888 436.995 370.896 437.987 371.632C438.979 372.368 440.355 372.736 442.115 372.736ZM469.891 376.288C467.811 376.288 465.811 376.016 463.891 375.472C461.971 374.896 460.467 374.176 459.379 373.312L461.299 369.664C462.419 370.464 463.779 371.104 465.379 371.584C466.979 372.064 468.595 372.304 470.227 372.304C474.259 372.304 476.275 371.152 476.275 368.848C476.275 368.08 476.003 367.472 475.459 367.024C474.915 366.576 474.227 366.256 473.395 366.064C472.595 365.84 471.443 365.6 469.939 365.344C467.891 365.024 466.211 364.656 464.899 364.24C463.619 363.824 462.515 363.12 461.587 362.128C460.659 361.136 460.195 359.744 460.195 357.952C460.195 355.648 461.155 353.808 463.075 352.432C464.995 351.024 467.571 350.32 470.803 350.32C472.499 350.32 474.195 350.528 475.891 350.944C477.587 351.36 478.979 351.92 480.067 352.624L478.099 356.272C476.019 354.928 473.571 354.256 470.755 354.256C468.803 354.256 467.315 354.576 466.291 355.216C465.267 355.856 464.755 356.704 464.755 357.76C464.755 358.592 465.043 359.248 465.619 359.728C466.195 360.208 466.899 360.56 467.731 360.784C468.595 361.008 469.795 361.264 471.331 361.552C473.379 361.904 475.027 362.288 476.275 362.704C477.555 363.088 478.643 363.76 479.539 364.72C480.435 365.68 480.883 367.024 480.883 368.752C480.883 371.056 479.891 372.896 477.907 374.272C475.955 375.616 473.283 376.288 469.891 376.288ZM499.532 340.384H504.14V376H499.532V340.384ZM535.93 363.424C535.93 363.776 535.898 364.24 535.834 364.816H515.194C515.482 367.056 516.458 368.864 518.122 370.24C519.818 371.584 521.914 372.256 524.41 372.256C527.45 372.256 529.898 371.232 531.754 369.184L534.298 372.16C533.146 373.504 531.706 374.528 529.978 375.232C528.282 375.936 526.378 376.288 524.266 376.288C521.578 376.288 519.194 375.744 517.114 374.656C515.034 373.536 513.418 371.984 512.266 370C511.146 368.016 510.586 365.776 510.586 363.28C510.586 360.816 511.13 358.592 512.218 356.608C513.338 354.624 514.858 353.088 516.778 352C518.73 350.88 520.922 350.32 523.354 350.32C525.786 350.32 527.946 350.88 529.834 352C531.754 353.088 533.242 354.624 534.298 356.608C535.386 358.592 535.93 360.864 535.93 363.424ZM523.354 354.208C521.146 354.208 519.29 354.88 517.786 356.224C516.314 357.568 515.45 359.328 515.194 361.504H531.514C531.258 359.36 530.378 357.616 528.874 356.272C527.402 354.896 525.562 354.208 523.354 354.208ZM550.89 350.32C554.41 350.32 557.098 351.184 558.954 352.912C560.842 354.64 561.786 357.216 561.786 360.64V376H557.418V372.64C556.65 373.824 555.546 374.736 554.106 375.376C552.698 375.984 551.018 376.288 549.066 376.288C546.218 376.288 543.93 375.6 542.202 374.224C540.506 372.848 539.658 371.04 539.658 368.8C539.658 366.56 540.474 364.768 542.106 363.424C543.738 362.048 546.33 361.36 549.882 361.36H557.178V360.448C557.178 358.464 556.602 356.944 555.45 355.888C554.298 354.832 552.602 354.304 550.362 354.304C548.858 354.304 547.386 354.56 545.946 355.072C544.506 355.552 543.29 356.208 542.298 357.04L540.378 353.584C541.69 352.528 543.258 351.728 545.082 351.184C546.906 350.608 548.842 350.32 550.89 350.32ZM549.834 372.736C551.594 372.736 553.114 372.352 554.394 371.584C555.674 370.784 556.602 369.664 557.178 368.224V364.672H550.074C546.17 364.672 544.218 365.984 544.218 368.608C544.218 369.888 544.714 370.896 545.706 371.632C546.698 372.368 548.074 372.736 549.834 372.736ZM574.729 354.832C575.529 353.36 576.713 352.24 578.281 351.472C579.849 350.704 581.753 350.32 583.993 350.32V354.784C583.737 354.752 583.385 354.736 582.937 354.736C580.441 354.736 578.473 355.488 577.033 356.992C575.625 358.464 574.921 360.576 574.921 363.328V376H570.313V350.56H574.729V354.832ZM603.257 350.32C606.489 350.32 609.049 351.264 610.937 353.152C612.857 355.008 613.817 357.744 613.817 361.36V376H609.209V361.888C609.209 359.424 608.617 357.568 607.433 356.32C606.249 355.072 604.553 354.448 602.345 354.448C599.849 354.448 597.881 355.184 596.441 356.656C595.001 358.096 594.281 360.176 594.281 362.896V376H589.673V350.56H594.089V354.4C595.017 353.088 596.265 352.08 597.833 351.376C599.433 350.672 601.241 350.32 603.257 350.32ZM622.345 350.56H626.953V376H622.345V350.56ZM624.649 345.664C623.753 345.664 623.001 345.376 622.393 344.8C621.817 344.224 621.529 343.52 621.529 342.688C621.529 341.856 621.817 341.152 622.393 340.576C623.001 339.968 623.753 339.664 624.649 339.664C625.545 339.664 626.281 339.952 626.857 340.528C627.465 341.072 627.769 341.76 627.769 342.592C627.769 343.456 627.465 344.192 626.857 344.8C626.281 345.376 625.545 345.664 624.649 345.664ZM649.335 350.32C652.567 350.32 655.127 351.264 657.015 353.152C658.935 355.008 659.895 357.744 659.895 361.36V376H655.287V361.888C655.287 359.424 654.695 357.568 653.511 356.32C652.327 355.072 650.631 354.448 648.423 354.448C645.927 354.448 643.959 355.184 642.519 356.656C641.079 358.096 640.359 360.176 640.359 362.896V376H635.751V350.56H640.167V354.4C641.095 353.088 642.343 352.08 643.911 351.376C645.511 350.672 647.319 350.32 649.335 350.32ZM692.899 350.56V372.544C692.899 376.992 691.795 380.272 689.587 382.384C687.379 384.528 684.083 385.6 679.699 385.6C677.299 385.6 675.011 385.264 672.835 384.592C670.659 383.952 668.899 383.024 667.555 381.808L669.763 378.256C670.947 379.28 672.403 380.08 674.131 380.656C675.891 381.264 677.699 381.568 679.555 381.568C682.531 381.568 684.723 380.864 686.131 379.456C687.571 378.048 688.291 375.904 688.291 373.024V371.008C687.203 372.32 685.859 373.312 684.259 373.984C682.691 374.624 680.979 374.944 679.123 374.944C676.691 374.944 674.483 374.432 672.499 373.408C670.547 372.352 669.011 370.896 667.891 369.04C666.771 367.152 666.211 365.008 666.211 362.608C666.211 360.208 666.771 358.08 667.891 356.224C669.011 354.336 670.547 352.88 672.499 351.856C674.483 350.832 676.691 350.32 679.123 350.32C681.043 350.32 682.819 350.672 684.451 351.376C686.115 352.08 687.475 353.12 688.531 354.496V350.56H692.899ZM679.651 370.912C681.315 370.912 682.803 370.56 684.115 369.856C685.459 369.152 686.499 368.176 687.235 366.928C688.003 365.648 688.387 364.208 688.387 362.608C688.387 360.144 687.571 358.16 685.939 356.656C684.307 355.12 682.211 354.352 679.651 354.352C677.059 354.352 674.947 355.12 673.315 356.656C671.683 358.16 670.867 360.144 670.867 362.608C670.867 364.208 671.235 365.648 671.971 366.928C672.739 368.176 673.779 369.152 675.091 369.856C676.435 370.56 677.955 370.912 679.651 370.912ZM739.651 371.824V376H715.267V342.4H738.979V346.576H720.067V356.896H736.915V360.976H720.067V371.824H739.651ZM760.335 350.32C763.567 350.32 766.127 351.264 768.015 353.152C769.935 355.008 770.895 357.744 770.895 361.36V376H766.287V361.888C766.287 359.424 765.695 357.568 764.511 356.32C763.327 355.072 761.631 354.448 759.423 354.448C756.927 354.448 754.959 355.184 753.519 356.656C752.079 358.096 751.359 360.176 751.359 362.896V376H746.751V350.56H751.167V354.4C752.095 353.088 753.343 352.08 754.911 351.376C756.511 350.672 758.319 350.32 760.335 350.32ZM803.899 350.56V372.544C803.899 376.992 802.795 380.272 800.587 382.384C798.379 384.528 795.083 385.6 790.699 385.6C788.299 385.6 786.011 385.264 783.835 384.592C781.659 383.952 779.899 383.024 778.555 381.808L780.763 378.256C781.947 379.28 783.403 380.08 785.131 380.656C786.891 381.264 788.699 381.568 790.555 381.568C793.531 381.568 795.723 380.864 797.131 379.456C798.571 378.048 799.291 375.904 799.291 373.024V371.008C798.203 372.32 796.859 373.312 795.259 373.984C793.691 374.624 791.979 374.944 790.123 374.944C787.691 374.944 785.483 374.432 783.499 373.408C781.547 372.352 780.011 370.896 778.891 369.04C777.771 367.152 777.211 365.008 777.211 362.608C777.211 360.208 777.771 358.08 778.891 356.224C780.011 354.336 781.547 352.88 783.499 351.856C785.483 350.832 787.691 350.32 790.123 350.32C792.043 350.32 793.819 350.672 795.451 351.376C797.115 352.08 798.475 353.12 799.531 354.496V350.56H803.899ZM790.651 370.912C792.315 370.912 793.803 370.56 795.115 369.856C796.459 369.152 797.499 368.176 798.235 366.928C799.003 365.648 799.387 364.208 799.387 362.608C799.387 360.144 798.571 358.16 796.939 356.656C795.307 355.12 793.211 354.352 790.651 354.352C788.059 354.352 785.947 355.12 784.315 356.656C782.683 358.16 781.867 360.144 781.867 362.608C781.867 364.208 782.235 365.648 782.971 366.928C783.739 368.176 784.779 369.152 786.091 369.856C787.435 370.56 788.955 370.912 790.651 370.912ZM812.704 340.384H817.312V376H812.704V340.384ZM826.11 350.56H830.718V376H826.11V350.56ZM828.414 345.664C827.518 345.664 826.766 345.376 826.158 344.8C825.582 344.224 825.294 343.52 825.294 342.688C825.294 341.856 825.582 341.152 826.158 340.576C826.766 339.968 827.518 339.664 828.414 339.664C829.31 339.664 830.046 339.952 830.622 340.528C831.23 341.072 831.534 341.76 831.534 342.592C831.534 343.456 831.23 344.192 830.622 344.8C830.046 345.376 829.31 345.664 828.414 345.664ZM846.812 376.288C844.732 376.288 842.732 376.016 840.812 375.472C838.892 374.896 837.388 374.176 836.3 373.312L838.22 369.664C839.34 370.464 840.7 371.104 842.3 371.584C843.9 372.064 845.516 372.304 847.148 372.304C851.18 372.304 853.196 371.152 853.196 368.848C853.196 368.08 852.924 367.472 852.38 367.024C851.836 366.576 851.148 366.256 850.316 366.064C849.516 365.84 848.364 365.6 846.86 365.344C844.812 365.024 843.132 364.656 841.82 364.24C840.54 363.824 839.436 363.12 838.508 362.128C837.58 361.136 837.116 359.744 837.116 357.952C837.116 355.648 838.076 353.808 839.996 352.432C841.916 351.024 844.492 350.32 847.724 350.32C849.42 350.32 851.116 350.528 852.812 350.944C854.508 351.36 855.9 351.92 856.988 352.624L855.02 356.272C852.94 354.928 850.492 354.256 847.676 354.256C845.724 354.256 844.236 354.576 843.212 355.216C842.188 355.856 841.676 356.704 841.676 357.76C841.676 358.592 841.964 359.248 842.54 359.728C843.116 360.208 843.82 360.56 844.652 360.784C845.516 361.008 846.716 361.264 848.252 361.552C850.3 361.904 851.948 362.288 853.196 362.704C854.476 363.088 855.564 363.76 856.46 364.72C857.356 365.68 857.804 367.024 857.804 368.752C857.804 371.056 856.812 372.896 854.828 374.272C852.876 375.616 850.204 376.288 846.812 376.288ZM877.147 350.32C880.379 350.32 882.939 351.264 884.827 353.152C886.747 355.008 887.707 357.744 887.707 361.36V376H883.099V361.888C883.099 359.424 882.507 357.568 881.323 356.32C880.139 355.072 878.443 354.448 876.235 354.448C873.739 354.448 871.771 355.184 870.331 356.656C868.891 358.096 868.171 360.176 868.171 362.896V376H863.563V340.384H868.171V354.16C869.131 352.944 870.379 352 871.915 351.328C873.483 350.656 875.227 350.32 877.147 350.32ZM947.622 350.56L938.118 376H933.702L926.358 356.704L918.918 376H914.502L905.046 350.56H909.414L916.806 370.816L924.486 350.56H928.374L935.91 370.912L943.494 350.56H947.622ZM952.298 350.56H956.906V376H952.298V350.56ZM954.602 345.664C953.706 345.664 952.954 345.376 952.346 344.8C951.77 344.224 951.482 343.52 951.482 342.688C951.482 341.856 951.77 341.152 952.346 340.576C952.954 339.968 953.706 339.664 954.602 339.664C955.498 339.664 956.234 339.952 956.81 340.528C957.418 341.072 957.722 341.76 957.722 342.592C957.722 343.456 957.418 344.192 956.81 344.8C956.234 345.376 955.498 345.664 954.602 345.664ZM980.008 374.512C979.336 375.088 978.504 375.536 977.512 375.856C976.52 376.144 975.496 376.288 974.44 376.288C971.88 376.288 969.896 375.6 968.488 374.224C967.08 372.848 966.376 370.88 966.376 368.32V354.352H962.056V350.56H966.376V344.992H970.984V350.56H978.28V354.352H970.984V368.128C970.984 369.504 971.32 370.56 971.992 371.296C972.696 372.032 973.688 372.4 974.968 372.4C976.376 372.4 977.576 372 978.568 371.2L980.008 374.512ZM999.163 350.32C1002.39 350.32 1004.95 351.264 1006.84 353.152C1008.76 355.008 1009.72 357.744 1009.72 361.36V376H1005.11V361.888C1005.11 359.424 1004.52 357.568 1003.34 356.32C1002.15 355.072 1000.46 354.448 998.251 354.448C995.755 354.448 993.787 355.184 992.347 356.656C990.907 358.096 990.187 360.176 990.187 362.896V376H985.579V340.384H990.187V354.16C991.147 352.944 992.395 352 993.931 351.328C995.499 350.656 997.243 350.32 999.163 350.32ZM1062.97 376L1062.92 351.52L1050.77 371.92H1048.57L1036.42 351.664V376H1031.81V342.4H1035.75L1049.77 366.016L1063.59 342.4H1067.53L1067.57 376H1062.97ZM1086.25 350.32C1089.77 350.32 1092.46 351.184 1094.31 352.912C1096.2 354.64 1097.15 357.216 1097.15 360.64V376H1092.78V372.64C1092.01 373.824 1090.91 374.736 1089.47 375.376C1088.06 375.984 1086.38 376.288 1084.43 376.288C1081.58 376.288 1079.29 375.6 1077.56 374.224C1075.87 372.848 1075.02 371.04 1075.02 368.8C1075.02 366.56 1075.83 364.768 1077.47 363.424C1079.1 362.048 1081.69 361.36 1085.24 361.36H1092.54V360.448C1092.54 358.464 1091.96 356.944 1090.81 355.888C1089.66 354.832 1087.96 354.304 1085.72 354.304C1084.22 354.304 1082.75 354.56 1081.31 355.072C1079.87 355.552 1078.65 356.208 1077.66 357.04L1075.74 353.584C1077.05 352.528 1078.62 351.728 1080.44 351.184C1082.27 350.608 1084.2 350.32 1086.25 350.32ZM1085.19 372.736C1086.95 372.736 1088.47 372.352 1089.75 371.584C1091.03 370.784 1091.96 369.664 1092.54 368.224V364.672H1085.43C1081.53 364.672 1079.58 365.984 1079.58 368.608C1079.58 369.888 1080.07 370.896 1081.07 371.632C1082.06 372.368 1083.43 372.736 1085.19 372.736ZM1110.09 354.832C1110.89 353.36 1112.07 352.24 1113.64 351.472C1115.21 350.704 1117.11 350.32 1119.35 350.32V354.784C1119.1 354.752 1118.74 354.736 1118.3 354.736C1115.8 354.736 1113.83 355.488 1112.39 356.992C1110.98 358.464 1110.28 360.576 1110.28 363.328V376H1105.67V350.56H1110.09V354.832ZM1148.58 350.56L1136.24 378.544C1135.15 381.136 1133.87 382.96 1132.4 384.016C1130.96 385.072 1129.22 385.6 1127.17 385.6C1125.92 385.6 1124.7 385.392 1123.52 384.976C1122.37 384.592 1121.41 384.016 1120.64 383.248L1122.61 379.792C1123.92 381.04 1125.44 381.664 1127.17 381.664C1128.29 381.664 1129.22 381.36 1129.95 380.752C1130.72 380.176 1131.41 379.168 1132.02 377.728L1132.83 375.952L1121.6 350.56H1126.4L1135.28 370.912L1144.06 350.56H1148.58ZM1161.05 365.392C1161.05 364.112 1161.25 362.992 1161.67 362.032C1162.12 361.04 1162.65 360.208 1163.25 359.536C1163.89 358.864 1164.73 358.064 1165.75 357.136C1167.03 356.016 1167.97 355.056 1168.58 354.256C1169.19 353.424 1169.49 352.432 1169.49 351.28C1169.49 349.712 1168.89 348.464 1167.67 347.536C1166.45 346.576 1164.77 346.096 1162.63 346.096C1158.89 346.096 1156.02 347.36 1154.04 349.888L1150.53 347.392C1151.88 345.664 1153.59 344.336 1155.67 343.408C1157.78 342.48 1160.21 342.016 1162.97 342.016C1166.45 342.016 1169.22 342.784 1171.27 344.32C1173.32 345.824 1174.34 347.904 1174.34 350.56C1174.34 351.872 1174.12 353.04 1173.67 354.064C1173.25 355.056 1172.74 355.888 1172.13 356.56C1171.53 357.232 1170.71 358.032 1169.69 358.96C1168.37 360.144 1167.4 361.184 1166.76 362.08C1166.15 362.976 1165.85 364.08 1165.85 365.392H1161.05ZM1163.49 376.288C1162.6 376.288 1161.85 376 1161.24 375.424C1160.66 374.816 1160.37 374.08 1160.37 373.216C1160.37 372.352 1160.66 371.632 1161.24 371.056C1161.85 370.448 1162.6 370.144 1163.49 370.144C1164.39 370.144 1165.13 370.448 1165.7 371.056C1166.28 371.632 1166.57 372.352 1166.57 373.216C1166.57 374.08 1166.26 374.816 1165.65 375.424C1165.08 376 1164.36 376.288 1163.49 376.288Z" fill="black"/>
<path d="M594 424L601.184 446.111H624.434L605.625 459.777L612.809 481.889L594 468.223L575.191 481.889L582.375 459.777L563.566 446.111H586.816L594 424Z" fill="#3A3A3A"/>
<path d="M658 424L665.184 446.111H688.434L669.625 459.777L676.809 481.889L658 468.223L639.191 481.889L646.375 459.777L627.566 446.111H650.816L658 424Z" fill="#3A3A3A"/>
<path d="M722 424L729.184 446.111H752.434L733.625 459.777L740.809 481.889L722 468.223L703.191 481.889L710.375 459.777L691.566 446.111H714.816L722 424Z" fill="#3A3A3A"/>
<path d="M784 424L791.184 446.111H814.434L795.625 459.777L802.809 481.889L784 468.223L765.191 481.889L772.375 459.777L753.566 446.111H776.816L784 424Z" fill="#3A3A3A"/>
<path d="M846 424L853.184 446.111H876.434L857.625 459.777L864.809 481.889L846 468.223L827.191 481.889L834.375 459.777L815.566 446.111H838.816L846 424Z" fill="#3A3A3A"/>
<path d="M676.453 516.4H677.785V529H676.453V516.4ZM686.601 528.424C686.361 528.64 686.061 528.808 685.701 528.928C685.353 529.036 684.987 529.09 684.603 529.09C683.715 529.09 683.031 528.85 682.551 528.37C682.071 527.89 681.831 527.212 681.831 526.336V520.612H680.139V519.532H681.831V517.462H683.109V519.532H685.989V520.612H683.109V526.264C683.109 526.828 683.247 527.26 683.523 527.56C683.811 527.848 684.219 527.992 684.747 527.992C685.011 527.992 685.263 527.95 685.503 527.866C685.755 527.782 685.971 527.662 686.151 527.506L686.601 528.424ZM707.534 519.532L703.952 529H702.746L699.758 521.242L696.77 529H695.564L692 519.532H693.224L696.194 527.578L699.236 519.532H700.334L703.358 527.578L706.364 519.532H707.534ZM712.49 519.46C713.726 519.46 714.674 519.772 715.334 520.396C715.994 521.008 716.324 521.92 716.324 523.132V529H715.1V527.524C714.812 528.016 714.386 528.4 713.822 528.676C713.27 528.952 712.61 529.09 711.842 529.09C710.786 529.09 709.946 528.838 709.322 528.334C708.698 527.83 708.386 527.164 708.386 526.336C708.386 525.532 708.674 524.884 709.25 524.392C709.838 523.9 710.768 523.654 712.04 523.654H715.046V523.078C715.046 522.262 714.818 521.644 714.362 521.224C713.906 520.792 713.24 520.576 712.364 520.576C711.764 520.576 711.188 520.678 710.636 520.882C710.084 521.074 709.61 521.344 709.214 521.692L708.638 520.738C709.118 520.33 709.694 520.018 710.366 519.802C711.038 519.574 711.746 519.46 712.49 519.46ZM712.04 528.082C712.76 528.082 713.378 527.92 713.894 527.596C714.41 527.26 714.794 526.78 715.046 526.156V524.608H712.076C710.456 524.608 709.646 525.172 709.646 526.3C709.646 526.852 709.856 527.29 710.276 527.614C710.696 527.926 711.284 528.082 712.04 528.082ZM722.333 529.09C721.565 529.09 720.827 528.982 720.119 528.766C719.423 528.538 718.877 528.256 718.481 527.92L719.057 526.912C719.453 527.224 719.951 527.482 720.551 527.686C721.151 527.878 721.775 527.974 722.423 527.974C723.287 527.974 723.923 527.842 724.331 527.578C724.751 527.302 724.961 526.918 724.961 526.426C724.961 526.078 724.847 525.808 724.619 525.616C724.391 525.412 724.103 525.262 723.755 525.166C723.407 525.058 722.945 524.956 722.369 524.86C721.601 524.716 720.983 524.572 720.515 524.428C720.047 524.272 719.645 524.014 719.309 523.654C718.985 523.294 718.823 522.796 718.823 522.16C718.823 521.368 719.153 520.72 719.813 520.216C720.473 519.712 721.391 519.46 722.567 519.46C723.179 519.46 723.791 519.544 724.403 519.712C725.015 519.868 725.519 520.078 725.915 520.342L725.357 521.368C724.577 520.828 723.647 520.558 722.567 520.558C721.751 520.558 721.133 520.702 720.713 520.99C720.305 521.278 720.101 521.656 720.101 522.124C720.101 522.484 720.215 522.772 720.443 522.988C720.683 523.204 720.977 523.366 721.325 523.474C721.673 523.57 722.153 523.672 722.765 523.78C723.521 523.924 724.127 524.068 724.583 524.212C725.039 524.356 725.429 524.602 725.753 524.95C726.077 525.298 726.239 525.778 726.239 526.39C726.239 527.218 725.891 527.878 725.195 528.37C724.511 528.85 723.557 529.09 722.333 529.09ZM736.444 516.634C735.892 516.634 735.472 516.784 735.184 517.084C734.908 517.384 734.77 517.828 734.77 518.416V519.532H737.686V520.612H734.806V529H733.528V520.612H731.836V519.532H733.528V518.362C733.528 517.498 733.774 516.814 734.266 516.31C734.77 515.806 735.478 515.554 736.39 515.554C736.75 515.554 737.098 515.608 737.434 515.716C737.77 515.812 738.052 515.956 738.28 516.148L737.848 517.102C737.476 516.79 737.008 516.634 736.444 516.634ZM747.944 519.532V529H746.72V527.272C746.384 527.848 745.922 528.298 745.334 528.622C744.746 528.934 744.074 529.09 743.318 529.09C742.082 529.09 741.104 528.748 740.384 528.064C739.676 527.368 739.322 526.354 739.322 525.022V519.532H740.6V524.896C740.6 525.892 740.846 526.648 741.338 527.164C741.83 527.68 742.532 527.938 743.444 527.938C744.44 527.938 745.226 527.638 745.802 527.038C746.378 526.426 746.666 525.58 746.666 524.5V519.532H747.944ZM756.347 519.46C757.535 519.46 758.477 519.808 759.173 520.504C759.881 521.188 760.235 522.19 760.235 523.51V529H758.957V523.636C758.957 522.652 758.711 521.902 758.219 521.386C757.727 520.87 757.025 520.612 756.113 520.612C755.093 520.612 754.283 520.918 753.683 521.53C753.095 522.13 752.801 522.964 752.801 524.032V529H751.523V519.532H752.747V521.278C753.095 520.702 753.575 520.258 754.187 519.946C754.811 519.622 755.531 519.46 756.347 519.46ZM763.507 516.4H765.019L764.749 525.22H763.759L763.507 516.4ZM764.263 529.09C763.999 529.09 763.771 529 763.579 528.82C763.399 528.628 763.309 528.406 763.309 528.154C763.309 527.89 763.399 527.674 763.579 527.506C763.759 527.326 763.987 527.236 764.263 527.236C764.527 527.236 764.749 527.326 764.929 527.506C765.109 527.674 765.199 527.89 765.199 528.154C765.199 528.406 765.109 528.628 764.929 528.82C764.749 529 764.527 529.09 764.263 529.09Z" fill="black"/>
<rect x="262" y="570" width="916" height="126" rx="20" fill="#C4C4C4"/>
<path d="M281.384 591.552V596.502H287.9V597.654H281.384V603H280.052V590.4H288.692V591.552H281.384ZM299.1 598.662H291.18C291.252 599.646 291.63 600.444 292.314 601.056C292.998 601.656 293.862 601.956 294.906 601.956C295.494 601.956 296.034 601.854 296.526 601.65C297.018 601.434 297.444 601.122 297.804 600.714L298.524 601.542C298.104 602.046 297.576 602.43 296.94 602.694C296.316 602.958 295.626 603.09 294.87 603.09C293.898 603.09 293.034 602.886 292.278 602.478C291.534 602.058 290.952 601.482 290.532 600.75C290.112 600.018 289.902 599.19 289.902 598.266C289.902 597.342 290.1 596.514 290.496 595.782C290.904 595.05 291.456 594.48 292.152 594.072C292.86 593.664 293.652 593.46 294.528 593.46C295.404 593.46 296.19 593.664 296.886 594.072C297.582 594.48 298.128 595.05 298.524 595.782C298.92 596.502 299.118 597.33 299.118 598.266L299.1 598.662ZM294.528 594.558C293.616 594.558 292.848 594.852 292.224 595.44C291.612 596.016 291.264 596.772 291.18 597.708H297.894C297.81 596.772 297.456 596.016 296.832 595.44C296.22 594.852 295.452 594.558 294.528 594.558ZM309.964 598.662H302.044C302.116 599.646 302.494 600.444 303.178 601.056C303.862 601.656 304.726 601.956 305.77 601.956C306.358 601.956 306.898 601.854 307.39 601.65C307.882 601.434 308.308 601.122 308.668 600.714L309.388 601.542C308.968 602.046 308.44 602.43 307.804 602.694C307.18 602.958 306.49 603.09 305.734 603.09C304.762 603.09 303.898 602.886 303.142 602.478C302.398 602.058 301.816 601.482 301.396 600.75C300.976 600.018 300.766 599.19 300.766 598.266C300.766 597.342 300.964 596.514 301.36 595.782C301.768 595.05 302.32 594.48 303.016 594.072C303.724 593.664 304.516 593.46 305.392 593.46C306.268 593.46 307.054 593.664 307.75 594.072C308.446 594.48 308.992 595.05 309.388 595.782C309.784 596.502 309.982 597.33 309.982 598.266L309.964 598.662ZM305.392 594.558C304.48 594.558 303.712 594.852 303.088 595.44C302.476 596.016 302.128 596.772 302.044 597.708H308.758C308.674 596.772 308.32 596.016 307.696 595.44C307.084 594.852 306.316 594.558 305.392 594.558ZM312.583 589.644H313.861V603H312.583V589.644ZM325.26 590.634C324.708 590.634 324.288 590.784 324 591.084C323.724 591.384 323.586 591.828 323.586 592.416V593.532H326.502V594.612H323.622V603H322.344V594.612H320.652V593.532H322.344V592.362C322.344 591.498 322.59 590.814 323.082 590.31C323.586 589.806 324.294 589.554 325.206 589.554C325.566 589.554 325.914 589.608 326.25 589.716C326.586 589.812 326.868 589.956 327.096 590.148L326.664 591.102C326.292 590.79 325.824 590.634 325.26 590.634ZM330.893 595.386C331.193 594.75 331.637 594.27 332.225 593.946C332.825 593.622 333.563 593.46 334.439 593.46V594.702L334.133 594.684C333.137 594.684 332.357 594.99 331.793 595.602C331.229 596.214 330.947 597.072 330.947 598.176V603H329.669V593.532H330.893V595.386ZM344.909 598.662H336.989C337.061 599.646 337.439 600.444 338.123 601.056C338.807 601.656 339.671 601.956 340.715 601.956C341.303 601.956 341.843 601.854 342.335 601.65C342.827 601.434 343.253 601.122 343.613 600.714L344.333 601.542C343.913 602.046 343.385 602.43 342.749 602.694C342.125 602.958 341.435 603.09 340.679 603.09C339.707 603.09 338.843 602.886 338.087 602.478C337.343 602.058 336.761 601.482 336.341 600.75C335.921 600.018 335.711 599.19 335.711 598.266C335.711 597.342 335.909 596.514 336.305 595.782C336.713 595.05 337.265 594.48 337.961 594.072C338.669 593.664 339.461 593.46 340.337 593.46C341.213 593.46 341.999 593.664 342.695 594.072C343.391 594.48 343.937 595.05 344.333 595.782C344.729 596.502 344.927 597.33 344.927 598.266L344.909 598.662ZM340.337 594.558C339.425 594.558 338.657 594.852 338.033 595.44C337.421 596.016 337.073 596.772 336.989 597.708H343.703C343.619 596.772 343.265 596.016 342.641 595.44C342.029 594.852 341.261 594.558 340.337 594.558ZM355.772 598.662H347.852C347.924 599.646 348.302 600.444 348.986 601.056C349.67 601.656 350.534 601.956 351.578 601.956C352.166 601.956 352.706 601.854 353.198 601.65C353.69 601.434 354.116 601.122 354.476 600.714L355.196 601.542C354.776 602.046 354.248 602.43 353.612 602.694C352.988 602.958 352.298 603.09 351.542 603.09C350.57 603.09 349.706 602.886 348.95 602.478C348.206 602.058 347.624 601.482 347.204 600.75C346.784 600.018 346.574 599.19 346.574 598.266C346.574 597.342 346.772 596.514 347.168 595.782C347.576 595.05 348.128 594.48 348.824 594.072C349.532 593.664 350.324 593.46 351.2 593.46C352.076 593.46 352.862 593.664 353.558 594.072C354.254 594.48 354.8 595.05 355.196 595.782C355.592 596.502 355.79 597.33 355.79 598.266L355.772 598.662ZM351.2 594.558C350.288 594.558 349.52 594.852 348.896 595.44C348.284 596.016 347.936 596.772 347.852 597.708H354.566C354.482 596.772 354.128 596.016 353.504 595.44C352.892 594.852 352.124 594.558 351.2 594.558ZM368.088 602.424C367.848 602.64 367.548 602.808 367.188 602.928C366.84 603.036 366.474 603.09 366.09 603.09C365.202 603.09 364.518 602.85 364.038 602.37C363.558 601.89 363.318 601.212 363.318 600.336V594.612H361.626V593.532H363.318V591.462H364.596V593.532H367.476V594.612H364.596V600.264C364.596 600.828 364.734 601.26 365.01 601.56C365.298 601.848 365.706 601.992 366.234 601.992C366.498 601.992 366.75 601.95 366.99 601.866C367.242 601.782 367.458 601.662 367.638 601.506L368.088 602.424ZM373.951 603.09C373.039 603.09 372.217 602.886 371.485 602.478C370.753 602.058 370.177 601.482 369.757 600.75C369.337 600.018 369.127 599.19 369.127 598.266C369.127 597.342 369.337 596.514 369.757 595.782C370.177 595.05 370.753 594.48 371.485 594.072C372.217 593.664 373.039 593.46 373.951 593.46C374.863 593.46 375.685 593.664 376.417 594.072C377.149 594.48 377.719 595.05 378.127 595.782C378.547 596.514 378.757 597.342 378.757 598.266C378.757 599.19 378.547 600.018 378.127 600.75C377.719 601.482 377.149 602.058 376.417 602.478C375.685 602.886 374.863 603.09 373.951 603.09ZM373.951 601.956C374.623 601.956 375.223 601.806 375.751 601.506C376.291 601.194 376.711 600.756 377.011 600.192C377.311 599.628 377.461 598.986 377.461 598.266C377.461 597.546 377.311 596.904 377.011 596.34C376.711 595.776 376.291 595.344 375.751 595.044C375.223 594.732 374.623 594.576 373.951 594.576C373.279 594.576 372.673 594.732 372.133 595.044C371.605 595.344 371.185 595.776 370.873 596.34C370.573 596.904 370.423 597.546 370.423 598.266C370.423 598.986 370.573 599.628 370.873 600.192C371.185 600.756 371.605 601.194 372.133 601.506C372.673 601.806 373.279 601.956 373.951 601.956ZM386.077 589.644H387.355V603H386.077V589.644ZM399.155 598.662H391.235C391.307 599.646 391.685 600.444 392.369 601.056C393.053 601.656 393.917 601.956 394.961 601.956C395.549 601.956 396.089 601.854 396.581 601.65C397.073 601.434 397.499 601.122 397.859 600.714L398.579 601.542C398.159 602.046 397.631 602.43 396.995 602.694C396.371 602.958 395.681 603.09 394.925 603.09C393.953 603.09 393.089 602.886 392.333 602.478C391.589 602.058 391.007 601.482 390.587 600.75C390.167 600.018 389.957 599.19 389.957 598.266C389.957 597.342 390.155 596.514 390.551 595.782C390.959 595.05 391.511 594.48 392.207 594.072C392.915 593.664 393.707 593.46 394.583 593.46C395.459 593.46 396.245 593.664 396.941 594.072C397.637 594.48 398.183 595.05 398.579 595.782C398.975 596.502 399.173 597.33 399.173 598.266L399.155 598.662ZM394.583 594.558C393.671 594.558 392.903 594.852 392.279 595.44C391.667 596.016 391.319 596.772 391.235 597.708H397.949C397.865 596.772 397.511 596.016 396.887 595.44C396.275 594.852 395.507 594.558 394.583 594.558ZM404.823 593.46C406.059 593.46 407.007 593.772 407.667 594.396C408.327 595.008 408.657 595.92 408.657 597.132V603H407.433V601.524C407.145 602.016 406.719 602.4 406.155 602.676C405.603 602.952 404.943 603.09 404.175 603.09C403.119 603.09 402.279 602.838 401.655 602.334C401.031 601.83 400.719 601.164 400.719 600.336C400.719 599.532 401.007 598.884 401.583 598.392C402.171 597.9 403.101 597.654 404.373 597.654H407.379V597.078C407.379 596.262 407.151 595.644 406.695 595.224C406.239 594.792 405.573 594.576 404.697 594.576C404.097 594.576 403.521 594.678 402.969 594.882C402.417 595.074 401.943 595.344 401.547 595.692L400.971 594.738C401.451 594.33 402.027 594.018 402.699 593.802C403.371 593.574 404.079 593.46 404.823 593.46ZM404.373 602.082C405.093 602.082 405.711 601.92 406.227 601.596C406.743 601.26 407.127 600.78 407.379 600.156V598.608H404.409C402.789 598.608 401.979 599.172 401.979 600.3C401.979 600.852 402.189 601.29 402.609 601.614C403.029 601.926 403.617 602.082 404.373 602.082ZM419.908 593.532L415.696 603H414.382L410.188 593.532H411.52L415.066 601.596L418.648 593.532H419.908ZM429.688 598.662H421.768C421.84 599.646 422.218 600.444 422.902 601.056C423.586 601.656 424.45 601.956 425.494 601.956C426.082 601.956 426.622 601.854 427.114 601.65C427.606 601.434 428.032 601.122 428.392 600.714L429.112 601.542C428.692 602.046 428.164 602.43 427.528 602.694C426.904 602.958 426.214 603.09 425.458 603.09C424.486 603.09 423.622 602.886 422.866 602.478C422.122 602.058 421.54 601.482 421.12 600.75C420.7 600.018 420.49 599.19 420.49 598.266C420.49 597.342 420.688 596.514 421.084 595.782C421.492 595.05 422.044 594.48 422.74 594.072C423.448 593.664 424.24 593.46 425.116 593.46C425.992 593.46 426.778 593.664 427.474 594.072C428.17 594.48 428.716 595.05 429.112 595.782C429.508 596.502 429.706 597.33 429.706 598.266L429.688 598.662ZM425.116 594.558C424.204 594.558 423.436 594.852 422.812 595.44C422.2 596.016 421.852 596.772 421.768 597.708H428.482C428.398 596.772 428.044 596.016 427.42 595.44C426.808 594.852 426.04 594.558 425.116 594.558ZM450.374 590.4V603H449.096V592.92L444.146 601.398H443.516L438.566 592.974V603H437.288V590.4H438.386L443.858 599.742L449.276 590.4H450.374ZM457.522 593.46C458.758 593.46 459.706 593.772 460.366 594.396C461.026 595.008 461.356 595.92 461.356 597.132V603H460.132V601.524C459.844 602.016 459.418 602.4 458.854 602.676C458.302 602.952 457.642 603.09 456.874 603.09C455.818 603.09 454.978 602.838 454.354 602.334C453.73 601.83 453.418 601.164 453.418 600.336C453.418 599.532 453.706 598.884 454.282 598.392C454.87 597.9 455.8 597.654 457.072 597.654H460.078V597.078C460.078 596.262 459.85 595.644 459.394 595.224C458.938 594.792 458.272 594.576 457.396 594.576C456.796 594.576 456.22 594.678 455.668 594.882C455.116 595.074 454.642 595.344 454.246 595.692L453.67 594.738C454.15 594.33 454.726 594.018 455.398 593.802C456.07 593.574 456.778 593.46 457.522 593.46ZM457.072 602.082C457.792 602.082 458.41 601.92 458.926 601.596C459.442 601.26 459.826 600.78 460.078 600.156V598.608H457.108C455.488 598.608 454.678 599.172 454.678 600.3C454.678 600.852 454.888 601.29 455.308 601.614C455.728 601.926 456.316 602.082 457.072 602.082ZM466.051 595.386C466.351 594.75 466.795 594.27 467.383 593.946C467.983 593.622 468.721 593.46 469.597 593.46V594.702L469.291 594.684C468.295 594.684 467.515 594.99 466.951 595.602C466.387 596.214 466.105 597.072 466.105 598.176V603H464.827V593.532H466.051V595.386ZM480.271 593.532L475.537 604.134C475.153 605.022 474.709 605.652 474.205 606.024C473.701 606.396 473.095 606.582 472.387 606.582C471.931 606.582 471.505 606.51 471.109 606.366C470.713 606.222 470.371 606.006 470.083 605.718L470.677 604.764C471.157 605.244 471.733 605.484 472.405 605.484C472.837 605.484 473.203 605.364 473.503 605.124C473.815 604.884 474.103 604.476 474.367 603.9L474.781 602.982L470.551 593.532H471.883L475.447 601.578L479.011 593.532H480.271ZM490.094 593.46C491.33 593.46 492.278 593.772 492.938 594.396C493.598 595.008 493.928 595.92 493.928 597.132V603H492.704V601.524C492.416 602.016 491.99 602.4 491.426 602.676C490.874 602.952 490.214 603.09 489.446 603.09C488.39 603.09 487.55 602.838 486.926 602.334C486.302 601.83 485.99 601.164 485.99 600.336C485.99 599.532 486.278 598.884 486.854 598.392C487.442 597.9 488.372 597.654 489.644 597.654H492.65V597.078C492.65 596.262 492.422 595.644 491.966 595.224C491.51 594.792 490.844 594.576 489.968 594.576C489.368 594.576 488.792 594.678 488.24 594.882C487.688 595.074 487.214 595.344 486.818 595.692L486.242 594.738C486.722 594.33 487.298 594.018 487.97 593.802C488.642 593.574 489.35 593.46 490.094 593.46ZM489.644 602.082C490.364 602.082 490.982 601.92 491.498 601.596C492.014 601.26 492.398 600.78 492.65 600.156V598.608H489.68C488.06 598.608 487.25 599.172 487.25 600.3C487.25 600.852 487.46 601.29 487.88 601.614C488.3 601.926 488.888 602.082 489.644 602.082ZM506.034 603.09C505.098 603.09 504.258 602.886 503.514 602.478C502.782 602.07 502.206 601.5 501.786 600.768C501.366 600.024 501.156 599.19 501.156 598.266C501.156 597.342 501.366 596.514 501.786 595.782C502.206 595.05 502.782 594.48 503.514 594.072C504.258 593.664 505.098 593.46 506.034 593.46C506.85 593.46 507.576 593.622 508.212 593.946C508.86 594.258 509.37 594.72 509.742 595.332L508.788 595.98C508.476 595.512 508.08 595.164 507.6 594.936C507.12 594.696 506.598 594.576 506.034 594.576C505.35 594.576 504.732 594.732 504.18 595.044C503.64 595.344 503.214 595.776 502.902 596.34C502.602 596.904 502.452 597.546 502.452 598.266C502.452 598.998 502.602 599.646 502.902 600.21C503.214 600.762 503.64 601.194 504.18 601.506C504.732 601.806 505.35 601.956 506.034 601.956C506.598 601.956 507.12 601.842 507.6 601.614C508.08 601.386 508.476 601.038 508.788 600.57L509.742 601.218C509.37 601.83 508.86 602.298 508.212 602.622C507.564 602.934 506.838 603.09 506.034 603.09ZM515.965 603.09C515.053 603.09 514.231 602.886 513.499 602.478C512.767 602.058 512.191 601.482 511.771 600.75C511.351 600.018 511.141 599.19 511.141 598.266C511.141 597.342 511.351 596.514 511.771 595.782C512.191 595.05 512.767 594.48 513.499 594.072C514.231 593.664 515.053 593.46 515.965 593.46C516.877 593.46 517.699 593.664 518.431 594.072C519.163 594.48 519.733 595.05 520.141 595.782C520.561 596.514 520.771 597.342 520.771 598.266C520.771 599.19 520.561 600.018 520.141 600.75C519.733 601.482 519.163 602.058 518.431 602.478C517.699 602.886 516.877 603.09 515.965 603.09ZM515.965 601.956C516.637 601.956 517.237 601.806 517.765 601.506C518.305 601.194 518.725 600.756 519.025 600.192C519.325 599.628 519.475 598.986 519.475 598.266C519.475 597.546 519.325 596.904 519.025 596.34C518.725 595.776 518.305 595.344 517.765 595.044C517.237 594.732 516.637 594.576 515.965 594.576C515.293 594.576 514.687 594.732 514.147 595.044C513.619 595.344 513.199 595.776 512.887 596.34C512.587 596.904 512.437 597.546 512.437 598.266C512.437 598.986 512.587 599.628 512.887 600.192C513.199 600.756 513.619 601.194 514.147 601.506C514.687 601.806 515.293 601.956 515.965 601.956ZM535.188 593.46C536.376 593.46 537.306 593.802 537.978 594.486C538.662 595.17 539.004 596.178 539.004 597.51V603H537.726V597.636C537.726 596.652 537.486 595.902 537.006 595.386C536.538 594.87 535.872 594.612 535.008 594.612C534.024 594.612 533.25 594.918 532.686 595.53C532.122 596.13 531.84 596.964 531.84 598.032V603H530.562V597.636C530.562 596.652 530.322 595.902 529.842 595.386C529.374 594.87 528.702 594.612 527.826 594.612C526.854 594.612 526.08 594.918 525.504 595.53C524.94 596.13 524.658 596.964 524.658 598.032V603H523.38V593.532H524.604V595.26C524.94 594.684 525.408 594.24 526.008 593.928C526.608 593.616 527.298 593.46 528.078 593.46C528.87 593.46 529.554 593.628 530.13 593.964C530.718 594.3 531.156 594.798 531.444 595.458C531.792 594.834 532.29 594.348 532.938 594C533.598 593.64 534.348 593.46 535.188 593.46ZM547.348 593.46C548.236 593.46 549.04 593.664 549.76 594.072C550.48 594.468 551.044 595.032 551.452 595.764C551.86 596.496 552.064 597.33 552.064 598.266C552.064 599.214 551.86 600.054 551.452 600.786C551.044 601.518 550.48 602.088 549.76 602.496C549.052 602.892 548.248 603.09 547.348 603.09C546.58 603.09 545.884 602.934 545.26 602.622C544.648 602.298 544.144 601.83 543.748 601.218V606.492H542.47V593.532H543.694V595.404C544.078 594.78 544.582 594.3 545.206 593.964C545.842 593.628 546.556 593.46 547.348 593.46ZM547.258 601.956C547.918 601.956 548.518 601.806 549.058 601.506C549.598 601.194 550.018 600.756 550.318 600.192C550.63 599.628 550.786 598.986 550.786 598.266C550.786 597.546 550.63 596.91 550.318 596.358C550.018 595.794 549.598 595.356 549.058 595.044C548.518 594.732 547.918 594.576 547.258 594.576C546.586 594.576 545.98 594.732 545.439 595.044C544.912 595.356 544.492 595.794 544.18 596.358C543.88 596.91 543.73 597.546 543.73 598.266C543.73 598.986 543.88 599.628 544.18 600.192C544.492 600.756 544.912 601.194 545.439 601.506C545.98 601.806 546.586 601.956 547.258 601.956ZM554.669 589.644H555.947V603H554.669V589.644ZM559.503 593.532H560.781V603H559.503V593.532ZM560.151 591.462C559.887 591.462 559.665 591.372 559.485 591.192C559.305 591.012 559.215 590.796 559.215 590.544C559.215 590.304 559.305 590.094 559.485 589.914C559.665 589.734 559.887 589.644 560.151 589.644C560.415 589.644 560.637 589.734 560.817 589.914C560.997 590.082 561.087 590.286 561.087 590.526C561.087 590.79 560.997 591.012 560.817 591.192C560.637 591.372 560.415 591.462 560.151 591.462ZM576.145 593.46C577.333 593.46 578.263 593.802 578.935 594.486C579.619 595.17 579.961 596.178 579.961 597.51V603H578.683V597.636C578.683 596.652 578.443 595.902 577.963 595.386C577.495 594.87 576.829 594.612 575.965 594.612C574.981 594.612 574.207 594.918 573.643 595.53C573.079 596.13 572.797 596.964 572.797 598.032V603H571.519V597.636C571.519 596.652 571.279 595.902 570.799 595.386C570.331 594.87 569.659 594.612 568.783 594.612C567.811 594.612 567.037 594.918 566.461 595.53C565.897 596.13 565.615 596.964 565.615 598.032V603H564.337V593.532H565.561V595.26C565.897 594.684 566.365 594.24 566.965 593.928C567.565 593.616 568.255 593.46 569.035 593.46C569.827 593.46 570.511 593.628 571.087 593.964C571.675 594.3 572.113 594.798 572.401 595.458C572.749 594.834 573.247 594.348 573.895 594C574.555 593.64 575.305 593.46 576.145 593.46ZM591.706 598.662H583.786C583.858 599.646 584.236 600.444 584.92 601.056C585.604 601.656 586.468 601.956 587.512 601.956C588.1 601.956 588.64 601.854 589.132 601.65C589.624 601.434 590.05 601.122 590.41 600.714L591.13 601.542C590.71 602.046 590.182 602.43 589.546 602.694C588.922 602.958 588.232 603.09 587.476 603.09C586.504 603.09 585.64 602.886 584.884 602.478C584.14 602.058 583.558 601.482 583.138 600.75C582.718 600.018 582.508 599.19 582.508 598.266C582.508 597.342 582.706 596.514 583.102 595.782C583.51 595.05 584.062 594.48 584.758 594.072C585.466 593.664 586.258 593.46 587.134 593.46C588.01 593.46 588.796 593.664 589.492 594.072C590.188 594.48 590.734 595.05 591.13 595.782C591.526 596.502 591.724 597.33 591.724 598.266L591.706 598.662ZM587.134 594.558C586.222 594.558 585.454 594.852 584.83 595.44C584.218 596.016 583.87 596.772 583.786 597.708H590.5C590.416 596.772 590.062 596.016 589.438 595.44C588.826 594.852 588.058 594.558 587.134 594.558ZM599.149 593.46C600.337 593.46 601.279 593.808 601.975 594.504C602.683 595.188 603.037 596.19 603.037 597.51V603H601.759V597.636C601.759 596.652 601.513 595.902 601.021 595.386C600.529 594.87 599.827 594.612 598.915 594.612C597.895 594.612 597.085 594.918 596.485 595.53C595.897 596.13 595.603 596.964 595.603 598.032V603H594.325V593.532H595.549V595.278C595.897 594.702 596.377 594.258 596.989 593.946C597.613 593.622 598.333 593.46 599.149 593.46ZM611.493 602.424C611.253 602.64 610.953 602.808 610.593 602.928C610.245 603.036 609.879 603.09 609.495 603.09C608.607 603.09 607.923 602.85 607.443 602.37C606.963 601.89 606.723 601.212 606.723 600.336V594.612H605.031V593.532H606.723V591.462H608.001V593.532H610.881V594.612H608.001V600.264C608.001 600.828 608.139 601.26 608.415 601.56C608.703 601.848 609.111 601.992 609.639 601.992C609.903 601.992 610.155 601.95 610.395 601.866C610.647 601.782 610.863 601.662 611.043 601.506L611.493 602.424Z" fill="black"/>
<path d="M1151.45 36.0116C1150.89 36.0116 1150.44 36.4647 1150.44 37.0237V45.1708H1145.31C1144.75 45.1708 1144.3 45.6239 1144.3 46.1829V46.6889C1144.3 47.2478 1144.75 47.701 1145.31 47.701H1151.96C1152.52 47.701 1152.97 47.2478 1152.97 46.6889V37.0237C1152.97 36.4647 1152.52 36.0116 1151.96 36.0116H1151.45Z" fill="#3A3A3A"/>
<path d="M1155.94 59.2694L1155.94 59.2297C1155.94 59.2272 1155.94 59.2246 1155.94 59.2221V58.1782C1154.62 58.6238 1153.21 58.8656 1151.74 58.8656C1144.45 58.8656 1138.53 52.9415 1138.53 45.66C1138.53 38.3784 1144.45 32.4545 1151.74 32.4545C1158.4 32.4545 1163.92 37.4125 1164.81 43.832C1165.72 43.8448 1166.58 43.9091 1167.39 44.0187C1166.56 36.1104 1159.86 29.9243 1151.74 29.9243C1143.06 29.9243 1136 36.9833 1136 45.66C1136 54.3366 1143.06 61.3957 1151.74 61.3957C1153.33 61.3957 1154.87 61.1569 1156.32 60.7144C1156.07 60.3846 1155.94 60.0306 1155.94 59.6593L1155.94 59.2694Z" fill="#3A3A3A"/>
<path d="M1156.96 47.2574C1156.96 48.2665 1159.82 49.6739 1164.48 49.6739C1169.14 49.6739 1172 48.2665 1172 47.2574C1172 46.2484 1169.14 44.8409 1164.48 44.8409C1159.82 44.8409 1156.96 46.2485 1156.96 47.2574ZM1164.64 46.1549L1164.71 46.2909C1165.13 46.3007 1165.55 46.3393 1165.89 46.3998C1165.99 46.4175 1166.03 46.4575 1165.99 46.4895L1165.7 46.7204C1165.66 46.7524 1165.55 46.7641 1165.45 46.7465C1165.21 46.703 1164.82 46.6778 1164.51 46.6855C1164.19 46.6936 1163.65 46.7393 1163.71 46.8593C1163.77 46.9775 1163.97 47.017 1164.82 47.0821C1165.55 47.1376 1166.65 47.2217 1166.85 47.6366C1166.99 47.898 1166.53 48.1104 1165.69 48.189L1165.76 48.332C1165.78 48.3683 1165.71 48.3997 1165.61 48.4025L1164.86 48.4213C1164.75 48.4237 1164.65 48.3965 1164.63 48.3601L1164.56 48.21C1164.04 48.1825 1163.54 48.1064 1163.16 47.9967C1163.07 47.9721 1163.05 47.9304 1163.11 47.9035L1163.57 47.7092C1163.6 47.6961 1163.64 47.6887 1163.69 47.6878C1163.75 47.687 1163.8 47.6933 1163.84 47.7049C1164.11 47.7849 1164.57 47.8342 1164.96 47.8246C1165.27 47.817 1165.78 47.7743 1165.72 47.663C1165.67 47.5625 1165.5 47.5298 1164.69 47.4682C1163.94 47.4107 1162.81 47.324 1162.58 46.8875C1162.45 46.6386 1162.84 46.433 1163.59 46.3408L1163.51 46.1831C1163.49 46.1468 1163.56 46.1153 1163.66 46.1126L1164.42 46.0938C1164.52 46.0913 1164.62 46.1185 1164.64 46.1549Z" fill="#3A3A3A"/>
<path d="M1156.96 48.9435V50.9994V51.0013V51.4572C1157.08 52.4603 1159.91 53.8067 1164.47 53.8067C1169.13 53.8067 1171.99 52.3994 1171.99 51.3902L1172 48.9454C1170.46 50.0851 1167.4 50.6861 1164.48 50.6861C1161.55 50.686 1158.49 50.0843 1156.96 48.9435Z" fill="#3A3A3A"/>
<path d="M1156.96 57.2145V59.2683C1156.96 59.2769 1156.95 59.285 1156.95 59.2935C1156.95 59.3077 1156.95 59.3217 1156.95 59.3357L1156.95 59.6593C1156.95 60.6683 1159.81 62.0756 1164.47 62.0756C1169.13 62.0756 1171.99 60.6683 1171.99 59.6591L1172 57.2076C1170.46 58.3498 1167.4 58.9525 1164.47 58.9525C1161.55 58.9526 1158.5 58.3523 1156.96 57.2145Z" fill="#3A3A3A"/>
<path d="M1156.96 53.0806V55.1331V55.1362V55.5909C1157.08 56.5939 1159.91 57.9404 1164.47 57.9404C1169.13 57.9404 1171.99 56.533 1171.99 55.524L1172 53.0737C1170.46 54.2159 1167.4 54.8186 1164.47 54.8186C1161.55 54.8187 1158.49 54.2185 1156.96 53.0806Z" fill="#3A3A3A"/>
<circle cx="1136" cy="32" r="10" fill="#C4C4C4"/>
<path d="M1135.9 36.2051C1137.87 36.2051 1139.02 34.582 1139.02 31.7812C1139.02 28.9746 1137.85 27.3398 1135.9 27.3398C1133.94 27.3398 1132.77 28.9746 1132.77 31.7637C1132.77 34.5762 1133.93 36.2051 1135.9 36.2051ZM1135.9 35.1152C1134.75 35.1152 1134.1 33.9434 1134.1 31.7637C1134.1 29.6133 1134.77 28.4355 1135.9 28.4355C1137.04 28.4355 1137.7 29.6016 1137.7 31.7637C1137.7 33.9492 1137.05 35.1152 1135.9 35.1152Z" fill="black"/>
<rect x="1062" y="805" width="250" height="72" rx="20" fill="#C4C4C4"/>
<path d="M1155.92 850.281C1160.14 850.281 1162.73 848.195 1162.73 844.891C1162.73 842.324 1161.18 840.883 1157.59 840.168L1155.81 839.805C1153.81 839.406 1153 838.762 1153 837.719C1153 836.477 1154.16 835.656 1155.91 835.656C1157.36 835.656 1158.45 836.184 1159.01 837.461C1159.41 838.188 1159.9 838.504 1160.7 838.504C1161.6 838.504 1162.21 837.93 1162.21 837.086C1162.21 836.781 1162.16 836.535 1162.08 836.301C1161.33 834.098 1159 832.797 1155.91 832.797C1152.14 832.797 1149.45 834.848 1149.45 837.941C1149.45 840.461 1151.1 842.078 1154.48 842.746L1156.27 843.098C1158.39 843.531 1159.19 844.164 1159.19 845.277C1159.19 846.52 1157.9 847.434 1156 847.434C1154.38 847.434 1153.06 846.848 1152.51 845.559C1152.09 844.809 1151.61 844.527 1150.88 844.527C1149.96 844.527 1149.32 845.148 1149.32 846.086C1149.32 846.402 1149.39 846.73 1149.51 847.035C1150.19 848.887 1152.43 850.281 1155.92 850.281ZM1169.07 850.234C1170.96 850.234 1172.21 849.32 1172.83 847.738H1172.9V848.512C1172.9 849.648 1173.57 850.246 1174.55 850.246C1175.54 850.246 1176.2 849.648 1176.2 848.512V838.973C1176.2 837.801 1175.5 837.18 1174.49 837.18C1173.5 837.18 1172.78 837.801 1172.78 838.973V844.633C1172.78 846.297 1171.83 847.387 1170.31 847.387C1168.8 847.387 1167.96 846.496 1167.96 844.82V838.973C1167.96 837.801 1167.26 837.18 1166.25 837.18C1165.26 837.18 1164.54 837.801 1164.54 838.973V845.535C1164.54 848.465 1166.35 850.234 1169.07 850.234ZM1180.19 850.246C1181.18 850.246 1181.89 849.648 1181.89 848.512V847.844H1181.96C1182.66 849.309 1184.05 850.199 1185.89 850.199C1189.07 850.199 1190.99 847.762 1190.99 843.719C1190.99 839.664 1189.06 837.238 1185.88 837.238C1184.1 837.238 1182.7 838.129 1182 839.617H1181.93V834.625C1181.93 833.453 1181.23 832.832 1180.22 832.832C1179.23 832.832 1178.51 833.453 1178.51 834.625V848.512C1178.51 849.66 1179.2 850.246 1180.19 850.246ZM1184.72 847.445C1183.06 847.445 1181.92 845.992 1181.92 843.719C1181.92 841.469 1183.06 839.98 1184.72 839.98C1186.42 839.98 1187.49 841.434 1187.49 843.719C1187.49 846.016 1186.42 847.445 1184.72 847.445ZM1194.48 850.246C1195.49 850.246 1196.2 849.625 1196.2 848.465V842.418C1196.2 841.012 1197.07 840.027 1198.38 840.027C1199.64 840.027 1200.4 840.824 1200.4 842.172V848.465C1200.4 849.625 1201.04 850.246 1202.04 850.246C1203.06 850.246 1203.7 849.625 1203.7 848.465V842.371C1203.7 840.977 1204.55 840.027 1205.85 840.027C1207.18 840.027 1207.9 840.824 1207.9 842.277V848.465C1207.9 849.625 1208.59 850.246 1209.6 850.246C1210.62 850.246 1211.32 849.625 1211.32 848.465V841.422C1211.32 838.891 1209.67 837.203 1207.21 837.203C1205.37 837.203 1203.87 838.199 1203.31 839.781H1203.24C1202.82 838.141 1201.55 837.203 1199.73 837.203C1198.02 837.203 1196.68 838.199 1196.15 839.711H1196.08V838.926C1196.08 837.777 1195.4 837.18 1194.43 837.18C1193.45 837.18 1192.77 837.777 1192.77 838.926V848.465C1192.77 849.625 1193.46 850.246 1194.48 850.246ZM1215.26 835.879C1216.29 835.879 1217.09 835.094 1217.09 834.109C1217.09 833.113 1216.29 832.34 1215.26 832.34C1214.23 832.34 1213.43 833.113 1213.43 834.109C1213.43 835.094 1214.23 835.879 1215.26 835.879ZM1215.26 850.246C1216.32 850.246 1216.97 849.578 1216.97 848.465V838.973C1216.97 837.859 1216.32 837.18 1215.26 837.18C1214.2 837.18 1213.55 837.859 1213.55 838.973V848.465C1213.55 849.578 1214.2 850.246 1215.26 850.246ZM1220.17 846.789C1220.17 849.004 1221.33 850.141 1223.62 850.141H1223.73C1225.18 850.141 1226.16 849.625 1226.16 848.617C1226.16 847.82 1225.7 847.469 1224.86 847.375L1224.64 847.352C1223.9 847.293 1223.59 846.918 1223.59 846.027V840.016H1224.8C1225.61 840.016 1226.11 839.512 1226.11 838.727C1226.11 837.941 1225.61 837.438 1224.8 837.438H1223.59V836.043C1223.59 834.941 1222.95 834.262 1221.88 834.262C1220.82 834.262 1220.17 834.941 1220.17 836.043V837.438H1219.52C1218.71 837.438 1218.19 837.93 1218.19 838.727C1218.19 839.523 1218.71 840.016 1219.52 840.016H1220.17V846.789Z" fill="#3A3A3A"/>
</svg>
