<svg width="1440" height="1024" viewBox="0 0 1440 1024" fill="none" xmlns="http://www.w3.org/2000/svg">
<rect width="1440" height="1024" fill="white"/>
<rect width="1440" height="92" fill="#DCDCDC"/>
<path d="M646.552 59L646.48 47.516L641.008 56.732H637.264L631.792 47.912V59H624.052V33.8H631.036L639.244 47.228L647.236 33.8H654.22L654.292 59H646.552ZM671.612 59.576C668.9 59.576 666.464 59.012 664.304 57.884C662.144 56.756 660.452 55.196 659.228 53.204C658.004 51.188 657.392 48.92 657.392 46.4C657.392 43.88 658.004 41.624 659.228 39.632C660.452 37.616 662.144 36.044 664.304 34.916C666.464 33.788 668.9 33.224 671.612 33.224C674.324 33.224 676.76 33.788 678.92 34.916C681.08 36.044 682.772 37.616 683.996 39.632C685.22 41.624 685.832 43.88 685.832 46.4C685.832 48.92 685.22 51.188 683.996 53.204C682.772 55.196 681.08 56.756 678.92 57.884C676.76 59.012 674.324 59.576 671.612 59.576ZM671.612 52.7C672.668 52.7 673.616 52.448 674.456 51.944C675.32 51.416 676.004 50.684 676.508 49.748C677.012 48.788 677.264 47.672 677.264 46.4C677.264 45.128 677.012 44.024 676.508 43.088C676.004 42.128 675.32 41.396 674.456 40.892C673.616 40.364 672.668 40.1 671.612 40.1C670.556 40.1 669.596 40.364 668.732 40.892C667.892 41.396 667.22 42.128 666.716 43.088C666.212 44.024 665.96 45.128 665.96 46.4C665.96 47.672 666.212 48.788 666.716 49.748C667.22 50.684 667.892 51.416 668.732 51.944C669.596 52.448 670.556 52.7 671.612 52.7ZM702.127 59.576C699.415 59.576 696.979 59.012 694.819 57.884C692.659 56.756 690.967 55.196 689.743 53.204C688.519 51.188 687.907 48.92 687.907 46.4C687.907 43.88 688.519 41.624 689.743 39.632C690.967 37.616 692.659 36.044 694.819 34.916C696.979 33.788 699.415 33.224 702.127 33.224C704.839 33.224 707.275 33.788 709.435 34.916C711.595 36.044 713.287 37.616 714.511 39.632C715.735 41.624 716.347 43.88 716.347 46.4C716.347 48.92 715.735 51.188 714.511 53.204C713.287 55.196 711.595 56.756 709.435 57.884C707.275 59.012 704.839 59.576 702.127 59.576ZM702.127 52.7C703.183 52.7 704.131 52.448 704.971 51.944C705.835 51.416 706.519 50.684 707.023 49.748C707.527 48.788 707.779 47.672 707.779 46.4C707.779 45.128 707.527 44.024 707.023 43.088C706.519 42.128 705.835 41.396 704.971 40.892C704.131 40.364 703.183 40.1 702.127 40.1C701.071 40.1 700.111 40.364 699.247 40.892C698.407 41.396 697.735 42.128 697.231 43.088C696.727 44.024 696.475 45.128 696.475 46.4C696.475 47.672 696.727 48.788 697.231 49.748C697.735 50.684 698.407 51.416 699.247 51.944C700.111 52.448 701.071 52.7 702.127 52.7ZM728.827 59.576C726.739 59.576 724.699 59.348 722.707 58.892C720.739 58.412 719.119 57.776 717.847 56.984L720.583 50.792C721.783 51.488 723.127 52.052 724.615 52.484C726.103 52.892 727.531 53.096 728.899 53.096C730.075 53.096 730.915 52.988 731.419 52.772C731.923 52.532 732.175 52.184 732.175 51.728C732.175 51.2 731.839 50.804 731.167 50.54C730.519 50.276 729.439 49.988 727.927 49.676C725.983 49.268 724.363 48.836 723.067 48.38C721.771 47.9 720.643 47.132 719.683 46.076C718.723 44.996 718.243 43.544 718.243 41.72C718.243 40.136 718.687 38.696 719.575 37.4C720.463 36.104 721.783 35.084 723.535 34.34C725.311 33.596 727.459 33.224 729.979 33.224C731.707 33.224 733.399 33.416 735.055 33.8C736.735 34.16 738.211 34.7 739.483 35.42L736.927 41.576C734.455 40.328 732.115 39.704 729.907 39.704C727.723 39.704 726.631 40.232 726.631 41.288C726.631 41.792 726.955 42.176 727.603 42.44C728.251 42.68 729.319 42.944 730.807 43.232C732.727 43.592 734.347 44.012 735.667 44.492C736.987 44.948 738.127 45.704 739.087 46.76C740.071 47.816 740.563 49.256 740.563 51.08C740.563 52.664 740.119 54.104 739.231 55.4C738.343 56.672 737.011 57.692 735.235 58.46C733.483 59.204 731.347 59.576 728.827 59.576ZM764.043 52.592V59H743.091V33.8H763.575V40.208H751.443V43.16H762.099V49.28H751.443V52.592H764.043Z" fill="#3A3A3A"/>
<circle cx="799" cy="45" r="18" fill="#C4C4C4"/>
<path d="M516.489 174.2L510.993 191H506.817L503.121 179.624L499.305 191H495.153L489.633 174.2H493.665L497.457 186.008L501.417 174.2H505.017L508.857 186.104L512.769 174.2H516.489ZM526.596 177.896C528.196 177.896 529.484 178.376 530.46 179.336C531.452 180.296 531.948 181.72 531.948 183.608V191H528.204V184.184C528.204 183.16 527.98 182.4 527.532 181.904C527.084 181.392 526.436 181.136 525.588 181.136C524.644 181.136 523.892 181.432 523.332 182.024C522.772 182.6 522.492 183.464 522.492 184.616V191H518.748V173.192H522.492V179.432C522.988 178.936 523.588 178.56 524.292 178.304C524.996 178.032 525.764 177.896 526.596 177.896ZM540.549 177.896C542.549 177.896 544.085 178.376 545.157 179.336C546.229 180.28 546.765 181.712 546.765 183.632V191H543.261V189.392C542.557 190.592 541.245 191.192 539.325 191.192C538.333 191.192 537.469 191.024 536.733 190.688C536.013 190.352 535.461 189.888 535.077 189.296C534.693 188.704 534.501 188.032 534.501 187.28C534.501 186.08 534.949 185.136 535.845 184.448C536.757 183.76 538.157 183.416 540.045 183.416H543.021C543.021 182.6 542.773 181.976 542.277 181.544C541.781 181.096 541.037 180.872 540.045 180.872C539.357 180.872 538.677 180.984 538.005 181.208C537.349 181.416 536.789 181.704 536.325 182.072L534.981 179.456C535.685 178.96 536.525 178.576 537.501 178.304C538.493 178.032 539.509 177.896 540.549 177.896ZM540.261 188.672C540.901 188.672 541.469 188.528 541.965 188.24C542.461 187.936 542.813 187.496 543.021 186.92V185.6H540.453C538.917 185.6 538.149 186.104 538.149 187.112C538.149 187.592 538.333 187.976 538.701 188.264C539.085 188.536 539.605 188.672 540.261 188.672ZM558.482 190.376C558.114 190.648 557.658 190.856 557.114 191C556.586 191.128 556.026 191.192 555.434 191.192C553.898 191.192 552.706 190.8 551.858 190.016C551.026 189.232 550.61 188.08 550.61 186.56V181.256H548.618V178.376H550.61V175.232H554.354V178.376H557.57V181.256H554.354V186.512C554.354 187.056 554.49 187.48 554.762 187.784C555.05 188.072 555.45 188.216 555.962 188.216C556.554 188.216 557.058 188.056 557.474 187.736L558.482 190.376ZM572.588 177.896C574.588 177.896 576.124 178.376 577.196 179.336C578.268 180.28 578.804 181.712 578.804 183.632V191H575.3V189.392C574.596 190.592 573.284 191.192 571.364 191.192C570.372 191.192 569.508 191.024 568.772 190.688C568.052 190.352 567.5 189.888 567.116 189.296C566.732 188.704 566.54 188.032 566.54 187.28C566.54 186.08 566.988 185.136 567.884 184.448C568.796 183.76 570.196 183.416 572.084 183.416H575.06C575.06 182.6 574.812 181.976 574.316 181.544C573.82 181.096 573.076 180.872 572.084 180.872C571.396 180.872 570.716 180.984 570.044 181.208C569.388 181.416 568.828 181.704 568.364 182.072L567.02 179.456C567.724 178.96 568.564 178.576 569.54 178.304C570.532 178.032 571.548 177.896 572.588 177.896ZM572.3 188.672C572.94 188.672 573.508 188.528 574.004 188.24C574.5 187.936 574.852 187.496 575.06 186.92V185.6H572.492C570.956 185.6 570.188 186.104 570.188 187.112C570.188 187.592 570.372 187.976 570.74 188.264C571.124 188.536 571.644 188.672 572.3 188.672ZM585.769 179.792C586.217 179.168 586.817 178.696 587.569 178.376C588.337 178.056 589.217 177.896 590.209 177.896V181.352C589.793 181.32 589.513 181.304 589.369 181.304C588.297 181.304 587.457 181.608 586.849 182.216C586.241 182.808 585.937 183.704 585.937 184.904V191H582.193V178.088H585.769V179.792ZM604.966 184.592C604.966 184.64 604.942 184.976 604.894 185.6H595.126C595.302 186.4 595.718 187.032 596.374 187.496C597.03 187.96 597.846 188.192 598.822 188.192C599.494 188.192 600.086 188.096 600.598 187.904C601.126 187.696 601.614 187.376 602.062 186.944L604.054 189.104C602.838 190.496 601.062 191.192 598.726 191.192C597.27 191.192 595.982 190.912 594.862 190.352C593.742 189.776 592.878 188.984 592.27 187.976C591.662 186.968 591.358 185.824 591.358 184.544C591.358 183.28 591.654 182.144 592.246 181.136C592.854 180.112 593.678 179.32 594.718 178.76C595.774 178.184 596.95 177.896 598.246 177.896C599.51 177.896 600.654 178.168 601.678 178.712C602.702 179.256 603.502 180.04 604.078 181.064C604.67 182.072 604.966 183.248 604.966 184.592ZM598.27 180.728C597.422 180.728 596.71 180.968 596.134 181.448C595.558 181.928 595.206 182.584 595.078 183.416H601.438C601.31 182.6 600.958 181.952 600.382 181.472C599.806 180.976 599.102 180.728 598.27 180.728ZM627.071 178.088L621.239 191.792C620.647 193.28 619.911 194.328 619.031 194.936C618.167 195.544 617.119 195.848 615.887 195.848C615.215 195.848 614.551 195.744 613.895 195.536C613.239 195.328 612.703 195.04 612.287 194.672L613.655 192.008C613.943 192.264 614.271 192.464 614.639 192.608C615.023 192.752 615.399 192.824 615.767 192.824C616.279 192.824 616.695 192.696 617.015 192.44C617.335 192.2 617.623 191.792 617.879 191.216L617.927 191.096L612.335 178.088H616.199L619.823 186.848L623.471 178.088H627.071ZM634.392 191.192C633.032 191.192 631.808 190.912 630.72 190.352C629.648 189.776 628.808 188.984 628.2 187.976C627.592 186.968 627.288 185.824 627.288 184.544C627.288 183.264 627.592 182.12 628.2 181.112C628.808 180.104 629.648 179.32 630.72 178.76C631.808 178.184 633.032 177.896 634.392 177.896C635.752 177.896 636.968 178.184 638.04 178.76C639.112 179.32 639.952 180.104 640.56 181.112C641.168 182.12 641.472 183.264 641.472 184.544C641.472 185.824 641.168 186.968 640.56 187.976C639.952 188.984 639.112 189.776 638.04 190.352C636.968 190.912 635.752 191.192 634.392 191.192ZM634.392 188.12C635.352 188.12 636.136 187.8 636.744 187.16C637.368 186.504 637.68 185.632 637.68 184.544C637.68 183.456 637.368 182.592 636.744 181.952C636.136 181.296 635.352 180.968 634.392 180.968C633.432 180.968 632.64 181.296 632.016 181.952C631.392 182.592 631.08 183.456 631.08 184.544C631.08 185.632 631.392 186.504 632.016 187.16C632.64 187.8 633.432 188.12 634.392 188.12ZM656.982 178.088V191H653.43V189.464C652.934 190.024 652.342 190.456 651.654 190.76C650.966 191.048 650.222 191.192 649.422 191.192C647.726 191.192 646.382 190.704 645.39 189.728C644.398 188.752 643.902 187.304 643.902 185.384V178.088H647.646V184.832C647.646 186.912 648.518 187.952 650.262 187.952C651.158 187.952 651.878 187.664 652.422 187.088C652.966 186.496 653.238 185.624 653.238 184.472V178.088H656.982ZM667.248 178.088H670.992V191H667.248V178.088ZM669.12 176.288C668.432 176.288 667.872 176.088 667.44 175.688C667.008 175.288 666.792 174.792 666.792 174.2C666.792 173.608 667.008 173.112 667.44 172.712C667.872 172.312 668.432 172.112 669.12 172.112C669.808 172.112 670.368 172.304 670.8 172.688C671.232 173.072 671.448 173.552 671.448 174.128C671.448 174.752 671.232 175.272 670.8 175.688C670.368 176.088 669.808 176.288 669.12 176.288ZM682.314 177.896C683.914 177.896 685.202 178.376 686.178 179.336C687.17 180.296 687.666 181.72 687.666 183.608V191H683.922V184.184C683.922 183.16 683.698 182.4 683.25 181.904C682.802 181.392 682.154 181.136 681.306 181.136C680.362 181.136 679.61 181.432 679.05 182.024C678.49 182.6 678.21 183.464 678.21 184.616V191H674.466V178.088H678.042V179.6C678.538 179.056 679.154 178.64 679.89 178.352C680.626 178.048 681.434 177.896 682.314 177.896ZM699.388 190.376C699.02 190.648 698.564 190.856 698.02 191C697.492 191.128 696.932 191.192 696.34 191.192C694.804 191.192 693.612 190.8 692.764 190.016C691.932 189.232 691.516 188.08 691.516 186.56V181.256H689.524V178.376H691.516V175.232H695.26V178.376H698.476V181.256H695.26V186.512C695.26 187.056 695.396 187.48 695.668 187.784C695.956 188.072 696.356 188.216 696.868 188.216C697.46 188.216 697.964 188.056 698.38 187.736L699.388 190.376ZM713.739 184.592C713.739 184.64 713.715 184.976 713.667 185.6H703.899C704.075 186.4 704.491 187.032 705.147 187.496C705.803 187.96 706.619 188.192 707.595 188.192C708.267 188.192 708.859 188.096 709.371 187.904C709.899 187.696 710.387 187.376 710.835 186.944L712.827 189.104C711.611 190.496 709.835 191.192 707.499 191.192C706.043 191.192 704.755 190.912 703.635 190.352C702.515 189.776 701.651 188.984 701.043 187.976C700.435 186.968 700.131 185.824 700.131 184.544C700.131 183.28 700.427 182.144 701.019 181.136C701.627 180.112 702.451 179.32 703.491 178.76C704.547 178.184 705.723 177.896 707.019 177.896C708.283 177.896 709.427 178.168 710.451 178.712C711.475 179.256 712.275 180.04 712.851 181.064C713.443 182.072 713.739 183.248 713.739 184.592ZM707.043 180.728C706.195 180.728 705.483 180.968 704.907 181.448C704.331 181.928 703.979 182.584 703.851 183.416H710.211C710.083 182.6 709.731 181.952 709.155 181.472C708.579 180.976 707.875 180.728 707.043 180.728ZM719.808 179.792C720.256 179.168 720.856 178.696 721.608 178.376C722.376 178.056 723.256 177.896 724.248 177.896V181.352C723.832 181.32 723.552 181.304 723.408 181.304C722.336 181.304 721.496 181.608 720.888 182.216C720.28 182.808 719.976 183.704 719.976 184.904V191H716.232V178.088H719.808V179.792ZM739.005 184.592C739.005 184.64 738.981 184.976 738.933 185.6H729.165C729.341 186.4 729.757 187.032 730.413 187.496C731.069 187.96 731.885 188.192 732.861 188.192C733.533 188.192 734.125 188.096 734.637 187.904C735.165 187.696 735.653 187.376 736.101 186.944L738.093 189.104C736.877 190.496 735.101 191.192 732.765 191.192C731.309 191.192 730.021 190.912 728.901 190.352C727.781 189.776 726.917 188.984 726.309 187.976C725.701 186.968 725.397 185.824 725.397 184.544C725.397 183.28 725.693 182.144 726.285 181.136C726.893 180.112 727.717 179.32 728.757 178.76C729.813 178.184 730.989 177.896 732.285 177.896C733.549 177.896 734.693 178.168 735.717 178.712C736.741 179.256 737.541 180.04 738.117 181.064C738.709 182.072 739.005 183.248 739.005 184.592ZM732.309 180.728C731.461 180.728 730.749 180.968 730.173 181.448C729.597 181.928 729.245 182.584 729.117 183.416H735.477C735.349 182.6 734.997 181.952 734.421 181.472C733.845 180.976 733.141 180.728 732.309 180.728ZM745.842 191.192C744.77 191.192 743.722 191.064 742.698 190.808C741.674 190.536 740.858 190.2 740.25 189.8L741.498 187.112C742.074 187.48 742.77 187.784 743.586 188.024C744.402 188.248 745.202 188.36 745.986 188.36C747.57 188.36 748.362 187.968 748.362 187.184C748.362 186.816 748.146 186.552 747.714 186.392C747.282 186.232 746.618 186.096 745.722 185.984C744.666 185.824 743.794 185.64 743.106 185.432C742.418 185.224 741.818 184.856 741.306 184.328C740.81 183.8 740.562 183.048 740.562 182.072C740.562 181.256 740.794 180.536 741.258 179.912C741.738 179.272 742.426 178.776 743.322 178.424C744.234 178.072 745.306 177.896 746.538 177.896C747.45 177.896 748.354 178 749.25 178.208C750.162 178.4 750.914 178.672 751.506 179.024L750.258 181.688C749.122 181.048 747.882 180.728 746.538 180.728C745.738 180.728 745.138 180.84 744.738 181.064C744.338 181.288 744.138 181.576 744.138 181.928C744.138 182.328 744.354 182.608 744.786 182.768C745.218 182.928 745.906 183.08 746.85 183.224C747.906 183.4 748.77 183.592 749.442 183.8C750.114 183.992 750.698 184.352 751.194 184.88C751.69 185.408 751.938 186.144 751.938 187.088C751.938 187.888 751.698 188.6 751.218 189.224C750.738 189.848 750.034 190.336 749.106 190.688C748.194 191.024 747.106 191.192 745.842 191.192ZM762.576 190.376C762.208 190.648 761.752 190.856 761.208 191C760.68 191.128 760.12 191.192 759.528 191.192C757.992 191.192 756.8 190.8 755.952 190.016C755.12 189.232 754.704 188.08 754.704 186.56V181.256H752.712V178.376H754.704V175.232H758.448V178.376H761.664V181.256H758.448V186.512C758.448 187.056 758.584 187.48 758.856 187.784C759.144 188.072 759.544 188.216 760.056 188.216C760.648 188.216 761.152 188.056 761.568 187.736L762.576 190.376ZM776.927 184.592C776.927 184.64 776.903 184.976 776.855 185.6H767.087C767.263 186.4 767.679 187.032 768.335 187.496C768.991 187.96 769.807 188.192 770.783 188.192C771.455 188.192 772.047 188.096 772.559 187.904C773.087 187.696 773.575 187.376 774.023 186.944L776.015 189.104C774.799 190.496 773.023 191.192 770.687 191.192C769.231 191.192 767.943 190.912 766.823 190.352C765.703 189.776 764.839 188.984 764.231 187.976C763.623 186.968 763.319 185.824 763.319 184.544C763.319 183.28 763.615 182.144 764.207 181.136C764.815 180.112 765.639 179.32 766.679 178.76C767.735 178.184 768.911 177.896 770.207 177.896C771.471 177.896 772.615 178.168 773.639 178.712C774.663 179.256 775.463 180.04 776.039 181.064C776.631 182.072 776.927 183.248 776.927 184.592ZM770.231 180.728C769.383 180.728 768.671 180.968 768.095 181.448C767.519 181.928 767.167 182.584 767.039 183.416H773.399C773.271 182.6 772.919 181.952 772.343 181.472C771.767 180.976 771.063 180.728 770.231 180.728ZM792.571 173.192V191H788.995V189.512C788.067 190.632 786.723 191.192 784.963 191.192C783.747 191.192 782.643 190.92 781.651 190.376C780.675 189.832 779.907 189.056 779.347 188.048C778.787 187.04 778.507 185.872 778.507 184.544C778.507 183.216 778.787 182.048 779.347 181.04C779.907 180.032 780.675 179.256 781.651 178.712C782.643 178.168 783.747 177.896 784.963 177.896C786.611 177.896 787.899 178.416 788.827 179.456V173.192H792.571ZM785.611 188.12C786.555 188.12 787.339 187.8 787.963 187.16C788.587 186.504 788.899 185.632 788.899 184.544C788.899 183.456 788.587 182.592 787.963 181.952C787.339 181.296 786.555 180.968 785.611 180.968C784.651 180.968 783.859 181.296 783.235 181.952C782.611 182.592 782.299 183.456 782.299 184.544C782.299 185.632 782.611 186.504 783.235 187.16C783.859 187.8 784.651 188.12 785.611 188.12ZM802.833 178.088H806.577V191H802.833V178.088ZM804.705 176.288C804.017 176.288 803.457 176.088 803.025 175.688C802.593 175.288 802.377 174.792 802.377 174.2C802.377 173.608 802.593 173.112 803.025 172.712C803.457 172.312 804.017 172.112 804.705 172.112C805.393 172.112 805.953 172.304 806.385 172.688C806.817 173.072 807.033 173.552 807.033 174.128C807.033 174.752 806.817 175.272 806.385 175.688C805.953 176.088 805.393 176.288 804.705 176.288ZM817.9 177.896C819.5 177.896 820.788 178.376 821.764 179.336C822.756 180.296 823.252 181.72 823.252 183.608V191H819.508V184.184C819.508 183.16 819.284 182.4 818.836 181.904C818.388 181.392 817.74 181.136 816.892 181.136C815.948 181.136 815.196 181.432 814.636 182.024C814.076 182.6 813.796 183.464 813.796 184.616V191H810.052V178.088H813.628V179.6C814.124 179.056 814.74 178.64 815.476 178.352C816.212 178.048 817.02 177.896 817.9 177.896ZM833.443 173.192H837.187V191H833.443V173.192ZM853.31 184.592C853.31 184.64 853.286 184.976 853.238 185.6H843.47C843.646 186.4 844.062 187.032 844.718 187.496C845.374 187.96 846.19 188.192 847.166 188.192C847.838 188.192 848.43 188.096 848.942 187.904C849.47 187.696 849.958 187.376 850.406 186.944L852.398 189.104C851.182 190.496 849.406 191.192 847.07 191.192C845.614 191.192 844.326 190.912 843.206 190.352C842.086 189.776 841.222 188.984 840.614 187.976C840.006 186.968 839.702 185.824 839.702 184.544C839.702 183.28 839.998 182.144 840.59 181.136C841.198 180.112 842.022 179.32 843.062 178.76C844.118 178.184 845.294 177.896 846.59 177.896C847.854 177.896 848.998 178.168 850.022 178.712C851.046 179.256 851.846 180.04 852.422 181.064C853.014 182.072 853.31 183.248 853.31 184.592ZM846.614 180.728C845.766 180.728 845.054 180.968 844.478 181.448C843.902 181.928 843.55 182.584 843.422 183.416H849.782C849.654 182.6 849.302 181.952 848.726 181.472C848.15 180.976 847.446 180.728 846.614 180.728ZM860.659 177.896C862.659 177.896 864.195 178.376 865.267 179.336C866.339 180.28 866.875 181.712 866.875 183.632V191H863.371V189.392C862.667 190.592 861.355 191.192 859.435 191.192C858.443 191.192 857.579 191.024 856.843 190.688C856.123 190.352 855.571 189.888 855.187 189.296C854.803 188.704 854.611 188.032 854.611 187.28C854.611 186.08 855.059 185.136 855.955 184.448C856.867 183.76 858.267 183.416 860.155 183.416H863.131C863.131 182.6 862.883 181.976 862.387 181.544C861.891 181.096 861.147 180.872 860.155 180.872C859.467 180.872 858.787 180.984 858.115 181.208C857.459 181.416 856.899 181.704 856.435 182.072L855.091 179.456C855.795 178.96 856.635 178.576 857.611 178.304C858.603 178.032 859.619 177.896 860.659 177.896ZM860.371 188.672C861.011 188.672 861.579 188.528 862.075 188.24C862.571 187.936 862.923 187.496 863.131 186.92V185.6H860.563C859.027 185.6 858.259 186.104 858.259 187.112C858.259 187.592 858.443 187.976 858.811 188.264C859.195 188.536 859.715 188.672 860.371 188.672ZM873.839 179.792C874.287 179.168 874.887 178.696 875.639 178.376C876.407 178.056 877.287 177.896 878.279 177.896V181.352C877.863 181.32 877.583 181.304 877.439 181.304C876.367 181.304 875.527 181.608 874.919 182.216C874.311 182.808 874.007 183.704 874.007 184.904V191H870.263V178.088H873.839V179.792ZM888.353 177.896C889.953 177.896 891.241 178.376 892.217 179.336C893.209 180.296 893.705 181.72 893.705 183.608V191H889.961V184.184C889.961 183.16 889.737 182.4 889.289 181.904C888.841 181.392 888.193 181.136 887.345 181.136C886.401 181.136 885.649 181.432 885.089 182.024C884.529 182.6 884.249 183.464 884.249 184.616V191H880.505V178.088H884.081V179.6C884.577 179.056 885.193 178.64 885.929 178.352C886.665 178.048 887.473 177.896 888.353 177.896ZM897.099 178.088H900.843V191H897.099V178.088ZM898.971 176.288C898.283 176.288 897.723 176.088 897.291 175.688C896.859 175.288 896.643 174.792 896.643 174.2C896.643 173.608 896.859 173.112 897.291 172.712C897.723 172.312 898.283 172.112 898.971 172.112C899.659 172.112 900.219 172.304 900.651 172.688C901.083 173.072 901.299 173.552 901.299 174.128C901.299 174.752 901.083 175.272 900.651 175.688C900.219 176.088 899.659 176.288 898.971 176.288ZM912.166 177.896C913.766 177.896 915.054 178.376 916.03 179.336C917.022 180.296 917.518 181.72 917.518 183.608V191H913.774V184.184C913.774 183.16 913.55 182.4 913.102 181.904C912.654 181.392 912.006 181.136 911.158 181.136C910.214 181.136 909.462 181.432 908.902 182.024C908.342 182.6 908.062 183.464 908.062 184.616V191H904.318V178.088H907.894V179.6C908.39 179.056 909.006 178.64 909.742 178.352C910.478 178.048 911.286 177.896 912.166 177.896ZM934.372 178.088V188.84C934.372 191.208 933.756 192.968 932.524 194.12C931.292 195.272 929.492 195.848 927.124 195.848C925.876 195.848 924.692 195.696 923.572 195.392C922.452 195.088 921.524 194.648 920.788 194.072L922.276 191.384C922.82 191.832 923.508 192.184 924.34 192.44C925.172 192.712 926.004 192.848 926.836 192.848C928.132 192.848 929.084 192.552 929.692 191.96C930.316 191.384 930.628 190.504 930.628 189.32V188.768C929.652 189.84 928.292 190.376 926.548 190.376C925.364 190.376 924.276 190.12 923.284 189.608C922.308 189.08 921.532 188.344 920.956 187.4C920.38 186.456 920.092 185.368 920.092 184.136C920.092 182.904 920.38 181.816 920.956 180.872C921.532 179.928 922.308 179.2 923.284 178.688C924.276 178.16 925.364 177.896 926.548 177.896C928.42 177.896 929.844 178.512 930.82 179.744V178.088H934.372ZM927.292 187.304C928.284 187.304 929.092 187.016 929.716 186.44C930.356 185.848 930.676 185.08 930.676 184.136C930.676 183.192 930.356 182.432 929.716 181.856C929.092 181.264 928.284 180.968 927.292 180.968C926.3 180.968 925.484 181.264 924.844 181.856C924.204 182.432 923.884 183.192 923.884 184.136C923.884 185.08 924.204 185.848 924.844 186.44C925.484 187.016 926.3 187.304 927.292 187.304ZM941.97 185.168C941.97 184.336 942.154 183.648 942.522 183.104C942.906 182.56 943.458 181.96 944.178 181.304C944.706 180.824 945.09 180.424 945.33 180.104C945.586 179.768 945.714 179.392 945.714 178.976C945.714 178.384 945.474 177.92 944.994 177.584C944.53 177.232 943.906 177.056 943.122 177.056C942.37 177.056 941.698 177.216 941.106 177.536C940.53 177.84 940.042 178.272 939.642 178.832L936.738 177.128C937.41 176.104 938.314 175.312 939.45 174.752C940.602 174.192 941.962 173.912 943.53 173.912C945.37 173.912 946.842 174.304 947.946 175.088C949.066 175.872 949.626 176.96 949.626 178.352C949.626 179.008 949.514 179.584 949.29 180.08C949.082 180.576 948.818 181 948.498 181.352C948.194 181.688 947.794 182.08 947.298 182.528C946.706 183.056 946.274 183.504 946.002 183.872C945.73 184.224 945.594 184.656 945.594 185.168H941.97ZM943.794 191.192C943.138 191.192 942.586 190.984 942.138 190.568C941.706 190.136 941.49 189.616 941.49 189.008C941.49 188.4 941.706 187.896 942.138 187.496C942.57 187.08 943.122 186.872 943.794 186.872C944.466 186.872 945.018 187.08 945.45 187.496C945.882 187.896 946.098 188.4 946.098 189.008C946.098 189.616 945.874 190.136 945.426 190.568C944.994 190.984 944.45 191.192 943.794 191.192Z" fill="#3A3A3A"/>
<path d="M465.125 448.2H472.757C474.581 448.2 476.189 448.552 477.581 449.256C478.989 449.944 480.077 450.92 480.845 452.184C481.629 453.448 482.021 454.92 482.021 456.6C482.021 458.28 481.629 459.752 480.845 461.016C480.077 462.28 478.989 463.264 477.581 463.968C476.189 464.656 474.581 465 472.757 465H465.125V448.2ZM472.565 461.808C474.245 461.808 475.581 461.344 476.573 460.416C477.581 459.472 478.085 458.2 478.085 456.6C478.085 455 477.581 453.736 476.573 452.808C475.581 451.864 474.245 451.392 472.565 451.392H469.013V461.808H472.565ZM490.833 465.192C489.473 465.192 488.249 464.912 487.161 464.352C486.089 463.776 485.249 462.984 484.641 461.976C484.033 460.968 483.729 459.824 483.729 458.544C483.729 457.264 484.033 456.12 484.641 455.112C485.249 454.104 486.089 453.32 487.161 452.76C488.249 452.184 489.473 451.896 490.833 451.896C492.193 451.896 493.409 452.184 494.481 452.76C495.553 453.32 496.393 454.104 497.001 455.112C497.609 456.12 497.913 457.264 497.913 458.544C497.913 459.824 497.609 460.968 497.001 461.976C496.393 462.984 495.553 463.776 494.481 464.352C493.409 464.912 492.193 465.192 490.833 465.192ZM490.833 462.12C491.793 462.12 492.577 461.8 493.185 461.16C493.809 460.504 494.121 459.632 494.121 458.544C494.121 457.456 493.809 456.592 493.185 455.952C492.577 455.296 491.793 454.968 490.833 454.968C489.873 454.968 489.081 455.296 488.457 455.952C487.833 456.592 487.521 457.456 487.521 458.544C487.521 459.632 487.833 460.504 488.457 461.16C489.081 461.8 489.873 462.12 490.833 462.12ZM520.028 452.088L514.196 465.792C513.604 467.28 512.868 468.328 511.988 468.936C511.124 469.544 510.076 469.848 508.844 469.848C508.172 469.848 507.508 469.744 506.852 469.536C506.196 469.328 505.66 469.04 505.244 468.672L506.612 466.008C506.9 466.264 507.228 466.464 507.596 466.608C507.98 466.752 508.356 466.824 508.724 466.824C509.236 466.824 509.652 466.696 509.972 466.44C510.292 466.2 510.58 465.792 510.836 465.216L510.884 465.096L505.292 452.088H509.156L512.78 460.848L516.428 452.088H520.028ZM527.349 465.192C525.989 465.192 524.765 464.912 523.677 464.352C522.605 463.776 521.765 462.984 521.157 461.976C520.549 460.968 520.245 459.824 520.245 458.544C520.245 457.264 520.549 456.12 521.157 455.112C521.765 454.104 522.605 453.32 523.677 452.76C524.765 452.184 525.989 451.896 527.349 451.896C528.709 451.896 529.925 452.184 530.997 452.76C532.069 453.32 532.909 454.104 533.517 455.112C534.125 456.12 534.429 457.264 534.429 458.544C534.429 459.824 534.125 460.968 533.517 461.976C532.909 462.984 532.069 463.776 530.997 464.352C529.925 464.912 528.709 465.192 527.349 465.192ZM527.349 462.12C528.309 462.12 529.093 461.8 529.701 461.16C530.325 460.504 530.637 459.632 530.637 458.544C530.637 457.456 530.325 456.592 529.701 455.952C529.093 455.296 528.309 454.968 527.349 454.968C526.389 454.968 525.597 455.296 524.973 455.952C524.349 456.592 524.037 457.456 524.037 458.544C524.037 459.632 524.349 460.504 524.973 461.16C525.597 461.8 526.389 462.12 527.349 462.12ZM549.939 452.088V465H546.387V463.464C545.891 464.024 545.299 464.456 544.611 464.76C543.923 465.048 543.179 465.192 542.379 465.192C540.683 465.192 539.339 464.704 538.347 463.728C537.355 462.752 536.859 461.304 536.859 459.384V452.088H540.603V458.832C540.603 460.912 541.475 461.952 543.219 461.952C544.115 461.952 544.835 461.664 545.379 461.088C545.923 460.496 546.195 459.624 546.195 458.472V452.088H549.939ZM568.053 451.896C569.653 451.896 570.941 452.376 571.917 453.336C572.909 454.296 573.405 455.72 573.405 457.608V465H569.661V458.184C569.661 457.16 569.437 456.4 568.989 455.904C568.541 455.392 567.893 455.136 567.045 455.136C566.101 455.136 565.349 455.432 564.789 456.024C564.229 456.6 563.949 457.464 563.949 458.616V465H560.205V447.192H563.949V453.432C564.445 452.936 565.045 452.56 565.749 452.304C566.453 452.032 567.221 451.896 568.053 451.896ZM582.006 451.896C584.006 451.896 585.542 452.376 586.614 453.336C587.686 454.28 588.222 455.712 588.222 457.632V465H584.718V463.392C584.014 464.592 582.702 465.192 580.782 465.192C579.79 465.192 578.926 465.024 578.19 464.688C577.47 464.352 576.918 463.888 576.534 463.296C576.15 462.704 575.958 462.032 575.958 461.28C575.958 460.08 576.406 459.136 577.302 458.448C578.214 457.76 579.614 457.416 581.502 457.416H584.478C584.478 456.6 584.23 455.976 583.734 455.544C583.238 455.096 582.494 454.872 581.502 454.872C580.814 454.872 580.134 454.984 579.462 455.208C578.806 455.416 578.246 455.704 577.782 456.072L576.438 453.456C577.142 452.96 577.982 452.576 578.958 452.304C579.95 452.032 580.966 451.896 582.006 451.896ZM581.718 462.672C582.358 462.672 582.926 462.528 583.422 462.24C583.918 461.936 584.27 461.496 584.478 460.92V459.6H581.91C580.374 459.6 579.606 460.104 579.606 461.112C579.606 461.592 579.79 461.976 580.158 462.264C580.542 462.536 581.062 462.672 581.718 462.672ZM604.192 452.088L598.744 465H594.88L589.456 452.088H593.32L596.896 460.872L600.592 452.088H604.192ZM618.017 458.592C618.017 458.64 617.993 458.976 617.945 459.6H608.177C608.353 460.4 608.769 461.032 609.425 461.496C610.081 461.96 610.897 462.192 611.873 462.192C612.545 462.192 613.137 462.096 613.649 461.904C614.177 461.696 614.665 461.376 615.113 460.944L617.105 463.104C615.889 464.496 614.113 465.192 611.777 465.192C610.321 465.192 609.033 464.912 607.913 464.352C606.793 463.776 605.929 462.984 605.321 461.976C604.713 460.968 604.409 459.824 604.409 458.544C604.409 457.28 604.705 456.144 605.297 455.136C605.905 454.112 606.729 453.32 607.769 452.76C608.825 452.184 610.001 451.896 611.297 451.896C612.561 451.896 613.705 452.168 614.729 452.712C615.753 453.256 616.553 454.04 617.129 455.064C617.721 456.072 618.017 457.248 618.017 458.592ZM611.321 454.728C610.473 454.728 609.761 454.968 609.185 455.448C608.609 455.928 608.257 456.584 608.129 457.416H614.489C614.361 456.6 614.009 455.952 613.433 455.472C612.857 454.976 612.153 454.728 611.321 454.728ZM632.514 451.896C634.514 451.896 636.05 452.376 637.122 453.336C638.194 454.28 638.73 455.712 638.73 457.632V465H635.226V463.392C634.522 464.592 633.21 465.192 631.29 465.192C630.298 465.192 629.434 465.024 628.698 464.688C627.978 464.352 627.426 463.888 627.042 463.296C626.658 462.704 626.466 462.032 626.466 461.28C626.466 460.08 626.914 459.136 627.81 458.448C628.722 457.76 630.122 457.416 632.01 457.416H634.986C634.986 456.6 634.738 455.976 634.242 455.544C633.746 455.096 633.002 454.872 632.01 454.872C631.322 454.872 630.642 454.984 629.97 455.208C629.314 455.416 628.754 455.704 628.29 456.072L626.946 453.456C627.65 452.96 628.49 452.576 629.466 452.304C630.458 452.032 631.474 451.896 632.514 451.896ZM632.226 462.672C632.866 462.672 633.434 462.528 633.93 462.24C634.426 461.936 634.778 461.496 634.986 460.92V459.6H632.418C630.882 459.6 630.114 460.104 630.114 461.112C630.114 461.592 630.298 461.976 630.666 462.264C631.05 462.536 631.57 462.672 632.226 462.672ZM649.967 451.896C651.567 451.896 652.855 452.376 653.831 453.336C654.823 454.296 655.319 455.72 655.319 457.608V465H651.575V458.184C651.575 457.16 651.351 456.4 650.903 455.904C650.455 455.392 649.807 455.136 648.959 455.136C648.015 455.136 647.263 455.432 646.703 456.024C646.143 456.6 645.863 457.464 645.863 458.616V465H642.119V452.088H645.695V453.6C646.191 453.056 646.807 452.64 647.543 452.352C648.279 452.048 649.087 451.896 649.967 451.896ZM671.294 452.088L665.462 465.792C664.87 467.28 664.134 468.328 663.254 468.936C662.39 469.544 661.342 469.848 660.11 469.848C659.438 469.848 658.774 469.744 658.118 469.536C657.462 469.328 656.926 469.04 656.51 468.672L657.878 466.008C658.166 466.264 658.494 466.464 658.862 466.608C659.246 466.752 659.622 466.824 659.99 466.824C660.502 466.824 660.918 466.696 661.238 466.44C661.558 466.2 661.846 465.792 662.102 465.216L662.15 465.096L656.558 452.088H660.422L664.046 460.848L667.694 452.088H671.294ZM683.963 465.192C682.891 465.192 681.843 465.064 680.819 464.808C679.795 464.536 678.979 464.2 678.371 463.8L679.619 461.112C680.195 461.48 680.891 461.784 681.707 462.024C682.523 462.248 683.323 462.36 684.107 462.36C685.691 462.36 686.483 461.968 686.483 461.184C686.483 460.816 686.267 460.552 685.835 460.392C685.403 460.232 684.739 460.096 683.843 459.984C682.787 459.824 681.915 459.64 681.227 459.432C680.539 459.224 679.939 458.856 679.427 458.328C678.931 457.8 678.683 457.048 678.683 456.072C678.683 455.256 678.915 454.536 679.379 453.912C679.859 453.272 680.547 452.776 681.443 452.424C682.355 452.072 683.427 451.896 684.659 451.896C685.571 451.896 686.475 452 687.371 452.208C688.283 452.4 689.035 452.672 689.627 453.024L688.379 455.688C687.243 455.048 686.003 454.728 684.659 454.728C683.859 454.728 683.259 454.84 682.859 455.064C682.459 455.288 682.259 455.576 682.259 455.928C682.259 456.328 682.475 456.608 682.907 456.768C683.339 456.928 684.027 457.08 684.971 457.224C686.027 457.4 686.891 457.592 687.563 457.8C688.235 457.992 688.819 458.352 689.315 458.88C689.811 459.408 690.059 460.144 690.059 461.088C690.059 461.888 689.819 462.6 689.339 463.224C688.859 463.848 688.155 464.336 687.227 464.688C686.315 465.024 685.227 465.192 683.963 465.192ZM697.913 459.936L696.113 461.712V465H692.369V447.192H696.113V457.272L701.585 452.088H706.049L700.673 457.56L706.529 465H701.993L697.913 459.936ZM708.119 452.088H711.863V465H708.119V452.088ZM709.991 450.288C709.303 450.288 708.743 450.088 708.311 449.688C707.879 449.288 707.663 448.792 707.663 448.2C707.663 447.608 707.879 447.112 708.311 446.712C708.743 446.312 709.303 446.112 709.991 446.112C710.679 446.112 711.239 446.304 711.671 446.688C712.103 447.072 712.319 447.552 712.319 448.128C712.319 448.752 712.103 449.272 711.671 449.688C711.239 450.088 710.679 450.288 709.991 450.288ZM715.337 447.192H719.081V465H715.337V447.192ZM722.556 447.192H726.3V465H722.556V447.192ZM734.119 465.192C733.047 465.192 731.999 465.064 730.975 464.808C729.951 464.536 729.135 464.2 728.527 463.8L729.775 461.112C730.351 461.48 731.047 461.784 731.863 462.024C732.679 462.248 733.479 462.36 734.263 462.36C735.847 462.36 736.639 461.968 736.639 461.184C736.639 460.816 736.423 460.552 735.991 460.392C735.559 460.232 734.895 460.096 733.999 459.984C732.943 459.824 732.071 459.64 731.383 459.432C730.695 459.224 730.095 458.856 729.583 458.328C729.087 457.8 728.839 457.048 728.839 456.072C728.839 455.256 729.071 454.536 729.535 453.912C730.015 453.272 730.703 452.776 731.599 452.424C732.511 452.072 733.583 451.896 734.815 451.896C735.727 451.896 736.631 452 737.527 452.208C738.439 452.4 739.191 452.672 739.783 453.024L738.535 455.688C737.399 455.048 736.159 454.728 734.815 454.728C734.015 454.728 733.415 454.84 733.015 455.064C732.615 455.288 732.415 455.576 732.415 455.928C732.415 456.328 732.631 456.608 733.063 456.768C733.495 456.928 734.183 457.08 735.127 457.224C736.183 457.4 737.047 457.592 737.719 457.8C738.391 457.992 738.975 458.352 739.471 458.88C739.967 459.408 740.215 460.144 740.215 461.088C740.215 461.888 739.975 462.6 739.495 463.224C739.015 463.848 738.311 464.336 737.383 464.688C736.471 465.024 735.383 465.192 734.119 465.192ZM762.138 452.088L756.306 465.792C755.714 467.28 754.978 468.328 754.098 468.936C753.234 469.544 752.186 469.848 750.954 469.848C750.282 469.848 749.618 469.744 748.962 469.536C748.306 469.328 747.77 469.04 747.354 468.672L748.722 466.008C749.01 466.264 749.338 466.464 749.706 466.608C750.09 466.752 750.466 466.824 750.834 466.824C751.346 466.824 751.762 466.696 752.082 466.44C752.402 466.2 752.69 465.792 752.946 465.216L752.994 465.096L747.402 452.088H751.266L754.89 460.848L758.538 452.088H762.138ZM769.458 465.192C768.098 465.192 766.874 464.912 765.786 464.352C764.714 463.776 763.874 462.984 763.266 461.976C762.658 460.968 762.354 459.824 762.354 458.544C762.354 457.264 762.658 456.12 763.266 455.112C763.874 454.104 764.714 453.32 765.786 452.76C766.874 452.184 768.098 451.896 769.458 451.896C770.818 451.896 772.034 452.184 773.106 452.76C774.178 453.32 775.018 454.104 775.626 455.112C776.234 456.12 776.538 457.264 776.538 458.544C776.538 459.824 776.234 460.968 775.626 461.976C775.018 462.984 774.178 463.776 773.106 464.352C772.034 464.912 770.818 465.192 769.458 465.192ZM769.458 462.12C770.418 462.12 771.202 461.8 771.81 461.16C772.434 460.504 772.746 459.632 772.746 458.544C772.746 457.456 772.434 456.592 771.81 455.952C771.202 455.296 770.418 454.968 769.458 454.968C768.498 454.968 767.706 455.296 767.082 455.952C766.458 456.592 766.146 457.456 766.146 458.544C766.146 459.632 766.458 460.504 767.082 461.16C767.706 461.8 768.498 462.12 769.458 462.12ZM792.049 452.088V465H788.497V463.464C788.001 464.024 787.409 464.456 786.721 464.76C786.033 465.048 785.289 465.192 784.489 465.192C782.793 465.192 781.449 464.704 780.457 463.728C779.465 462.752 778.969 461.304 778.969 459.384V452.088H782.713V458.832C782.713 460.912 783.585 461.952 785.329 461.952C786.225 461.952 786.945 461.664 787.489 461.088C788.033 460.496 788.305 459.624 788.305 458.472V452.088H792.049ZM823.05 452.088L818.37 465H814.77L811.866 456.984L808.866 465H805.266L800.61 452.088H804.138L807.186 460.824L810.354 452.088H813.522L816.594 460.824L819.738 452.088H823.05ZM829.577 451.896C831.577 451.896 833.113 452.376 834.185 453.336C835.257 454.28 835.793 455.712 835.793 457.632V465H832.289V463.392C831.585 464.592 830.273 465.192 828.353 465.192C827.361 465.192 826.497 465.024 825.761 464.688C825.041 464.352 824.489 463.888 824.105 463.296C823.721 462.704 823.529 462.032 823.529 461.28C823.529 460.08 823.977 459.136 824.873 458.448C825.785 457.76 827.185 457.416 829.073 457.416H832.049C832.049 456.6 831.801 455.976 831.305 455.544C830.809 455.096 830.065 454.872 829.073 454.872C828.385 454.872 827.705 454.984 827.033 455.208C826.377 455.416 825.817 455.704 825.353 456.072L824.009 453.456C824.713 452.96 825.553 452.576 826.529 452.304C827.521 452.032 828.537 451.896 829.577 451.896ZM829.289 462.672C829.929 462.672 830.497 462.528 830.993 462.24C831.489 461.936 831.841 461.496 832.049 460.92V459.6H829.481C827.945 459.6 827.177 460.104 827.177 461.112C827.177 461.592 827.361 461.976 827.729 462.264C828.113 462.536 828.633 462.672 829.289 462.672ZM847.029 451.896C848.629 451.896 849.917 452.376 850.893 453.336C851.885 454.296 852.381 455.72 852.381 457.608V465H848.637V458.184C848.637 457.16 848.413 456.4 847.965 455.904C847.517 455.392 846.869 455.136 846.021 455.136C845.077 455.136 844.325 455.432 843.765 456.024C843.205 456.6 842.925 457.464 842.925 458.616V465H839.181V452.088H842.757V453.6C843.253 453.056 843.869 452.64 844.605 452.352C845.341 452.048 846.149 451.896 847.029 451.896ZM864.103 464.376C863.735 464.648 863.279 464.856 862.735 465C862.207 465.128 861.647 465.192 861.055 465.192C859.519 465.192 858.327 464.8 857.479 464.016C856.647 463.232 856.231 462.08 856.231 460.56V455.256H854.239V452.376H856.231V449.232H859.975V452.376H863.191V455.256H859.975V460.512C859.975 461.056 860.111 461.48 860.383 461.784C860.671 462.072 861.071 462.216 861.583 462.216C862.175 462.216 862.679 462.056 863.095 461.736L864.103 464.376ZM881.329 464.376C880.961 464.648 880.505 464.856 879.961 465C879.433 465.128 878.873 465.192 878.281 465.192C876.745 465.192 875.553 464.8 874.705 464.016C873.873 463.232 873.457 462.08 873.457 460.56V455.256H871.465V452.376H873.457V449.232H877.201V452.376H880.417V455.256H877.201V460.512C877.201 461.056 877.337 461.48 877.609 461.784C877.897 462.072 878.297 462.216 878.809 462.216C879.401 462.216 879.905 462.056 880.321 461.736L881.329 464.376ZM889.177 465.192C887.817 465.192 886.593 464.912 885.505 464.352C884.433 463.776 883.593 462.984 882.985 461.976C882.377 460.968 882.073 459.824 882.073 458.544C882.073 457.264 882.377 456.12 882.985 455.112C883.593 454.104 884.433 453.32 885.505 452.76C886.593 452.184 887.817 451.896 889.177 451.896C890.537 451.896 891.753 452.184 892.825 452.76C893.897 453.32 894.737 454.104 895.345 455.112C895.953 456.12 896.257 457.264 896.257 458.544C896.257 459.824 895.953 460.968 895.345 461.976C894.737 462.984 893.897 463.776 892.825 464.352C891.753 464.912 890.537 465.192 889.177 465.192ZM889.177 462.12C890.137 462.12 890.921 461.8 891.529 461.16C892.153 460.504 892.465 459.632 892.465 458.544C892.465 457.456 892.153 456.592 891.529 455.952C890.921 455.296 890.137 454.968 889.177 454.968C888.217 454.968 887.425 455.296 886.801 455.952C886.177 456.592 885.865 457.456 885.865 458.544C885.865 459.632 886.177 460.504 886.801 461.16C887.425 461.8 888.217 462.12 889.177 462.12ZM911.7 465.192C910.34 465.192 909.116 464.912 908.028 464.352C906.956 463.776 906.116 462.984 905.508 461.976C904.9 460.968 904.596 459.824 904.596 458.544C904.596 457.264 904.9 456.12 905.508 455.112C906.116 454.104 906.956 453.32 908.028 452.76C909.116 452.184 910.34 451.896 911.7 451.896C913.06 451.896 914.276 452.184 915.348 452.76C916.42 453.32 917.26 454.104 917.868 455.112C918.476 456.12 918.78 457.264 918.78 458.544C918.78 459.824 918.476 460.968 917.868 461.976C917.26 462.984 916.42 463.776 915.348 464.352C914.276 464.912 913.06 465.192 911.7 465.192ZM911.7 462.12C912.66 462.12 913.444 461.8 914.052 461.16C914.676 460.504 914.988 459.632 914.988 458.544C914.988 457.456 914.676 456.592 914.052 455.952C913.444 455.296 912.66 454.968 911.7 454.968C910.74 454.968 909.948 455.296 909.324 455.952C908.7 456.592 908.388 457.456 908.388 458.544C908.388 459.632 908.7 460.504 909.324 461.16C909.948 461.8 910.74 462.12 911.7 462.12ZM925.387 452.376H928.699V455.256H925.483V465H921.739V455.256H919.747V452.376H921.739V451.8C921.739 450.328 922.171 449.16 923.035 448.296C923.915 447.432 925.147 447 926.731 447C927.291 447 927.819 447.064 928.315 447.192C928.827 447.304 929.251 447.472 929.587 447.696L928.603 450.408C928.171 450.104 927.667 449.952 927.091 449.952C925.955 449.952 925.387 450.576 925.387 451.824V452.376ZM934.668 452.376H937.98V455.256H934.764V465H931.02V455.256H929.028V452.376H931.02V451.8C931.02 450.328 931.452 449.16 932.316 448.296C933.196 447.432 934.428 447 936.012 447C936.572 447 937.1 447.064 937.596 447.192C938.108 447.304 938.532 447.472 938.868 447.696L937.884 450.408C937.452 450.104 936.948 449.952 936.372 449.952C935.236 449.952 934.668 450.576 934.668 451.824V452.376ZM952.329 458.592C952.329 458.64 952.305 458.976 952.257 459.6H942.489C942.665 460.4 943.081 461.032 943.737 461.496C944.393 461.96 945.209 462.192 946.185 462.192C946.857 462.192 947.449 462.096 947.961 461.904C948.489 461.696 948.977 461.376 949.425 460.944L951.417 463.104C950.201 464.496 948.425 465.192 946.089 465.192C944.633 465.192 943.345 464.912 942.225 464.352C941.105 463.776 940.241 462.984 939.633 461.976C939.025 460.968 938.721 459.824 938.721 458.544C938.721 457.28 939.017 456.144 939.609 455.136C940.217 454.112 941.041 453.32 942.081 452.76C943.137 452.184 944.313 451.896 945.609 451.896C946.873 451.896 948.017 452.168 949.041 452.712C950.065 453.256 950.865 454.04 951.441 455.064C952.033 456.072 952.329 457.248 952.329 458.592ZM945.633 454.728C944.785 454.728 944.073 454.968 943.497 455.448C942.921 455.928 942.569 456.584 942.441 457.416H948.801C948.673 456.6 948.321 455.952 947.745 455.472C947.169 454.976 946.465 454.728 945.633 454.728ZM958.398 453.792C958.846 453.168 959.446 452.696 960.198 452.376C960.966 452.056 961.846 451.896 962.838 451.896V455.352C962.422 455.32 962.142 455.304 961.998 455.304C960.926 455.304 960.086 455.608 959.478 456.216C958.87 456.808 958.566 457.704 958.566 458.904V465H954.822V452.088H958.398V453.792ZM968.942 459.168C968.942 458.336 969.126 457.648 969.494 457.104C969.878 456.56 970.43 455.96 971.15 455.304C971.678 454.824 972.062 454.424 972.302 454.104C972.558 453.768 972.686 453.392 972.686 452.976C972.686 452.384 972.446 451.92 971.966 451.584C971.502 451.232 970.878 451.056 970.094 451.056C969.342 451.056 968.67 451.216 968.078 451.536C967.502 451.84 967.014 452.272 966.614 452.832L963.71 451.128C964.382 450.104 965.286 449.312 966.422 448.752C967.574 448.192 968.934 447.912 970.502 447.912C972.342 447.912 973.814 448.304 974.918 449.088C976.038 449.872 976.598 450.96 976.598 452.352C976.598 453.008 976.486 453.584 976.262 454.08C976.054 454.576 975.79 455 975.47 455.352C975.166 455.688 974.766 456.08 974.27 456.528C973.678 457.056 973.246 457.504 972.974 457.872C972.702 458.224 972.566 458.656 972.566 459.168H968.942ZM970.766 465.192C970.11 465.192 969.558 464.984 969.11 464.568C968.678 464.136 968.462 463.616 968.462 463.008C968.462 462.4 968.678 461.896 969.11 461.496C969.542 461.08 970.094 460.872 970.766 460.872C971.438 460.872 971.99 461.08 972.422 461.496C972.854 461.896 973.07 462.4 973.07 463.008C973.07 463.616 972.846 464.136 972.398 464.568C971.966 464.984 971.422 465.192 970.766 465.192Z" fill="#3A3A3A"/>
<rect x="345" y="221" width="750" height="53" rx="16" fill="#C4C4C4"/>
<path d="M369.972 252.673C371.431 252.673 372.793 252.198 373.9 251.407L378.066 255.573C378.26 255.767 378.515 255.863 378.778 255.863C379.35 255.863 379.763 255.424 379.763 254.861C379.763 254.598 379.675 254.352 379.481 254.158L375.342 250.01C376.212 248.867 376.73 247.452 376.73 245.914C376.73 242.196 373.689 239.155 369.972 239.155C366.245 239.155 363.213 242.196 363.213 245.914C363.213 249.632 366.245 252.673 369.972 252.673ZM369.972 251.214C367.063 251.214 364.672 248.815 364.672 245.914C364.672 243.014 367.063 240.614 369.972 240.614C372.872 240.614 375.271 243.014 375.271 245.914C375.271 248.815 372.872 251.214 369.972 251.214Z" fill="#3A3A3A"/>
<path d="M396.388 254.211C399.227 254.211 401.072 252.743 401.072 250.396C401.072 248.604 400.026 247.549 397.381 246.969L395.975 246.661C394.243 246.283 393.566 245.598 393.566 244.596C393.566 243.304 394.788 242.53 396.37 242.53C397.741 242.53 398.787 243.093 399.227 244.376C399.367 244.78 399.613 244.991 400.018 244.991C400.439 244.991 400.738 244.71 400.738 244.279C400.738 244.112 400.721 243.98 400.694 243.884C400.237 242.17 398.532 241.106 396.414 241.106C393.786 241.106 391.94 242.574 391.94 244.666C391.94 246.468 393.039 247.619 395.579 248.173L396.985 248.48C398.743 248.867 399.446 249.57 399.446 250.634C399.446 251.882 398.198 252.787 396.476 252.787C394.876 252.787 393.628 252.172 393.241 250.862C393.118 250.44 392.872 250.238 392.477 250.238C392.028 250.238 391.747 250.555 391.747 251.056C391.747 251.24 391.782 251.434 391.835 251.609C392.31 253.139 394.006 254.211 396.388 254.211ZM406.513 254.158C408.183 254.158 409.466 253.455 410.055 252.216C410.125 252.049 410.169 251.891 410.169 251.768C410.169 251.363 409.896 251.1 409.492 251.1C409.255 251.1 409.079 251.188 408.921 251.407C408.209 252.444 407.541 252.831 406.451 252.831C404.816 252.831 403.806 251.688 403.806 249.843H409.519C410.046 249.843 410.362 249.509 410.362 248.955C410.362 246.45 408.719 244.701 406.381 244.701C403.858 244.701 402.232 246.582 402.232 249.465C402.232 252.418 403.814 254.158 406.513 254.158ZM403.814 248.647C403.911 247.074 404.931 246.028 406.354 246.028C407.77 246.028 408.745 247.065 408.78 248.647H403.814ZM414.572 254.158C415.803 254.158 416.972 253.473 417.517 252.427H417.552V253.385C417.552 253.842 417.851 254.158 418.281 254.158C418.703 254.158 419.002 253.842 419.002 253.385V247.681C419.002 245.861 417.648 244.701 415.504 244.701C414.019 244.701 412.683 245.36 412.164 246.362C412.041 246.582 411.979 246.802 411.979 246.995C411.979 247.408 412.261 247.681 412.656 247.681C412.946 247.681 413.148 247.566 413.289 247.312C413.799 246.406 414.476 246.046 415.469 246.046C416.734 246.046 417.473 246.714 417.473 247.83V248.595L414.845 248.744C412.735 248.867 411.531 249.852 411.531 251.416C411.531 253.06 412.753 254.158 414.572 254.158ZM414.915 252.857C413.816 252.857 413.087 252.286 413.087 251.416C413.087 250.555 413.79 250.01 415.021 249.931L417.473 249.781V250.528C417.473 251.847 416.356 252.857 414.915 252.857ZM421.709 254.158C422.157 254.158 422.474 253.824 422.474 253.341V248.322C422.474 247.153 423.062 246.16 424.442 246.16C424.776 246.16 425.014 246.099 425.172 245.967C425.33 245.844 425.409 245.668 425.409 245.431C425.409 245.22 425.348 245.044 425.216 244.921C425.066 244.78 424.829 244.701 424.495 244.701C423.581 244.701 422.685 245.404 422.421 246.354H422.386V245.475C422.386 245.018 422.087 244.701 421.665 244.701C421.243 244.701 420.944 245.018 420.944 245.475V253.341C420.944 253.824 421.261 254.158 421.709 254.158ZM429.83 254.158C431.491 254.158 432.941 253.244 433.381 251.979C433.425 251.838 433.451 251.706 433.451 251.592C433.451 251.196 433.188 250.924 432.792 250.924C432.458 250.924 432.291 251.047 432.071 251.46C431.597 252.339 430.929 252.813 429.83 252.813C428.257 252.813 427.167 251.53 427.167 249.43C427.167 247.382 428.239 246.046 429.83 246.046C430.885 246.046 431.579 246.494 432.062 247.399C432.273 247.795 432.458 247.936 432.792 247.936C433.188 247.936 433.442 247.672 433.442 247.268C433.442 247.171 433.425 247.057 433.39 246.942C433.038 245.677 431.535 244.701 429.812 244.701C427.281 244.701 425.611 246.573 425.611 249.447C425.611 252.339 427.299 254.158 429.83 254.158ZM435.921 254.158C436.369 254.158 436.686 253.824 436.686 253.341V248.674C436.686 247.092 437.626 246.055 439.146 246.055C440.579 246.055 441.309 246.925 441.309 248.375V253.341C441.309 253.824 441.625 254.158 442.073 254.158C442.521 254.158 442.838 253.824 442.838 253.341V248.094C442.838 246.055 441.625 244.701 439.621 244.701C438.232 244.701 437.23 245.299 436.721 246.318H436.686V241.959C436.686 241.484 436.387 241.159 435.921 241.159C435.464 241.159 435.156 241.484 435.156 241.959V253.341C435.156 253.824 435.473 254.158 435.921 254.158Z" fill="#3A3A3A"/>
<rect x="345" y="495" width="750" height="53" rx="16" fill="#C4C4C4"/>
<path d="M369.972 526.673C371.431 526.673 372.793 526.198 373.9 525.407L378.066 529.573C378.26 529.767 378.515 529.863 378.778 529.863C379.35 529.863 379.763 529.424 379.763 528.861C379.763 528.598 379.675 528.352 379.481 528.158L375.342 524.01C376.212 522.867 376.73 521.452 376.73 519.914C376.73 516.196 373.689 513.155 369.972 513.155C366.245 513.155 363.213 516.196 363.213 519.914C363.213 523.632 366.245 526.673 369.972 526.673ZM369.972 525.214C367.063 525.214 364.672 522.814 364.672 519.914C364.672 517.014 367.063 514.614 369.972 514.614C372.872 514.614 375.271 517.014 375.271 519.914C375.271 522.814 372.872 525.214 369.972 525.214Z" fill="#3A3A3A"/>
<path d="M396.388 528.211C399.227 528.211 401.072 526.743 401.072 524.396C401.072 522.604 400.026 521.549 397.381 520.969L395.975 520.661C394.243 520.283 393.566 519.598 393.566 518.596C393.566 517.304 394.788 516.53 396.37 516.53C397.741 516.53 398.787 517.093 399.227 518.376C399.367 518.78 399.613 518.991 400.018 518.991C400.439 518.991 400.738 518.71 400.738 518.279C400.738 518.112 400.721 517.98 400.694 517.884C400.237 516.17 398.532 515.106 396.414 515.106C393.786 515.106 391.94 516.574 391.94 518.666C391.94 520.468 393.039 521.619 395.579 522.173L396.985 522.48C398.743 522.867 399.446 523.57 399.446 524.634C399.446 525.882 398.198 526.787 396.476 526.787C394.876 526.787 393.628 526.172 393.241 524.862C393.118 524.44 392.872 524.238 392.477 524.238C392.028 524.238 391.747 524.555 391.747 525.056C391.747 525.24 391.782 525.434 391.835 525.609C392.31 527.139 394.006 528.211 396.388 528.211ZM406.513 528.158C408.183 528.158 409.466 527.455 410.055 526.216C410.125 526.049 410.169 525.891 410.169 525.768C410.169 525.363 409.896 525.1 409.492 525.1C409.255 525.1 409.079 525.188 408.921 525.407C408.209 526.444 407.541 526.831 406.451 526.831C404.816 526.831 403.806 525.688 403.806 523.843H409.519C410.046 523.843 410.362 523.509 410.362 522.955C410.362 520.45 408.719 518.701 406.381 518.701C403.858 518.701 402.232 520.582 402.232 523.465C402.232 526.418 403.814 528.158 406.513 528.158ZM403.814 522.647C403.911 521.074 404.931 520.028 406.354 520.028C407.77 520.028 408.745 521.065 408.78 522.647H403.814ZM414.572 528.158C415.803 528.158 416.972 527.473 417.517 526.427H417.552V527.385C417.552 527.842 417.851 528.158 418.281 528.158C418.703 528.158 419.002 527.842 419.002 527.385V521.681C419.002 519.861 417.648 518.701 415.504 518.701C414.019 518.701 412.683 519.36 412.164 520.362C412.041 520.582 411.979 520.802 411.979 520.995C411.979 521.408 412.261 521.681 412.656 521.681C412.946 521.681 413.148 521.566 413.289 521.312C413.799 520.406 414.476 520.046 415.469 520.046C416.734 520.046 417.473 520.714 417.473 521.83V522.595L414.845 522.744C412.735 522.867 411.531 523.852 411.531 525.416C411.531 527.06 412.753 528.158 414.572 528.158ZM414.915 526.857C413.816 526.857 413.087 526.286 413.087 525.416C413.087 524.555 413.79 524.01 415.021 523.931L417.473 523.781V524.528C417.473 525.847 416.356 526.857 414.915 526.857ZM421.709 528.158C422.157 528.158 422.474 527.824 422.474 527.341V522.322C422.474 521.153 423.062 520.16 424.442 520.16C424.776 520.16 425.014 520.099 425.172 519.967C425.33 519.844 425.409 519.668 425.409 519.431C425.409 519.22 425.348 519.044 425.216 518.921C425.066 518.78 424.829 518.701 424.495 518.701C423.581 518.701 422.685 519.404 422.421 520.354H422.386V519.475C422.386 519.018 422.087 518.701 421.665 518.701C421.243 518.701 420.944 519.018 420.944 519.475V527.341C420.944 527.824 421.261 528.158 421.709 528.158ZM429.83 528.158C431.491 528.158 432.941 527.244 433.381 525.979C433.425 525.838 433.451 525.706 433.451 525.592C433.451 525.196 433.188 524.924 432.792 524.924C432.458 524.924 432.291 525.047 432.071 525.46C431.597 526.339 430.929 526.813 429.83 526.813C428.257 526.813 427.167 525.53 427.167 523.43C427.167 521.382 428.239 520.046 429.83 520.046C430.885 520.046 431.579 520.494 432.062 521.399C432.273 521.795 432.458 521.936 432.792 521.936C433.188 521.936 433.442 521.672 433.442 521.268C433.442 521.171 433.425 521.057 433.39 520.942C433.038 519.677 431.535 518.701 429.812 518.701C427.281 518.701 425.611 520.573 425.611 523.447C425.611 526.339 427.299 528.158 429.83 528.158ZM435.921 528.158C436.369 528.158 436.686 527.824 436.686 527.341V522.674C436.686 521.092 437.626 520.055 439.146 520.055C440.579 520.055 441.309 520.925 441.309 522.375V527.341C441.309 527.824 441.625 528.158 442.073 528.158C442.521 528.158 442.838 527.824 442.838 527.341V522.094C442.838 520.055 441.625 518.701 439.621 518.701C438.232 518.701 437.23 519.299 436.721 520.318H436.686V515.959C436.686 515.484 436.387 515.159 435.921 515.159C435.464 515.159 435.156 515.484 435.156 515.959V527.341C435.156 527.824 435.473 528.158 435.921 528.158Z" fill="#3A3A3A"/>
<rect x="128" y="310" width="200" height="53" rx="10" fill="#C4C4C4"/>
<path d="M304.485 342.167C304.811 342.167 305.021 342.053 305.232 341.728L307.359 338.599H307.403L309.53 341.745C309.715 342.026 309.935 342.167 310.269 342.167C310.787 342.167 311.174 341.824 311.174 341.332C311.174 341.139 311.112 340.954 310.972 340.752L308.537 337.324L310.98 334.002C311.139 333.8 311.2 333.615 311.2 333.396C311.2 332.93 310.822 332.587 310.286 332.587C309.961 332.587 309.75 332.728 309.521 333.088L307.482 336.103H307.447L305.364 333.062C305.136 332.71 304.942 332.587 304.582 332.587C304.063 332.587 303.668 332.938 303.668 333.404C303.668 333.624 303.729 333.809 303.861 333.993L306.305 337.386L303.826 340.77C303.677 340.98 303.606 341.165 303.606 341.367C303.606 341.833 303.976 342.167 304.485 342.167Z" fill="black"/>
<path d="M211.493 343.211C214.455 343.211 216.336 341.708 216.336 339.317C216.336 337.472 215.246 336.408 212.583 335.846L211.203 335.556C209.56 335.204 208.9 334.589 208.9 333.666C208.9 332.506 209.999 331.785 211.484 331.785C212.75 331.785 213.717 332.286 214.147 333.455C214.35 333.912 214.64 334.132 215.114 334.132C215.624 334.132 215.984 333.798 215.984 333.288C215.984 333.104 215.958 332.954 215.914 332.831C215.422 331.135 213.699 330.106 211.511 330.106C208.812 330.106 206.905 331.601 206.905 333.771C206.905 335.6 208.057 336.777 210.588 337.313L211.977 337.604C213.673 337.973 214.341 338.588 214.341 339.572C214.341 340.706 213.189 341.532 211.581 341.532C210.113 341.532 208.962 340.979 208.566 339.792C208.373 339.317 208.083 339.115 207.635 339.115C207.099 339.115 206.747 339.484 206.747 340.056C206.747 340.267 206.791 340.478 206.853 340.671C207.345 342.147 209.032 343.211 211.493 343.211ZM218.894 343.167C219.447 343.167 219.843 342.789 219.843 342.165V339.695L220.687 338.904L223.754 342.701C224.009 343.053 224.22 343.167 224.571 343.167C225.081 343.167 225.459 342.815 225.459 342.332C225.459 342.095 225.406 341.919 225.204 341.664L222.066 337.779L224.923 335.072C225.169 334.844 225.248 334.668 225.248 334.396C225.248 333.947 224.888 333.587 224.422 333.587C224.141 333.587 223.938 333.684 223.701 333.938L219.86 337.7H219.843V331.152C219.843 330.528 219.447 330.15 218.894 330.15C218.34 330.15 217.944 330.528 217.944 331.152V342.165C217.944 342.789 218.34 343.167 218.894 343.167ZM227.973 332.356C228.588 332.356 229.08 331.864 229.08 331.267C229.08 330.66 228.588 330.186 227.973 330.186C227.366 330.186 226.874 330.66 226.874 331.267C226.874 331.864 227.366 332.356 227.973 332.356ZM227.973 343.167C228.544 343.167 228.922 342.771 228.922 342.165V334.598C228.922 333.982 228.544 333.587 227.973 333.587C227.401 333.587 227.023 333.982 227.023 334.598V342.165C227.023 342.771 227.401 343.167 227.973 343.167ZM231.884 343.167C232.438 343.167 232.833 342.789 232.833 342.165V331.152C232.833 330.528 232.438 330.15 231.884 330.15C231.33 330.15 230.935 330.528 230.935 331.152V342.165C230.935 342.789 231.33 343.167 231.884 343.167ZM235.804 343.167C236.357 343.167 236.753 342.789 236.753 342.165V331.152C236.753 330.528 236.357 330.15 235.804 330.15C235.25 330.15 234.854 330.528 234.854 331.152V342.165C234.854 342.789 235.25 343.167 235.804 343.167ZM246.57 343.167C247.133 343.167 247.528 342.763 247.528 342.165V331.249C247.528 330.563 247.115 330.15 246.421 330.15C245.999 330.15 245.709 330.229 245.173 330.607L242.536 332.479C242.167 332.734 242.044 332.963 242.044 333.288C242.044 333.736 242.352 334.044 242.782 334.044C243.002 334.044 243.178 333.982 243.371 333.842L245.56 332.312H245.604V342.165C245.604 342.763 245.999 343.167 246.57 343.167Z" fill="black"/>
<rect x="128" y="584" width="200" height="53" rx="10" fill="#C4C4C4"/>
<path d="M304.485 616.167C304.811 616.167 305.021 616.053 305.232 615.728L307.359 612.599H307.403L309.53 615.745C309.715 616.026 309.935 616.167 310.269 616.167C310.787 616.167 311.174 615.824 311.174 615.332C311.174 615.139 311.112 614.954 310.972 614.752L308.537 611.324L310.98 608.002C311.139 607.8 311.2 607.615 311.2 607.396C311.2 606.93 310.822 606.587 310.286 606.587C309.961 606.587 309.75 606.728 309.521 607.088L307.482 610.103H307.447L305.364 607.062C305.136 606.71 304.942 606.587 304.582 606.587C304.063 606.587 303.668 606.938 303.668 607.404C303.668 607.624 303.729 607.809 303.861 607.993L306.305 611.386L303.826 614.77C303.677 614.98 303.606 615.165 303.606 615.367C303.606 615.833 303.976 616.167 304.485 616.167Z" fill="black"/>
<path d="M211.493 617.211C214.455 617.211 216.336 615.708 216.336 613.317C216.336 611.472 215.246 610.408 212.583 609.846L211.203 609.556C209.56 609.204 208.9 608.589 208.9 607.666C208.9 606.506 209.999 605.785 211.484 605.785C212.75 605.785 213.717 606.286 214.147 607.455C214.35 607.912 214.64 608.132 215.114 608.132C215.624 608.132 215.984 607.798 215.984 607.288C215.984 607.104 215.958 606.954 215.914 606.831C215.422 605.135 213.699 604.106 211.511 604.106C208.812 604.106 206.905 605.601 206.905 607.771C206.905 609.6 208.057 610.777 210.588 611.313L211.977 611.604C213.673 611.973 214.341 612.588 214.341 613.572C214.341 614.706 213.189 615.532 211.581 615.532C210.113 615.532 208.962 614.979 208.566 613.792C208.373 613.317 208.083 613.115 207.635 613.115C207.099 613.115 206.747 613.484 206.747 614.056C206.747 614.267 206.791 614.478 206.853 614.671C207.345 616.147 209.032 617.211 211.493 617.211ZM218.894 617.167C219.447 617.167 219.843 616.789 219.843 616.165V613.695L220.687 612.904L223.754 616.701C224.009 617.053 224.22 617.167 224.571 617.167C225.081 617.167 225.459 616.815 225.459 616.332C225.459 616.095 225.406 615.919 225.204 615.664L222.066 611.779L224.923 609.072C225.169 608.844 225.248 608.668 225.248 608.396C225.248 607.947 224.888 607.587 224.422 607.587C224.141 607.587 223.938 607.684 223.701 607.938L219.86 611.7H219.843V605.152C219.843 604.528 219.447 604.15 218.894 604.15C218.34 604.15 217.944 604.528 217.944 605.152V616.165C217.944 616.789 218.34 617.167 218.894 617.167ZM227.973 606.356C228.588 606.356 229.08 605.864 229.08 605.267C229.08 604.66 228.588 604.186 227.973 604.186C227.366 604.186 226.874 604.66 226.874 605.267C226.874 605.864 227.366 606.356 227.973 606.356ZM227.973 617.167C228.544 617.167 228.922 616.771 228.922 616.165V608.598C228.922 607.982 228.544 607.587 227.973 607.587C227.401 607.587 227.023 607.982 227.023 608.598V616.165C227.023 616.771 227.401 617.167 227.973 617.167ZM231.884 617.167C232.438 617.167 232.833 616.789 232.833 616.165V605.152C232.833 604.528 232.438 604.15 231.884 604.15C231.33 604.15 230.935 604.528 230.935 605.152V616.165C230.935 616.789 231.33 617.167 231.884 617.167ZM235.804 617.167C236.357 617.167 236.753 616.789 236.753 616.165V605.152C236.753 604.528 236.357 604.15 235.804 604.15C235.25 604.15 234.854 604.528 234.854 605.152V616.165C234.854 616.789 235.25 617.167 235.804 617.167ZM246.57 617.167C247.133 617.167 247.528 616.763 247.528 616.165V605.249C247.528 604.563 247.115 604.15 246.421 604.15C245.999 604.15 245.709 604.229 245.173 604.607L242.536 606.479C242.167 606.734 242.044 606.963 242.044 607.288C242.044 607.736 242.352 608.044 242.782 608.044C243.002 608.044 243.178 607.982 243.371 607.842L245.56 606.312H245.604V616.165C245.604 616.763 245.999 617.167 246.57 617.167Z" fill="black"/>
<rect x="352" y="310" width="200" height="53" rx="10" fill="#C4C4C4"/>
<path d="M528.485 342.167C528.811 342.167 529.021 342.053 529.232 341.728L531.359 338.599H531.403L533.53 341.745C533.715 342.026 533.935 342.167 534.269 342.167C534.787 342.167 535.174 341.824 535.174 341.332C535.174 341.139 535.112 340.954 534.972 340.752L532.537 337.324L534.98 334.002C535.139 333.8 535.2 333.615 535.2 333.396C535.2 332.93 534.822 332.587 534.286 332.587C533.961 332.587 533.75 332.728 533.521 333.088L531.482 336.103H531.447L529.364 333.062C529.136 332.71 528.942 332.587 528.582 332.587C528.063 332.587 527.668 332.938 527.668 333.404C527.668 333.624 527.729 333.809 527.861 333.993L530.305 337.386L527.826 340.77C527.677 340.98 527.606 341.165 527.606 341.367C527.606 341.833 527.976 342.167 528.485 342.167Z" fill="black"/>
<path d="M435.493 343.211C438.455 343.211 440.336 341.708 440.336 339.317C440.336 337.472 439.246 336.408 436.583 335.846L435.203 335.556C433.56 335.204 432.9 334.589 432.9 333.666C432.9 332.506 433.999 331.785 435.484 331.785C436.75 331.785 437.717 332.286 438.147 333.455C438.35 333.912 438.64 334.132 439.114 334.132C439.624 334.132 439.984 333.798 439.984 333.288C439.984 333.104 439.958 332.954 439.914 332.831C439.422 331.135 437.699 330.106 435.511 330.106C432.812 330.106 430.905 331.601 430.905 333.771C430.905 335.6 432.057 336.777 434.588 337.313L435.977 337.604C437.673 337.973 438.341 338.588 438.341 339.572C438.341 340.706 437.189 341.532 435.581 341.532C434.113 341.532 432.962 340.979 432.566 339.792C432.373 339.317 432.083 339.115 431.635 339.115C431.099 339.115 430.747 339.484 430.747 340.056C430.747 340.267 430.791 340.478 430.853 340.671C431.345 342.147 433.032 343.211 435.493 343.211ZM442.894 343.167C443.447 343.167 443.843 342.789 443.843 342.165V339.695L444.687 338.904L447.754 342.701C448.009 343.053 448.22 343.167 448.571 343.167C449.081 343.167 449.459 342.815 449.459 342.332C449.459 342.095 449.406 341.919 449.204 341.664L446.066 337.779L448.923 335.072C449.169 334.844 449.248 334.668 449.248 334.396C449.248 333.947 448.888 333.587 448.422 333.587C448.141 333.587 447.938 333.684 447.701 333.938L443.86 337.7H443.843V331.152C443.843 330.528 443.447 330.15 442.894 330.15C442.34 330.15 441.944 330.528 441.944 331.152V342.165C441.944 342.789 442.34 343.167 442.894 343.167ZM451.973 332.356C452.588 332.356 453.08 331.864 453.08 331.267C453.08 330.66 452.588 330.186 451.973 330.186C451.366 330.186 450.874 330.66 450.874 331.267C450.874 331.864 451.366 332.356 451.973 332.356ZM451.973 343.167C452.544 343.167 452.922 342.771 452.922 342.165V334.598C452.922 333.982 452.544 333.587 451.973 333.587C451.401 333.587 451.023 333.982 451.023 334.598V342.165C451.023 342.771 451.401 343.167 451.973 343.167ZM455.884 343.167C456.438 343.167 456.833 342.789 456.833 342.165V331.152C456.833 330.528 456.438 330.15 455.884 330.15C455.33 330.15 454.935 330.528 454.935 331.152V342.165C454.935 342.789 455.33 343.167 455.884 343.167ZM459.804 343.167C460.357 343.167 460.753 342.789 460.753 342.165V331.152C460.753 330.528 460.357 330.15 459.804 330.15C459.25 330.15 458.854 330.528 458.854 331.152V342.165C458.854 342.789 459.25 343.167 459.804 343.167ZM467.301 343H474.306C474.842 343 475.176 342.666 475.176 342.174C475.176 341.673 474.842 341.339 474.306 341.339H469.041V341.295L472.064 338.263C474.2 336.127 474.877 335.107 474.877 333.666C474.877 331.574 473.163 330.08 470.737 330.08C468.215 330.08 466.747 331.636 466.475 332.972C466.439 333.104 466.422 333.235 466.422 333.385C466.422 333.877 466.738 334.22 467.292 334.22C467.775 334.22 468.004 333.982 468.18 333.587C468.619 332.348 469.48 331.706 470.729 331.706C472.003 331.706 472.935 332.585 472.935 333.789C472.935 334.8 472.53 335.45 470.878 337.138L466.914 341.146C466.483 341.576 466.369 341.787 466.369 342.174C466.369 342.666 466.703 343 467.301 343Z" fill="black"/>
<rect x="352" y="584" width="200" height="53" rx="10" fill="#C4C4C4"/>
<path d="M528.485 616.167C528.811 616.167 529.021 616.053 529.232 615.728L531.359 612.599H531.403L533.53 615.745C533.715 616.026 533.935 616.167 534.269 616.167C534.787 616.167 535.174 615.824 535.174 615.332C535.174 615.139 535.112 614.954 534.972 614.752L532.537 611.324L534.98 608.002C535.139 607.8 535.2 607.615 535.2 607.396C535.2 606.93 534.822 606.587 534.286 606.587C533.961 606.587 533.75 606.728 533.521 607.088L531.482 610.103H531.447L529.364 607.062C529.136 606.71 528.942 606.587 528.582 606.587C528.063 606.587 527.668 606.938 527.668 607.404C527.668 607.624 527.729 607.809 527.861 607.993L530.305 611.386L527.826 614.77C527.677 614.98 527.606 615.165 527.606 615.367C527.606 615.833 527.976 616.167 528.485 616.167Z" fill="black"/>
<path d="M435.493 617.211C438.455 617.211 440.336 615.708 440.336 613.317C440.336 611.472 439.246 610.408 436.583 609.846L435.203 609.556C433.56 609.204 432.9 608.589 432.9 607.666C432.9 606.506 433.999 605.785 435.484 605.785C436.75 605.785 437.717 606.286 438.147 607.455C438.35 607.912 438.64 608.132 439.114 608.132C439.624 608.132 439.984 607.798 439.984 607.288C439.984 607.104 439.958 606.954 439.914 606.831C439.422 605.135 437.699 604.106 435.511 604.106C432.812 604.106 430.905 605.601 430.905 607.771C430.905 609.6 432.057 610.777 434.588 611.313L435.977 611.604C437.673 611.973 438.341 612.588 438.341 613.572C438.341 614.706 437.189 615.532 435.581 615.532C434.113 615.532 432.962 614.979 432.566 613.792C432.373 613.317 432.083 613.115 431.635 613.115C431.099 613.115 430.747 613.484 430.747 614.056C430.747 614.267 430.791 614.478 430.853 614.671C431.345 616.147 433.032 617.211 435.493 617.211ZM442.894 617.167C443.447 617.167 443.843 616.789 443.843 616.165V613.695L444.687 612.904L447.754 616.701C448.009 617.053 448.22 617.167 448.571 617.167C449.081 617.167 449.459 616.815 449.459 616.332C449.459 616.095 449.406 615.919 449.204 615.664L446.066 611.779L448.923 609.072C449.169 608.844 449.248 608.668 449.248 608.396C449.248 607.947 448.888 607.587 448.422 607.587C448.141 607.587 447.938 607.684 447.701 607.938L443.86 611.7H443.843V605.152C443.843 604.528 443.447 604.15 442.894 604.15C442.34 604.15 441.944 604.528 441.944 605.152V616.165C441.944 616.789 442.34 617.167 442.894 617.167ZM451.973 606.356C452.588 606.356 453.08 605.864 453.08 605.267C453.08 604.66 452.588 604.186 451.973 604.186C451.366 604.186 450.874 604.66 450.874 605.267C450.874 605.864 451.366 606.356 451.973 606.356ZM451.973 617.167C452.544 617.167 452.922 616.771 452.922 616.165V608.598C452.922 607.982 452.544 607.587 451.973 607.587C451.401 607.587 451.023 607.982 451.023 608.598V616.165C451.023 616.771 451.401 617.167 451.973 617.167ZM455.884 617.167C456.438 617.167 456.833 616.789 456.833 616.165V605.152C456.833 604.528 456.438 604.15 455.884 604.15C455.33 604.15 454.935 604.528 454.935 605.152V616.165C454.935 616.789 455.33 617.167 455.884 617.167ZM459.804 617.167C460.357 617.167 460.753 616.789 460.753 616.165V605.152C460.753 604.528 460.357 604.15 459.804 604.15C459.25 604.15 458.854 604.528 458.854 605.152V616.165C458.854 616.789 459.25 617.167 459.804 617.167ZM467.301 617H474.306C474.842 617 475.176 616.666 475.176 616.174C475.176 615.673 474.842 615.339 474.306 615.339H469.041V615.295L472.064 612.263C474.2 610.127 474.877 609.107 474.877 607.666C474.877 605.574 473.163 604.08 470.737 604.08C468.215 604.08 466.747 605.636 466.475 606.972C466.439 607.104 466.422 607.235 466.422 607.385C466.422 607.877 466.738 608.22 467.292 608.22C467.775 608.22 468.004 607.982 468.18 607.587C468.619 606.348 469.48 605.706 470.729 605.706C472.003 605.706 472.935 606.585 472.935 607.789C472.935 608.8 472.53 609.45 470.878 611.138L466.914 615.146C466.483 615.576 466.369 615.787 466.369 616.174C466.369 616.666 466.703 617 467.301 617Z" fill="black"/>
<rect x="576" y="310" width="200" height="53" rx="10" fill="#C4C4C4"/>
<path d="M752.485 342.167C752.811 342.167 753.021 342.053 753.232 341.728L755.359 338.599H755.403L757.53 341.745C757.715 342.026 757.935 342.167 758.269 342.167C758.787 342.167 759.174 341.824 759.174 341.332C759.174 341.139 759.112 340.954 758.972 340.752L756.537 337.324L758.98 334.002C759.139 333.8 759.2 333.615 759.2 333.396C759.2 332.93 758.822 332.587 758.286 332.587C757.961 332.587 757.75 332.728 757.521 333.088L755.482 336.103H755.447L753.364 333.062C753.136 332.71 752.942 332.587 752.582 332.587C752.063 332.587 751.668 332.938 751.668 333.404C751.668 333.624 751.729 333.809 751.861 333.993L754.305 337.386L751.826 340.77C751.677 340.98 751.606 341.165 751.606 341.367C751.606 341.833 751.976 342.167 752.485 342.167Z" fill="black"/>
<path d="M659.493 343.211C662.455 343.211 664.336 341.708 664.336 339.317C664.336 337.472 663.246 336.408 660.583 335.846L659.203 335.556C657.56 335.204 656.9 334.589 656.9 333.666C656.9 332.506 657.999 331.785 659.484 331.785C660.75 331.785 661.717 332.286 662.147 333.455C662.35 333.912 662.64 334.132 663.114 334.132C663.624 334.132 663.984 333.798 663.984 333.288C663.984 333.104 663.958 332.954 663.914 332.831C663.422 331.135 661.699 330.106 659.511 330.106C656.812 330.106 654.905 331.601 654.905 333.771C654.905 335.6 656.057 336.777 658.588 337.313L659.977 337.604C661.673 337.973 662.341 338.588 662.341 339.572C662.341 340.706 661.189 341.532 659.581 341.532C658.113 341.532 656.962 340.979 656.566 339.792C656.373 339.317 656.083 339.115 655.635 339.115C655.099 339.115 654.747 339.484 654.747 340.056C654.747 340.267 654.791 340.478 654.853 340.671C655.345 342.147 657.032 343.211 659.493 343.211ZM666.894 343.167C667.447 343.167 667.843 342.789 667.843 342.165V339.695L668.687 338.904L671.754 342.701C672.009 343.053 672.22 343.167 672.571 343.167C673.081 343.167 673.459 342.815 673.459 342.332C673.459 342.095 673.406 341.919 673.204 341.664L670.066 337.779L672.923 335.072C673.169 334.844 673.248 334.668 673.248 334.396C673.248 333.947 672.888 333.587 672.422 333.587C672.141 333.587 671.938 333.684 671.701 333.938L667.86 337.7H667.843V331.152C667.843 330.528 667.447 330.15 666.894 330.15C666.34 330.15 665.944 330.528 665.944 331.152V342.165C665.944 342.789 666.34 343.167 666.894 343.167ZM675.973 332.356C676.588 332.356 677.08 331.864 677.08 331.267C677.08 330.66 676.588 330.186 675.973 330.186C675.366 330.186 674.874 330.66 674.874 331.267C674.874 331.864 675.366 332.356 675.973 332.356ZM675.973 343.167C676.544 343.167 676.922 342.771 676.922 342.165V334.598C676.922 333.982 676.544 333.587 675.973 333.587C675.401 333.587 675.023 333.982 675.023 334.598V342.165C675.023 342.771 675.401 343.167 675.973 343.167ZM679.884 343.167C680.438 343.167 680.833 342.789 680.833 342.165V331.152C680.833 330.528 680.438 330.15 679.884 330.15C679.33 330.15 678.935 330.528 678.935 331.152V342.165C678.935 342.789 679.33 343.167 679.884 343.167ZM683.804 343.167C684.357 343.167 684.753 342.789 684.753 342.165V331.152C684.753 330.528 684.357 330.15 683.804 330.15C683.25 330.15 682.854 330.528 682.854 331.152V342.165C682.854 342.789 683.25 343.167 683.804 343.167ZM694.834 343.237C697.479 343.237 699.431 341.717 699.431 339.484C699.431 337.709 698.183 336.575 696.319 336.408V336.364C697.875 336.039 698.991 334.967 698.991 333.385C698.991 331.495 697.4 330.08 694.816 330.08C692.883 330.08 691.503 330.924 690.87 332.181C690.703 332.506 690.633 332.796 690.633 333.139C690.633 333.666 690.932 333.982 691.485 333.982C691.951 333.982 692.162 333.798 692.373 333.288C692.812 332.233 693.533 331.697 694.816 331.697C696.319 331.697 697.075 332.479 697.075 333.657C697.075 334.835 696.091 335.696 694.641 335.696H693.85C693.349 335.696 693.032 336.004 693.032 336.461C693.032 336.918 693.349 337.226 693.85 337.226H694.693C696.39 337.226 697.436 338.034 697.427 339.484C697.418 340.715 696.381 341.594 694.843 341.594C693.393 341.594 692.566 340.987 692.136 339.977C691.934 339.52 691.688 339.326 691.266 339.326C690.712 339.326 690.378 339.669 690.378 340.196C690.378 340.513 690.457 340.82 690.633 341.146C691.336 342.429 692.751 343.237 694.834 343.237Z" fill="black"/>
<rect x="800" y="310" width="200" height="53" rx="10" fill="#C4C4C4"/>
<path d="M976.485 342.167C976.811 342.167 977.021 342.053 977.232 341.728L979.359 338.599H979.403L981.53 341.745C981.715 342.026 981.935 342.167 982.269 342.167C982.787 342.167 983.174 341.824 983.174 341.332C983.174 341.139 983.112 340.954 982.972 340.752L980.537 337.324L982.98 334.002C983.139 333.8 983.2 333.615 983.2 333.396C983.2 332.93 982.822 332.587 982.286 332.587C981.961 332.587 981.75 332.728 981.521 333.088L979.482 336.103H979.447L977.364 333.062C977.136 332.71 976.942 332.587 976.582 332.587C976.063 332.587 975.668 332.938 975.668 333.404C975.668 333.624 975.729 333.809 975.861 333.993L978.305 337.386L975.826 340.77C975.677 340.98 975.606 341.165 975.606 341.367C975.606 341.833 975.976 342.167 976.485 342.167Z" fill="black"/>
<path d="M883.493 343.211C886.455 343.211 888.336 341.708 888.336 339.317C888.336 337.472 887.246 336.408 884.583 335.846L883.203 335.556C881.56 335.204 880.9 334.589 880.9 333.666C880.9 332.506 881.999 331.785 883.484 331.785C884.75 331.785 885.717 332.286 886.147 333.455C886.35 333.912 886.64 334.132 887.114 334.132C887.624 334.132 887.984 333.798 887.984 333.288C887.984 333.104 887.958 332.954 887.914 332.831C887.422 331.135 885.699 330.106 883.511 330.106C880.812 330.106 878.905 331.601 878.905 333.771C878.905 335.6 880.057 336.777 882.588 337.313L883.977 337.604C885.673 337.973 886.341 338.588 886.341 339.572C886.341 340.706 885.189 341.532 883.581 341.532C882.113 341.532 880.962 340.979 880.566 339.792C880.373 339.317 880.083 339.115 879.635 339.115C879.099 339.115 878.747 339.484 878.747 340.056C878.747 340.267 878.791 340.478 878.853 340.671C879.345 342.147 881.032 343.211 883.493 343.211ZM890.894 343.167C891.447 343.167 891.843 342.789 891.843 342.165V339.695L892.687 338.904L895.754 342.701C896.009 343.053 896.22 343.167 896.571 343.167C897.081 343.167 897.459 342.815 897.459 342.332C897.459 342.095 897.406 341.919 897.204 341.664L894.066 337.779L896.923 335.072C897.169 334.844 897.248 334.668 897.248 334.396C897.248 333.947 896.888 333.587 896.422 333.587C896.141 333.587 895.938 333.684 895.701 333.938L891.86 337.7H891.843V331.152C891.843 330.528 891.447 330.15 890.894 330.15C890.34 330.15 889.944 330.528 889.944 331.152V342.165C889.944 342.789 890.34 343.167 890.894 343.167ZM899.973 332.356C900.588 332.356 901.08 331.864 901.08 331.267C901.08 330.66 900.588 330.186 899.973 330.186C899.366 330.186 898.874 330.66 898.874 331.267C898.874 331.864 899.366 332.356 899.973 332.356ZM899.973 343.167C900.544 343.167 900.922 342.771 900.922 342.165V334.598C900.922 333.982 900.544 333.587 899.973 333.587C899.401 333.587 899.023 333.982 899.023 334.598V342.165C899.023 342.771 899.401 343.167 899.973 343.167ZM903.884 343.167C904.438 343.167 904.833 342.789 904.833 342.165V331.152C904.833 330.528 904.438 330.15 903.884 330.15C903.33 330.15 902.935 330.528 902.935 331.152V342.165C902.935 342.789 903.33 343.167 903.884 343.167ZM907.804 343.167C908.357 343.167 908.753 342.789 908.753 342.165V331.152C908.753 330.528 908.357 330.15 907.804 330.15C907.25 330.15 906.854 330.528 906.854 331.152V342.165C906.854 342.789 907.25 343.167 907.804 343.167ZM921.374 343.167C921.928 343.167 922.323 342.789 922.323 342.183V340.478H923.325C923.844 340.478 924.187 340.144 924.187 339.651C924.187 339.159 923.844 338.825 923.325 338.825H922.323V331.636C922.323 330.687 921.734 330.15 920.706 330.15C919.88 330.15 919.379 330.502 918.605 331.645C916.971 334.018 915.397 336.373 914.501 337.981C914.167 338.562 914.062 338.913 914.062 339.361C914.062 340.038 914.51 340.478 915.213 340.478H920.434V342.183C920.434 342.789 920.829 343.167 921.374 343.167ZM920.451 338.852H915.907V338.799C916.936 336.962 918.263 334.976 920.416 331.891H920.451V338.852Z" fill="black"/>
<rect x="1062" y="805" width="250" height="72" rx="20" fill="#C4C4C4"/>
<path d="M1295.35 841.382C1295.35 841.196 1295.28 841.043 1295.15 840.908L1283.68 829.374C1283.43 829.085 1283.24 829.018 1283.05 829.018C1282.68 829.018 1282.39 829.306 1282.39 829.662C1282.39 829.849 1282.44 830.018 1282.58 830.137L1289.34 836.922L1293.4 840.84L1289.68 840.738H1264.5C1264.14 840.738 1263.85 841.009 1263.85 841.382C1263.85 841.756 1264.14 842.027 1264.5 842.027H1289.68L1293.4 841.942L1289.34 845.843L1282.58 852.628C1282.46 852.746 1282.39 852.933 1282.39 853.12C1282.39 853.459 1282.68 853.747 1283.05 853.747C1283.24 853.747 1283.39 853.679 1283.53 853.544L1295.15 841.857C1295.28 841.722 1295.35 841.569 1295.35 841.382Z" fill="#3A3A3A"/>
<path d="M1164.11 850.223C1165.16 850.223 1165.79 849.578 1165.79 848.453V838.926H1165.9L1173.23 849.203C1173.77 849.953 1174.24 850.223 1175 850.223C1176.12 850.223 1176.74 849.602 1176.74 848.5V834.637C1176.74 833.5 1176.12 832.855 1175.05 832.855C1173.98 832.855 1173.35 833.5 1173.35 834.637V844.105H1173.26L1165.95 833.887C1165.41 833.148 1164.91 832.855 1164.19 832.855C1163.06 832.855 1162.41 833.5 1162.41 834.625V848.453C1162.41 849.578 1163.04 850.223 1164.11 850.223ZM1185.05 850.27C1187.47 850.27 1189.42 849.355 1190.25 847.809C1190.4 847.527 1190.48 847.246 1190.48 846.977C1190.48 846.191 1189.89 845.723 1189.15 845.723C1188.7 845.723 1188.4 845.852 1188.04 846.227C1187.11 847.316 1186.29 847.738 1185.04 847.738C1183.3 847.738 1182.18 846.52 1182.18 844.656V844.504H1189.35C1190.3 844.504 1190.84 843.965 1190.84 843.016C1190.84 839.605 1188.45 837.168 1184.88 837.168C1181.17 837.168 1178.81 839.734 1178.81 843.777C1178.81 847.844 1181.12 850.27 1185.05 850.27ZM1182.21 842.406C1182.33 840.801 1183.42 839.699 1184.92 839.699C1186.42 839.699 1187.47 840.766 1187.54 842.406H1182.21ZM1193.65 850.246C1194.26 850.246 1194.6 850.047 1195.07 849.32L1197.52 845.641H1197.59L1200.08 849.379C1200.47 849.965 1200.8 850.246 1201.46 850.246C1202.39 850.246 1203.09 849.66 1203.09 848.734C1203.09 848.359 1202.98 848.031 1202.72 847.68L1199.8 843.648L1202.67 839.816C1203 839.395 1203.13 839.055 1203.13 838.633C1203.13 837.766 1202.48 837.18 1201.52 837.18C1200.89 837.18 1200.53 837.461 1200.07 838.176L1197.77 841.68H1197.7L1195.36 838.152C1194.9 837.426 1194.54 837.18 1193.85 837.18C1192.91 837.18 1192.21 837.824 1192.21 838.68C1192.21 839.078 1192.32 839.418 1192.57 839.746L1195.5 843.742L1192.56 847.68C1192.23 848.113 1192.1 848.441 1192.1 848.852C1192.1 849.672 1192.75 850.246 1193.65 850.246ZM1206.01 846.789C1206.01 849.004 1207.17 850.141 1209.46 850.141H1209.57C1211.02 850.141 1212 849.625 1212 848.617C1212 847.82 1211.54 847.469 1210.7 847.375L1210.48 847.352C1209.74 847.293 1209.43 846.918 1209.43 846.027V840.016H1210.64C1211.45 840.016 1211.95 839.512 1211.95 838.727C1211.95 837.941 1211.45 837.438 1210.64 837.438H1209.43V836.043C1209.43 834.941 1208.79 834.262 1207.72 834.262C1206.66 834.262 1206.01 834.941 1206.01 836.043V837.438H1205.36C1204.55 837.438 1204.03 837.93 1204.03 838.727C1204.03 839.523 1204.55 840.016 1205.36 840.016H1206.01V846.789Z" fill="#3A3A3A"/>
<path d="M37.572 52L37.554 42.82L33 50.47H32.172L27.618 42.874V52H25.89V39.4H27.366L32.622 48.256L37.806 39.4H39.282L39.3 52H37.572ZM51.4514 47.284C51.4514 47.416 51.4394 47.59 51.4154 47.806H43.6754C43.7834 48.646 44.1494 49.324 44.7734 49.84C45.4094 50.344 46.1954 50.596 47.1314 50.596C48.2714 50.596 49.1894 50.212 49.8854 49.444L50.8394 50.56C50.4074 51.064 49.8674 51.448 49.2194 51.712C48.5834 51.976 47.8694 52.108 47.0774 52.108C46.0694 52.108 45.1754 51.904 44.3954 51.496C43.6154 51.076 43.0094 50.494 42.5774 49.75C42.1574 49.006 41.9474 48.166 41.9474 47.23C41.9474 46.306 42.1514 45.472 42.5594 44.728C42.9794 43.984 43.5494 43.408 44.2694 43C45.0014 42.58 45.8234 42.37 46.7354 42.37C47.6474 42.37 48.4574 42.58 49.1654 43C49.8854 43.408 50.4434 43.984 50.8394 44.728C51.2474 45.472 51.4514 46.324 51.4514 47.284ZM46.7354 43.828C45.9074 43.828 45.2114 44.08 44.6474 44.584C44.0954 45.088 43.7714 45.748 43.6754 46.564H49.7954C49.6994 45.76 49.3694 45.106 48.8054 44.602C48.2534 44.086 47.5634 43.828 46.7354 43.828ZM58.9449 42.37C60.1569 42.37 61.1169 42.724 61.8249 43.432C62.5449 44.128 62.9049 45.154 62.9049 46.51V52H61.1769V46.708C61.1769 45.784 60.9549 45.088 60.5109 44.62C60.0669 44.152 59.4309 43.918 58.6029 43.918C57.6669 43.918 56.9289 44.194 56.3889 44.746C55.8489 45.286 55.5789 46.066 55.5789 47.086V52H53.8509V42.46H55.5069V43.9C55.8549 43.408 56.3229 43.03 56.9109 42.766C57.5109 42.502 58.1889 42.37 58.9449 42.37ZM71.4668 51.442C71.2148 51.658 70.9028 51.826 70.5308 51.946C70.1588 52.054 69.7748 52.108 69.3788 52.108C68.4188 52.108 67.6748 51.85 67.1468 51.334C66.6188 50.818 66.3548 50.08 66.3548 49.12V43.882H64.7348V42.46H66.3548V40.372H68.0828V42.46H70.8188V43.882H68.0828V49.048C68.0828 49.564 68.2088 49.96 68.4608 50.236C68.7248 50.512 69.0968 50.65 69.5768 50.65C70.1048 50.65 70.5548 50.5 70.9268 50.2L71.4668 51.442ZM77.03 42.37C78.35 42.37 79.358 42.694 80.054 43.342C80.762 43.99 81.116 44.956 81.116 46.24V52H79.478V50.74C79.19 51.184 78.776 51.526 78.236 51.766C77.708 51.994 77.078 52.108 76.346 52.108C75.278 52.108 74.42 51.85 73.772 51.334C73.136 50.818 72.818 50.14 72.818 49.3C72.818 48.46 73.124 47.788 73.736 47.284C74.348 46.768 75.32 46.51 76.652 46.51H79.388V46.168C79.388 45.424 79.172 44.854 78.74 44.458C78.308 44.062 77.672 43.864 76.832 43.864C76.268 43.864 75.716 43.96 75.176 44.152C74.636 44.332 74.18 44.578 73.808 44.89L73.088 43.594C73.58 43.198 74.168 42.898 74.852 42.694C75.536 42.478 76.262 42.37 77.03 42.37ZM76.634 50.776C77.294 50.776 77.864 50.632 78.344 50.344C78.824 50.044 79.172 49.624 79.388 49.084V47.752H76.724C75.26 47.752 74.528 48.244 74.528 49.228C74.528 49.708 74.714 50.086 75.086 50.362C75.458 50.638 75.974 50.776 76.634 50.776ZM84.3138 38.644H86.0418V52H84.3138V38.644ZM105.263 39.4V52H103.463V46.384H96.2271V52H94.4271V39.4H96.2271V44.818H103.463V39.4H105.263ZM117.405 47.284C117.405 47.416 117.393 47.59 117.369 47.806H109.629C109.737 48.646 110.103 49.324 110.727 49.84C111.363 50.344 112.149 50.596 113.085 50.596C114.225 50.596 115.143 50.212 115.839 49.444L116.793 50.56C116.361 51.064 115.821 51.448 115.173 51.712C114.537 51.976 113.823 52.108 113.031 52.108C112.023 52.108 111.129 51.904 110.349 51.496C109.569 51.076 108.963 50.494 108.531 49.75C108.111 49.006 107.901 48.166 107.901 47.23C107.901 46.306 108.105 45.472 108.513 44.728C108.933 43.984 109.503 43.408 110.223 43C110.955 42.58 111.777 42.37 112.689 42.37C113.601 42.37 114.411 42.58 115.119 43C115.839 43.408 116.397 43.984 116.793 44.728C117.201 45.472 117.405 46.324 117.405 47.284ZM112.689 43.828C111.861 43.828 111.165 44.08 110.601 44.584C110.049 45.088 109.725 45.748 109.629 46.564H115.749C115.653 45.76 115.323 45.106 114.759 44.602C114.207 44.086 113.517 43.828 112.689 43.828ZM123.014 42.37C124.334 42.37 125.342 42.694 126.038 43.342C126.746 43.99 127.1 44.956 127.1 46.24V52H125.462V50.74C125.174 51.184 124.76 51.526 124.22 51.766C123.692 51.994 123.062 52.108 122.33 52.108C121.262 52.108 120.404 51.85 119.756 51.334C119.12 50.818 118.802 50.14 118.802 49.3C118.802 48.46 119.108 47.788 119.72 47.284C120.332 46.768 121.304 46.51 122.636 46.51H125.372V46.168C125.372 45.424 125.156 44.854 124.724 44.458C124.292 44.062 123.656 43.864 122.816 43.864C122.252 43.864 121.7 43.96 121.16 44.152C120.62 44.332 120.164 44.578 119.792 44.89L119.072 43.594C119.564 43.198 120.152 42.898 120.836 42.694C121.52 42.478 122.246 42.37 123.014 42.37ZM122.618 50.776C123.278 50.776 123.848 50.632 124.328 50.344C124.808 50.044 125.156 49.624 125.372 49.084V47.752H122.708C121.244 47.752 120.512 48.244 120.512 49.228C120.512 49.708 120.698 50.086 121.07 50.362C121.442 50.638 121.958 50.776 122.618 50.776ZM130.298 38.644H132.026V52H130.298V38.644ZM140.918 51.442C140.666 51.658 140.354 51.826 139.982 51.946C139.61 52.054 139.226 52.108 138.83 52.108C137.87 52.108 137.126 51.85 136.598 51.334C136.07 50.818 135.806 50.08 135.806 49.12V43.882H134.186V42.46H135.806V40.372H137.534V42.46H140.27V43.882H137.534V49.048C137.534 49.564 137.66 49.96 137.912 50.236C138.176 50.512 138.548 50.65 139.028 50.65C139.556 50.65 140.006 50.5 140.378 50.2L140.918 51.442ZM148.101 42.37C149.313 42.37 150.273 42.724 150.981 43.432C151.701 44.128 152.061 45.154 152.061 46.51V52H150.333V46.708C150.333 45.784 150.111 45.088 149.667 44.62C149.223 44.152 148.587 43.918 147.759 43.918C146.823 43.918 146.085 44.194 145.545 44.746C145.005 45.286 144.735 46.066 144.735 47.086V52H143.007V38.644H144.735V43.81C145.095 43.354 145.563 43 146.139 42.748C146.727 42.496 147.381 42.37 148.101 42.37ZM168.769 52L166.051 48.13C165.715 48.154 165.451 48.166 165.259 48.166H162.145V52H160.345V39.4H165.259C166.891 39.4 168.175 39.79 169.111 40.57C170.047 41.35 170.515 42.424 170.515 43.792C170.515 44.764 170.275 45.592 169.795 46.276C169.315 46.96 168.631 47.458 167.743 47.77L170.731 52H168.769ZM165.205 46.636C166.345 46.636 167.215 46.39 167.815 45.898C168.415 45.406 168.715 44.704 168.715 43.792C168.715 42.88 168.415 42.184 167.815 41.704C167.215 41.212 166.345 40.966 165.205 40.966H162.145V46.636H165.205ZM181.793 47.284C181.793 47.416 181.781 47.59 181.757 47.806H174.017C174.125 48.646 174.491 49.324 175.115 49.84C175.751 50.344 176.537 50.596 177.473 50.596C178.613 50.596 179.531 50.212 180.227 49.444L181.181 50.56C180.749 51.064 180.209 51.448 179.561 51.712C178.925 51.976 178.211 52.108 177.419 52.108C176.411 52.108 175.517 51.904 174.737 51.496C173.957 51.076 173.351 50.494 172.919 49.75C172.499 49.006 172.289 48.166 172.289 47.23C172.289 46.306 172.493 45.472 172.901 44.728C173.321 43.984 173.891 43.408 174.611 43C175.343 42.58 176.165 42.37 177.077 42.37C177.989 42.37 178.799 42.58 179.507 43C180.227 43.408 180.785 43.984 181.181 44.728C181.589 45.472 181.793 46.324 181.793 47.284ZM177.077 43.828C176.249 43.828 175.553 44.08 174.989 44.584C174.437 45.088 174.113 45.748 174.017 46.564H180.137C180.041 45.76 179.711 45.106 179.147 44.602C178.595 44.086 177.905 43.828 177.077 43.828ZM186.929 52.108C186.149 52.108 185.399 52.006 184.679 51.802C183.959 51.586 183.395 51.316 182.987 50.992L183.707 49.624C184.127 49.924 184.637 50.164 185.237 50.344C185.837 50.524 186.443 50.614 187.055 50.614C188.567 50.614 189.323 50.182 189.323 49.318C189.323 49.03 189.221 48.802 189.017 48.634C188.813 48.466 188.555 48.346 188.243 48.274C187.943 48.19 187.511 48.1 186.947 48.004C186.179 47.884 185.549 47.746 185.057 47.59C184.577 47.434 184.163 47.17 183.815 46.798C183.467 46.426 183.293 45.904 183.293 45.232C183.293 44.368 183.653 43.678 184.373 43.162C185.093 42.634 186.059 42.37 187.271 42.37C187.907 42.37 188.543 42.448 189.179 42.604C189.815 42.76 190.337 42.97 190.745 43.234L190.007 44.602C189.227 44.098 188.309 43.846 187.253 43.846C186.521 43.846 185.963 43.966 185.579 44.206C185.195 44.446 185.003 44.764 185.003 45.16C185.003 45.472 185.111 45.718 185.327 45.898C185.543 46.078 185.807 46.21 186.119 46.294C186.443 46.378 186.893 46.474 187.469 46.582C188.237 46.714 188.855 46.858 189.323 47.014C189.803 47.158 190.211 47.41 190.547 47.77C190.883 48.13 191.051 48.634 191.051 49.282C191.051 50.146 190.679 50.836 189.935 51.352C189.203 51.856 188.201 52.108 186.929 52.108ZM197.296 52.108C196.348 52.108 195.496 51.898 194.74 51.478C193.984 51.058 193.39 50.482 192.958 49.75C192.538 49.006 192.328 48.166 192.328 47.23C192.328 46.294 192.538 45.46 192.958 44.728C193.39 43.984 193.984 43.408 194.74 43C195.496 42.58 196.348 42.37 197.296 42.37C198.244 42.37 199.09 42.58 199.834 43C200.59 43.408 201.178 43.984 201.598 44.728C202.03 45.46 202.246 46.294 202.246 47.23C202.246 48.166 202.03 49.006 201.598 49.75C201.178 50.482 200.59 51.058 199.834 51.478C199.09 51.898 198.244 52.108 197.296 52.108ZM197.296 50.596C197.908 50.596 198.454 50.458 198.934 50.182C199.426 49.894 199.81 49.498 200.086 48.994C200.362 48.478 200.5 47.89 200.5 47.23C200.5 46.57 200.362 45.988 200.086 45.484C199.81 44.968 199.426 44.572 198.934 44.296C198.454 44.02 197.908 43.882 197.296 43.882C196.684 43.882 196.132 44.02 195.64 44.296C195.16 44.572 194.776 44.968 194.488 45.484C194.212 45.988 194.074 46.57 194.074 47.23C194.074 47.89 194.212 48.478 194.488 48.994C194.776 49.498 195.16 49.894 195.64 50.182C196.132 50.458 196.684 50.596 197.296 50.596ZM213.528 42.46V52H211.89V50.56C211.542 51.052 211.08 51.436 210.504 51.712C209.94 51.976 209.322 52.108 208.65 52.108C207.378 52.108 206.376 51.76 205.644 51.064C204.912 50.356 204.546 49.318 204.546 47.95V42.46H206.274V47.752C206.274 48.676 206.496 49.378 206.94 49.858C207.384 50.326 208.02 50.56 208.848 50.56C209.76 50.56 210.48 50.284 211.008 49.732C211.536 49.18 211.8 48.4 211.8 47.392V42.46H213.528ZM218.474 44.062C218.774 43.51 219.218 43.09 219.806 42.802C220.394 42.514 221.108 42.37 221.948 42.37V44.044C221.852 44.032 221.72 44.026 221.552 44.026C220.616 44.026 219.878 44.308 219.338 44.872C218.81 45.424 218.546 46.216 218.546 47.248V52H216.818V42.46H218.474V44.062ZM228.148 52.108C227.176 52.108 226.306 51.898 225.538 51.478C224.782 51.058 224.188 50.482 223.756 49.75C223.324 49.006 223.108 48.166 223.108 47.23C223.108 46.294 223.324 45.46 223.756 44.728C224.188 43.984 224.782 43.408 225.538 43C226.306 42.58 227.176 42.37 228.148 42.37C229.012 42.37 229.78 42.544 230.452 42.892C231.136 43.24 231.664 43.744 232.036 44.404L230.722 45.25C230.422 44.794 230.05 44.452 229.606 44.224C229.162 43.996 228.67 43.882 228.13 43.882C227.506 43.882 226.942 44.02 226.438 44.296C225.946 44.572 225.556 44.968 225.268 45.484C224.992 45.988 224.854 46.57 224.854 47.23C224.854 47.902 224.992 48.496 225.268 49.012C225.556 49.516 225.946 49.906 226.438 50.182C226.942 50.458 227.506 50.596 228.13 50.596C228.67 50.596 229.162 50.482 229.606 50.254C230.05 50.026 230.422 49.684 230.722 49.228L232.036 50.056C231.664 50.716 231.136 51.226 230.452 51.586C229.78 51.934 229.012 52.108 228.148 52.108ZM242.754 47.284C242.754 47.416 242.742 47.59 242.718 47.806H234.978C235.086 48.646 235.452 49.324 236.076 49.84C236.712 50.344 237.498 50.596 238.434 50.596C239.574 50.596 240.492 50.212 241.188 49.444L242.142 50.56C241.71 51.064 241.17 51.448 240.522 51.712C239.886 51.976 239.172 52.108 238.38 52.108C237.372 52.108 236.478 51.904 235.698 51.496C234.918 51.076 234.312 50.494 233.88 49.75C233.46 49.006 233.25 48.166 233.25 47.23C233.25 46.306 233.454 45.472 233.862 44.728C234.282 43.984 234.852 43.408 235.572 43C236.304 42.58 237.126 42.37 238.038 42.37C238.95 42.37 239.76 42.58 240.468 43C241.188 43.408 241.746 43.984 242.142 44.728C242.55 45.472 242.754 46.324 242.754 47.284ZM238.038 43.828C237.21 43.828 236.514 44.08 235.95 44.584C235.398 45.088 235.074 45.748 234.978 46.564H241.098C241.002 45.76 240.672 45.106 240.108 44.602C239.556 44.086 238.866 43.828 238.038 43.828ZM247.89 52.108C247.11 52.108 246.36 52.006 245.64 51.802C244.92 51.586 244.356 51.316 243.948 50.992L244.668 49.624C245.088 49.924 245.598 50.164 246.198 50.344C246.798 50.524 247.404 50.614 248.016 50.614C249.528 50.614 250.284 50.182 250.284 49.318C250.284 49.03 250.182 48.802 249.978 48.634C249.774 48.466 249.516 48.346 249.204 48.274C248.904 48.19 248.472 48.1 247.908 48.004C247.14 47.884 246.51 47.746 246.018 47.59C245.538 47.434 245.124 47.17 244.776 46.798C244.428 46.426 244.254 45.904 244.254 45.232C244.254 44.368 244.614 43.678 245.334 43.162C246.054 42.634 247.02 42.37 248.232 42.37C248.868 42.37 249.504 42.448 250.14 42.604C250.776 42.76 251.298 42.97 251.706 43.234L250.968 44.602C250.188 44.098 249.27 43.846 248.214 43.846C247.482 43.846 246.924 43.966 246.54 44.206C246.156 44.446 245.964 44.764 245.964 45.16C245.964 45.472 246.072 45.718 246.288 45.898C246.504 46.078 246.768 46.21 247.08 46.294C247.404 46.378 247.854 46.474 248.43 46.582C249.198 46.714 249.816 46.858 250.284 47.014C250.764 47.158 251.172 47.41 251.508 47.77C251.844 48.13 252.012 48.634 252.012 49.282C252.012 50.146 251.64 50.836 250.896 51.352C250.164 51.856 249.162 52.108 247.89 52.108Z" fill="black"/>
</svg>
