<svg width="1440" height="1024" viewBox="0 0 1440 1024" fill="none" xmlns="http://www.w3.org/2000/svg">
<rect width="1440" height="1024" fill="white"/>
<rect width="1440" height="92" fill="#DCDCDC"/>
<path d="M646.552 59L646.48 47.516L641.008 56.732H637.264L631.792 47.912V59H624.052V33.8H631.036L639.244 47.228L647.236 33.8H654.22L654.292 59H646.552ZM671.612 59.576C668.9 59.576 666.464 59.012 664.304 57.884C662.144 56.756 660.452 55.196 659.228 53.204C658.004 51.188 657.392 48.92 657.392 46.4C657.392 43.88 658.004 41.624 659.228 39.632C660.452 37.616 662.144 36.044 664.304 34.916C666.464 33.788 668.9 33.224 671.612 33.224C674.324 33.224 676.76 33.788 678.92 34.916C681.08 36.044 682.772 37.616 683.996 39.632C685.22 41.624 685.832 43.88 685.832 46.4C685.832 48.92 685.22 51.188 683.996 53.204C682.772 55.196 681.08 56.756 678.92 57.884C676.76 59.012 674.324 59.576 671.612 59.576ZM671.612 52.7C672.668 52.7 673.616 52.448 674.456 51.944C675.32 51.416 676.004 50.684 676.508 49.748C677.012 48.788 677.264 47.672 677.264 46.4C677.264 45.128 677.012 44.024 676.508 43.088C676.004 42.128 675.32 41.396 674.456 40.892C673.616 40.364 672.668 40.1 671.612 40.1C670.556 40.1 669.596 40.364 668.732 40.892C667.892 41.396 667.22 42.128 666.716 43.088C666.212 44.024 665.96 45.128 665.96 46.4C665.96 47.672 666.212 48.788 666.716 49.748C667.22 50.684 667.892 51.416 668.732 51.944C669.596 52.448 670.556 52.7 671.612 52.7ZM702.127 59.576C699.415 59.576 696.979 59.012 694.819 57.884C692.659 56.756 690.967 55.196 689.743 53.204C688.519 51.188 687.907 48.92 687.907 46.4C687.907 43.88 688.519 41.624 689.743 39.632C690.967 37.616 692.659 36.044 694.819 34.916C696.979 33.788 699.415 33.224 702.127 33.224C704.839 33.224 707.275 33.788 709.435 34.916C711.595 36.044 713.287 37.616 714.511 39.632C715.735 41.624 716.347 43.88 716.347 46.4C716.347 48.92 715.735 51.188 714.511 53.204C713.287 55.196 711.595 56.756 709.435 57.884C707.275 59.012 704.839 59.576 702.127 59.576ZM702.127 52.7C703.183 52.7 704.131 52.448 704.971 51.944C705.835 51.416 706.519 50.684 707.023 49.748C707.527 48.788 707.779 47.672 707.779 46.4C707.779 45.128 707.527 44.024 707.023 43.088C706.519 42.128 705.835 41.396 704.971 40.892C704.131 40.364 703.183 40.1 702.127 40.1C701.071 40.1 700.111 40.364 699.247 40.892C698.407 41.396 697.735 42.128 697.231 43.088C696.727 44.024 696.475 45.128 696.475 46.4C696.475 47.672 696.727 48.788 697.231 49.748C697.735 50.684 698.407 51.416 699.247 51.944C700.111 52.448 701.071 52.7 702.127 52.7ZM728.827 59.576C726.739 59.576 724.699 59.348 722.707 58.892C720.739 58.412 719.119 57.776 717.847 56.984L720.583 50.792C721.783 51.488 723.127 52.052 724.615 52.484C726.103 52.892 727.531 53.096 728.899 53.096C730.075 53.096 730.915 52.988 731.419 52.772C731.923 52.532 732.175 52.184 732.175 51.728C732.175 51.2 731.839 50.804 731.167 50.54C730.519 50.276 729.439 49.988 727.927 49.676C725.983 49.268 724.363 48.836 723.067 48.38C721.771 47.9 720.643 47.132 719.683 46.076C718.723 44.996 718.243 43.544 718.243 41.72C718.243 40.136 718.687 38.696 719.575 37.4C720.463 36.104 721.783 35.084 723.535 34.34C725.311 33.596 727.459 33.224 729.979 33.224C731.707 33.224 733.399 33.416 735.055 33.8C736.735 34.16 738.211 34.7 739.483 35.42L736.927 41.576C734.455 40.328 732.115 39.704 729.907 39.704C727.723 39.704 726.631 40.232 726.631 41.288C726.631 41.792 726.955 42.176 727.603 42.44C728.251 42.68 729.319 42.944 730.807 43.232C732.727 43.592 734.347 44.012 735.667 44.492C736.987 44.948 738.127 45.704 739.087 46.76C740.071 47.816 740.563 49.256 740.563 51.08C740.563 52.664 740.119 54.104 739.231 55.4C738.343 56.672 737.011 57.692 735.235 58.46C733.483 59.204 731.347 59.576 728.827 59.576ZM764.043 52.592V59H743.091V33.8H763.575V40.208H751.443V43.16H762.099V49.28H751.443V52.592H764.043Z" fill="#3A3A3A"/>
<circle cx="799" cy="45" r="18" fill="#C4C4C4"/>
<rect x="1062" y="805" width="250" height="72" rx="20" fill="#C4C4C4"/>
<path d="M1295.35 841.382C1295.35 841.196 1295.28 841.043 1295.15 840.908L1283.68 829.374C1283.43 829.085 1283.24 829.018 1283.05 829.018C1282.68 829.018 1282.39 829.306 1282.39 829.662C1282.39 829.849 1282.44 830.018 1282.58 830.137L1289.34 836.922L1293.4 840.84L1289.68 840.738H1264.5C1264.14 840.738 1263.85 841.009 1263.85 841.382C1263.85 841.756 1264.14 842.027 1264.5 842.027H1289.68L1293.4 841.942L1289.34 845.843L1282.58 852.628C1282.46 852.746 1282.39 852.933 1282.39 853.12C1282.39 853.459 1282.68 853.747 1283.05 853.747C1283.24 853.747 1283.39 853.679 1283.53 853.544L1295.15 841.857C1295.28 841.722 1295.35 841.569 1295.35 841.382Z" fill="#3A3A3A"/>
<path d="M1164.11 850.223C1165.16 850.223 1165.79 849.578 1165.79 848.453V838.926H1165.9L1173.23 849.203C1173.77 849.953 1174.24 850.223 1175 850.223C1176.12 850.223 1176.74 849.602 1176.74 848.5V834.637C1176.74 833.5 1176.12 832.855 1175.05 832.855C1173.98 832.855 1173.35 833.5 1173.35 834.637V844.105H1173.26L1165.95 833.887C1165.41 833.148 1164.91 832.855 1164.19 832.855C1163.06 832.855 1162.41 833.5 1162.41 834.625V848.453C1162.41 849.578 1163.04 850.223 1164.11 850.223ZM1185.05 850.27C1187.47 850.27 1189.42 849.355 1190.25 847.809C1190.4 847.527 1190.48 847.246 1190.48 846.977C1190.48 846.191 1189.89 845.723 1189.15 845.723C1188.7 845.723 1188.4 845.852 1188.04 846.227C1187.11 847.316 1186.29 847.738 1185.04 847.738C1183.3 847.738 1182.18 846.52 1182.18 844.656V844.504H1189.35C1190.3 844.504 1190.84 843.965 1190.84 843.016C1190.84 839.605 1188.45 837.168 1184.88 837.168C1181.17 837.168 1178.81 839.734 1178.81 843.777C1178.81 847.844 1181.12 850.27 1185.05 850.27ZM1182.21 842.406C1182.33 840.801 1183.42 839.699 1184.92 839.699C1186.42 839.699 1187.47 840.766 1187.54 842.406H1182.21ZM1193.65 850.246C1194.26 850.246 1194.6 850.047 1195.07 849.32L1197.52 845.641H1197.59L1200.08 849.379C1200.47 849.965 1200.8 850.246 1201.46 850.246C1202.39 850.246 1203.09 849.66 1203.09 848.734C1203.09 848.359 1202.98 848.031 1202.72 847.68L1199.8 843.648L1202.67 839.816C1203 839.395 1203.13 839.055 1203.13 838.633C1203.13 837.766 1202.48 837.18 1201.52 837.18C1200.89 837.18 1200.53 837.461 1200.07 838.176L1197.77 841.68H1197.7L1195.36 838.152C1194.9 837.426 1194.54 837.18 1193.85 837.18C1192.91 837.18 1192.21 837.824 1192.21 838.68C1192.21 839.078 1192.32 839.418 1192.57 839.746L1195.5 843.742L1192.56 847.68C1192.23 848.113 1192.1 848.441 1192.1 848.852C1192.1 849.672 1192.75 850.246 1193.65 850.246ZM1206.01 846.789C1206.01 849.004 1207.17 850.141 1209.46 850.141H1209.57C1211.02 850.141 1212 849.625 1212 848.617C1212 847.82 1211.54 847.469 1210.7 847.375L1210.48 847.352C1209.74 847.293 1209.43 846.918 1209.43 846.027V840.016H1210.64C1211.45 840.016 1211.95 839.512 1211.95 838.727C1211.95 837.941 1211.45 837.438 1210.64 837.438H1209.43V836.043C1209.43 834.941 1208.79 834.262 1207.72 834.262C1206.66 834.262 1206.01 834.941 1206.01 836.043V837.438H1205.36C1204.55 837.438 1204.03 837.93 1204.03 838.727C1204.03 839.523 1204.55 840.016 1205.36 840.016H1206.01V846.789Z" fill="#3A3A3A"/>
<rect x="404" y="164" width="200" height="200" rx="36" fill="#DCDCDC"/>
<g clip-path="url(#clip0)">
<path d="M535.774 246.523C534.457 245.092 532.638 244.246 530.569 244.246H520.16V244.116C520.16 242.489 519.533 240.928 518.467 239.887C517.4 238.781 515.958 238.13 514.39 238.13H495.578C493.948 238.13 492.505 238.781 491.439 239.887C490.373 240.993 489.746 242.489 489.746 244.116V244.246H479.4C477.33 244.246 475.512 245.092 474.195 246.523C472.878 247.889 472 249.841 472 251.923V284.323C472 286.47 472.815 288.357 474.195 289.723C475.512 291.089 477.393 292 479.4 292H530.569C532.638 292 534.457 291.154 535.774 289.723C537.091 288.357 537.969 286.405 537.969 284.323V251.923C537.969 249.776 537.153 247.889 535.774 246.523ZM534.708 284.323H534.645C534.645 285.494 534.206 286.535 533.454 287.316C532.701 288.096 531.698 288.552 530.569 288.552H479.4C478.271 288.552 477.267 288.096 476.515 287.316C475.762 286.535 475.324 285.494 475.324 284.323V251.923C475.324 250.752 475.762 249.711 476.515 248.93C477.267 248.149 478.271 247.694 479.4 247.694H491.502C492.443 247.694 493.195 246.913 493.195 245.937V244.051C493.195 243.335 493.446 242.684 493.885 242.229C494.324 241.774 494.951 241.513 495.641 241.513H514.39C515.08 241.513 515.707 241.774 516.146 242.229C516.585 242.684 516.836 243.335 516.836 244.051V245.937C516.836 246.913 517.589 247.694 518.529 247.694H530.632C531.761 247.694 532.764 248.149 533.516 248.93C534.269 249.711 534.708 250.752 534.708 251.923V284.323Z" fill="#3A3A3A"/>
<path d="M504.984 252.118C500.72 252.118 496.832 253.94 494.073 256.802C491.251 259.73 489.558 263.699 489.558 268.123C489.558 272.547 491.314 276.581 494.073 279.443C496.895 282.371 500.72 284.128 504.984 284.128C509.248 284.128 513.136 282.306 515.895 279.443C518.717 276.516 520.41 272.547 520.41 268.123C520.41 263.699 518.655 259.665 515.895 256.802C513.136 253.94 509.248 252.118 504.984 252.118ZM513.512 277.036C511.318 279.248 508.308 280.68 504.984 280.68C501.661 280.68 498.651 279.248 496.456 277.036C494.261 274.759 492.944 271.636 492.944 268.188C492.944 264.74 494.324 261.617 496.456 259.34C498.651 257.063 501.661 255.696 504.984 255.696C508.308 255.696 511.318 257.128 513.512 259.34C515.707 261.617 517.024 264.74 517.024 268.188C517.087 271.636 515.707 274.759 513.512 277.036Z" fill="#3A3A3A"/>
<path d="M527.309 258.429C529.006 258.429 530.381 257.002 530.381 255.241C530.381 253.48 529.006 252.053 527.309 252.053C525.612 252.053 524.236 253.48 524.236 255.241C524.236 257.002 525.612 258.429 527.309 258.429Z" fill="#3A3A3A"/>
</g>
<path d="M642.153 178.141C642.76 178.141 643.138 177.754 643.138 177.121V172.691H647.84C648.367 172.691 648.728 172.366 648.728 171.856C648.728 171.355 648.367 171.03 647.84 171.03H643.138V167.022H648.306C648.851 167.022 649.229 166.688 649.229 166.17C649.229 165.651 648.859 165.317 648.306 165.317H642.153C641.538 165.317 641.169 165.704 641.169 166.337V177.121C641.169 177.754 641.538 178.141 642.153 178.141ZM651.584 167.356C652.199 167.356 652.691 166.864 652.691 166.267C652.691 165.66 652.199 165.186 651.584 165.186C650.978 165.186 650.485 165.66 650.485 166.267C650.485 166.864 650.978 167.356 651.584 167.356ZM651.584 178.167C652.155 178.167 652.533 177.771 652.533 177.165V169.598C652.533 168.982 652.155 168.587 651.584 168.587C651.013 168.587 650.635 168.982 650.635 169.598V177.165C650.635 177.771 651.013 178.167 651.584 178.167ZM655.425 178.167C655.987 178.167 656.374 177.78 656.374 177.165V172.445C656.374 171.294 656.901 170.424 658.202 170.415C658.598 170.415 658.879 170.336 659.072 170.169C659.257 170.02 659.354 169.8 659.354 169.501C659.354 169.202 659.274 168.974 659.099 168.833C658.94 168.684 658.686 168.604 658.352 168.604C657.429 168.604 656.576 169.299 656.321 170.336H656.277V169.545C656.277 168.965 655.908 168.587 655.381 168.587C654.845 168.587 654.476 168.965 654.476 169.545V177.165C654.476 177.78 654.854 178.167 655.425 178.167ZM663.792 178.176C666.077 178.176 667.615 177.033 667.615 175.319C667.615 173.948 666.868 173.254 664.926 172.806L663.493 172.472C662.518 172.243 662.069 171.839 662.069 171.259C662.069 170.538 662.772 170.037 663.792 170.037C664.724 170.037 665.286 170.406 665.699 171.109C665.884 171.408 666.156 171.514 666.464 171.514C666.938 171.514 667.202 171.232 667.202 170.811C667.202 170.723 667.185 170.635 667.167 170.529C666.903 169.439 665.532 168.587 663.862 168.587C661.665 168.587 660.215 169.694 660.215 171.364C660.215 172.683 661.094 173.562 662.887 173.983L664.346 174.326C665.339 174.563 665.699 174.889 665.699 175.495C665.699 176.26 664.97 176.726 663.889 176.726C662.79 176.726 662.236 176.392 661.762 175.645C661.524 175.293 661.252 175.144 660.936 175.144C660.461 175.144 660.118 175.425 660.118 175.899C660.118 176.022 660.136 176.154 660.197 176.295C660.637 177.429 661.973 178.176 663.792 178.176ZM669.637 175.785C669.637 177.314 670.428 178.079 671.983 178.079H672.08C673.012 178.079 673.451 177.789 673.451 177.218C673.451 176.77 673.179 176.55 672.634 176.497L672.484 176.488C671.799 176.436 671.544 176.102 671.544 175.363V170.257H672.625C673.117 170.257 673.416 169.976 673.416 169.51C673.416 169.044 673.117 168.754 672.625 168.754H671.544V167.383C671.544 166.776 671.166 166.372 670.595 166.372C670.015 166.372 669.637 166.776 669.637 167.383V168.754H668.969C668.477 168.754 668.178 169.035 668.178 169.51C668.178 169.976 668.477 170.257 668.969 170.257H669.637V175.785ZM679.709 178.141C680.307 178.141 680.667 177.763 680.667 177.139V168.657H680.746L686.995 177.534C687.32 177.991 687.575 178.141 688.059 178.141C688.718 178.141 689.096 177.763 689.096 177.121V166.179C689.096 165.555 688.735 165.177 688.138 165.177C687.549 165.177 687.18 165.555 687.18 166.179V174.669H687.109L680.869 165.792C680.544 165.335 680.271 165.177 679.806 165.177C679.155 165.177 678.751 165.59 678.751 166.24V177.139C678.751 177.763 679.111 178.141 679.709 178.141ZM693.675 178.158C694.879 178.158 696.057 177.508 696.593 176.479H696.637V177.262C696.654 177.824 697.015 178.167 697.542 178.167C698.078 178.167 698.456 177.807 698.456 177.209V171.628C698.456 169.773 697.023 168.587 694.782 168.587C693.121 168.587 691.724 169.255 691.24 170.301C691.126 170.512 691.073 170.723 691.073 170.916C691.073 171.391 691.416 171.707 691.891 171.707C692.225 171.707 692.471 171.584 692.664 171.303C693.191 170.459 693.798 170.134 694.712 170.134C695.872 170.134 696.566 170.749 696.566 171.777V172.489L694.026 172.639C691.838 172.762 690.59 173.755 690.59 175.372C690.59 177.033 691.864 178.158 693.675 178.158ZM694.193 176.655C693.183 176.655 692.506 176.128 692.506 175.319C692.506 174.528 693.147 174.027 694.281 173.948L696.566 173.808V174.537C696.566 175.741 695.521 176.655 694.193 176.655ZM701.251 178.167C701.822 178.167 702.2 177.771 702.2 177.165V172.287C702.2 171.101 703 170.222 704.125 170.222C705.197 170.222 705.874 170.898 705.874 171.962V177.165C705.874 177.771 706.234 178.167 706.806 178.167C707.377 178.167 707.737 177.771 707.737 177.165V172.226C707.737 171.057 708.52 170.222 709.645 170.222C710.77 170.222 711.411 170.907 711.411 172.103V177.165C711.411 177.771 711.789 178.167 712.36 178.167C712.932 178.167 713.318 177.771 713.318 177.165V171.646C713.318 169.809 712.123 168.596 710.295 168.596C708.977 168.596 707.887 169.281 707.412 170.406H707.368C706.999 169.255 706.067 168.596 704.784 168.596C703.536 168.596 702.569 169.281 702.156 170.31H702.112V169.554C702.112 168.947 701.734 168.587 701.207 168.587C700.671 168.587 700.302 168.956 700.302 169.554V177.165C700.302 177.771 700.68 178.167 701.251 178.167ZM719.163 178.176C720.886 178.176 722.23 177.481 722.837 176.269C722.916 176.084 722.969 175.908 722.969 175.759C722.969 175.284 722.635 174.985 722.178 174.985C721.905 174.985 721.712 175.082 721.51 175.319C720.807 176.277 720.156 176.638 719.119 176.638C717.607 176.638 716.658 175.583 716.658 173.896V173.852H722.248C722.837 173.852 723.188 173.5 723.188 172.885C723.188 170.362 721.492 168.587 719.031 168.587C716.412 168.587 714.742 170.485 714.742 173.421C714.742 176.409 716.377 178.176 719.163 178.176ZM716.667 172.524C716.764 171.083 717.713 170.116 719.022 170.116C720.341 170.116 721.246 171.074 721.29 172.524H716.667Z" fill="black"/>
<path d="M642.153 251H648.446C648.991 251 649.36 250.666 649.36 250.147C649.36 249.629 648.991 249.295 648.446 249.295H643.138V245.357H648.156C648.684 245.357 649.035 245.032 649.035 244.54C649.035 244.039 648.675 243.723 648.156 243.723H643.138V240.022H648.446C648.991 240.022 649.36 239.688 649.36 239.17C649.36 238.651 648.991 238.317 648.446 238.317H642.153C641.538 238.317 641.169 238.704 641.169 239.337V249.98C641.169 250.613 641.538 251 642.153 251ZM651.962 251.167C652.533 251.167 652.911 250.771 652.911 250.165V245.287C652.911 244.101 653.711 243.222 654.836 243.222C655.908 243.222 656.585 243.898 656.585 244.962V250.165C656.585 250.771 656.945 251.167 657.517 251.167C658.088 251.167 658.448 250.771 658.448 250.165V245.226C658.448 244.057 659.23 243.222 660.355 243.222C661.48 243.222 662.122 243.907 662.122 245.103V250.165C662.122 250.771 662.5 251.167 663.071 251.167C663.643 251.167 664.029 250.771 664.029 250.165V244.646C664.029 242.809 662.834 241.596 661.006 241.596C659.688 241.596 658.598 242.281 658.123 243.406H658.079C657.71 242.255 656.778 241.596 655.495 241.596C654.247 241.596 653.28 242.281 652.867 243.31H652.823V242.554C652.823 241.947 652.445 241.587 651.918 241.587C651.382 241.587 651.013 241.956 651.013 242.554V250.165C651.013 250.771 651.391 251.167 651.962 251.167ZM668.573 251.158C669.777 251.158 670.955 250.508 671.491 249.479H671.535V250.262C671.553 250.824 671.913 251.167 672.44 251.167C672.977 251.167 673.354 250.807 673.354 250.209V244.628C673.354 242.773 671.922 241.587 669.681 241.587C668.02 241.587 666.622 242.255 666.139 243.301C666.024 243.512 665.972 243.723 665.972 243.916C665.972 244.391 666.314 244.707 666.789 244.707C667.123 244.707 667.369 244.584 667.562 244.303C668.09 243.459 668.696 243.134 669.61 243.134C670.771 243.134 671.465 243.749 671.465 244.777V245.489L668.925 245.639C666.736 245.762 665.488 246.755 665.488 248.372C665.488 250.033 666.763 251.158 668.573 251.158ZM669.092 249.655C668.081 249.655 667.404 249.128 667.404 248.319C667.404 247.528 668.046 247.027 669.18 246.948L671.465 246.808V247.537C671.465 248.741 670.419 249.655 669.092 249.655ZM676.211 240.356C676.826 240.356 677.318 239.864 677.318 239.267C677.318 238.66 676.826 238.186 676.211 238.186C675.604 238.186 675.112 238.66 675.112 239.267C675.112 239.864 675.604 240.356 676.211 240.356ZM676.211 251.167C676.782 251.167 677.16 250.771 677.16 250.165V242.598C677.16 241.982 676.782 241.587 676.211 241.587C675.64 241.587 675.262 241.982 675.262 242.598V250.165C675.262 250.771 675.64 251.167 676.211 251.167ZM680.122 251.167C680.676 251.167 681.071 250.789 681.071 250.165V239.152C681.071 238.528 680.676 238.15 680.122 238.15C679.568 238.15 679.173 238.528 679.173 239.152V250.165C679.173 250.789 679.568 251.167 680.122 251.167Z" fill="black"/>
<path d="M642.153 324.141C642.76 324.141 643.138 323.754 643.138 323.121V319.667H645.862C648.35 319.667 650.099 317.962 650.099 315.483C650.099 313.014 648.385 311.317 645.924 311.317H642.153C641.538 311.317 641.169 311.704 641.169 312.337V323.121C641.169 323.754 641.538 324.141 642.153 324.141ZM643.138 318.015V312.979H645.405C647.11 312.979 648.086 313.893 648.086 315.492C648.086 317.092 647.11 318.015 645.396 318.015H643.138ZM653.562 324.158C654.766 324.158 655.943 323.508 656.479 322.479H656.523V323.262C656.541 323.824 656.901 324.167 657.429 324.167C657.965 324.167 658.343 323.807 658.343 323.209V317.628C658.343 315.773 656.91 314.587 654.669 314.587C653.008 314.587 651.61 315.255 651.127 316.301C651.013 316.512 650.96 316.723 650.96 316.916C650.96 317.391 651.303 317.707 651.777 317.707C652.111 317.707 652.357 317.584 652.551 317.303C653.078 316.459 653.685 316.134 654.599 316.134C655.759 316.134 656.453 316.749 656.453 317.777V318.489L653.913 318.639C651.725 318.762 650.477 319.755 650.477 321.372C650.477 323.033 651.751 324.158 653.562 324.158ZM654.08 322.655C653.069 322.655 652.393 322.128 652.393 321.319C652.393 320.528 653.034 320.027 654.168 319.948L656.453 319.808V320.537C656.453 321.741 655.407 322.655 654.08 322.655ZM663.599 324.176C665.884 324.176 667.422 323.033 667.422 321.319C667.422 319.948 666.675 319.254 664.732 318.806L663.3 318.472C662.324 318.243 661.876 317.839 661.876 317.259C661.876 316.538 662.579 316.037 663.599 316.037C664.53 316.037 665.093 316.406 665.506 317.109C665.69 317.408 665.963 317.514 666.271 317.514C666.745 317.514 667.009 317.232 667.009 316.811C667.009 316.723 666.991 316.635 666.974 316.529C666.71 315.439 665.339 314.587 663.669 314.587C661.472 314.587 660.021 315.694 660.021 317.364C660.021 318.683 660.9 319.562 662.693 319.983L664.152 320.326C665.146 320.563 665.506 320.889 665.506 321.495C665.506 322.26 664.776 322.726 663.695 322.726C662.597 322.726 662.043 322.392 661.568 321.645C661.331 321.293 661.059 321.144 660.742 321.144C660.268 321.144 659.925 321.425 659.925 321.899C659.925 322.022 659.942 322.154 660.004 322.295C660.443 323.429 661.779 324.176 663.599 324.176ZM672.3 324.176C674.585 324.176 676.123 323.033 676.123 321.319C676.123 319.948 675.376 319.254 673.434 318.806L672.001 318.472C671.025 318.243 670.577 317.839 670.577 317.259C670.577 316.538 671.28 316.037 672.3 316.037C673.231 316.037 673.794 316.406 674.207 317.109C674.392 317.408 674.664 317.514 674.972 317.514C675.446 317.514 675.71 317.232 675.71 316.811C675.71 316.723 675.692 316.635 675.675 316.529C675.411 315.439 674.04 314.587 672.37 314.587C670.173 314.587 668.723 315.694 668.723 317.364C668.723 318.683 669.602 319.562 671.395 319.983L672.854 320.326C673.847 320.563 674.207 320.889 674.207 321.495C674.207 322.26 673.478 322.726 672.396 322.726C671.298 322.726 670.744 322.392 670.27 321.645C670.032 321.293 669.76 321.144 669.443 321.144C668.969 321.144 668.626 321.425 668.626 321.899C668.626 322.022 668.644 322.154 668.705 322.295C669.145 323.429 670.48 324.176 672.3 324.176ZM680.351 324.167C680.992 324.167 681.388 323.859 681.563 323.209L683.277 317.074H683.321L685.053 323.209C685.229 323.886 685.598 324.167 686.257 324.167C686.881 324.167 687.268 323.859 687.452 323.209L689.562 315.94C689.623 315.721 689.649 315.562 689.649 315.404C689.649 314.912 689.289 314.587 688.735 314.587C688.261 314.587 687.988 314.842 687.865 315.378L686.204 322.031H686.16L684.394 315.448C684.262 314.886 683.893 314.587 683.321 314.587C682.741 314.587 682.363 314.886 682.231 315.448L680.474 322.031H680.438L678.777 315.378C678.654 314.842 678.373 314.587 677.898 314.587C677.345 314.587 676.976 314.912 676.976 315.404C676.976 315.562 677.002 315.729 677.072 315.94L679.182 323.209C679.375 323.877 679.727 324.167 680.351 324.167ZM694.853 324.176C697.498 324.176 699.238 322.356 699.238 319.377C699.238 316.406 697.489 314.587 694.853 314.587C692.216 314.587 690.467 316.406 690.467 319.377C690.467 322.356 692.207 324.176 694.853 324.176ZM694.853 322.611C693.367 322.611 692.4 321.434 692.4 319.377C692.4 317.329 693.367 316.151 694.853 316.151C696.338 316.151 697.305 317.329 697.305 319.377C697.305 321.434 696.347 322.611 694.853 322.611ZM701.655 324.167C702.218 324.167 702.604 323.78 702.604 323.165V318.445C702.604 317.294 703.132 316.424 704.433 316.415C704.828 316.415 705.109 316.336 705.303 316.169C705.487 316.02 705.584 315.8 705.584 315.501C705.584 315.202 705.505 314.974 705.329 314.833C705.171 314.684 704.916 314.604 704.582 314.604C703.659 314.604 702.807 315.299 702.552 316.336H702.508V315.545C702.508 314.965 702.139 314.587 701.611 314.587C701.075 314.587 700.706 314.965 700.706 315.545V323.165C700.706 323.78 701.084 324.167 701.655 324.167ZM709.68 324.158C711.121 324.158 712.097 323.438 712.571 322.356H712.598V323.218C712.598 323.815 713.028 324.167 713.564 324.167C714.118 324.167 714.505 323.815 714.505 323.218V312.152C714.505 311.528 714.109 311.15 713.556 311.15C712.993 311.15 712.598 311.528 712.598 312.152V316.292H712.562C712.044 315.272 710.989 314.604 709.662 314.604C707.342 314.604 705.795 316.459 705.795 319.377C705.795 322.295 707.342 324.158 709.68 324.158ZM710.181 322.55C708.678 322.55 707.737 321.328 707.737 319.377C707.737 317.435 708.678 316.204 710.181 316.204C711.64 316.204 712.615 317.461 712.615 319.377C712.615 321.311 711.64 322.55 710.181 322.55Z" fill="black"/>
<line x1="640" y1="217" x2="1036" y2="217" stroke="#3A3A3A" stroke-width="2"/>
<line x1="640" y1="290" x2="1036" y2="290" stroke="#3A3A3A" stroke-width="2"/>
<line x1="640" y1="363" x2="1036" y2="363" stroke="#3A3A3A" stroke-width="2"/>
<path d="M409.493 417.211C412.455 417.211 414.336 415.708 414.336 413.317C414.336 411.472 413.246 410.408 410.583 409.846L409.203 409.556C407.56 409.204 406.9 408.589 406.9 407.666C406.9 406.506 407.999 405.785 409.484 405.785C410.75 405.785 411.717 406.286 412.147 407.455C412.35 407.912 412.64 408.132 413.114 408.132C413.624 408.132 413.984 407.798 413.984 407.288C413.984 407.104 413.958 406.954 413.914 406.831C413.422 405.135 411.699 404.106 409.511 404.106C406.812 404.106 404.905 405.601 404.905 407.771C404.905 409.6 406.057 410.777 408.588 411.313L409.977 411.604C411.673 411.973 412.341 412.588 412.341 413.572C412.341 414.706 411.189 415.532 409.581 415.532C408.113 415.532 406.962 414.979 406.566 413.792C406.373 413.317 406.083 413.115 405.635 413.115C405.099 413.115 404.747 413.484 404.747 414.056C404.747 414.267 404.791 414.478 404.853 414.671C405.345 416.147 407.032 417.211 409.493 417.211ZM416.894 417.167C417.447 417.167 417.843 416.789 417.843 416.165V411.656C417.843 410.197 418.704 409.23 420.11 409.23C421.446 409.23 422.132 410.048 422.132 411.41V416.165C422.132 416.789 422.527 417.167 423.081 417.167C423.644 417.167 424.039 416.789 424.039 416.165V411.041C424.039 408.949 422.826 407.596 420.796 407.596C419.39 407.596 418.379 408.22 417.869 409.301H417.825V405.135C417.825 404.537 417.474 404.15 416.885 404.15C416.305 404.15 415.944 404.537 415.944 405.135V416.165C415.944 416.789 416.34 417.167 416.894 417.167ZM429.849 417.176C432.494 417.176 434.234 415.356 434.234 412.377C434.234 409.406 432.485 407.587 429.849 407.587C427.212 407.587 425.463 409.406 425.463 412.377C425.463 415.356 427.203 417.176 429.849 417.176ZM429.849 415.611C428.363 415.611 427.396 414.434 427.396 412.377C427.396 410.329 428.363 409.151 429.849 409.151C431.334 409.151 432.301 410.329 432.301 412.377C432.301 414.434 431.343 415.611 429.849 415.611ZM436.651 417.167C437.214 417.167 437.601 416.78 437.601 416.165V411.445C437.601 410.294 438.128 409.424 439.429 409.415C439.824 409.415 440.105 409.336 440.299 409.169C440.483 409.02 440.58 408.8 440.58 408.501C440.58 408.202 440.501 407.974 440.325 407.833C440.167 407.684 439.912 407.604 439.578 407.604C438.655 407.604 437.803 408.299 437.548 409.336H437.504V408.545C437.504 407.965 437.135 407.587 436.607 407.587C436.071 407.587 435.702 407.965 435.702 408.545V416.165C435.702 416.78 436.08 417.167 436.651 417.167ZM442.162 414.785C442.162 416.314 442.953 417.079 444.509 417.079H444.605C445.537 417.079 445.977 416.789 445.977 416.218C445.977 415.77 445.704 415.55 445.159 415.497L445.01 415.488C444.324 415.436 444.069 415.102 444.069 414.363V409.257H445.15C445.643 409.257 445.941 408.976 445.941 408.51C445.941 408.044 445.643 407.754 445.15 407.754H444.069V406.383C444.069 405.776 443.691 405.372 443.12 405.372C442.54 405.372 442.162 405.776 442.162 406.383V407.754H441.494C441.002 407.754 440.703 408.035 440.703 408.51C440.703 408.976 441.002 409.257 441.494 409.257H442.162V414.785ZM452.261 417H456.365C459.063 417 460.689 415.646 460.689 413.414C460.689 411.727 459.529 410.505 457.807 410.312V410.241C459.072 410.03 460.065 408.826 460.065 407.481C460.065 405.565 458.589 404.317 456.339 404.317H452.261C451.646 404.317 451.276 404.704 451.276 405.337V415.98C451.276 416.613 451.646 417 452.261 417ZM453.245 409.714V405.926H455.864C457.288 405.926 458.097 406.576 458.097 407.754C458.097 409.011 457.156 409.714 455.451 409.714H453.245ZM453.245 415.392V411.217H455.847C457.71 411.217 458.677 411.92 458.677 413.291C458.677 414.662 457.736 415.392 455.961 415.392H453.245ZM463.168 406.356C463.783 406.356 464.275 405.864 464.275 405.267C464.275 404.66 463.783 404.186 463.168 404.186C462.562 404.186 462.069 404.66 462.069 405.267C462.069 405.864 462.562 406.356 463.168 406.356ZM463.168 417.167C463.739 417.167 464.117 416.771 464.117 416.165V408.598C464.117 407.982 463.739 407.587 463.168 407.587C462.597 407.587 462.219 407.982 462.219 408.598V416.165C462.219 416.771 462.597 417.167 463.168 417.167ZM470.032 417.176C472.678 417.176 474.418 415.356 474.418 412.377C474.418 409.406 472.669 407.587 470.032 407.587C467.396 407.587 465.646 409.406 465.646 412.377C465.646 415.356 467.387 417.176 470.032 417.176ZM470.032 415.611C468.547 415.611 467.58 414.434 467.58 412.377C467.58 410.329 468.547 409.151 470.032 409.151C471.518 409.151 472.484 410.329 472.484 412.377C472.484 414.434 471.526 415.611 470.032 415.611Z" fill="black"/>
<rect x="404" y="429" width="632" height="134" rx="20" fill="#DCDCDC"/>
<path d="M424.883 460.188C427.516 460.188 429.188 458.852 429.188 456.727C429.188 455.086 428.219 454.141 425.852 453.641L424.625 453.383C423.164 453.07 422.578 452.523 422.578 451.703C422.578 450.672 423.555 450.031 424.875 450.031C426 450.031 426.859 450.477 427.242 451.516C427.422 451.922 427.68 452.117 428.102 452.117C428.555 452.117 428.875 451.82 428.875 451.367C428.875 451.203 428.852 451.07 428.812 450.961C428.375 449.453 426.844 448.539 424.898 448.539C422.5 448.539 420.805 449.867 420.805 451.797C420.805 453.422 421.828 454.469 424.078 454.945L425.312 455.203C426.82 455.531 427.414 456.078 427.414 456.953C427.414 457.961 426.391 458.695 424.961 458.695C423.656 458.695 422.633 458.203 422.281 457.148C422.109 456.727 421.852 456.547 421.453 456.547C420.977 456.547 420.664 456.875 420.664 457.383C420.664 457.57 420.703 457.758 420.758 457.93C421.195 459.242 422.695 460.188 424.883 460.188ZM431.461 460.148C431.953 460.148 432.305 459.812 432.305 459.258V455.25C432.305 453.953 433.07 453.094 434.32 453.094C435.508 453.094 436.117 453.82 436.117 455.031V459.258C436.117 459.812 436.469 460.148 436.961 460.148C437.461 460.148 437.812 459.812 437.812 459.258V454.703C437.812 452.844 436.734 451.641 434.93 451.641C433.68 451.641 432.781 452.195 432.328 453.156H432.289V449.453C432.289 448.922 431.977 448.578 431.453 448.578C430.938 448.578 430.617 448.922 430.617 449.453V459.258C430.617 459.812 430.969 460.148 431.461 460.148ZM441.852 460.141C442.922 460.141 443.969 459.562 444.445 458.648H444.484V459.344C444.5 459.844 444.82 460.148 445.289 460.148C445.766 460.148 446.102 459.828 446.102 459.297V454.336C446.102 452.688 444.828 451.633 442.836 451.633C441.359 451.633 440.117 452.227 439.688 453.156C439.586 453.344 439.539 453.531 439.539 453.703C439.539 454.125 439.844 454.406 440.266 454.406C440.562 454.406 440.781 454.297 440.953 454.047C441.422 453.297 441.961 453.008 442.773 453.008C443.805 453.008 444.422 453.555 444.422 454.469V455.102L442.164 455.234C440.219 455.344 439.109 456.227 439.109 457.664C439.109 459.141 440.242 460.141 441.852 460.141ZM442.312 458.805C441.414 458.805 440.812 458.336 440.812 457.617C440.812 456.914 441.383 456.469 442.391 456.398L444.422 456.273V456.922C444.422 457.992 443.492 458.805 442.312 458.805ZM448.586 460.148C449.086 460.148 449.43 459.805 449.43 459.258V455.062C449.43 454.039 449.898 453.266 451.055 453.258C451.406 453.258 451.656 453.188 451.828 453.039C451.992 452.906 452.078 452.711 452.078 452.445C452.078 452.18 452.008 451.977 451.852 451.852C451.711 451.719 451.484 451.648 451.188 451.648C450.367 451.648 449.609 452.266 449.383 453.188H449.344V452.484C449.344 451.969 449.016 451.633 448.547 451.633C448.07 451.633 447.742 451.969 447.742 452.484V459.258C447.742 459.805 448.078 460.148 448.586 460.148ZM456.195 460.156C457.727 460.156 458.922 459.539 459.461 458.461C459.531 458.297 459.578 458.141 459.578 458.008C459.578 457.586 459.281 457.32 458.875 457.32C458.633 457.32 458.461 457.406 458.281 457.617C457.656 458.469 457.078 458.789 456.156 458.789C454.812 458.789 453.969 457.852 453.969 456.352V456.312H458.938C459.461 456.312 459.773 456 459.773 455.453C459.773 453.211 458.266 451.633 456.078 451.633C453.75 451.633 452.266 453.32 452.266 455.93C452.266 458.586 453.719 460.156 456.195 460.156ZM453.977 455.133C454.062 453.852 454.906 452.992 456.07 452.992C457.242 452.992 458.047 453.844 458.086 455.133H453.977ZM466.742 460.141C467.812 460.141 468.859 459.562 469.336 458.648H469.375V459.344C469.391 459.844 469.711 460.148 470.18 460.148C470.656 460.148 470.992 459.828 470.992 459.297V454.336C470.992 452.688 469.719 451.633 467.727 451.633C466.25 451.633 465.008 452.227 464.578 453.156C464.477 453.344 464.43 453.531 464.43 453.703C464.43 454.125 464.734 454.406 465.156 454.406C465.453 454.406 465.672 454.297 465.844 454.047C466.312 453.297 466.852 453.008 467.664 453.008C468.695 453.008 469.312 453.555 469.312 454.469V455.102L467.055 455.234C465.109 455.344 464 456.227 464 457.664C464 459.141 465.133 460.141 466.742 460.141ZM467.203 458.805C466.305 458.805 465.703 458.336 465.703 457.617C465.703 456.914 466.273 456.469 467.281 456.398L469.312 456.273V456.922C469.312 457.992 468.383 458.805 467.203 458.805ZM476.789 460.148C477.281 460.148 477.633 459.812 477.633 459.258V449.469C477.633 448.914 477.281 448.578 476.789 448.578C476.297 448.578 475.945 448.914 475.945 449.469V459.258C475.945 459.812 476.297 460.148 476.789 460.148ZM480.266 450.539C480.812 450.539 481.25 450.102 481.25 449.57C481.25 449.031 480.812 448.609 480.266 448.609C479.727 448.609 479.289 449.031 479.289 449.57C479.289 450.102 479.727 450.539 480.266 450.539ZM480.266 460.148C480.773 460.148 481.109 459.797 481.109 459.258V452.531C481.109 451.984 480.773 451.633 480.266 451.633C479.758 451.633 479.422 451.984 479.422 452.531V459.258C479.422 459.797 479.758 460.148 480.266 460.148ZM483.328 458.031C483.328 459.391 484.031 460.07 485.414 460.07H485.5C486.328 460.07 486.719 459.812 486.719 459.305C486.719 458.906 486.477 458.711 485.992 458.664L485.859 458.656C485.25 458.609 485.023 458.312 485.023 457.656V453.117H485.984C486.422 453.117 486.688 452.867 486.688 452.453C486.688 452.039 486.422 451.781 485.984 451.781H485.023V450.562C485.023 450.023 484.688 449.664 484.18 449.664C483.664 449.664 483.328 450.023 483.328 450.562V451.781H482.734C482.297 451.781 482.031 452.031 482.031 452.453C482.031 452.867 482.297 453.117 482.734 453.117H483.328V458.031ZM488.469 458.031C488.469 459.391 489.172 460.07 490.555 460.07H490.641C491.469 460.07 491.859 459.812 491.859 459.305C491.859 458.906 491.617 458.711 491.133 458.664L491 458.656C490.391 458.609 490.164 458.312 490.164 457.656V453.117H491.125C491.562 453.117 491.828 452.867 491.828 452.453C491.828 452.039 491.562 451.781 491.125 451.781H490.164V450.562C490.164 450.023 489.828 449.664 489.32 449.664C488.805 449.664 488.469 450.023 488.469 450.562V451.781H487.875C487.438 451.781 487.172 452.031 487.172 452.453C487.172 452.867 487.438 453.117 487.875 453.117H488.469V458.031ZM494.023 460.148C494.516 460.148 494.867 459.812 494.867 459.258V449.469C494.867 448.914 494.516 448.578 494.023 448.578C493.531 448.578 493.18 448.914 493.18 449.469V459.258C493.18 459.812 493.531 460.148 494.023 460.148ZM500.164 460.156C501.695 460.156 502.891 459.539 503.43 458.461C503.5 458.297 503.547 458.141 503.547 458.008C503.547 457.586 503.25 457.32 502.844 457.32C502.602 457.32 502.43 457.406 502.25 457.617C501.625 458.469 501.047 458.789 500.125 458.789C498.781 458.789 497.938 457.852 497.938 456.352V456.312H502.906C503.43 456.312 503.742 456 503.742 455.453C503.742 453.211 502.234 451.633 500.047 451.633C497.719 451.633 496.234 453.32 496.234 455.93C496.234 458.586 497.688 460.156 500.164 460.156ZM497.945 455.133C498.031 453.852 498.875 452.992 500.039 452.992C501.211 452.992 502.016 453.844 502.055 455.133H497.945ZM509.172 460.148C509.664 460.148 510.008 459.836 510.008 459.305V458.602H510.039C510.547 459.555 511.484 460.141 512.68 460.141C514.773 460.141 516.117 458.5 516.117 455.891C516.117 453.289 514.766 451.648 512.695 451.648C511.531 451.648 510.586 452.227 510.094 453.18H510.055V449.469C510.055 448.914 509.703 448.578 509.211 448.578C508.719 448.578 508.367 448.914 508.367 449.469V459.305C508.367 459.836 508.688 460.148 509.172 460.148ZM512.227 458.711C510.953 458.711 510.047 457.602 510.047 455.891C510.047 454.195 510.953 453.07 512.227 453.07C513.555 453.07 514.383 454.164 514.383 455.891C514.383 457.633 513.562 458.711 512.227 458.711ZM518.328 450.539C518.875 450.539 519.312 450.102 519.312 449.57C519.312 449.031 518.875 448.609 518.328 448.609C517.789 448.609 517.352 449.031 517.352 449.57C517.352 450.102 517.789 450.539 518.328 450.539ZM518.328 460.148C518.836 460.148 519.172 459.797 519.172 459.258V452.531C519.172 451.984 518.836 451.633 518.328 451.633C517.82 451.633 517.484 451.984 517.484 452.531V459.258C517.484 459.797 517.82 460.148 518.328 460.148ZM521.391 458.031C521.391 459.391 522.094 460.07 523.477 460.07H523.562C524.391 460.07 524.781 459.812 524.781 459.305C524.781 458.906 524.539 458.711 524.055 458.664L523.922 458.656C523.312 458.609 523.086 458.312 523.086 457.656V453.117H524.047C524.484 453.117 524.75 452.867 524.75 452.453C524.75 452.039 524.484 451.781 524.047 451.781H523.086V450.562C523.086 450.023 522.75 449.664 522.242 449.664C521.727 449.664 521.391 450.023 521.391 450.562V451.781H520.797C520.359 451.781 520.094 452.031 520.094 452.453C520.094 452.867 520.359 453.117 520.797 453.117H521.391V458.031ZM531.695 460.141C532.766 460.141 533.812 459.562 534.289 458.648H534.328V459.344C534.344 459.844 534.664 460.148 535.133 460.148C535.609 460.148 535.945 459.828 535.945 459.297V454.336C535.945 452.688 534.672 451.633 532.68 451.633C531.203 451.633 529.961 452.227 529.531 453.156C529.43 453.344 529.383 453.531 529.383 453.703C529.383 454.125 529.688 454.406 530.109 454.406C530.406 454.406 530.625 454.297 530.797 454.047C531.266 453.297 531.805 453.008 532.617 453.008C533.648 453.008 534.266 453.555 534.266 454.469V455.102L532.008 455.234C530.062 455.344 528.953 456.227 528.953 457.664C528.953 459.141 530.086 460.141 531.695 460.141ZM532.156 458.805C531.258 458.805 530.656 458.336 530.656 457.617C530.656 456.914 531.227 456.469 532.234 456.398L534.266 456.273V456.922C534.266 457.992 533.336 458.805 532.156 458.805ZM538.453 460.148C538.945 460.148 539.289 459.836 539.289 459.305V458.602H539.32C539.828 459.555 540.766 460.141 541.961 460.141C544.055 460.141 545.398 458.5 545.398 455.891C545.398 453.289 544.047 451.648 541.977 451.648C540.812 451.648 539.867 452.227 539.375 453.18H539.336V449.469C539.336 448.914 538.984 448.578 538.492 448.578C538 448.578 537.648 448.914 537.648 449.469V459.305C537.648 459.836 537.969 460.148 538.453 460.148ZM541.508 458.711C540.234 458.711 539.328 457.602 539.328 455.891C539.328 454.195 540.234 453.07 541.508 453.07C542.836 453.07 543.664 454.164 543.664 455.891C543.664 457.633 542.844 458.711 541.508 458.711ZM550.242 460.156C552.594 460.156 554.141 458.539 554.141 455.891C554.141 453.25 552.586 451.633 550.242 451.633C547.898 451.633 546.344 453.25 546.344 455.891C546.344 458.539 547.891 460.156 550.242 460.156ZM550.242 458.766C548.922 458.766 548.062 457.719 548.062 455.891C548.062 454.07 548.922 453.023 550.242 453.023C551.562 453.023 552.422 454.07 552.422 455.891C552.422 457.719 551.57 458.766 550.242 458.766ZM558.289 460.148C559.547 460.148 560.383 459.594 560.836 458.609H560.875V459.297C560.875 459.812 561.203 460.148 561.688 460.148C562.172 460.148 562.492 459.812 562.492 459.289V452.531C562.492 451.969 562.148 451.633 561.648 451.633C561.156 451.633 560.805 451.969 560.805 452.531V456.57C560.805 457.852 560.07 458.695 558.852 458.695C557.688 458.695 557.094 458.023 557.094 456.773V452.531C557.094 451.969 556.742 451.633 556.25 451.633C555.75 451.633 555.406 451.969 555.406 452.531V457.102C555.406 458.984 556.5 460.148 558.289 460.148ZM564.656 458.031C564.656 459.391 565.359 460.07 566.742 460.07H566.828C567.656 460.07 568.047 459.812 568.047 459.305C568.047 458.906 567.805 458.711 567.32 458.664L567.188 458.656C566.578 458.609 566.352 458.312 566.352 457.656V453.117H567.312C567.75 453.117 568.016 452.867 568.016 452.453C568.016 452.039 567.75 451.781 567.312 451.781H566.352V450.562C566.352 450.023 566.016 449.664 565.508 449.664C564.992 449.664 564.656 450.023 564.656 450.562V451.781H564.062C563.625 451.781 563.359 452.031 563.359 452.453C563.359 452.867 563.625 453.117 564.062 453.117H564.656V458.031ZM573.57 463.062C575.094 463.062 575.867 462.391 576.594 460.414L579.445 452.875C579.5 452.711 579.531 452.539 579.531 452.406C579.531 451.953 579.195 451.633 578.711 451.633C578.281 451.633 578.047 451.82 577.906 452.281L575.805 458.469H575.781L573.688 452.281C573.539 451.812 573.297 451.633 572.875 451.633C572.383 451.633 572.016 451.953 572.016 452.414C572.016 452.547 572.047 452.719 572.109 452.891L574.859 460.086L574.703 460.562C574.398 461.406 573.922 461.664 573.453 461.664C573.258 461.664 573.195 461.656 573.016 461.656C572.609 461.656 572.359 461.891 572.359 462.25C572.359 462.773 572.789 463.062 573.57 463.062ZM583.961 460.156C586.312 460.156 587.859 458.539 587.859 455.891C587.859 453.25 586.305 451.633 583.961 451.633C581.617 451.633 580.062 453.25 580.062 455.891C580.062 458.539 581.609 460.156 583.961 460.156ZM583.961 458.766C582.641 458.766 581.781 457.719 581.781 455.891C581.781 454.07 582.641 453.023 583.961 453.023C585.281 453.023 586.141 454.07 586.141 455.891C586.141 457.719 585.289 458.766 583.961 458.766ZM592.008 460.148C593.266 460.148 594.102 459.594 594.555 458.609H594.594V459.297C594.594 459.812 594.922 460.148 595.406 460.148C595.891 460.148 596.211 459.812 596.211 459.289V452.531C596.211 451.969 595.867 451.633 595.367 451.633C594.875 451.633 594.523 451.969 594.523 452.531V456.57C594.523 457.852 593.789 458.695 592.57 458.695C591.406 458.695 590.812 458.023 590.812 456.773V452.531C590.812 451.969 590.461 451.633 589.969 451.633C589.469 451.633 589.125 451.969 589.125 452.531V457.102C589.125 458.984 590.219 460.148 592.008 460.148ZM598.727 460.148C599.227 460.148 599.57 459.805 599.57 459.258V455.062C599.57 454.039 600.039 453.266 601.195 453.258C601.547 453.258 601.797 453.188 601.969 453.039C602.133 452.906 602.219 452.711 602.219 452.445C602.219 452.18 602.148 451.977 601.992 451.852C601.852 451.719 601.625 451.648 601.328 451.648C600.508 451.648 599.75 452.266 599.523 453.188H599.484V452.484C599.484 451.969 599.156 451.633 598.688 451.633C598.211 451.633 597.883 451.969 597.883 452.484V459.258C597.883 459.805 598.219 460.148 598.727 460.148ZM606.164 460.156C608.195 460.156 609.562 459.141 609.562 457.617C609.562 456.398 608.898 455.781 607.172 455.383L605.898 455.086C605.031 454.883 604.633 454.523 604.633 454.008C604.633 453.367 605.258 452.922 606.164 452.922C606.992 452.922 607.492 453.25 607.859 453.875C608.023 454.141 608.266 454.234 608.539 454.234C608.961 454.234 609.195 453.984 609.195 453.609C609.195 453.531 609.18 453.453 609.164 453.359C608.93 452.391 607.711 451.633 606.227 451.633C604.273 451.633 602.984 452.617 602.984 454.102C602.984 455.273 603.766 456.055 605.359 456.43L606.656 456.734C607.539 456.945 607.859 457.234 607.859 457.773C607.859 458.453 607.211 458.867 606.25 458.867C605.273 458.867 604.781 458.57 604.359 457.906C604.148 457.594 603.906 457.461 603.625 457.461C603.203 457.461 602.898 457.711 602.898 458.133C602.898 458.242 602.914 458.359 602.969 458.484C603.359 459.492 604.547 460.156 606.164 460.156ZM614.43 460.156C615.961 460.156 617.156 459.539 617.695 458.461C617.766 458.297 617.812 458.141 617.812 458.008C617.812 457.586 617.516 457.32 617.109 457.32C616.867 457.32 616.695 457.406 616.516 457.617C615.891 458.469 615.312 458.789 614.391 458.789C613.047 458.789 612.203 457.852 612.203 456.352V456.312H617.172C617.695 456.312 618.008 456 618.008 455.453C618.008 453.211 616.5 451.633 614.312 451.633C611.984 451.633 610.5 453.32 610.5 455.93C610.5 458.586 611.953 460.156 614.43 460.156ZM612.211 455.133C612.297 453.852 613.141 452.992 614.305 452.992C615.477 452.992 616.281 453.844 616.32 455.133H612.211ZM620.227 460.148C620.719 460.148 621.07 459.812 621.07 459.258V449.469C621.07 448.914 620.719 448.578 620.227 448.578C619.734 448.578 619.383 448.914 619.383 449.469V459.258C619.383 459.812 619.734 460.148 620.227 460.148ZM624.148 460.148C624.656 460.148 624.992 459.828 624.992 459.266V453.117H626.078C626.477 453.117 626.75 452.883 626.75 452.461C626.75 452.055 626.477 451.797 626.078 451.797H624.969V451.055C624.969 450.305 625.266 449.969 625.977 449.961C626.148 449.961 626.289 449.938 626.406 449.906C626.68 449.828 626.812 449.664 626.812 449.391C626.812 448.938 626.383 448.648 625.484 448.648C624.07 448.656 623.297 449.398 623.297 450.992V451.797H622.711C622.312 451.797 622.039 452.055 622.039 452.461C622.039 452.883 622.312 453.117 622.711 453.117H623.297V459.266C623.297 459.828 623.633 460.148 624.148 460.148ZM629.398 456.383C629.883 456.383 630.148 456.078 630.164 455.586L630.258 449.523C630.258 449.492 630.258 449.461 630.258 449.438C630.258 448.914 629.906 448.578 629.406 448.578C628.898 448.578 628.547 448.914 628.547 449.438C628.547 449.461 628.547 449.492 628.547 449.523L628.641 455.586C628.656 456.078 628.922 456.383 629.398 456.383ZM629.398 460.117C629.984 460.117 630.43 459.68 630.43 459.109C630.43 458.539 629.984 458.102 629.398 458.102C628.828 458.102 628.375 458.539 628.375 459.109C628.375 459.68 628.828 460.117 629.398 460.117Z" fill="#3A3A3A"/>
<path d="M406.153 616.141C406.76 616.141 407.138 615.754 407.138 615.121V604.196C407.138 603.563 406.76 603.177 406.153 603.177C405.538 603.177 405.169 603.563 405.169 604.196V615.121C405.169 615.754 405.538 616.141 406.153 616.141ZM410.196 616.167C410.75 616.167 411.146 615.789 411.146 615.165V610.612C411.146 609.18 412.007 608.23 413.343 608.23C414.661 608.23 415.312 608.995 415.312 610.384V615.165C415.312 615.789 415.707 616.167 416.261 616.167C416.823 616.167 417.219 615.789 417.219 615.165V610.015C417.219 607.896 416.05 606.596 414.011 606.596C412.587 606.596 411.62 607.229 411.119 608.283H411.075V607.554C411.075 606.965 410.697 606.587 410.152 606.587C409.599 606.587 409.247 606.965 409.247 607.545V615.165C409.247 615.789 409.634 616.167 410.196 616.167ZM419.609 613.785C419.609 615.314 420.4 616.079 421.956 616.079H422.053C422.984 616.079 423.424 615.789 423.424 615.218C423.424 614.77 423.151 614.55 422.606 614.497L422.457 614.488C421.771 614.436 421.517 614.102 421.517 613.363V608.257H422.598C423.09 608.257 423.389 607.976 423.389 607.51C423.389 607.044 423.09 606.754 422.598 606.754H421.517V605.383C421.517 604.776 421.139 604.372 420.567 604.372C419.987 604.372 419.609 604.776 419.609 605.383V606.754H418.941C418.449 606.754 418.15 607.035 418.15 607.51C418.15 607.976 418.449 608.257 418.941 608.257H419.609V613.785ZM428.618 616.176C430.341 616.176 431.686 615.481 432.292 614.269C432.371 614.084 432.424 613.908 432.424 613.759C432.424 613.284 432.09 612.985 431.633 612.985C431.36 612.985 431.167 613.082 430.965 613.319C430.262 614.277 429.611 614.638 428.574 614.638C427.062 614.638 426.113 613.583 426.113 611.896V611.852H431.703C432.292 611.852 432.644 611.5 432.644 610.885C432.644 608.362 430.947 606.587 428.486 606.587C425.867 606.587 424.197 608.485 424.197 611.421C424.197 614.409 425.832 616.176 428.618 616.176ZM426.122 610.524C426.219 609.083 427.168 608.116 428.478 608.116C429.796 608.116 430.701 609.074 430.745 610.524H426.122ZM435.069 616.167C435.632 616.167 436.019 615.78 436.019 615.165V610.445C436.019 609.294 436.546 608.424 437.847 608.415C438.242 608.415 438.523 608.336 438.717 608.169C438.901 608.02 438.998 607.8 438.998 607.501C438.998 607.202 438.919 606.974 438.743 606.833C438.585 606.684 438.33 606.604 437.996 606.604C437.073 606.604 436.221 607.299 435.966 608.336H435.922V607.545C435.922 606.965 435.553 606.587 435.025 606.587C434.489 606.587 434.12 606.965 434.12 607.545V615.165C434.12 615.78 434.498 616.167 435.069 616.167ZM442.54 616.158C443.744 616.158 444.922 615.508 445.458 614.479H445.502V615.262C445.52 615.824 445.88 616.167 446.407 616.167C446.943 616.167 447.321 615.807 447.321 615.209V609.628C447.321 607.773 445.889 606.587 443.647 606.587C441.986 606.587 440.589 607.255 440.105 608.301C439.991 608.512 439.938 608.723 439.938 608.916C439.938 609.391 440.281 609.707 440.756 609.707C441.09 609.707 441.336 609.584 441.529 609.303C442.057 608.459 442.663 608.134 443.577 608.134C444.737 608.134 445.432 608.749 445.432 609.777V610.489L442.892 610.639C440.703 610.762 439.455 611.755 439.455 613.372C439.455 615.033 440.729 616.158 442.54 616.158ZM443.059 614.655C442.048 614.655 441.371 614.128 441.371 613.319C441.371 612.528 442.013 612.027 443.146 611.948L445.432 611.808V612.537C445.432 613.741 444.386 614.655 443.059 614.655ZM453.122 616.176C454.836 616.176 456.339 615.271 456.822 613.996C456.893 613.812 456.928 613.653 456.928 613.504C456.928 613.029 456.585 612.713 456.119 612.713C455.706 612.713 455.504 612.871 455.24 613.328C454.792 614.128 454.168 614.585 453.14 614.585C451.672 614.585 450.688 613.39 450.688 611.377C450.688 609.408 451.654 608.169 453.14 608.169C454.115 608.169 454.766 608.591 455.24 609.47C455.469 609.892 455.697 610.05 456.102 610.05C456.567 610.05 456.91 609.751 456.91 609.268C456.91 609.136 456.875 608.978 456.822 608.828C456.418 607.536 454.889 606.587 453.104 606.587C450.468 606.587 448.754 608.468 448.754 611.395C448.754 614.339 450.477 616.176 453.122 616.176ZM459.02 613.785C459.02 615.314 459.811 616.079 461.366 616.079H461.463C462.395 616.079 462.834 615.789 462.834 615.218C462.834 614.77 462.562 614.55 462.017 614.497L461.867 614.488C461.182 614.436 460.927 614.102 460.927 613.363V608.257H462.008C462.5 608.257 462.799 607.976 462.799 607.51C462.799 607.044 462.5 606.754 462.008 606.754H460.927V605.383C460.927 604.776 460.549 604.372 459.978 604.372C459.397 604.372 459.02 604.776 459.02 605.383V606.754H458.352C457.859 606.754 457.561 607.035 457.561 607.51C457.561 607.976 457.859 608.257 458.352 608.257H459.02V613.785ZM465.26 605.356C465.875 605.356 466.367 604.864 466.367 604.267C466.367 603.66 465.875 603.186 465.26 603.186C464.653 603.186 464.161 603.66 464.161 604.267C464.161 604.864 464.653 605.356 465.26 605.356ZM465.26 616.167C465.831 616.167 466.209 615.771 466.209 615.165V607.598C466.209 606.982 465.831 606.587 465.26 606.587C464.688 606.587 464.311 606.982 464.311 607.598V615.165C464.311 615.771 464.688 616.167 465.26 616.167ZM472.124 616.176C474.77 616.176 476.51 614.356 476.51 611.377C476.51 608.406 474.761 606.587 472.124 606.587C469.487 606.587 467.738 608.406 467.738 611.377C467.738 614.356 469.479 616.176 472.124 616.176ZM472.124 614.611C470.639 614.611 469.672 613.434 469.672 611.377C469.672 609.329 470.639 608.151 472.124 608.151C473.609 608.151 474.576 609.329 474.576 611.377C474.576 613.434 473.618 614.611 472.124 614.611ZM478.927 616.167C479.48 616.167 479.876 615.789 479.876 615.165V610.612C479.876 609.18 480.737 608.23 482.073 608.23C483.392 608.23 484.042 608.995 484.042 610.384V615.165C484.042 615.789 484.438 616.167 484.991 616.167C485.554 616.167 485.949 615.789 485.949 615.165V610.015C485.949 607.896 484.78 606.596 482.741 606.596C481.317 606.596 480.351 607.229 479.85 608.283H479.806V607.554C479.806 606.965 479.428 606.587 478.883 606.587C478.329 606.587 477.978 606.965 477.978 607.545V615.165C477.978 615.789 478.364 616.167 478.927 616.167ZM492.655 616.141C493.262 616.141 493.64 615.754 493.64 615.121V611.667H496.364C498.852 611.667 500.601 609.962 500.601 607.483C500.601 605.014 498.887 603.317 496.426 603.317H492.655C492.04 603.317 491.671 603.704 491.671 604.337V615.121C491.671 615.754 492.04 616.141 492.655 616.141ZM493.64 610.015V604.979H495.907C497.612 604.979 498.588 605.893 498.588 607.492C498.588 609.092 497.612 610.015 495.898 610.015H493.64ZM503.044 616.167C503.606 616.167 503.993 615.78 503.993 615.165V610.445C503.993 609.294 504.521 608.424 505.821 608.415C506.217 608.415 506.498 608.336 506.691 608.169C506.876 608.02 506.973 607.8 506.973 607.501C506.973 607.202 506.894 606.974 506.718 606.833C506.56 606.684 506.305 606.604 505.971 606.604C505.048 606.604 504.195 607.299 503.94 608.336H503.896V607.545C503.896 606.965 503.527 606.587 503 606.587C502.464 606.587 502.095 606.965 502.095 607.545V615.165C502.095 615.78 502.473 616.167 503.044 616.167ZM511.604 616.176C513.327 616.176 514.672 615.481 515.278 614.269C515.357 614.084 515.41 613.908 515.41 613.759C515.41 613.284 515.076 612.985 514.619 612.985C514.347 612.985 514.153 613.082 513.951 613.319C513.248 614.277 512.598 614.638 511.561 614.638C510.049 614.638 509.1 613.583 509.1 611.896V611.852H514.689C515.278 611.852 515.63 611.5 515.63 610.885C515.63 608.362 513.934 606.587 511.473 606.587C508.854 606.587 507.184 608.485 507.184 611.421C507.184 614.409 508.818 616.176 511.604 616.176ZM509.108 610.524C509.205 609.083 510.154 608.116 511.464 608.116C512.782 608.116 513.688 609.074 513.731 610.524H509.108ZM518.618 616.167C519.189 616.167 519.567 615.807 519.567 615.174V608.257H520.789C521.237 608.257 521.545 607.993 521.545 607.519C521.545 607.062 521.237 606.771 520.789 606.771H519.541V605.937C519.541 605.093 519.875 604.715 520.675 604.706C520.868 604.706 521.026 604.68 521.158 604.645C521.466 604.557 521.615 604.372 521.615 604.064C521.615 603.555 521.132 603.229 520.121 603.229C518.53 603.238 517.66 604.073 517.66 605.866V606.771H517.001C516.553 606.771 516.245 607.062 516.245 607.519C516.245 607.993 516.553 608.257 517.001 608.257H517.66V615.174C517.66 615.807 518.038 616.167 518.618 616.167ZM526.528 616.176C528.251 616.176 529.596 615.481 530.202 614.269C530.281 614.084 530.334 613.908 530.334 613.759C530.334 613.284 530 612.985 529.543 612.985C529.271 612.985 529.077 613.082 528.875 613.319C528.172 614.277 527.521 614.638 526.484 614.638C524.973 614.638 524.023 613.583 524.023 611.896V611.852H529.613C530.202 611.852 530.554 611.5 530.554 610.885C530.554 608.362 528.857 606.587 526.396 606.587C523.777 606.587 522.107 608.485 522.107 611.421C522.107 614.409 523.742 616.176 526.528 616.176ZM524.032 610.524C524.129 609.083 525.078 608.116 526.388 608.116C527.706 608.116 528.611 609.074 528.655 610.524H524.032ZM532.979 616.167C533.542 616.167 533.929 615.78 533.929 615.165V610.445C533.929 609.294 534.456 608.424 535.757 608.415C536.152 608.415 536.434 608.336 536.627 608.169C536.812 608.02 536.908 607.8 536.908 607.501C536.908 607.202 536.829 606.974 536.653 606.833C536.495 606.684 536.24 606.604 535.906 606.604C534.983 606.604 534.131 607.299 533.876 608.336H533.832V607.545C533.832 606.965 533.463 606.587 532.936 606.587C532.399 606.587 532.03 606.965 532.03 607.545V615.165C532.03 615.78 532.408 616.167 532.979 616.167ZM541.54 616.176C543.263 616.176 544.607 615.481 545.214 614.269C545.293 614.084 545.346 613.908 545.346 613.759C545.346 613.284 545.012 612.985 544.555 612.985C544.282 612.985 544.089 613.082 543.887 613.319C543.184 614.277 542.533 614.638 541.496 614.638C539.984 614.638 539.035 613.583 539.035 611.896V611.852H544.625C545.214 611.852 545.565 611.5 545.565 610.885C545.565 608.362 543.869 606.587 541.408 606.587C538.789 606.587 537.119 608.485 537.119 611.421C537.119 614.409 538.754 616.176 541.54 616.176ZM539.044 610.524C539.141 609.083 540.09 608.116 541.399 608.116C542.718 608.116 543.623 609.074 543.667 610.524H539.044ZM547.991 616.167C548.545 616.167 548.94 615.789 548.94 615.165V610.612C548.94 609.18 549.802 608.23 551.138 608.23C552.456 608.23 553.106 608.995 553.106 610.384V615.165C553.106 615.789 553.502 616.167 554.056 616.167C554.618 616.167 555.014 615.789 555.014 615.165V610.015C555.014 607.896 553.845 606.596 551.806 606.596C550.382 606.596 549.415 607.229 548.914 608.283H548.87V607.554C548.87 606.965 548.492 606.587 547.947 606.587C547.394 606.587 547.042 606.965 547.042 607.545V615.165C547.042 615.789 547.429 616.167 547.991 616.167ZM560.806 616.176C562.52 616.176 564.022 615.271 564.506 613.996C564.576 613.812 564.611 613.653 564.611 613.504C564.611 613.029 564.269 612.713 563.803 612.713C563.39 612.713 563.188 612.871 562.924 613.328C562.476 614.128 561.852 614.585 560.823 614.585C559.355 614.585 558.371 613.39 558.371 611.377C558.371 609.408 559.338 608.169 560.823 608.169C561.799 608.169 562.449 608.591 562.924 609.47C563.152 609.892 563.381 610.05 563.785 610.05C564.251 610.05 564.594 609.751 564.594 609.268C564.594 609.136 564.559 608.978 564.506 608.828C564.102 607.536 562.572 606.587 560.788 606.587C558.151 606.587 556.438 608.468 556.438 611.395C556.438 614.339 558.16 616.176 560.806 616.176ZM570.157 616.176C571.88 616.176 573.225 615.481 573.831 614.269C573.91 614.084 573.963 613.908 573.963 613.759C573.963 613.284 573.629 612.985 573.172 612.985C572.899 612.985 572.706 613.082 572.504 613.319C571.801 614.277 571.15 614.638 570.113 614.638C568.602 614.638 567.652 613.583 567.652 611.896V611.852H573.242C573.831 611.852 574.183 611.5 574.183 610.885C574.183 608.362 572.486 606.587 570.025 606.587C567.406 606.587 565.736 608.485 565.736 611.421C565.736 614.409 567.371 616.176 570.157 616.176ZM567.661 610.524C567.758 609.083 568.707 608.116 570.017 608.116C571.335 608.116 572.24 609.074 572.284 610.524H567.661Z" fill="black"/>
<circle cx="618" cy="654" r="11" fill="white" stroke="#3A3A3A" stroke-width="2"/>
<path d="M652.627 661.211C656.081 661.211 658.094 659.128 658.094 655.779V655.463C658.094 654.821 657.716 654.435 657.109 654.435H653.594C653.084 654.435 652.732 654.751 652.732 655.234C652.732 655.709 653.084 656.025 653.594 656.025H656.151V656.245C656.125 658.17 654.701 659.488 652.645 659.488C650.228 659.488 648.725 657.616 648.725 654.584C648.725 651.604 650.184 649.829 652.609 649.829C654.077 649.829 655.202 650.523 655.844 651.868C656.09 652.36 656.38 652.571 656.828 652.571C657.364 652.571 657.707 652.22 657.707 651.701C657.707 651.481 657.681 651.262 657.566 650.98C656.863 649.284 654.965 648.106 652.601 648.106C648.988 648.106 646.712 650.603 646.712 654.602C646.712 658.671 648.997 661.211 652.627 661.211ZM660.739 661.167C661.302 661.167 661.688 660.78 661.688 660.165V655.445C661.688 654.294 662.216 653.424 663.517 653.415C663.912 653.415 664.193 653.336 664.387 653.169C664.571 653.02 664.668 652.8 664.668 652.501C664.668 652.202 664.589 651.974 664.413 651.833C664.255 651.684 664 651.604 663.666 651.604C662.743 651.604 661.891 652.299 661.636 653.336H661.592V652.545C661.592 651.965 661.223 651.587 660.695 651.587C660.159 651.587 659.79 651.965 659.79 652.545V660.165C659.79 660.78 660.168 661.167 660.739 661.167ZM669.265 661.176C671.91 661.176 673.65 659.356 673.65 656.377C673.65 653.406 671.901 651.587 669.265 651.587C666.628 651.587 664.879 653.406 664.879 656.377C664.879 659.356 666.619 661.176 669.265 661.176ZM669.265 659.611C667.779 659.611 666.812 658.434 666.812 656.377C666.812 654.329 667.779 653.151 669.265 653.151C670.75 653.151 671.717 654.329 671.717 656.377C671.717 658.434 670.759 659.611 669.265 659.611ZM678.317 661.167C679.732 661.167 680.673 660.543 681.183 659.436H681.227V660.209C681.227 660.789 681.596 661.167 682.141 661.167C682.686 661.167 683.046 660.789 683.046 660.2V652.598C683.046 651.965 682.659 651.587 682.097 651.587C681.543 651.587 681.147 651.965 681.147 652.598V657.142C681.147 658.583 680.321 659.532 678.95 659.532C677.641 659.532 676.973 658.776 676.973 657.37V652.598C676.973 651.965 676.577 651.587 676.023 651.587C675.461 651.587 675.074 651.965 675.074 652.598V657.739C675.074 659.857 676.305 661.167 678.317 661.167ZM685.876 664.278C686.43 664.278 686.825 663.892 686.825 663.268V659.479H686.869C687.396 660.508 688.451 661.158 689.778 661.158C692.099 661.158 693.637 659.304 693.637 656.377C693.637 653.45 692.09 651.604 689.743 651.604C688.407 651.604 687.344 652.281 686.799 653.345H686.764V652.562C686.764 651.956 686.377 651.587 685.841 651.587C685.305 651.587 684.927 651.956 684.927 652.562V663.268C684.927 663.892 685.313 664.278 685.876 664.278ZM689.242 659.55C687.783 659.55 686.816 658.302 686.816 656.377C686.816 654.47 687.792 653.204 689.242 653.204C690.745 653.204 691.686 654.443 691.686 656.377C691.686 658.319 690.745 659.55 689.242 659.55Z" fill="black"/>
<circle cx="771" cy="654" r="11" fill="white" stroke="#3A3A3A" stroke-width="2"/>
<path d="M801.153 661H805.258C807.956 661 809.582 659.646 809.582 657.414C809.582 655.727 808.422 654.505 806.699 654.312V654.241C807.965 654.03 808.958 652.826 808.958 651.481C808.958 649.565 807.481 648.317 805.231 648.317H801.153C800.538 648.317 800.169 648.704 800.169 649.337V659.98C800.169 660.613 800.538 661 801.153 661ZM802.138 653.714V649.926H804.757C806.181 649.926 806.989 650.576 806.989 651.754C806.989 653.011 806.049 653.714 804.344 653.714H802.138ZM802.138 659.392V655.217H804.739C806.603 655.217 807.569 655.92 807.569 657.291C807.569 658.662 806.629 659.392 804.854 659.392H802.138ZM815.022 661.176C817.668 661.176 819.408 659.356 819.408 656.377C819.408 653.406 817.659 651.587 815.022 651.587C812.386 651.587 810.637 653.406 810.637 656.377C810.637 659.356 812.377 661.176 815.022 661.176ZM815.022 659.611C813.537 659.611 812.57 658.434 812.57 656.377C812.57 654.329 813.537 653.151 815.022 653.151C816.508 653.151 817.475 654.329 817.475 656.377C817.475 658.434 816.517 659.611 815.022 659.611ZM821.43 658.785C821.43 660.314 822.221 661.079 823.776 661.079H823.873C824.805 661.079 825.244 660.789 825.244 660.218C825.244 659.77 824.972 659.55 824.427 659.497L824.277 659.488C823.592 659.436 823.337 659.102 823.337 658.363V653.257H824.418C824.91 653.257 825.209 652.976 825.209 652.51C825.209 652.044 824.91 651.754 824.418 651.754H823.337V650.383C823.337 649.776 822.959 649.372 822.388 649.372C821.808 649.372 821.43 649.776 821.43 650.383V651.754H820.762C820.27 651.754 819.971 652.035 819.971 652.51C819.971 652.976 820.27 653.257 820.762 653.257H821.43V658.785ZM827.679 661.167C828.232 661.167 828.628 660.789 828.628 660.165V655.656C828.628 654.197 829.489 653.23 830.896 653.23C832.231 653.23 832.917 654.048 832.917 655.41V660.165C832.917 660.789 833.312 661.167 833.866 661.167C834.429 661.167 834.824 660.789 834.824 660.165V655.041C834.824 652.949 833.611 651.596 831.581 651.596C830.175 651.596 829.164 652.22 828.654 653.301H828.61V649.135C828.61 648.537 828.259 648.15 827.67 648.15C827.09 648.15 826.729 648.537 826.729 649.135V660.165C826.729 660.789 827.125 661.167 827.679 661.167Z" fill="black"/>
<circle cx="416" cy="654" r="11" fill="white" stroke="#3A3A3A" stroke-width="2"/>
<path d="M450.653 661.211C454.301 661.211 456.595 658.697 456.595 654.663C456.595 650.629 454.301 648.106 450.653 648.106C446.997 648.106 444.712 650.629 444.712 654.663C444.712 658.697 446.997 661.211 450.653 661.211ZM450.653 659.479C448.245 659.479 446.725 657.616 446.725 654.663C446.725 651.701 448.245 649.838 450.653 649.838C453.062 649.838 454.573 651.701 454.573 654.663C454.573 657.616 453.062 659.479 450.653 659.479ZM459.196 661.167C459.75 661.167 460.146 660.789 460.146 660.165V655.612C460.146 654.18 461.007 653.23 462.343 653.23C463.661 653.23 464.312 653.995 464.312 655.384V660.165C464.312 660.789 464.707 661.167 465.261 661.167C465.823 661.167 466.219 660.789 466.219 660.165V655.015C466.219 652.896 465.05 651.596 463.011 651.596C461.587 651.596 460.62 652.229 460.119 653.283H460.075V652.554C460.075 651.965 459.697 651.587 459.152 651.587C458.599 651.587 458.247 651.965 458.247 652.545V660.165C458.247 660.789 458.634 661.167 459.196 661.167ZM472.063 661.176C473.786 661.176 475.131 660.481 475.737 659.269C475.816 659.084 475.869 658.908 475.869 658.759C475.869 658.284 475.535 657.985 475.078 657.985C474.806 657.985 474.612 658.082 474.41 658.319C473.707 659.277 473.057 659.638 472.02 659.638C470.508 659.638 469.559 658.583 469.559 656.896V656.852H475.148C475.737 656.852 476.089 656.5 476.089 655.885C476.089 653.362 474.393 651.587 471.932 651.587C469.312 651.587 467.643 653.485 467.643 656.421C467.643 659.409 469.277 661.176 472.063 661.176ZM469.567 655.524C469.664 654.083 470.613 653.116 471.923 653.116C473.241 653.116 474.146 654.074 474.19 655.524H469.567ZM478.418 656.711H482.628C483.155 656.711 483.551 656.386 483.551 655.85C483.551 655.322 483.155 654.997 482.628 654.997H478.418C477.891 654.997 477.504 655.322 477.504 655.85C477.504 656.386 477.891 656.711 478.418 656.711ZM489.343 661.176C491.988 661.176 493.729 659.356 493.729 656.377C493.729 653.406 491.979 651.587 489.343 651.587C486.706 651.587 484.957 653.406 484.957 656.377C484.957 659.356 486.697 661.176 489.343 661.176ZM489.343 659.611C487.857 659.611 486.891 658.434 486.891 656.377C486.891 654.329 487.857 653.151 489.343 653.151C490.828 653.151 491.795 654.329 491.795 656.377C491.795 658.434 490.837 659.611 489.343 659.611ZM496.146 661.167C496.699 661.167 497.095 660.789 497.095 660.165V655.612C497.095 654.18 497.956 653.23 499.292 653.23C500.61 653.23 501.261 653.995 501.261 655.384V660.165C501.261 660.789 501.656 661.167 502.21 661.167C502.772 661.167 503.168 660.789 503.168 660.165V655.015C503.168 652.896 501.999 651.596 499.96 651.596C498.536 651.596 497.569 652.229 497.068 653.283H497.024V652.554C497.024 651.965 496.646 651.587 496.102 651.587C495.548 651.587 495.196 651.965 495.196 652.545V660.165C495.196 660.789 495.583 661.167 496.146 661.167ZM505.857 656.711H510.067C510.595 656.711 510.99 656.386 510.99 655.85C510.99 655.322 510.595 654.997 510.067 654.997H505.857C505.33 654.997 504.943 655.322 504.943 655.85C504.943 656.386 505.33 656.711 505.857 656.711ZM516.782 661.176C519.428 661.176 521.168 659.356 521.168 656.377C521.168 653.406 519.419 651.587 516.782 651.587C514.146 651.587 512.396 653.406 512.396 656.377C512.396 659.356 514.137 661.176 516.782 661.176ZM516.782 659.611C515.297 659.611 514.33 658.434 514.33 656.377C514.33 654.329 515.297 653.151 516.782 653.151C518.268 653.151 519.234 654.329 519.234 656.377C519.234 658.434 518.276 659.611 516.782 659.611ZM523.585 661.167C524.139 661.167 524.534 660.789 524.534 660.165V655.612C524.534 654.18 525.396 653.23 526.731 653.23C528.05 653.23 528.7 653.995 528.7 655.384V660.165C528.7 660.789 529.096 661.167 529.649 661.167C530.212 661.167 530.607 660.789 530.607 660.165V655.015C530.607 652.896 529.438 651.596 527.399 651.596C525.976 651.596 525.009 652.229 524.508 653.283H524.464V652.554C524.464 651.965 524.086 651.587 523.541 651.587C522.987 651.587 522.636 651.965 522.636 652.545V660.165C522.636 660.789 523.022 661.167 523.585 661.167ZM536.452 661.176C538.175 661.176 539.52 660.481 540.126 659.269C540.205 659.084 540.258 658.908 540.258 658.759C540.258 658.284 539.924 657.985 539.467 657.985C539.194 657.985 539.001 658.082 538.799 658.319C538.096 659.277 537.445 659.638 536.408 659.638C534.896 659.638 533.947 658.583 533.947 656.896V656.852H539.537C540.126 656.852 540.478 656.5 540.478 655.885C540.478 653.362 538.781 651.587 536.32 651.587C533.701 651.587 532.031 653.485 532.031 656.421C532.031 659.409 533.666 661.176 536.452 661.176ZM533.956 655.524C534.053 654.083 535.002 653.116 536.312 653.116C537.63 653.116 538.535 654.074 538.579 655.524H533.956Z" fill="black"/>
<circle cx="416" cy="654" r="8" fill="#3A3A3A"/>
<path d="M924.246 850.137C924.783 850.137 925.125 849.785 925.125 849.229V836.68C925.125 836.123 924.783 835.771 924.246 835.771C923.709 835.771 923.367 836.123 923.367 836.68V849.229C923.367 849.785 923.709 850.137 924.246 850.137ZM928.553 841.016C928.963 841.016 929.188 840.82 929.295 840.4L930.193 837.041C930.252 836.826 930.271 836.68 930.271 836.504C930.271 836.025 929.92 835.732 929.422 835.732C928.963 835.732 928.689 835.938 928.582 836.475L927.889 840.098C927.879 840.156 927.859 840.254 927.859 840.4C927.859 840.791 928.162 841.016 928.553 841.016ZM933.494 850.176C933.992 850.176 934.344 849.805 934.344 849.268V836.641C934.344 836.104 933.992 835.732 933.494 835.732C932.996 835.732 932.645 836.104 932.645 836.641V849.268C932.645 849.805 932.996 850.176 933.494 850.176ZM937.576 850.176C938.074 850.176 938.426 849.805 938.426 849.268V836.641C938.426 836.104 938.074 835.732 937.576 835.732C937.078 835.732 936.727 836.104 936.727 836.641V849.268C936.727 849.805 937.078 850.176 937.576 850.176ZM948.67 850.176C950.262 850.176 951.316 849.395 951.873 848.184H951.902V849.346C951.902 849.844 952.293 850.176 952.771 850.176C953.26 850.176 953.602 849.834 953.602 849.346V836.641C953.602 836.104 953.25 835.732 952.752 835.732C952.254 835.732 951.902 836.104 951.902 836.641V841.494H951.863C951.258 840.381 950.086 839.668 948.631 839.668C946.072 839.668 944.324 841.738 944.324 844.922C944.324 848.105 946.082 850.176 948.67 850.176ZM948.992 848.682C947.195 848.682 946.062 847.227 946.062 844.922C946.062 842.627 947.195 841.162 948.992 841.162C950.74 841.162 951.912 842.656 951.912 844.922C951.912 847.197 950.74 848.682 948.992 848.682ZM960.105 850.176C962.908 850.176 964.803 848.154 964.803 844.922C964.803 841.68 962.908 839.668 960.105 839.668C957.293 839.668 955.398 841.68 955.398 844.922C955.398 848.154 957.293 850.176 960.105 850.176ZM960.105 848.682C958.309 848.682 957.127 847.314 957.127 844.922C957.127 842.529 958.309 841.162 960.105 841.162C961.902 841.162 963.074 842.529 963.074 844.922C963.074 847.314 961.902 848.682 960.105 848.682ZM971.561 838.135C972.146 838.135 972.625 837.656 972.625 837.08C972.625 836.494 972.146 836.025 971.561 836.025C970.984 836.025 970.506 836.494 970.506 837.08C970.506 837.656 970.984 838.135 971.561 838.135ZM971.561 850.176C972.059 850.176 972.41 849.805 972.41 849.268V840.576C972.41 840.039 972.059 839.668 971.561 839.668C971.062 839.668 970.711 840.039 970.711 840.576V849.268C970.711 849.805 971.062 850.176 971.561 850.176ZM975.252 847.656C975.252 849.277 976.072 850.078 977.713 850.078H977.82C978.768 850.078 979.061 849.805 979.061 849.287C979.061 848.887 978.807 848.662 978.25 848.623L978.104 848.613C977.254 848.555 976.951 848.145 976.951 847.285V841.24H978.26C978.748 841.24 979.021 840.986 979.021 840.537C979.021 840.098 978.748 839.844 978.26 839.844H976.951V838.105C976.951 837.568 976.6 837.197 976.102 837.197C975.604 837.197 975.252 837.568 975.252 838.105V839.844H974.402C973.914 839.844 973.641 840.098 973.641 840.537C973.641 840.986 973.914 841.24 974.402 841.24H975.252V847.656ZM985.779 850.176C986.277 850.176 986.629 849.805 986.629 849.268V836.641C986.629 836.104 986.277 835.732 985.779 835.732C985.281 835.732 984.93 836.104 984.93 836.641V849.268C984.93 849.805 985.281 850.176 985.779 850.176ZM991.883 850.176C993.25 850.176 994.549 849.414 995.154 848.252H995.193V849.316C995.193 849.824 995.525 850.176 996.004 850.176C996.473 850.176 996.805 849.824 996.805 849.316V842.979C996.805 840.957 995.301 839.668 992.918 839.668C991.268 839.668 989.783 840.4 989.207 841.514C989.07 841.758 989.002 842.002 989.002 842.217C989.002 842.676 989.314 842.979 989.754 842.979C990.076 842.979 990.301 842.852 990.457 842.568C991.023 841.562 991.775 841.162 992.879 841.162C994.285 841.162 995.105 841.904 995.105 843.145V843.994L992.186 844.16C989.842 844.297 988.504 845.391 988.504 847.129C988.504 848.955 989.861 850.176 991.883 850.176ZM992.264 848.73C991.043 848.73 990.232 848.096 990.232 847.129C990.232 846.172 991.014 845.566 992.381 845.479L995.105 845.312V846.143C995.105 847.607 993.865 848.73 992.264 848.73ZM999.51 847.656C999.51 849.277 1000.33 850.078 1001.97 850.078H1002.08C1003.03 850.078 1003.32 849.805 1003.32 849.287C1003.32 848.887 1003.06 848.662 1002.51 848.623L1002.36 848.613C1001.51 848.555 1001.21 848.145 1001.21 847.285V841.24H1002.52C1003.01 841.24 1003.28 840.986 1003.28 840.537C1003.28 840.098 1003.01 839.844 1002.52 839.844H1001.21V838.105C1001.21 837.568 1000.86 837.197 1000.36 837.197C999.861 837.197 999.51 837.568 999.51 838.105V839.844H998.66C998.172 839.844 997.898 840.098 997.898 840.537C997.898 840.986 998.172 841.24 998.66 841.24H999.51V847.656ZM1008.96 850.176C1010.82 850.176 1012.24 849.395 1012.9 848.018C1012.98 847.832 1013.03 847.656 1013.03 847.52C1013.03 847.07 1012.72 846.777 1012.27 846.777C1012.01 846.777 1011.81 846.875 1011.64 847.119C1010.85 848.271 1010.11 848.701 1008.89 848.701C1007.08 848.701 1005.96 847.432 1005.96 845.381H1012.3C1012.89 845.381 1013.24 845.01 1013.24 844.395C1013.24 841.611 1011.41 839.668 1008.82 839.668C1006.01 839.668 1004.21 841.758 1004.21 844.961C1004.21 848.242 1005.96 850.176 1008.96 850.176ZM1005.96 844.053C1006.07 842.305 1007.21 841.143 1008.79 841.143C1010.36 841.143 1011.44 842.295 1011.48 844.053H1005.96ZM1015.81 850.176C1016.31 850.176 1016.66 849.805 1016.66 849.268V843.691C1016.66 842.393 1017.31 841.289 1018.85 841.289C1019.22 841.289 1019.48 841.221 1019.66 841.074C1019.83 840.938 1019.92 840.742 1019.92 840.479C1019.92 840.244 1019.85 840.049 1019.71 839.912C1019.54 839.756 1019.28 839.668 1018.9 839.668C1017.89 839.668 1016.89 840.449 1016.6 841.504H1016.56V840.527C1016.56 840.02 1016.23 839.668 1015.76 839.668C1015.29 839.668 1014.96 840.02 1014.96 840.527V849.268C1014.96 849.805 1015.31 850.176 1015.81 850.176ZM1022.69 845.459C1023.17 845.459 1023.46 845.146 1023.46 844.648L1023.56 836.611C1023.56 836.084 1023.18 835.732 1022.69 835.732C1022.21 835.732 1021.82 836.084 1021.82 836.611L1021.92 844.648C1021.93 845.146 1022.21 845.459 1022.69 845.459ZM1022.69 850.098C1023.33 850.098 1023.81 849.609 1023.81 848.984C1023.81 848.35 1023.33 847.871 1022.69 847.871C1022.07 847.871 1021.58 848.35 1021.58 848.984C1021.58 849.609 1022.07 850.098 1022.69 850.098Z" fill="#3A3A3A"/>
<line x1="922" y1="857" x2="1026" y2="857" stroke="#3A3A3A" stroke-width="2"/>
<path d="M37.572 52L37.554 42.82L33 50.47H32.172L27.618 42.874V52H25.89V39.4H27.366L32.622 48.256L37.806 39.4H39.282L39.3 52H37.572ZM51.4514 47.284C51.4514 47.416 51.4394 47.59 51.4154 47.806H43.6754C43.7834 48.646 44.1494 49.324 44.7734 49.84C45.4094 50.344 46.1954 50.596 47.1314 50.596C48.2714 50.596 49.1894 50.212 49.8854 49.444L50.8394 50.56C50.4074 51.064 49.8674 51.448 49.2194 51.712C48.5834 51.976 47.8694 52.108 47.0774 52.108C46.0694 52.108 45.1754 51.904 44.3954 51.496C43.6154 51.076 43.0094 50.494 42.5774 49.75C42.1574 49.006 41.9474 48.166 41.9474 47.23C41.9474 46.306 42.1514 45.472 42.5594 44.728C42.9794 43.984 43.5494 43.408 44.2694 43C45.0014 42.58 45.8234 42.37 46.7354 42.37C47.6474 42.37 48.4574 42.58 49.1654 43C49.8854 43.408 50.4434 43.984 50.8394 44.728C51.2474 45.472 51.4514 46.324 51.4514 47.284ZM46.7354 43.828C45.9074 43.828 45.2114 44.08 44.6474 44.584C44.0954 45.088 43.7714 45.748 43.6754 46.564H49.7954C49.6994 45.76 49.3694 45.106 48.8054 44.602C48.2534 44.086 47.5634 43.828 46.7354 43.828ZM58.9449 42.37C60.1569 42.37 61.1169 42.724 61.8249 43.432C62.5449 44.128 62.9049 45.154 62.9049 46.51V52H61.1769V46.708C61.1769 45.784 60.9549 45.088 60.5109 44.62C60.0669 44.152 59.4309 43.918 58.6029 43.918C57.6669 43.918 56.9289 44.194 56.3889 44.746C55.8489 45.286 55.5789 46.066 55.5789 47.086V52H53.8509V42.46H55.5069V43.9C55.8549 43.408 56.3229 43.03 56.9109 42.766C57.5109 42.502 58.1889 42.37 58.9449 42.37ZM71.4668 51.442C71.2148 51.658 70.9028 51.826 70.5308 51.946C70.1588 52.054 69.7748 52.108 69.3788 52.108C68.4188 52.108 67.6748 51.85 67.1468 51.334C66.6188 50.818 66.3548 50.08 66.3548 49.12V43.882H64.7348V42.46H66.3548V40.372H68.0828V42.46H70.8188V43.882H68.0828V49.048C68.0828 49.564 68.2088 49.96 68.4608 50.236C68.7248 50.512 69.0968 50.65 69.5768 50.65C70.1048 50.65 70.5548 50.5 70.9268 50.2L71.4668 51.442ZM77.03 42.37C78.35 42.37 79.358 42.694 80.054 43.342C80.762 43.99 81.116 44.956 81.116 46.24V52H79.478V50.74C79.19 51.184 78.776 51.526 78.236 51.766C77.708 51.994 77.078 52.108 76.346 52.108C75.278 52.108 74.42 51.85 73.772 51.334C73.136 50.818 72.818 50.14 72.818 49.3C72.818 48.46 73.124 47.788 73.736 47.284C74.348 46.768 75.32 46.51 76.652 46.51H79.388V46.168C79.388 45.424 79.172 44.854 78.74 44.458C78.308 44.062 77.672 43.864 76.832 43.864C76.268 43.864 75.716 43.96 75.176 44.152C74.636 44.332 74.18 44.578 73.808 44.89L73.088 43.594C73.58 43.198 74.168 42.898 74.852 42.694C75.536 42.478 76.262 42.37 77.03 42.37ZM76.634 50.776C77.294 50.776 77.864 50.632 78.344 50.344C78.824 50.044 79.172 49.624 79.388 49.084V47.752H76.724C75.26 47.752 74.528 48.244 74.528 49.228C74.528 49.708 74.714 50.086 75.086 50.362C75.458 50.638 75.974 50.776 76.634 50.776ZM84.3138 38.644H86.0418V52H84.3138V38.644ZM105.263 39.4V52H103.463V46.384H96.2271V52H94.4271V39.4H96.2271V44.818H103.463V39.4H105.263ZM117.405 47.284C117.405 47.416 117.393 47.59 117.369 47.806H109.629C109.737 48.646 110.103 49.324 110.727 49.84C111.363 50.344 112.149 50.596 113.085 50.596C114.225 50.596 115.143 50.212 115.839 49.444L116.793 50.56C116.361 51.064 115.821 51.448 115.173 51.712C114.537 51.976 113.823 52.108 113.031 52.108C112.023 52.108 111.129 51.904 110.349 51.496C109.569 51.076 108.963 50.494 108.531 49.75C108.111 49.006 107.901 48.166 107.901 47.23C107.901 46.306 108.105 45.472 108.513 44.728C108.933 43.984 109.503 43.408 110.223 43C110.955 42.58 111.777 42.37 112.689 42.37C113.601 42.37 114.411 42.58 115.119 43C115.839 43.408 116.397 43.984 116.793 44.728C117.201 45.472 117.405 46.324 117.405 47.284ZM112.689 43.828C111.861 43.828 111.165 44.08 110.601 44.584C110.049 45.088 109.725 45.748 109.629 46.564H115.749C115.653 45.76 115.323 45.106 114.759 44.602C114.207 44.086 113.517 43.828 112.689 43.828ZM123.014 42.37C124.334 42.37 125.342 42.694 126.038 43.342C126.746 43.99 127.1 44.956 127.1 46.24V52H125.462V50.74C125.174 51.184 124.76 51.526 124.22 51.766C123.692 51.994 123.062 52.108 122.33 52.108C121.262 52.108 120.404 51.85 119.756 51.334C119.12 50.818 118.802 50.14 118.802 49.3C118.802 48.46 119.108 47.788 119.72 47.284C120.332 46.768 121.304 46.51 122.636 46.51H125.372V46.168C125.372 45.424 125.156 44.854 124.724 44.458C124.292 44.062 123.656 43.864 122.816 43.864C122.252 43.864 121.7 43.96 121.16 44.152C120.62 44.332 120.164 44.578 119.792 44.89L119.072 43.594C119.564 43.198 120.152 42.898 120.836 42.694C121.52 42.478 122.246 42.37 123.014 42.37ZM122.618 50.776C123.278 50.776 123.848 50.632 124.328 50.344C124.808 50.044 125.156 49.624 125.372 49.084V47.752H122.708C121.244 47.752 120.512 48.244 120.512 49.228C120.512 49.708 120.698 50.086 121.07 50.362C121.442 50.638 121.958 50.776 122.618 50.776ZM130.298 38.644H132.026V52H130.298V38.644ZM140.918 51.442C140.666 51.658 140.354 51.826 139.982 51.946C139.61 52.054 139.226 52.108 138.83 52.108C137.87 52.108 137.126 51.85 136.598 51.334C136.07 50.818 135.806 50.08 135.806 49.12V43.882H134.186V42.46H135.806V40.372H137.534V42.46H140.27V43.882H137.534V49.048C137.534 49.564 137.66 49.96 137.912 50.236C138.176 50.512 138.548 50.65 139.028 50.65C139.556 50.65 140.006 50.5 140.378 50.2L140.918 51.442ZM148.101 42.37C149.313 42.37 150.273 42.724 150.981 43.432C151.701 44.128 152.061 45.154 152.061 46.51V52H150.333V46.708C150.333 45.784 150.111 45.088 149.667 44.62C149.223 44.152 148.587 43.918 147.759 43.918C146.823 43.918 146.085 44.194 145.545 44.746C145.005 45.286 144.735 46.066 144.735 47.086V52H143.007V38.644H144.735V43.81C145.095 43.354 145.563 43 146.139 42.748C146.727 42.496 147.381 42.37 148.101 42.37ZM168.769 52L166.051 48.13C165.715 48.154 165.451 48.166 165.259 48.166H162.145V52H160.345V39.4H165.259C166.891 39.4 168.175 39.79 169.111 40.57C170.047 41.35 170.515 42.424 170.515 43.792C170.515 44.764 170.275 45.592 169.795 46.276C169.315 46.96 168.631 47.458 167.743 47.77L170.731 52H168.769ZM165.205 46.636C166.345 46.636 167.215 46.39 167.815 45.898C168.415 45.406 168.715 44.704 168.715 43.792C168.715 42.88 168.415 42.184 167.815 41.704C167.215 41.212 166.345 40.966 165.205 40.966H162.145V46.636H165.205ZM181.793 47.284C181.793 47.416 181.781 47.59 181.757 47.806H174.017C174.125 48.646 174.491 49.324 175.115 49.84C175.751 50.344 176.537 50.596 177.473 50.596C178.613 50.596 179.531 50.212 180.227 49.444L181.181 50.56C180.749 51.064 180.209 51.448 179.561 51.712C178.925 51.976 178.211 52.108 177.419 52.108C176.411 52.108 175.517 51.904 174.737 51.496C173.957 51.076 173.351 50.494 172.919 49.75C172.499 49.006 172.289 48.166 172.289 47.23C172.289 46.306 172.493 45.472 172.901 44.728C173.321 43.984 173.891 43.408 174.611 43C175.343 42.58 176.165 42.37 177.077 42.37C177.989 42.37 178.799 42.58 179.507 43C180.227 43.408 180.785 43.984 181.181 44.728C181.589 45.472 181.793 46.324 181.793 47.284ZM177.077 43.828C176.249 43.828 175.553 44.08 174.989 44.584C174.437 45.088 174.113 45.748 174.017 46.564H180.137C180.041 45.76 179.711 45.106 179.147 44.602C178.595 44.086 177.905 43.828 177.077 43.828ZM186.929 52.108C186.149 52.108 185.399 52.006 184.679 51.802C183.959 51.586 183.395 51.316 182.987 50.992L183.707 49.624C184.127 49.924 184.637 50.164 185.237 50.344C185.837 50.524 186.443 50.614 187.055 50.614C188.567 50.614 189.323 50.182 189.323 49.318C189.323 49.03 189.221 48.802 189.017 48.634C188.813 48.466 188.555 48.346 188.243 48.274C187.943 48.19 187.511 48.1 186.947 48.004C186.179 47.884 185.549 47.746 185.057 47.59C184.577 47.434 184.163 47.17 183.815 46.798C183.467 46.426 183.293 45.904 183.293 45.232C183.293 44.368 183.653 43.678 184.373 43.162C185.093 42.634 186.059 42.37 187.271 42.37C187.907 42.37 188.543 42.448 189.179 42.604C189.815 42.76 190.337 42.97 190.745 43.234L190.007 44.602C189.227 44.098 188.309 43.846 187.253 43.846C186.521 43.846 185.963 43.966 185.579 44.206C185.195 44.446 185.003 44.764 185.003 45.16C185.003 45.472 185.111 45.718 185.327 45.898C185.543 46.078 185.807 46.21 186.119 46.294C186.443 46.378 186.893 46.474 187.469 46.582C188.237 46.714 188.855 46.858 189.323 47.014C189.803 47.158 190.211 47.41 190.547 47.77C190.883 48.13 191.051 48.634 191.051 49.282C191.051 50.146 190.679 50.836 189.935 51.352C189.203 51.856 188.201 52.108 186.929 52.108ZM197.296 52.108C196.348 52.108 195.496 51.898 194.74 51.478C193.984 51.058 193.39 50.482 192.958 49.75C192.538 49.006 192.328 48.166 192.328 47.23C192.328 46.294 192.538 45.46 192.958 44.728C193.39 43.984 193.984 43.408 194.74 43C195.496 42.58 196.348 42.37 197.296 42.37C198.244 42.37 199.09 42.58 199.834 43C200.59 43.408 201.178 43.984 201.598 44.728C202.03 45.46 202.246 46.294 202.246 47.23C202.246 48.166 202.03 49.006 201.598 49.75C201.178 50.482 200.59 51.058 199.834 51.478C199.09 51.898 198.244 52.108 197.296 52.108ZM197.296 50.596C197.908 50.596 198.454 50.458 198.934 50.182C199.426 49.894 199.81 49.498 200.086 48.994C200.362 48.478 200.5 47.89 200.5 47.23C200.5 46.57 200.362 45.988 200.086 45.484C199.81 44.968 199.426 44.572 198.934 44.296C198.454 44.02 197.908 43.882 197.296 43.882C196.684 43.882 196.132 44.02 195.64 44.296C195.16 44.572 194.776 44.968 194.488 45.484C194.212 45.988 194.074 46.57 194.074 47.23C194.074 47.89 194.212 48.478 194.488 48.994C194.776 49.498 195.16 49.894 195.64 50.182C196.132 50.458 196.684 50.596 197.296 50.596ZM213.528 42.46V52H211.89V50.56C211.542 51.052 211.08 51.436 210.504 51.712C209.94 51.976 209.322 52.108 208.65 52.108C207.378 52.108 206.376 51.76 205.644 51.064C204.912 50.356 204.546 49.318 204.546 47.95V42.46H206.274V47.752C206.274 48.676 206.496 49.378 206.94 49.858C207.384 50.326 208.02 50.56 208.848 50.56C209.76 50.56 210.48 50.284 211.008 49.732C211.536 49.18 211.8 48.4 211.8 47.392V42.46H213.528ZM218.474 44.062C218.774 43.51 219.218 43.09 219.806 42.802C220.394 42.514 221.108 42.37 221.948 42.37V44.044C221.852 44.032 221.72 44.026 221.552 44.026C220.616 44.026 219.878 44.308 219.338 44.872C218.81 45.424 218.546 46.216 218.546 47.248V52H216.818V42.46H218.474V44.062ZM228.148 52.108C227.176 52.108 226.306 51.898 225.538 51.478C224.782 51.058 224.188 50.482 223.756 49.75C223.324 49.006 223.108 48.166 223.108 47.23C223.108 46.294 223.324 45.46 223.756 44.728C224.188 43.984 224.782 43.408 225.538 43C226.306 42.58 227.176 42.37 228.148 42.37C229.012 42.37 229.78 42.544 230.452 42.892C231.136 43.24 231.664 43.744 232.036 44.404L230.722 45.25C230.422 44.794 230.05 44.452 229.606 44.224C229.162 43.996 228.67 43.882 228.13 43.882C227.506 43.882 226.942 44.02 226.438 44.296C225.946 44.572 225.556 44.968 225.268 45.484C224.992 45.988 224.854 46.57 224.854 47.23C224.854 47.902 224.992 48.496 225.268 49.012C225.556 49.516 225.946 49.906 226.438 50.182C226.942 50.458 227.506 50.596 228.13 50.596C228.67 50.596 229.162 50.482 229.606 50.254C230.05 50.026 230.422 49.684 230.722 49.228L232.036 50.056C231.664 50.716 231.136 51.226 230.452 51.586C229.78 51.934 229.012 52.108 228.148 52.108ZM242.754 47.284C242.754 47.416 242.742 47.59 242.718 47.806H234.978C235.086 48.646 235.452 49.324 236.076 49.84C236.712 50.344 237.498 50.596 238.434 50.596C239.574 50.596 240.492 50.212 241.188 49.444L242.142 50.56C241.71 51.064 241.17 51.448 240.522 51.712C239.886 51.976 239.172 52.108 238.38 52.108C237.372 52.108 236.478 51.904 235.698 51.496C234.918 51.076 234.312 50.494 233.88 49.75C233.46 49.006 233.25 48.166 233.25 47.23C233.25 46.306 233.454 45.472 233.862 44.728C234.282 43.984 234.852 43.408 235.572 43C236.304 42.58 237.126 42.37 238.038 42.37C238.95 42.37 239.76 42.58 240.468 43C241.188 43.408 241.746 43.984 242.142 44.728C242.55 45.472 242.754 46.324 242.754 47.284ZM238.038 43.828C237.21 43.828 236.514 44.08 235.95 44.584C235.398 45.088 235.074 45.748 234.978 46.564H241.098C241.002 45.76 240.672 45.106 240.108 44.602C239.556 44.086 238.866 43.828 238.038 43.828ZM247.89 52.108C247.11 52.108 246.36 52.006 245.64 51.802C244.92 51.586 244.356 51.316 243.948 50.992L244.668 49.624C245.088 49.924 245.598 50.164 246.198 50.344C246.798 50.524 247.404 50.614 248.016 50.614C249.528 50.614 250.284 50.182 250.284 49.318C250.284 49.03 250.182 48.802 249.978 48.634C249.774 48.466 249.516 48.346 249.204 48.274C248.904 48.19 248.472 48.1 247.908 48.004C247.14 47.884 246.51 47.746 246.018 47.59C245.538 47.434 245.124 47.17 244.776 46.798C244.428 46.426 244.254 45.904 244.254 45.232C244.254 44.368 244.614 43.678 245.334 43.162C246.054 42.634 247.02 42.37 248.232 42.37C248.868 42.37 249.504 42.448 250.14 42.604C250.776 42.76 251.298 42.97 251.706 43.234L250.968 44.602C250.188 44.098 249.27 43.846 248.214 43.846C247.482 43.846 246.924 43.966 246.54 44.206C246.156 44.446 245.964 44.764 245.964 45.16C245.964 45.472 246.072 45.718 246.288 45.898C246.504 46.078 246.768 46.21 247.08 46.294C247.404 46.378 247.854 46.474 248.43 46.582C249.198 46.714 249.816 46.858 250.284 47.014C250.764 47.158 251.172 47.41 251.508 47.77C251.844 48.13 252.012 48.634 252.012 49.282C252.012 50.146 251.64 50.836 250.896 51.352C250.164 51.856 249.162 52.108 247.89 52.108Z" fill="black"/>
<defs>
<clipPath id="clip0">
<rect x="472" y="238" width="66" height="54" fill="white"/>
</clipPath>
</defs>
</svg>
