<svg width="1440" height="1024" viewBox="0 0 1440 1024" fill="none" xmlns="http://www.w3.org/2000/svg">
<rect width="1440" height="1024" fill="white"/>
<rect width="1440" height="92" fill="#DCDCDC"/>
<path d="M646.552 59L646.48 47.516L641.008 56.732H637.264L631.792 47.912V59H624.052V33.8H631.036L639.244 47.228L647.236 33.8H654.22L654.292 59H646.552ZM671.612 59.576C668.9 59.576 666.464 59.012 664.304 57.884C662.144 56.756 660.452 55.196 659.228 53.204C658.004 51.188 657.392 48.92 657.392 46.4C657.392 43.88 658.004 41.624 659.228 39.632C660.452 37.616 662.144 36.044 664.304 34.916C666.464 33.788 668.9 33.224 671.612 33.224C674.324 33.224 676.76 33.788 678.92 34.916C681.08 36.044 682.772 37.616 683.996 39.632C685.22 41.624 685.832 43.88 685.832 46.4C685.832 48.92 685.22 51.188 683.996 53.204C682.772 55.196 681.08 56.756 678.92 57.884C676.76 59.012 674.324 59.576 671.612 59.576ZM671.612 52.7C672.668 52.7 673.616 52.448 674.456 51.944C675.32 51.416 676.004 50.684 676.508 49.748C677.012 48.788 677.264 47.672 677.264 46.4C677.264 45.128 677.012 44.024 676.508 43.088C676.004 42.128 675.32 41.396 674.456 40.892C673.616 40.364 672.668 40.1 671.612 40.1C670.556 40.1 669.596 40.364 668.732 40.892C667.892 41.396 667.22 42.128 666.716 43.088C666.212 44.024 665.96 45.128 665.96 46.4C665.96 47.672 666.212 48.788 666.716 49.748C667.22 50.684 667.892 51.416 668.732 51.944C669.596 52.448 670.556 52.7 671.612 52.7ZM702.127 59.576C699.415 59.576 696.979 59.012 694.819 57.884C692.659 56.756 690.967 55.196 689.743 53.204C688.519 51.188 687.907 48.92 687.907 46.4C687.907 43.88 688.519 41.624 689.743 39.632C690.967 37.616 692.659 36.044 694.819 34.916C696.979 33.788 699.415 33.224 702.127 33.224C704.839 33.224 707.275 33.788 709.435 34.916C711.595 36.044 713.287 37.616 714.511 39.632C715.735 41.624 716.347 43.88 716.347 46.4C716.347 48.92 715.735 51.188 714.511 53.204C713.287 55.196 711.595 56.756 709.435 57.884C707.275 59.012 704.839 59.576 702.127 59.576ZM702.127 52.7C703.183 52.7 704.131 52.448 704.971 51.944C705.835 51.416 706.519 50.684 707.023 49.748C707.527 48.788 707.779 47.672 707.779 46.4C707.779 45.128 707.527 44.024 707.023 43.088C706.519 42.128 705.835 41.396 704.971 40.892C704.131 40.364 703.183 40.1 702.127 40.1C701.071 40.1 700.111 40.364 699.247 40.892C698.407 41.396 697.735 42.128 697.231 43.088C696.727 44.024 696.475 45.128 696.475 46.4C696.475 47.672 696.727 48.788 697.231 49.748C697.735 50.684 698.407 51.416 699.247 51.944C700.111 52.448 701.071 52.7 702.127 52.7ZM728.827 59.576C726.739 59.576 724.699 59.348 722.707 58.892C720.739 58.412 719.119 57.776 717.847 56.984L720.583 50.792C721.783 51.488 723.127 52.052 724.615 52.484C726.103 52.892 727.531 53.096 728.899 53.096C730.075 53.096 730.915 52.988 731.419 52.772C731.923 52.532 732.175 52.184 732.175 51.728C732.175 51.2 731.839 50.804 731.167 50.54C730.519 50.276 729.439 49.988 727.927 49.676C725.983 49.268 724.363 48.836 723.067 48.38C721.771 47.9 720.643 47.132 719.683 46.076C718.723 44.996 718.243 43.544 718.243 41.72C718.243 40.136 718.687 38.696 719.575 37.4C720.463 36.104 721.783 35.084 723.535 34.34C725.311 33.596 727.459 33.224 729.979 33.224C731.707 33.224 733.399 33.416 735.055 33.8C736.735 34.16 738.211 34.7 739.483 35.42L736.927 41.576C734.455 40.328 732.115 39.704 729.907 39.704C727.723 39.704 726.631 40.232 726.631 41.288C726.631 41.792 726.955 42.176 727.603 42.44C728.251 42.68 729.319 42.944 730.807 43.232C732.727 43.592 734.347 44.012 735.667 44.492C736.987 44.948 738.127 45.704 739.087 46.76C740.071 47.816 740.563 49.256 740.563 51.08C740.563 52.664 740.119 54.104 739.231 55.4C738.343 56.672 737.011 57.692 735.235 58.46C733.483 59.204 731.347 59.576 728.827 59.576ZM764.043 52.592V59H743.091V33.8H763.575V40.208H751.443V43.16H762.099V49.28H751.443V52.592H764.043Z" fill="#3A3A3A"/>
<circle cx="799" cy="45" r="18" fill="#C4C4C4"/>
<rect x="1062" y="805" width="250" height="72" rx="20" fill="#C4C4C4"/>
<path d="M1295.35 841.382C1295.35 841.196 1295.28 841.043 1295.15 840.908L1283.68 829.374C1283.43 829.085 1283.24 829.018 1283.05 829.018C1282.68 829.018 1282.39 829.306 1282.39 829.662C1282.39 829.849 1282.44 830.018 1282.58 830.137L1289.34 836.922L1293.4 840.84L1289.68 840.738H1264.5C1264.14 840.738 1263.85 841.009 1263.85 841.382C1263.85 841.756 1264.14 842.027 1264.5 842.027H1289.68L1293.4 841.942L1289.34 845.843L1282.58 852.628C1282.46 852.746 1282.39 852.933 1282.39 853.12C1282.39 853.459 1282.68 853.747 1283.05 853.747C1283.24 853.747 1283.39 853.679 1283.53 853.544L1295.15 841.857C1295.28 841.722 1295.35 841.569 1295.35 841.382Z" fill="#3A3A3A"/>
<path d="M1119.31 850H1127.35C1128.32 850 1128.96 849.449 1128.96 848.535C1128.96 847.621 1128.31 847.07 1127.35 847.07H1121.08V842.805H1127.05C1127.94 842.805 1128.52 842.289 1128.52 841.445C1128.52 840.602 1127.93 840.086 1127.05 840.086H1121.08V836.02H1127.35C1128.31 836.02 1128.96 835.469 1128.96 834.555C1128.96 833.641 1128.32 833.09 1127.35 833.09H1119.31C1118.2 833.09 1117.54 833.77 1117.54 834.93V848.148C1117.54 849.32 1118.2 850 1119.31 850ZM1132.24 850.246C1132.85 850.246 1133.19 850.047 1133.66 849.32L1136.11 845.641H1136.18L1138.67 849.379C1139.06 849.965 1139.39 850.246 1140.05 850.246C1140.98 850.246 1141.68 849.66 1141.68 848.734C1141.68 848.359 1141.57 848.031 1141.31 847.68L1138.39 843.648L1141.26 839.816C1141.59 839.395 1141.72 839.055 1141.72 838.633C1141.72 837.766 1141.07 837.18 1140.11 837.18C1139.48 837.18 1139.12 837.461 1138.66 838.176L1136.36 841.68H1136.29L1133.95 838.152C1133.49 837.426 1133.13 837.18 1132.44 837.18C1131.5 837.18 1130.8 837.824 1130.8 838.68C1130.8 839.078 1130.91 839.418 1131.16 839.746L1134.09 843.742L1131.15 847.68C1130.82 848.113 1130.69 848.441 1130.69 848.852C1130.69 849.672 1131.34 850.246 1132.24 850.246ZM1145.4 854.477C1146.41 854.477 1147.11 853.867 1147.11 852.695V847.891H1147.18C1147.85 849.309 1149.25 850.199 1151.08 850.199C1154.22 850.199 1156.17 847.762 1156.17 843.719C1156.17 839.664 1154.21 837.238 1151.02 837.238C1149.21 837.238 1147.81 838.152 1147.13 839.629H1147.06V838.949C1147.06 837.789 1146.36 837.18 1145.38 837.18C1144.39 837.18 1143.69 837.789 1143.69 838.938V852.695C1143.69 853.867 1144.4 854.477 1145.4 854.477ZM1149.88 847.445C1148.2 847.445 1147.1 845.992 1147.1 843.719C1147.1 841.469 1148.2 839.98 1149.88 839.98C1151.59 839.98 1152.66 841.445 1152.66 843.719C1152.66 846.004 1151.59 847.445 1149.88 847.445ZM1159.73 850.246C1160.74 850.246 1161.44 849.637 1161.44 848.465V834.625C1161.44 833.453 1160.74 832.832 1159.73 832.832C1158.73 832.832 1158.02 833.453 1158.02 834.625V848.465C1158.02 849.637 1158.73 850.246 1159.73 850.246ZM1169.52 850.27C1173.31 850.27 1175.74 847.844 1175.74 843.707C1175.74 839.629 1173.28 837.168 1169.52 837.168C1165.75 837.168 1163.29 839.641 1163.29 843.707C1163.29 847.832 1165.72 850.27 1169.52 850.27ZM1169.52 847.656C1167.83 847.656 1166.76 846.238 1166.76 843.719C1166.76 841.223 1167.85 839.781 1169.52 839.781C1171.18 839.781 1172.26 841.223 1172.26 843.719C1172.26 846.238 1171.19 847.656 1169.52 847.656ZM1179.22 850.246C1180.26 850.246 1180.93 849.602 1180.93 848.465V842.887C1180.93 841.398 1181.48 840.52 1183.04 840.496C1183.71 840.484 1184.2 840.332 1184.53 840.051C1184.86 839.77 1185.02 839.359 1185.02 838.82C1185.02 838.234 1184.86 837.812 1184.53 837.555C1184.28 837.344 1183.92 837.238 1183.46 837.238C1182.21 837.238 1181.18 838.164 1180.85 839.723H1180.78V838.902C1180.78 837.812 1180.12 837.18 1179.16 837.18C1178.18 837.18 1177.51 837.812 1177.51 838.902V848.465C1177.51 849.602 1178.19 850.246 1179.22 850.246ZM1191.61 850.27C1194.03 850.27 1195.98 849.355 1196.81 847.809C1196.96 847.527 1197.04 847.246 1197.04 846.977C1197.04 846.191 1196.45 845.723 1195.71 845.723C1195.26 845.723 1194.96 845.852 1194.59 846.227C1193.67 847.316 1192.85 847.738 1191.59 847.738C1189.86 847.738 1188.73 846.52 1188.73 844.656V844.504H1195.91C1196.86 844.504 1197.39 843.965 1197.39 843.016C1197.39 839.605 1195 837.168 1191.44 837.168C1187.73 837.168 1185.37 839.734 1185.37 843.777C1185.37 847.844 1187.68 850.27 1191.61 850.27ZM1188.77 842.406C1188.89 840.801 1189.98 839.699 1191.48 839.699C1192.98 839.699 1194.03 840.766 1194.1 842.406H1188.77ZM1209.04 850.27C1212.36 850.27 1214.6 848.652 1214.6 846.156C1214.6 844.281 1213.5 843.297 1210.82 842.734L1208.75 842.289C1207.5 842.02 1207 841.586 1207 840.93C1207 840.121 1207.81 839.57 1208.97 839.57C1210.2 839.57 1210.88 840.156 1211.48 840.918C1211.79 841.281 1212.28 841.445 1212.72 841.445C1213.6 841.445 1214.04 840.965 1214.04 840.273C1214.04 840.109 1214 839.945 1213.95 839.77C1213.54 838.352 1211.63 837.168 1209.03 837.168C1205.77 837.168 1203.7 838.715 1203.7 841.117C1203.7 842.98 1204.94 844.234 1207.4 844.762L1209.51 845.207C1210.74 845.477 1211.18 845.84 1211.18 846.52C1211.18 847.352 1210.37 847.867 1209.12 847.867C1207.82 847.867 1207.05 847.469 1206.38 846.59C1205.91 846.062 1205.45 845.816 1204.89 845.816C1204.1 845.816 1203.51 846.344 1203.51 847.129C1203.51 847.316 1203.56 847.539 1203.64 847.762C1204.24 849.238 1206.16 850.27 1209.04 850.27ZM1218.09 850.246C1219.1 850.246 1219.8 849.637 1219.8 848.465V845.922L1220.89 844.914L1224.11 849.18C1224.65 849.988 1225.06 850.246 1225.79 850.246C1226.75 850.246 1227.42 849.613 1227.42 848.699C1227.42 848.254 1227.31 847.949 1226.94 847.445L1223.43 842.98L1226.63 839.957C1227.12 839.5 1227.28 839.184 1227.28 838.668C1227.28 837.824 1226.63 837.18 1225.75 837.18C1225.24 837.18 1224.85 837.379 1224.39 837.859L1219.85 842.418H1219.8V834.625C1219.8 833.453 1219.1 832.832 1218.09 832.832C1217.09 832.832 1216.38 833.453 1216.38 834.625V848.465C1216.38 849.637 1217.09 850.246 1218.09 850.246ZM1230.98 835.879C1232.01 835.879 1232.81 835.094 1232.81 834.109C1232.81 833.113 1232.01 832.34 1230.98 832.34C1229.95 832.34 1229.15 833.113 1229.15 834.109C1229.15 835.094 1229.95 835.879 1230.98 835.879ZM1230.98 850.246C1232.04 850.246 1232.69 849.578 1232.69 848.465V838.973C1232.69 837.859 1232.04 837.18 1230.98 837.18C1229.91 837.18 1229.27 837.859 1229.27 838.973V848.465C1229.27 849.578 1229.91 850.246 1230.98 850.246ZM1236.77 850.246C1237.78 850.246 1238.48 849.637 1238.48 848.465V834.625C1238.48 833.453 1237.78 832.832 1236.77 832.832C1235.77 832.832 1235.06 833.453 1235.06 834.625V848.465C1235.06 849.637 1235.77 850.246 1236.77 850.246ZM1242.58 850.246C1243.59 850.246 1244.29 849.637 1244.29 848.465V834.625C1244.29 833.453 1243.59 832.832 1242.58 832.832C1241.59 832.832 1240.87 833.453 1240.87 834.625V848.465C1240.87 849.637 1241.59 850.246 1242.58 850.246ZM1251.72 850.27C1255.04 850.27 1257.28 848.652 1257.28 846.156C1257.28 844.281 1256.18 843.297 1253.5 842.734L1251.43 842.289C1250.18 842.02 1249.68 841.586 1249.68 840.93C1249.68 840.121 1250.49 839.57 1251.65 839.57C1252.88 839.57 1253.56 840.156 1254.16 840.918C1254.46 841.281 1254.96 841.445 1255.4 841.445C1256.28 841.445 1256.71 840.965 1256.71 840.273C1256.71 840.109 1256.68 839.945 1256.63 839.77C1256.22 838.352 1254.31 837.168 1251.71 837.168C1248.45 837.168 1246.38 838.715 1246.38 841.117C1246.38 842.98 1247.62 844.234 1250.08 844.762L1252.19 845.207C1253.42 845.477 1253.86 845.84 1253.86 846.52C1253.86 847.352 1253.05 847.867 1251.8 847.867C1250.5 847.867 1249.73 847.469 1249.06 846.59C1248.59 846.062 1248.12 845.816 1247.57 845.816C1246.78 845.816 1246.19 846.344 1246.19 847.129C1246.19 847.316 1246.24 847.539 1246.32 847.762C1246.92 849.238 1248.84 850.27 1251.72 850.27Z" fill="#3A3A3A"/>
<path d="M421.821 402.576H410.301V398.4H438.093V402.576H426.573V432H421.821V402.576ZM456.233 406.32C459.465 406.32 462.025 407.264 463.913 409.152C465.833 411.008 466.793 413.744 466.793 417.36V432H462.185V417.888C462.185 415.424 461.593 413.568 460.409 412.32C459.225 411.072 457.529 410.448 455.321 410.448C452.825 410.448 450.857 411.184 449.417 412.656C447.977 414.096 447.257 416.176 447.257 418.896V432H442.649V396.384H447.257V410.16C448.217 408.944 449.465 408 451.001 407.328C452.569 406.656 454.313 406.32 456.233 406.32ZM484.585 406.32C488.105 406.32 490.793 407.184 492.649 408.912C494.537 410.64 495.481 413.216 495.481 416.64V432H491.113V428.64C490.345 429.824 489.241 430.736 487.801 431.376C486.393 431.984 484.713 432.288 482.761 432.288C479.913 432.288 477.625 431.6 475.897 430.224C474.201 428.848 473.353 427.04 473.353 424.8C473.353 422.56 474.169 420.768 475.801 419.424C477.433 418.048 480.025 417.36 483.577 417.36H490.873V416.448C490.873 414.464 490.297 412.944 489.145 411.888C487.993 410.832 486.297 410.304 484.057 410.304C482.553 410.304 481.081 410.56 479.641 411.072C478.201 411.552 476.985 412.208 475.993 413.04L474.073 409.584C475.385 408.528 476.953 407.728 478.777 407.184C480.601 406.608 482.537 406.32 484.585 406.32ZM483.529 428.736C485.289 428.736 486.809 428.352 488.089 427.584C489.369 426.784 490.297 425.664 490.873 424.224V420.672H483.769C479.865 420.672 477.913 421.984 477.913 424.608C477.913 425.888 478.409 426.896 479.401 427.632C480.393 428.368 481.769 428.736 483.529 428.736ZM517.593 406.32C520.825 406.32 523.385 407.264 525.273 409.152C527.193 411.008 528.153 413.744 528.153 417.36V432H523.545V417.888C523.545 415.424 522.953 413.568 521.769 412.32C520.585 411.072 518.889 410.448 516.681 410.448C514.185 410.448 512.217 411.184 510.777 412.656C509.337 414.096 508.617 416.176 508.617 418.896V432H504.009V406.56H508.425V410.4C509.353 409.088 510.601 408.08 512.169 407.376C513.769 406.672 515.577 406.32 517.593 406.32ZM546.569 420.144L541.289 425.04V432H536.681V396.384H541.289V419.232L555.161 406.56H560.729L550.025 417.072L561.785 432H556.121L546.569 420.144ZM601.661 406.56L589.325 434.544C588.237 437.136 586.957 438.96 585.485 440.016C584.045 441.072 582.301 441.6 580.253 441.6C579.005 441.6 577.789 441.392 576.605 440.976C575.453 440.592 574.493 440.016 573.725 439.248L575.693 435.792C577.005 437.04 578.525 437.664 580.253 437.664C581.373 437.664 582.301 437.36 583.037 436.752C583.805 436.176 584.493 435.168 585.101 433.728L585.917 431.952L574.685 406.56H579.485L588.365 426.912L597.149 406.56H601.661ZM616.155 432.288C613.627 432.288 611.355 431.728 609.339 430.608C607.323 429.488 605.739 427.952 604.587 426C603.467 424.016 602.907 421.776 602.907 419.28C602.907 416.784 603.467 414.56 604.587 412.608C605.739 410.624 607.323 409.088 609.339 408C611.355 406.88 613.627 406.32 616.155 406.32C618.683 406.32 620.939 406.88 622.923 408C624.939 409.088 626.507 410.624 627.627 412.608C628.779 414.56 629.355 416.784 629.355 419.28C629.355 421.776 628.779 424.016 627.627 426C626.507 427.952 624.939 429.488 622.923 430.608C620.939 431.728 618.683 432.288 616.155 432.288ZM616.155 428.256C617.787 428.256 619.243 427.888 620.523 427.152C621.835 426.384 622.859 425.328 623.595 423.984C624.331 422.608 624.699 421.04 624.699 419.28C624.699 417.52 624.331 415.968 623.595 414.624C622.859 413.248 621.835 412.192 620.523 411.456C619.243 410.72 617.787 410.352 616.155 410.352C614.523 410.352 613.051 410.72 611.739 411.456C610.459 412.192 609.435 413.248 608.667 414.624C607.931 415.968 607.563 417.52 607.563 419.28C607.563 421.04 607.931 422.608 608.667 423.984C609.435 425.328 610.459 426.384 611.739 427.152C613.051 427.888 614.523 428.256 616.155 428.256ZM659.439 406.56V432H655.071V428.16C654.143 429.472 652.911 430.496 651.375 431.232C649.871 431.936 648.223 432.288 646.431 432.288C643.039 432.288 640.367 431.36 638.415 429.504C636.463 427.616 635.487 424.848 635.487 421.2V406.56H640.095V420.672C640.095 423.136 640.687 425.008 641.871 426.288C643.055 427.536 644.751 428.16 646.959 428.16C649.391 428.16 651.311 427.424 652.719 425.952C654.127 424.48 654.831 422.4 654.831 419.712V406.56H659.439ZM690.414 399.888C687.662 399.888 686.286 401.376 686.286 404.352V406.56H693.678V410.352H686.382V432H681.774V410.352H677.454V406.56H681.774V404.304C681.774 401.776 682.51 399.776 683.982 398.304C685.454 396.832 687.518 396.096 690.174 396.096C691.198 396.096 692.158 396.224 693.054 396.48C693.95 396.736 694.718 397.104 695.358 397.584L693.966 401.088C692.91 400.288 691.726 399.888 690.414 399.888ZM708.545 432.288C706.017 432.288 703.745 431.728 701.729 430.608C699.713 429.488 698.129 427.952 696.977 426C695.857 424.016 695.297 421.776 695.297 419.28C695.297 416.784 695.857 414.56 696.977 412.608C698.129 410.624 699.713 409.088 701.729 408C703.745 406.88 706.017 406.32 708.545 406.32C711.073 406.32 713.329 406.88 715.313 408C717.329 409.088 718.897 410.624 720.017 412.608C721.169 414.56 721.745 416.784 721.745 419.28C721.745 421.776 721.169 424.016 720.017 426C718.897 427.952 717.329 429.488 715.313 430.608C713.329 431.728 711.073 432.288 708.545 432.288ZM708.545 428.256C710.177 428.256 711.633 427.888 712.913 427.152C714.225 426.384 715.249 425.328 715.985 423.984C716.721 422.608 717.089 421.04 717.089 419.28C717.089 417.52 716.721 415.968 715.985 414.624C715.249 413.248 714.225 412.192 712.913 411.456C711.633 410.72 710.177 410.352 708.545 410.352C706.913 410.352 705.441 410.72 704.129 411.456C702.849 412.192 701.825 413.248 701.057 414.624C700.321 415.968 699.953 417.52 699.953 419.28C699.953 421.04 700.321 422.608 701.057 423.984C701.825 425.328 702.849 426.384 704.129 427.152C705.441 427.888 706.913 428.256 708.545 428.256ZM732.534 410.832C733.334 409.36 734.518 408.24 736.086 407.472C737.654 406.704 739.558 406.32 741.798 406.32V410.784C741.542 410.752 741.19 410.736 740.742 410.736C738.246 410.736 736.278 411.488 734.838 412.992C733.43 414.464 732.726 416.576 732.726 419.328V432H728.118V406.56H732.534V410.832ZM767.992 432.288C765.912 432.288 763.912 432.016 761.992 431.472C760.072 430.896 758.568 430.176 757.48 429.312L759.4 425.664C760.52 426.464 761.88 427.104 763.48 427.584C765.08 428.064 766.696 428.304 768.328 428.304C772.36 428.304 774.376 427.152 774.376 424.848C774.376 424.08 774.104 423.472 773.56 423.024C773.016 422.576 772.328 422.256 771.496 422.064C770.696 421.84 769.544 421.6 768.04 421.344C765.992 421.024 764.312 420.656 763 420.24C761.72 419.824 760.616 419.12 759.688 418.128C758.76 417.136 758.296 415.744 758.296 413.952C758.296 411.648 759.256 409.808 761.176 408.432C763.096 407.024 765.672 406.32 768.904 406.32C770.6 406.32 772.296 406.528 773.992 406.944C775.688 407.36 777.08 407.92 778.168 408.624L776.2 412.272C774.12 410.928 771.672 410.256 768.856 410.256C766.904 410.256 765.416 410.576 764.392 411.216C763.368 411.856 762.856 412.704 762.856 413.76C762.856 414.592 763.144 415.248 763.72 415.728C764.296 416.208 765 416.56 765.832 416.784C766.696 417.008 767.896 417.264 769.432 417.552C771.48 417.904 773.128 418.288 774.376 418.704C775.656 419.088 776.744 419.76 777.64 420.72C778.536 421.68 778.984 423.024 778.984 424.752C778.984 427.056 777.992 428.896 776.008 430.272C774.056 431.616 771.384 432.288 767.992 432.288ZM784.743 406.56H789.351V432H784.743V406.56ZM787.047 401.664C786.151 401.664 785.399 401.376 784.791 400.8C784.215 400.224 783.927 399.52 783.927 398.688C783.927 397.856 784.215 397.152 784.791 396.576C785.399 395.968 786.151 395.664 787.047 395.664C787.943 395.664 788.679 395.952 789.255 396.528C789.863 397.072 790.167 397.76 790.167 398.592C790.167 399.456 789.863 400.192 789.255 400.8C788.679 401.376 787.943 401.664 787.047 401.664ZM822.485 406.56V428.544C822.485 432.992 821.381 436.272 819.173 438.384C816.965 440.528 813.669 441.6 809.285 441.6C806.885 441.6 804.597 441.264 802.421 440.592C800.245 439.952 798.485 439.024 797.141 437.808L799.349 434.256C800.533 435.28 801.989 436.08 803.717 436.656C805.477 437.264 807.285 437.568 809.141 437.568C812.117 437.568 814.309 436.864 815.717 435.456C817.157 434.048 817.877 431.904 817.877 429.024V427.008C816.789 428.32 815.445 429.312 813.845 429.984C812.277 430.624 810.565 430.944 808.709 430.944C806.277 430.944 804.069 430.432 802.085 429.408C800.133 428.352 798.597 426.896 797.477 425.04C796.357 423.152 795.797 421.008 795.797 418.608C795.797 416.208 796.357 414.08 797.477 412.224C798.597 410.336 800.133 408.88 802.085 407.856C804.069 406.832 806.277 406.32 808.709 406.32C810.629 406.32 812.405 406.672 814.037 407.376C815.701 408.08 817.061 409.12 818.117 410.496V406.56H822.485ZM809.237 426.912C810.901 426.912 812.389 426.56 813.701 425.856C815.045 425.152 816.085 424.176 816.821 422.928C817.589 421.648 817.973 420.208 817.973 418.608C817.973 416.144 817.157 414.16 815.525 412.656C813.893 411.12 811.797 410.352 809.237 410.352C806.645 410.352 804.533 411.12 802.901 412.656C801.269 414.16 800.453 416.144 800.453 418.608C800.453 420.208 800.821 421.648 801.557 422.928C802.325 424.176 803.365 425.152 804.677 425.856C806.021 426.56 807.541 426.912 809.237 426.912ZM844.874 406.32C848.106 406.32 850.666 407.264 852.554 409.152C854.474 411.008 855.434 413.744 855.434 417.36V432H850.826V417.888C850.826 415.424 850.234 413.568 849.05 412.32C847.866 411.072 846.17 410.448 843.962 410.448C841.466 410.448 839.498 411.184 838.058 412.656C836.618 414.096 835.898 416.176 835.898 418.896V432H831.29V406.56H835.706V410.4C836.634 409.088 837.882 408.08 839.45 407.376C841.05 406.672 842.858 406.32 844.874 406.32ZM863.962 406.56H868.57V432H863.962V406.56ZM866.266 401.664C865.37 401.664 864.618 401.376 864.01 400.8C863.434 400.224 863.146 399.52 863.146 398.688C863.146 397.856 863.434 397.152 864.01 396.576C864.618 395.968 865.37 395.664 866.266 395.664C867.162 395.664 867.898 395.952 868.474 396.528C869.082 397.072 869.386 397.76 869.386 398.592C869.386 399.456 869.082 400.192 868.474 400.8C867.898 401.376 867.162 401.664 866.266 401.664ZM890.952 406.32C894.184 406.32 896.744 407.264 898.632 409.152C900.552 411.008 901.512 413.744 901.512 417.36V432H896.904V417.888C896.904 415.424 896.312 413.568 895.128 412.32C893.944 411.072 892.248 410.448 890.04 410.448C887.544 410.448 885.576 411.184 884.136 412.656C882.696 414.096 881.976 416.176 881.976 418.896V432H877.368V406.56H881.784V410.4C882.712 409.088 883.96 408.08 885.528 407.376C887.128 406.672 888.936 406.32 890.952 406.32ZM934.517 406.56V428.544C934.517 432.992 933.413 436.272 931.205 438.384C928.997 440.528 925.701 441.6 921.317 441.6C918.917 441.6 916.629 441.264 914.453 440.592C912.277 439.952 910.517 439.024 909.173 437.808L911.381 434.256C912.565 435.28 914.021 436.08 915.749 436.656C917.509 437.264 919.317 437.568 921.173 437.568C924.149 437.568 926.341 436.864 927.749 435.456C929.189 434.048 929.909 431.904 929.909 429.024V427.008C928.821 428.32 927.477 429.312 925.877 429.984C924.309 430.624 922.597 430.944 920.741 430.944C918.309 430.944 916.101 430.432 914.117 429.408C912.165 428.352 910.629 426.896 909.509 425.04C908.389 423.152 907.829 421.008 907.829 418.608C907.829 416.208 908.389 414.08 909.509 412.224C910.629 410.336 912.165 408.88 914.117 407.856C916.101 406.832 918.309 406.32 920.741 406.32C922.661 406.32 924.437 406.672 926.069 407.376C927.733 408.08 929.093 409.12 930.149 410.496V406.56H934.517ZM921.269 426.912C922.933 426.912 924.421 426.56 925.733 425.856C927.077 425.152 928.117 424.176 928.853 422.928C929.621 421.648 930.005 420.208 930.005 418.608C930.005 416.144 929.189 414.16 927.557 412.656C925.925 411.12 923.829 410.352 921.269 410.352C918.677 410.352 916.565 411.12 914.933 412.656C913.301 414.16 912.485 416.144 912.485 418.608C912.485 420.208 912.853 421.648 913.589 422.928C914.357 424.176 915.397 425.152 916.709 425.856C918.053 426.56 919.573 426.912 921.269 426.912ZM979.924 406.56V432H975.556V428.16C974.628 429.472 973.396 430.496 971.86 431.232C970.356 431.936 968.708 432.288 966.916 432.288C963.524 432.288 960.852 431.36 958.9 429.504C956.948 427.616 955.972 424.848 955.972 421.2V406.56H960.58V420.672C960.58 423.136 961.172 425.008 962.356 426.288C963.54 427.536 965.236 428.16 967.444 428.16C969.876 428.16 971.796 427.424 973.204 425.952C974.612 424.48 975.316 422.4 975.316 419.712V406.56H979.924ZM1002.18 406.32C1004.65 406.32 1006.86 406.864 1008.81 407.952C1010.76 409.04 1012.28 410.56 1013.37 412.512C1014.49 414.464 1015.05 416.72 1015.05 419.28C1015.05 421.84 1014.49 424.112 1013.37 426.096C1012.28 428.048 1010.76 429.568 1008.81 430.656C1006.86 431.744 1004.65 432.288 1002.18 432.288C1000.36 432.288 998.68 431.936 997.144 431.232C995.64 430.528 994.36 429.504 993.304 428.16V441.312H988.696V406.56H993.112V410.592C994.136 409.184 995.432 408.128 997 407.424C998.568 406.688 1000.3 406.32 1002.18 406.32ZM1001.8 428.256C1003.43 428.256 1004.89 427.888 1006.17 427.152C1007.48 426.384 1008.5 425.328 1009.24 423.984C1010.01 422.608 1010.39 421.04 1010.39 419.28C1010.39 417.52 1010.01 415.968 1009.24 414.624C1008.5 413.248 1007.48 412.192 1006.17 411.456C1004.89 410.72 1003.43 410.352 1001.8 410.352C1000.2 410.352 998.744 410.736 997.432 411.504C996.152 412.24 995.128 413.28 994.36 414.624C993.624 415.968 993.256 417.52 993.256 419.28C993.256 421.04 993.624 422.608 994.36 423.984C995.096 425.328 996.12 426.384 997.432 427.152C998.744 427.888 1000.2 428.256 1001.8 428.256ZM1020.79 398.4H1026.21L1025.3 421.392H1021.65L1020.79 398.4ZM1023.53 432.288C1022.63 432.288 1021.88 432 1021.27 431.424C1020.66 430.816 1020.36 430.08 1020.36 429.216C1020.36 428.352 1020.66 427.632 1021.27 427.056C1021.88 426.448 1022.63 426.144 1023.53 426.144C1024.42 426.144 1025.16 426.448 1025.73 427.056C1026.31 427.632 1026.6 428.352 1026.6 429.216C1026.6 430.08 1026.29 430.816 1025.69 431.424C1025.11 432 1024.39 432.288 1023.53 432.288Z" fill="black"/>
<path d="M457.077 474.2V491H455.325V483.248H444.813V491H443.037V474.2H444.813V481.688H455.325V474.2H457.077ZM473.192 485.216H462.632C462.728 486.528 463.232 487.592 464.144 488.408C465.056 489.208 466.208 489.608 467.6 489.608C468.384 489.608 469.104 489.472 469.76 489.2C470.416 488.912 470.984 488.496 471.464 487.952L472.424 489.056C471.864 489.728 471.16 490.24 470.312 490.592C469.48 490.944 468.56 491.12 467.552 491.12C466.256 491.12 465.104 490.848 464.096 490.304C463.104 489.744 462.328 488.976 461.768 488C461.208 487.024 460.928 485.92 460.928 484.688C460.928 483.456 461.192 482.352 461.72 481.376C462.264 480.4 463 479.64 463.928 479.096C464.872 478.552 465.928 478.28 467.096 478.28C468.264 478.28 469.312 478.552 470.24 479.096C471.168 479.64 471.896 480.4 472.424 481.376C472.952 482.336 473.216 483.44 473.216 484.688L473.192 485.216ZM467.096 479.744C465.88 479.744 464.856 480.136 464.024 480.92C463.208 481.688 462.744 482.696 462.632 483.944H471.584C471.472 482.696 471 481.688 470.168 480.92C469.352 480.136 468.328 479.744 467.096 479.744ZM478.317 480.848C478.717 480 479.309 479.36 480.093 478.928C480.893 478.496 481.877 478.28 483.045 478.28V479.936L482.637 479.912C481.309 479.912 480.269 480.32 479.517 481.136C478.765 481.952 478.389 483.096 478.389 484.568V491H476.685V478.376H478.317V480.848ZM497.005 485.216H486.445C486.541 486.528 487.045 487.592 487.957 488.408C488.869 489.208 490.021 489.608 491.413 489.608C492.197 489.608 492.917 489.472 493.573 489.2C494.229 488.912 494.797 488.496 495.277 487.952L496.237 489.056C495.677 489.728 494.973 490.24 494.125 490.592C493.293 490.944 492.373 491.12 491.365 491.12C490.069 491.12 488.917 490.848 487.909 490.304C486.917 489.744 486.141 488.976 485.581 488C485.021 487.024 484.741 485.92 484.741 484.688C484.741 483.456 485.005 482.352 485.533 481.376C486.077 480.4 486.813 479.64 487.741 479.096C488.685 478.552 489.741 478.28 490.909 478.28C492.077 478.28 493.125 478.552 494.053 479.096C494.981 479.64 495.709 480.4 496.237 481.376C496.765 482.336 497.029 483.44 497.029 484.688L497.005 485.216ZM490.909 479.744C489.693 479.744 488.669 480.136 487.837 480.92C487.021 481.688 486.557 482.696 486.445 483.944H495.397C495.285 482.696 494.813 481.688 493.981 480.92C493.165 480.136 492.141 479.744 490.909 479.744ZM506.778 478.376H508.482V491H506.778V478.376ZM507.642 475.616C507.29 475.616 506.994 475.496 506.754 475.256C506.514 475.016 506.394 474.728 506.394 474.392C506.394 474.072 506.514 473.792 506.754 473.552C506.994 473.312 507.29 473.192 507.642 473.192C507.994 473.192 508.29 473.312 508.53 473.552C508.77 473.776 508.89 474.048 508.89 474.368C508.89 474.72 508.77 475.016 508.53 475.256C508.29 475.496 507.994 475.616 507.642 475.616ZM516.608 491.12C515.584 491.12 514.6 490.976 513.656 490.688C512.728 490.384 512 490.008 511.472 489.56L512.24 488.216C512.768 488.632 513.432 488.976 514.232 489.248C515.032 489.504 515.864 489.632 516.728 489.632C517.88 489.632 518.728 489.456 519.272 489.104C519.832 488.736 520.112 488.224 520.112 487.568C520.112 487.104 519.96 486.744 519.656 486.488C519.352 486.216 518.968 486.016 518.504 485.888C518.04 485.744 517.424 485.608 516.656 485.48C515.632 485.288 514.808 485.096 514.184 484.904C513.56 484.696 513.024 484.352 512.576 483.872C512.144 483.392 511.928 482.728 511.928 481.88C511.928 480.824 512.368 479.96 513.248 479.288C514.128 478.616 515.352 478.28 516.92 478.28C517.736 478.28 518.552 478.392 519.368 478.616C520.184 478.824 520.856 479.104 521.384 479.456L520.64 480.824C519.6 480.104 518.36 479.744 516.92 479.744C515.832 479.744 515.008 479.936 514.448 480.32C513.904 480.704 513.632 481.208 513.632 481.832C513.632 482.312 513.784 482.696 514.088 482.984C514.408 483.272 514.8 483.488 515.264 483.632C515.728 483.76 516.368 483.896 517.184 484.04C518.192 484.232 519 484.424 519.608 484.616C520.216 484.808 520.736 485.136 521.168 485.6C521.6 486.064 521.816 486.704 521.816 487.52C521.816 488.624 521.352 489.504 520.424 490.16C519.512 490.8 518.24 491.12 516.608 491.12ZM534.775 474.2V491H533.047V475.736H529.087V474.2H534.775ZM552.848 490.232C552.528 490.52 552.128 490.744 551.648 490.904C551.184 491.048 550.696 491.12 550.184 491.12C549 491.12 548.088 490.8 547.448 490.16C546.808 489.52 546.488 488.616 546.488 487.448V479.816H544.232V478.376H546.488V475.616H548.192V478.376H552.032V479.816H548.192V487.352C548.192 488.104 548.376 488.68 548.744 489.08C549.128 489.464 549.672 489.656 550.376 489.656C550.728 489.656 551.064 489.6 551.384 489.488C551.72 489.376 552.008 489.216 552.248 489.008L552.848 490.232ZM555.95 478.376H557.654V491H555.95V478.376ZM556.814 475.616C556.462 475.616 556.166 475.496 555.926 475.256C555.686 475.016 555.566 474.728 555.566 474.392C555.566 474.072 555.686 473.792 555.926 473.552C556.166 473.312 556.462 473.192 556.814 473.192C557.166 473.192 557.462 473.312 557.702 473.552C557.942 473.776 558.062 474.048 558.062 474.368C558.062 474.72 557.942 475.016 557.702 475.256C557.462 475.496 557.166 475.616 556.814 475.616ZM578.14 478.28C579.724 478.28 580.964 478.736 581.86 479.648C582.772 480.56 583.228 481.904 583.228 483.68V491H581.524V483.848C581.524 482.536 581.204 481.536 580.564 480.848C579.94 480.16 579.052 479.816 577.9 479.816C576.588 479.816 575.556 480.224 574.804 481.04C574.052 481.84 573.676 482.952 573.676 484.376V491H571.972V483.848C571.972 482.536 571.652 481.536 571.012 480.848C570.388 480.16 569.492 479.816 568.324 479.816C567.028 479.816 565.996 480.224 565.228 481.04C564.476 481.84 564.1 482.952 564.1 484.376V491H562.396V478.376H564.028V480.68C564.476 479.912 565.1 479.32 565.9 478.904C566.7 478.488 567.62 478.28 568.66 478.28C569.716 478.28 570.628 478.504 571.396 478.952C572.18 479.4 572.764 480.064 573.148 480.944C573.612 480.112 574.276 479.464 575.14 479C576.02 478.52 577.02 478.28 578.14 478.28ZM598.888 485.216H588.328C588.424 486.528 588.928 487.592 589.84 488.408C590.752 489.208 591.904 489.608 593.296 489.608C594.08 489.608 594.8 489.472 595.456 489.2C596.112 488.912 596.68 488.496 597.16 487.952L598.12 489.056C597.56 489.728 596.856 490.24 596.008 490.592C595.176 490.944 594.256 491.12 593.248 491.12C591.952 491.12 590.8 490.848 589.792 490.304C588.8 489.744 588.024 488.976 587.464 488C586.904 487.024 586.624 485.92 586.624 484.688C586.624 483.456 586.888 482.352 587.416 481.376C587.96 480.4 588.696 479.64 589.624 479.096C590.568 478.552 591.624 478.28 592.792 478.28C593.96 478.28 595.008 478.552 595.936 479.096C596.864 479.64 597.592 480.4 598.12 481.376C598.648 482.336 598.912 483.44 598.912 484.688L598.888 485.216ZM592.792 479.744C591.576 479.744 590.552 480.136 589.72 480.92C588.904 481.688 588.44 482.696 588.328 483.944H597.28C597.168 482.696 596.696 481.688 595.864 480.92C595.048 480.136 594.024 479.744 592.792 479.744ZM615.309 490.232C614.989 490.52 614.589 490.744 614.109 490.904C613.645 491.048 613.157 491.12 612.645 491.12C611.461 491.12 610.549 490.8 609.909 490.16C609.269 489.52 608.949 488.616 608.949 487.448V479.816H606.693V478.376H608.949V475.616H610.653V478.376H614.493V479.816H610.653V487.352C610.653 488.104 610.837 488.68 611.205 489.08C611.589 489.464 612.133 489.656 612.837 489.656C613.189 489.656 613.525 489.6 613.845 489.488C614.181 489.376 614.469 489.216 614.709 489.008L615.309 490.232ZM623.126 491.12C621.91 491.12 620.814 490.848 619.838 490.304C618.862 489.744 618.094 488.976 617.534 488C616.974 487.024 616.694 485.92 616.694 484.688C616.694 483.456 616.974 482.352 617.534 481.376C618.094 480.4 618.862 479.64 619.838 479.096C620.814 478.552 621.91 478.28 623.126 478.28C624.342 478.28 625.438 478.552 626.414 479.096C627.39 479.64 628.15 480.4 628.694 481.376C629.254 482.352 629.534 483.456 629.534 484.688C629.534 485.92 629.254 487.024 628.694 488C628.15 488.976 627.39 489.744 626.414 490.304C625.438 490.848 624.342 491.12 623.126 491.12ZM623.126 489.608C624.022 489.608 624.822 489.408 625.526 489.008C626.246 488.592 626.806 488.008 627.206 487.256C627.606 486.504 627.806 485.648 627.806 484.688C627.806 483.728 627.606 482.872 627.206 482.12C626.806 481.368 626.246 480.792 625.526 480.392C624.822 479.976 624.022 479.768 623.126 479.768C622.23 479.768 621.422 479.976 620.702 480.392C619.998 480.792 619.438 481.368 619.022 482.12C618.622 482.872 618.422 483.728 618.422 484.688C618.422 485.648 618.622 486.504 619.022 487.256C619.438 488.008 619.998 488.592 620.702 489.008C621.422 489.408 622.23 489.608 623.126 489.608ZM637.693 484.664L634.717 487.4V491H633.013V473.192H634.717V485.264L642.253 478.376H644.365L638.965 483.536L644.869 491H642.781L637.693 484.664ZM657.903 485.216H647.343C647.439 486.528 647.943 487.592 648.855 488.408C649.767 489.208 650.919 489.608 652.311 489.608C653.095 489.608 653.815 489.472 654.471 489.2C655.127 488.912 655.695 488.496 656.175 487.952L657.135 489.056C656.575 489.728 655.871 490.24 655.023 490.592C654.191 490.944 653.271 491.12 652.263 491.12C650.967 491.12 649.815 490.848 648.807 490.304C647.815 489.744 647.039 488.976 646.479 488C645.919 487.024 645.639 485.92 645.639 484.688C645.639 483.456 645.903 482.352 646.431 481.376C646.975 480.4 647.711 479.64 648.639 479.096C649.583 478.552 650.639 478.28 651.807 478.28C652.975 478.28 654.023 478.552 654.951 479.096C655.879 479.64 656.607 480.4 657.135 481.376C657.663 482.336 657.927 483.44 657.927 484.688L657.903 485.216ZM651.807 479.744C650.591 479.744 649.567 480.136 648.735 480.92C647.919 481.688 647.455 482.696 647.343 483.944H656.295C656.183 482.696 655.711 481.688 654.879 480.92C654.063 480.136 653.039 479.744 651.807 479.744ZM667.828 478.28C669.412 478.28 670.668 478.744 671.596 479.672C672.54 480.584 673.012 481.92 673.012 483.68V491H671.308V483.848C671.308 482.536 670.98 481.536 670.324 480.848C669.668 480.16 668.732 479.816 667.516 479.816C666.156 479.816 665.076 480.224 664.276 481.04C663.492 481.84 663.1 482.952 663.1 484.376V491H661.396V478.376H663.028V480.704C663.492 479.936 664.132 479.344 664.948 478.928C665.78 478.496 666.74 478.28 667.828 478.28ZM694.527 478.376L688.215 492.512C687.703 493.696 687.111 494.536 686.439 495.032C685.767 495.528 684.959 495.776 684.015 495.776C683.407 495.776 682.839 495.68 682.311 495.488C681.783 495.296 681.327 495.008 680.943 494.624L681.735 493.352C682.375 493.992 683.143 494.312 684.039 494.312C684.615 494.312 685.103 494.152 685.503 493.832C685.919 493.512 686.303 492.968 686.655 492.2L687.207 490.976L681.567 478.376H683.343L688.095 489.104L692.847 478.376H694.527ZM701.735 491.12C700.519 491.12 699.423 490.848 698.447 490.304C697.471 489.744 696.703 488.976 696.143 488C695.583 487.024 695.303 485.92 695.303 484.688C695.303 483.456 695.583 482.352 696.143 481.376C696.703 480.4 697.471 479.64 698.447 479.096C699.423 478.552 700.519 478.28 701.735 478.28C702.951 478.28 704.047 478.552 705.023 479.096C705.999 479.64 706.759 480.4 707.303 481.376C707.863 482.352 708.143 483.456 708.143 484.688C708.143 485.92 707.863 487.024 707.303 488C706.759 488.976 705.999 489.744 705.023 490.304C704.047 490.848 702.951 491.12 701.735 491.12ZM701.735 489.608C702.631 489.608 703.431 489.408 704.135 489.008C704.855 488.592 705.415 488.008 705.815 487.256C706.215 486.504 706.415 485.648 706.415 484.688C706.415 483.728 706.215 482.872 705.815 482.12C705.415 481.368 704.855 480.792 704.135 480.392C703.431 479.976 702.631 479.768 701.735 479.768C700.839 479.768 700.031 479.976 699.311 480.392C698.607 480.792 698.047 481.368 697.631 482.12C697.231 482.872 697.031 483.728 697.031 484.688C697.031 485.648 697.231 486.504 697.631 487.256C698.047 488.008 698.607 488.592 699.311 489.008C700.031 489.408 700.839 489.608 701.735 489.608ZM722.998 478.376V491H721.366V488.696C720.918 489.464 720.302 490.064 719.518 490.496C718.734 490.912 717.838 491.12 716.83 491.12C715.182 491.12 713.878 490.664 712.918 489.752C711.974 488.824 711.502 487.472 711.502 485.696V478.376H713.206V485.528C713.206 486.856 713.534 487.864 714.19 488.552C714.846 489.24 715.782 489.584 716.998 489.584C718.326 489.584 719.374 489.184 720.142 488.384C720.91 487.568 721.294 486.44 721.294 485V478.376H722.998ZM739.284 491.12C738.036 491.12 736.916 490.848 735.924 490.304C734.948 489.76 734.18 489 733.62 488.024C733.06 487.032 732.78 485.92 732.78 484.688C732.78 483.456 733.06 482.352 733.62 481.376C734.18 480.4 734.948 479.64 735.924 479.096C736.916 478.552 738.036 478.28 739.284 478.28C740.372 478.28 741.34 478.496 742.188 478.928C743.052 479.344 743.732 479.96 744.228 480.776L742.956 481.64C742.54 481.016 742.012 480.552 741.372 480.248C740.732 479.928 740.036 479.768 739.284 479.768C738.372 479.768 737.548 479.976 736.812 480.392C736.092 480.792 735.524 481.368 735.108 482.12C734.708 482.872 734.508 483.728 734.508 484.688C734.508 485.664 734.708 486.528 735.108 487.28C735.524 488.016 736.092 488.592 736.812 489.008C737.548 489.408 738.372 489.608 739.284 489.608C740.036 489.608 740.732 489.456 741.372 489.152C742.012 488.848 742.54 488.384 742.956 487.76L744.228 488.624C743.732 489.44 743.052 490.064 742.188 490.496C741.324 490.912 740.356 491.12 739.284 491.12ZM751.991 478.28C753.639 478.28 754.903 478.696 755.783 479.528C756.663 480.344 757.103 481.56 757.103 483.176V491H755.471V489.032C755.087 489.688 754.519 490.2 753.767 490.568C753.031 490.936 752.151 491.12 751.127 491.12C749.719 491.12 748.599 490.784 747.767 490.112C746.935 489.44 746.519 488.552 746.519 487.448C746.519 486.376 746.903 485.512 747.671 484.856C748.455 484.2 749.695 483.872 751.391 483.872H755.399V483.104C755.399 482.016 755.095 481.192 754.487 480.632C753.879 480.056 752.991 479.768 751.823 479.768C751.023 479.768 750.255 479.904 749.519 480.176C748.783 480.432 748.151 480.792 747.623 481.256L746.855 479.984C747.495 479.44 748.263 479.024 749.159 478.736C750.055 478.432 750.999 478.28 751.991 478.28ZM751.391 489.776C752.351 489.776 753.175 489.56 753.863 489.128C754.551 488.68 755.063 488.04 755.399 487.208V485.144H751.439C749.279 485.144 748.199 485.896 748.199 487.4C748.199 488.136 748.479 488.72 749.039 489.152C749.599 489.568 750.383 489.776 751.391 489.776ZM768.163 478.28C769.747 478.28 771.003 478.744 771.931 479.672C772.875 480.584 773.347 481.92 773.347 483.68V491H771.643V483.848C771.643 482.536 771.315 481.536 770.659 480.848C770.003 480.16 769.067 479.816 767.851 479.816C766.491 479.816 765.411 480.224 764.611 481.04C763.827 481.84 763.435 482.952 763.435 484.376V491H761.731V478.376H763.363V480.704C763.827 479.936 764.467 479.344 765.283 478.928C766.115 478.496 767.075 478.28 768.163 478.28ZM795.631 478.376V491H793.999V488.696C793.551 489.464 792.935 490.064 792.151 490.496C791.367 490.912 790.471 491.12 789.463 491.12C787.815 491.12 786.511 490.664 785.551 489.752C784.607 488.824 784.135 487.472 784.135 485.696V478.376H785.839V485.528C785.839 486.856 786.167 487.864 786.823 488.552C787.479 489.24 788.415 489.584 789.631 489.584C790.959 489.584 792.007 489.184 792.775 488.384C793.543 487.568 793.927 486.44 793.927 485V478.376H795.631ZM803.787 491.12C802.763 491.12 801.779 490.976 800.835 490.688C799.907 490.384 799.179 490.008 798.651 489.56L799.419 488.216C799.947 488.632 800.611 488.976 801.411 489.248C802.211 489.504 803.043 489.632 803.907 489.632C805.059 489.632 805.907 489.456 806.451 489.104C807.011 488.736 807.291 488.224 807.291 487.568C807.291 487.104 807.139 486.744 806.835 486.488C806.531 486.216 806.147 486.016 805.683 485.888C805.219 485.744 804.603 485.608 803.835 485.48C802.811 485.288 801.987 485.096 801.363 484.904C800.739 484.696 800.203 484.352 799.755 483.872C799.323 483.392 799.107 482.728 799.107 481.88C799.107 480.824 799.547 479.96 800.427 479.288C801.307 478.616 802.531 478.28 804.099 478.28C804.915 478.28 805.731 478.392 806.547 478.616C807.363 478.824 808.035 479.104 808.563 479.456L807.819 480.824C806.779 480.104 805.539 479.744 804.099 479.744C803.011 479.744 802.187 479.936 801.627 480.32C801.083 480.704 800.811 481.208 800.811 481.832C800.811 482.312 800.963 482.696 801.267 482.984C801.587 483.272 801.979 483.488 802.443 483.632C802.907 483.76 803.547 483.896 804.363 484.04C805.371 484.232 806.179 484.424 806.787 484.616C807.395 484.808 807.915 485.136 808.347 485.6C808.779 486.064 808.995 486.704 808.995 487.52C808.995 488.624 808.531 489.504 807.603 490.16C806.691 490.8 805.419 491.12 803.787 491.12ZM823.138 485.216H812.578C812.674 486.528 813.178 487.592 814.09 488.408C815.002 489.208 816.154 489.608 817.546 489.608C818.33 489.608 819.05 489.472 819.706 489.2C820.362 488.912 820.93 488.496 821.41 487.952L822.37 489.056C821.81 489.728 821.106 490.24 820.258 490.592C819.426 490.944 818.506 491.12 817.498 491.12C816.202 491.12 815.05 490.848 814.042 490.304C813.05 489.744 812.274 488.976 811.714 488C811.154 487.024 810.874 485.92 810.874 484.688C810.874 483.456 811.138 482.352 811.666 481.376C812.21 480.4 812.946 479.64 813.874 479.096C814.818 478.552 815.874 478.28 817.042 478.28C818.21 478.28 819.258 478.552 820.186 479.096C821.114 479.64 821.842 480.4 822.37 481.376C822.898 482.336 823.162 483.44 823.162 484.688L823.138 485.216ZM817.042 479.744C815.826 479.744 814.802 480.136 813.97 480.92C813.154 481.688 812.69 482.696 812.578 483.944H821.53C821.418 482.696 820.946 481.688 820.114 480.92C819.298 480.136 818.274 479.744 817.042 479.744ZM839.559 490.232C839.239 490.52 838.839 490.744 838.359 490.904C837.895 491.048 837.407 491.12 836.895 491.12C835.711 491.12 834.799 490.8 834.159 490.16C833.519 489.52 833.199 488.616 833.199 487.448V479.816H830.943V478.376H833.199V475.616H834.903V478.376H838.743V479.816H834.903V487.352C834.903 488.104 835.087 488.68 835.455 489.08C835.839 489.464 836.383 489.656 837.087 489.656C837.439 489.656 837.775 489.6 838.095 489.488C838.431 489.376 838.719 489.216 838.959 489.008L839.559 490.232ZM847.376 491.12C846.16 491.12 845.064 490.848 844.088 490.304C843.112 489.744 842.344 488.976 841.784 488C841.224 487.024 840.944 485.92 840.944 484.688C840.944 483.456 841.224 482.352 841.784 481.376C842.344 480.4 843.112 479.64 844.088 479.096C845.064 478.552 846.16 478.28 847.376 478.28C848.592 478.28 849.688 478.552 850.664 479.096C851.64 479.64 852.4 480.4 852.944 481.376C853.504 482.352 853.784 483.456 853.784 484.688C853.784 485.92 853.504 487.024 852.944 488C852.4 488.976 851.64 489.744 850.664 490.304C849.688 490.848 848.592 491.12 847.376 491.12ZM847.376 489.608C848.272 489.608 849.072 489.408 849.776 489.008C850.496 488.592 851.056 488.008 851.456 487.256C851.856 486.504 852.056 485.648 852.056 484.688C852.056 483.728 851.856 482.872 851.456 482.12C851.056 481.368 850.496 480.792 849.776 480.392C849.072 479.976 848.272 479.768 847.376 479.768C846.48 479.768 845.672 479.976 844.952 480.392C844.248 480.792 843.688 481.368 843.272 482.12C842.872 482.872 842.672 483.728 842.672 484.688C842.672 485.648 842.872 486.504 843.272 487.256C843.688 488.008 844.248 488.592 844.952 489.008C845.672 489.408 846.48 489.608 847.376 489.608ZM863.544 473.192H865.248V491H863.544V473.192ZM880.981 485.216H870.421C870.517 486.528 871.021 487.592 871.933 488.408C872.845 489.208 873.997 489.608 875.389 489.608C876.173 489.608 876.893 489.472 877.549 489.2C878.205 488.912 878.773 488.496 879.253 487.952L880.213 489.056C879.653 489.728 878.949 490.24 878.101 490.592C877.269 490.944 876.349 491.12 875.341 491.12C874.045 491.12 872.893 490.848 871.885 490.304C870.893 489.744 870.117 488.976 869.557 488C868.997 487.024 868.717 485.92 868.717 484.688C868.717 483.456 868.981 482.352 869.509 481.376C870.053 480.4 870.789 479.64 871.717 479.096C872.661 478.552 873.717 478.28 874.885 478.28C876.053 478.28 877.101 478.552 878.029 479.096C878.957 479.64 879.685 480.4 880.213 481.376C880.741 482.336 881.005 483.44 881.005 484.688L880.981 485.216ZM874.885 479.744C873.669 479.744 872.645 480.136 871.813 480.92C870.997 481.688 870.533 482.696 870.421 483.944H879.373C879.261 482.696 878.789 481.688 877.957 480.92C877.141 480.136 876.117 479.744 874.885 479.744ZM888.538 478.28C890.186 478.28 891.45 478.696 892.33 479.528C893.21 480.344 893.65 481.56 893.65 483.176V491H892.018V489.032C891.634 489.688 891.066 490.2 890.314 490.568C889.578 490.936 888.698 491.12 887.674 491.12C886.266 491.12 885.146 490.784 884.314 490.112C883.482 489.44 883.066 488.552 883.066 487.448C883.066 486.376 883.45 485.512 884.218 484.856C885.002 484.2 886.242 483.872 887.938 483.872H891.946V483.104C891.946 482.016 891.642 481.192 891.034 480.632C890.426 480.056 889.538 479.768 888.37 479.768C887.57 479.768 886.802 479.904 886.066 480.176C885.33 480.432 884.698 480.792 884.17 481.256L883.402 479.984C884.042 479.44 884.81 479.024 885.706 478.736C886.602 478.432 887.546 478.28 888.538 478.28ZM887.938 489.776C888.898 489.776 889.722 489.56 890.41 489.128C891.098 488.68 891.61 488.04 891.946 487.208V485.144H887.986C885.826 485.144 884.746 485.896 884.746 487.4C884.746 488.136 885.026 488.72 885.586 489.152C886.146 489.568 886.93 489.776 887.938 489.776ZM899.91 480.848C900.31 480 900.902 479.36 901.686 478.928C902.486 478.496 903.47 478.28 904.638 478.28V479.936L904.23 479.912C902.902 479.912 901.862 480.32 901.11 481.136C900.358 481.952 899.982 483.096 899.982 484.568V491H898.278V478.376H899.91V480.848ZM914.156 478.28C915.74 478.28 916.996 478.744 917.924 479.672C918.868 480.584 919.34 481.92 919.34 483.68V491H917.636V483.848C917.636 482.536 917.308 481.536 916.652 480.848C915.996 480.16 915.06 479.816 913.844 479.816C912.484 479.816 911.404 480.224 910.604 481.04C909.82 481.84 909.428 482.952 909.428 484.376V491H907.724V478.376H909.356V480.704C909.82 479.936 910.46 479.344 911.276 478.928C912.108 478.496 913.068 478.28 914.156 478.28ZM934.663 478.28C936.311 478.28 937.575 478.696 938.455 479.528C939.335 480.344 939.775 481.56 939.775 483.176V491H938.143V489.032C937.759 489.688 937.191 490.2 936.439 490.568C935.703 490.936 934.823 491.12 933.799 491.12C932.391 491.12 931.271 490.784 930.439 490.112C929.607 489.44 929.191 488.552 929.191 487.448C929.191 486.376 929.575 485.512 930.343 484.856C931.127 484.2 932.367 483.872 934.063 483.872H938.071V483.104C938.071 482.016 937.767 481.192 937.159 480.632C936.551 480.056 935.663 479.768 934.495 479.768C933.695 479.768 932.927 479.904 932.191 480.176C931.455 480.432 930.823 480.792 930.295 481.256L929.527 479.984C930.167 479.44 930.935 479.024 931.831 478.736C932.727 478.432 933.671 478.28 934.663 478.28ZM934.063 489.776C935.023 489.776 935.847 489.56 936.535 489.128C937.223 488.68 937.735 488.04 938.071 487.208V485.144H934.111C931.951 485.144 930.871 485.896 930.871 487.4C930.871 488.136 931.151 488.72 931.711 489.152C932.271 489.568 933.055 489.776 934.063 489.776ZM954.069 491.12C953.045 491.12 952.061 490.976 951.117 490.688C950.189 490.384 949.461 490.008 948.933 489.56L949.701 488.216C950.229 488.632 950.893 488.976 951.693 489.248C952.493 489.504 953.325 489.632 954.189 489.632C955.341 489.632 956.189 489.456 956.733 489.104C957.293 488.736 957.573 488.224 957.573 487.568C957.573 487.104 957.421 486.744 957.117 486.488C956.813 486.216 956.429 486.016 955.965 485.888C955.501 485.744 954.885 485.608 954.117 485.48C953.093 485.288 952.269 485.096 951.645 484.904C951.021 484.696 950.485 484.352 950.037 483.872C949.605 483.392 949.389 482.728 949.389 481.88C949.389 480.824 949.829 479.96 950.709 479.288C951.589 478.616 952.813 478.28 954.381 478.28C955.197 478.28 956.013 478.392 956.829 478.616C957.645 478.824 958.317 479.104 958.845 479.456L958.101 480.824C957.061 480.104 955.821 479.744 954.381 479.744C953.293 479.744 952.469 479.936 951.909 480.32C951.365 480.704 951.093 481.208 951.093 481.832C951.093 482.312 951.245 482.696 951.549 482.984C951.869 483.272 952.261 483.488 952.725 483.632C953.189 483.76 953.829 483.896 954.645 484.04C955.653 484.232 956.461 484.424 957.069 484.616C957.677 484.808 958.197 485.136 958.629 485.6C959.061 486.064 959.277 486.704 959.277 487.52C959.277 488.624 958.813 489.504 957.885 490.16C956.973 490.8 955.701 491.12 954.069 491.12ZM967.107 484.664L964.131 487.4V491H962.427V473.192H964.131V485.264L971.667 478.376H973.779L968.379 483.536L974.283 491H972.195L967.107 484.664ZM976.653 478.376H978.357V491H976.653V478.376ZM977.517 475.616C977.165 475.616 976.869 475.496 976.629 475.256C976.389 475.016 976.269 474.728 976.269 474.392C976.269 474.072 976.389 473.792 976.629 473.552C976.869 473.312 977.165 473.192 977.517 473.192C977.869 473.192 978.165 473.312 978.405 473.552C978.645 473.776 978.765 474.048 978.765 474.368C978.765 474.72 978.645 475.016 978.405 475.256C978.165 475.496 977.869 475.616 977.517 475.616ZM983.099 473.192H984.803V491H983.099V473.192ZM989.544 473.192H991.248V491H989.544V473.192ZM996.157 491.12C995.805 491.12 995.501 490.992 995.245 490.736C995.005 490.48 994.885 490.168 994.885 489.8C994.885 489.432 995.005 489.128 995.245 488.888C995.501 488.632 995.805 488.504 996.157 488.504C996.509 488.504 996.813 488.632 997.069 488.888C997.325 489.128 997.453 489.432 997.453 489.8C997.453 490.168 997.325 490.48 997.069 490.736C996.813 490.992 996.509 491.12 996.157 491.12Z" fill="black"/>
<circle cx="720" cy="589" r="50" fill="#C4C4C4"/>
<path d="M37.572 52L37.554 42.82L33 50.47H32.172L27.618 42.874V52H25.89V39.4H27.366L32.622 48.256L37.806 39.4H39.282L39.3 52H37.572ZM51.4514 47.284C51.4514 47.416 51.4394 47.59 51.4154 47.806H43.6754C43.7834 48.646 44.1494 49.324 44.7734 49.84C45.4094 50.344 46.1954 50.596 47.1314 50.596C48.2714 50.596 49.1894 50.212 49.8854 49.444L50.8394 50.56C50.4074 51.064 49.8674 51.448 49.2194 51.712C48.5834 51.976 47.8694 52.108 47.0774 52.108C46.0694 52.108 45.1754 51.904 44.3954 51.496C43.6154 51.076 43.0094 50.494 42.5774 49.75C42.1574 49.006 41.9474 48.166 41.9474 47.23C41.9474 46.306 42.1514 45.472 42.5594 44.728C42.9794 43.984 43.5494 43.408 44.2694 43C45.0014 42.58 45.8234 42.37 46.7354 42.37C47.6474 42.37 48.4574 42.58 49.1654 43C49.8854 43.408 50.4434 43.984 50.8394 44.728C51.2474 45.472 51.4514 46.324 51.4514 47.284ZM46.7354 43.828C45.9074 43.828 45.2114 44.08 44.6474 44.584C44.0954 45.088 43.7714 45.748 43.6754 46.564H49.7954C49.6994 45.76 49.3694 45.106 48.8054 44.602C48.2534 44.086 47.5634 43.828 46.7354 43.828ZM58.9449 42.37C60.1569 42.37 61.1169 42.724 61.8249 43.432C62.5449 44.128 62.9049 45.154 62.9049 46.51V52H61.1769V46.708C61.1769 45.784 60.9549 45.088 60.5109 44.62C60.0669 44.152 59.4309 43.918 58.6029 43.918C57.6669 43.918 56.9289 44.194 56.3889 44.746C55.8489 45.286 55.5789 46.066 55.5789 47.086V52H53.8509V42.46H55.5069V43.9C55.8549 43.408 56.3229 43.03 56.9109 42.766C57.5109 42.502 58.1889 42.37 58.9449 42.37ZM71.4668 51.442C71.2148 51.658 70.9028 51.826 70.5308 51.946C70.1588 52.054 69.7748 52.108 69.3788 52.108C68.4188 52.108 67.6748 51.85 67.1468 51.334C66.6188 50.818 66.3548 50.08 66.3548 49.12V43.882H64.7348V42.46H66.3548V40.372H68.0828V42.46H70.8188V43.882H68.0828V49.048C68.0828 49.564 68.2088 49.96 68.4608 50.236C68.7248 50.512 69.0968 50.65 69.5768 50.65C70.1048 50.65 70.5548 50.5 70.9268 50.2L71.4668 51.442ZM77.03 42.37C78.35 42.37 79.358 42.694 80.054 43.342C80.762 43.99 81.116 44.956 81.116 46.24V52H79.478V50.74C79.19 51.184 78.776 51.526 78.236 51.766C77.708 51.994 77.078 52.108 76.346 52.108C75.278 52.108 74.42 51.85 73.772 51.334C73.136 50.818 72.818 50.14 72.818 49.3C72.818 48.46 73.124 47.788 73.736 47.284C74.348 46.768 75.32 46.51 76.652 46.51H79.388V46.168C79.388 45.424 79.172 44.854 78.74 44.458C78.308 44.062 77.672 43.864 76.832 43.864C76.268 43.864 75.716 43.96 75.176 44.152C74.636 44.332 74.18 44.578 73.808 44.89L73.088 43.594C73.58 43.198 74.168 42.898 74.852 42.694C75.536 42.478 76.262 42.37 77.03 42.37ZM76.634 50.776C77.294 50.776 77.864 50.632 78.344 50.344C78.824 50.044 79.172 49.624 79.388 49.084V47.752H76.724C75.26 47.752 74.528 48.244 74.528 49.228C74.528 49.708 74.714 50.086 75.086 50.362C75.458 50.638 75.974 50.776 76.634 50.776ZM84.3138 38.644H86.0418V52H84.3138V38.644ZM105.263 39.4V52H103.463V46.384H96.2271V52H94.4271V39.4H96.2271V44.818H103.463V39.4H105.263ZM117.405 47.284C117.405 47.416 117.393 47.59 117.369 47.806H109.629C109.737 48.646 110.103 49.324 110.727 49.84C111.363 50.344 112.149 50.596 113.085 50.596C114.225 50.596 115.143 50.212 115.839 49.444L116.793 50.56C116.361 51.064 115.821 51.448 115.173 51.712C114.537 51.976 113.823 52.108 113.031 52.108C112.023 52.108 111.129 51.904 110.349 51.496C109.569 51.076 108.963 50.494 108.531 49.75C108.111 49.006 107.901 48.166 107.901 47.23C107.901 46.306 108.105 45.472 108.513 44.728C108.933 43.984 109.503 43.408 110.223 43C110.955 42.58 111.777 42.37 112.689 42.37C113.601 42.37 114.411 42.58 115.119 43C115.839 43.408 116.397 43.984 116.793 44.728C117.201 45.472 117.405 46.324 117.405 47.284ZM112.689 43.828C111.861 43.828 111.165 44.08 110.601 44.584C110.049 45.088 109.725 45.748 109.629 46.564H115.749C115.653 45.76 115.323 45.106 114.759 44.602C114.207 44.086 113.517 43.828 112.689 43.828ZM123.014 42.37C124.334 42.37 125.342 42.694 126.038 43.342C126.746 43.99 127.1 44.956 127.1 46.24V52H125.462V50.74C125.174 51.184 124.76 51.526 124.22 51.766C123.692 51.994 123.062 52.108 122.33 52.108C121.262 52.108 120.404 51.85 119.756 51.334C119.12 50.818 118.802 50.14 118.802 49.3C118.802 48.46 119.108 47.788 119.72 47.284C120.332 46.768 121.304 46.51 122.636 46.51H125.372V46.168C125.372 45.424 125.156 44.854 124.724 44.458C124.292 44.062 123.656 43.864 122.816 43.864C122.252 43.864 121.7 43.96 121.16 44.152C120.62 44.332 120.164 44.578 119.792 44.89L119.072 43.594C119.564 43.198 120.152 42.898 120.836 42.694C121.52 42.478 122.246 42.37 123.014 42.37ZM122.618 50.776C123.278 50.776 123.848 50.632 124.328 50.344C124.808 50.044 125.156 49.624 125.372 49.084V47.752H122.708C121.244 47.752 120.512 48.244 120.512 49.228C120.512 49.708 120.698 50.086 121.07 50.362C121.442 50.638 121.958 50.776 122.618 50.776ZM130.298 38.644H132.026V52H130.298V38.644ZM140.918 51.442C140.666 51.658 140.354 51.826 139.982 51.946C139.61 52.054 139.226 52.108 138.83 52.108C137.87 52.108 137.126 51.85 136.598 51.334C136.07 50.818 135.806 50.08 135.806 49.12V43.882H134.186V42.46H135.806V40.372H137.534V42.46H140.27V43.882H137.534V49.048C137.534 49.564 137.66 49.96 137.912 50.236C138.176 50.512 138.548 50.65 139.028 50.65C139.556 50.65 140.006 50.5 140.378 50.2L140.918 51.442ZM148.101 42.37C149.313 42.37 150.273 42.724 150.981 43.432C151.701 44.128 152.061 45.154 152.061 46.51V52H150.333V46.708C150.333 45.784 150.111 45.088 149.667 44.62C149.223 44.152 148.587 43.918 147.759 43.918C146.823 43.918 146.085 44.194 145.545 44.746C145.005 45.286 144.735 46.066 144.735 47.086V52H143.007V38.644H144.735V43.81C145.095 43.354 145.563 43 146.139 42.748C146.727 42.496 147.381 42.37 148.101 42.37ZM168.769 52L166.051 48.13C165.715 48.154 165.451 48.166 165.259 48.166H162.145V52H160.345V39.4H165.259C166.891 39.4 168.175 39.79 169.111 40.57C170.047 41.35 170.515 42.424 170.515 43.792C170.515 44.764 170.275 45.592 169.795 46.276C169.315 46.96 168.631 47.458 167.743 47.77L170.731 52H168.769ZM165.205 46.636C166.345 46.636 167.215 46.39 167.815 45.898C168.415 45.406 168.715 44.704 168.715 43.792C168.715 42.88 168.415 42.184 167.815 41.704C167.215 41.212 166.345 40.966 165.205 40.966H162.145V46.636H165.205ZM181.793 47.284C181.793 47.416 181.781 47.59 181.757 47.806H174.017C174.125 48.646 174.491 49.324 175.115 49.84C175.751 50.344 176.537 50.596 177.473 50.596C178.613 50.596 179.531 50.212 180.227 49.444L181.181 50.56C180.749 51.064 180.209 51.448 179.561 51.712C178.925 51.976 178.211 52.108 177.419 52.108C176.411 52.108 175.517 51.904 174.737 51.496C173.957 51.076 173.351 50.494 172.919 49.75C172.499 49.006 172.289 48.166 172.289 47.23C172.289 46.306 172.493 45.472 172.901 44.728C173.321 43.984 173.891 43.408 174.611 43C175.343 42.58 176.165 42.37 177.077 42.37C177.989 42.37 178.799 42.58 179.507 43C180.227 43.408 180.785 43.984 181.181 44.728C181.589 45.472 181.793 46.324 181.793 47.284ZM177.077 43.828C176.249 43.828 175.553 44.08 174.989 44.584C174.437 45.088 174.113 45.748 174.017 46.564H180.137C180.041 45.76 179.711 45.106 179.147 44.602C178.595 44.086 177.905 43.828 177.077 43.828ZM186.929 52.108C186.149 52.108 185.399 52.006 184.679 51.802C183.959 51.586 183.395 51.316 182.987 50.992L183.707 49.624C184.127 49.924 184.637 50.164 185.237 50.344C185.837 50.524 186.443 50.614 187.055 50.614C188.567 50.614 189.323 50.182 189.323 49.318C189.323 49.03 189.221 48.802 189.017 48.634C188.813 48.466 188.555 48.346 188.243 48.274C187.943 48.19 187.511 48.1 186.947 48.004C186.179 47.884 185.549 47.746 185.057 47.59C184.577 47.434 184.163 47.17 183.815 46.798C183.467 46.426 183.293 45.904 183.293 45.232C183.293 44.368 183.653 43.678 184.373 43.162C185.093 42.634 186.059 42.37 187.271 42.37C187.907 42.37 188.543 42.448 189.179 42.604C189.815 42.76 190.337 42.97 190.745 43.234L190.007 44.602C189.227 44.098 188.309 43.846 187.253 43.846C186.521 43.846 185.963 43.966 185.579 44.206C185.195 44.446 185.003 44.764 185.003 45.16C185.003 45.472 185.111 45.718 185.327 45.898C185.543 46.078 185.807 46.21 186.119 46.294C186.443 46.378 186.893 46.474 187.469 46.582C188.237 46.714 188.855 46.858 189.323 47.014C189.803 47.158 190.211 47.41 190.547 47.77C190.883 48.13 191.051 48.634 191.051 49.282C191.051 50.146 190.679 50.836 189.935 51.352C189.203 51.856 188.201 52.108 186.929 52.108ZM197.296 52.108C196.348 52.108 195.496 51.898 194.74 51.478C193.984 51.058 193.39 50.482 192.958 49.75C192.538 49.006 192.328 48.166 192.328 47.23C192.328 46.294 192.538 45.46 192.958 44.728C193.39 43.984 193.984 43.408 194.74 43C195.496 42.58 196.348 42.37 197.296 42.37C198.244 42.37 199.09 42.58 199.834 43C200.59 43.408 201.178 43.984 201.598 44.728C202.03 45.46 202.246 46.294 202.246 47.23C202.246 48.166 202.03 49.006 201.598 49.75C201.178 50.482 200.59 51.058 199.834 51.478C199.09 51.898 198.244 52.108 197.296 52.108ZM197.296 50.596C197.908 50.596 198.454 50.458 198.934 50.182C199.426 49.894 199.81 49.498 200.086 48.994C200.362 48.478 200.5 47.89 200.5 47.23C200.5 46.57 200.362 45.988 200.086 45.484C199.81 44.968 199.426 44.572 198.934 44.296C198.454 44.02 197.908 43.882 197.296 43.882C196.684 43.882 196.132 44.02 195.64 44.296C195.16 44.572 194.776 44.968 194.488 45.484C194.212 45.988 194.074 46.57 194.074 47.23C194.074 47.89 194.212 48.478 194.488 48.994C194.776 49.498 195.16 49.894 195.64 50.182C196.132 50.458 196.684 50.596 197.296 50.596ZM213.528 42.46V52H211.89V50.56C211.542 51.052 211.08 51.436 210.504 51.712C209.94 51.976 209.322 52.108 208.65 52.108C207.378 52.108 206.376 51.76 205.644 51.064C204.912 50.356 204.546 49.318 204.546 47.95V42.46H206.274V47.752C206.274 48.676 206.496 49.378 206.94 49.858C207.384 50.326 208.02 50.56 208.848 50.56C209.76 50.56 210.48 50.284 211.008 49.732C211.536 49.18 211.8 48.4 211.8 47.392V42.46H213.528ZM218.474 44.062C218.774 43.51 219.218 43.09 219.806 42.802C220.394 42.514 221.108 42.37 221.948 42.37V44.044C221.852 44.032 221.72 44.026 221.552 44.026C220.616 44.026 219.878 44.308 219.338 44.872C218.81 45.424 218.546 46.216 218.546 47.248V52H216.818V42.46H218.474V44.062ZM228.148 52.108C227.176 52.108 226.306 51.898 225.538 51.478C224.782 51.058 224.188 50.482 223.756 49.75C223.324 49.006 223.108 48.166 223.108 47.23C223.108 46.294 223.324 45.46 223.756 44.728C224.188 43.984 224.782 43.408 225.538 43C226.306 42.58 227.176 42.37 228.148 42.37C229.012 42.37 229.78 42.544 230.452 42.892C231.136 43.24 231.664 43.744 232.036 44.404L230.722 45.25C230.422 44.794 230.05 44.452 229.606 44.224C229.162 43.996 228.67 43.882 228.13 43.882C227.506 43.882 226.942 44.02 226.438 44.296C225.946 44.572 225.556 44.968 225.268 45.484C224.992 45.988 224.854 46.57 224.854 47.23C224.854 47.902 224.992 48.496 225.268 49.012C225.556 49.516 225.946 49.906 226.438 50.182C226.942 50.458 227.506 50.596 228.13 50.596C228.67 50.596 229.162 50.482 229.606 50.254C230.05 50.026 230.422 49.684 230.722 49.228L232.036 50.056C231.664 50.716 231.136 51.226 230.452 51.586C229.78 51.934 229.012 52.108 228.148 52.108ZM242.754 47.284C242.754 47.416 242.742 47.59 242.718 47.806H234.978C235.086 48.646 235.452 49.324 236.076 49.84C236.712 50.344 237.498 50.596 238.434 50.596C239.574 50.596 240.492 50.212 241.188 49.444L242.142 50.56C241.71 51.064 241.17 51.448 240.522 51.712C239.886 51.976 239.172 52.108 238.38 52.108C237.372 52.108 236.478 51.904 235.698 51.496C234.918 51.076 234.312 50.494 233.88 49.75C233.46 49.006 233.25 48.166 233.25 47.23C233.25 46.306 233.454 45.472 233.862 44.728C234.282 43.984 234.852 43.408 235.572 43C236.304 42.58 237.126 42.37 238.038 42.37C238.95 42.37 239.76 42.58 240.468 43C241.188 43.408 241.746 43.984 242.142 44.728C242.55 45.472 242.754 46.324 242.754 47.284ZM238.038 43.828C237.21 43.828 236.514 44.08 235.95 44.584C235.398 45.088 235.074 45.748 234.978 46.564H241.098C241.002 45.76 240.672 45.106 240.108 44.602C239.556 44.086 238.866 43.828 238.038 43.828ZM247.89 52.108C247.11 52.108 246.36 52.006 245.64 51.802C244.92 51.586 244.356 51.316 243.948 50.992L244.668 49.624C245.088 49.924 245.598 50.164 246.198 50.344C246.798 50.524 247.404 50.614 248.016 50.614C249.528 50.614 250.284 50.182 250.284 49.318C250.284 49.03 250.182 48.802 249.978 48.634C249.774 48.466 249.516 48.346 249.204 48.274C248.904 48.19 248.472 48.1 247.908 48.004C247.14 47.884 246.51 47.746 246.018 47.59C245.538 47.434 245.124 47.17 244.776 46.798C244.428 46.426 244.254 45.904 244.254 45.232C244.254 44.368 244.614 43.678 245.334 43.162C246.054 42.634 247.02 42.37 248.232 42.37C248.868 42.37 249.504 42.448 250.14 42.604C250.776 42.76 251.298 42.97 251.706 43.234L250.968 44.602C250.188 44.098 249.27 43.846 248.214 43.846C247.482 43.846 246.924 43.966 246.54 44.206C246.156 44.446 245.964 44.764 245.964 45.16C245.964 45.472 246.072 45.718 246.288 45.898C246.504 46.078 246.768 46.21 247.08 46.294C247.404 46.378 247.854 46.474 248.43 46.582C249.198 46.714 249.816 46.858 250.284 47.014C250.764 47.158 251.172 47.41 251.508 47.77C251.844 48.13 252.012 48.634 252.012 49.282C252.012 50.146 251.64 50.836 250.896 51.352C250.164 51.856 249.162 52.108 247.89 52.108Z" fill="black"/>
</svg>
