<svg width="1440" height="1024" viewBox="0 0 1440 1024" fill="none" xmlns="http://www.w3.org/2000/svg">
<rect width="1440" height="1024" fill="white"/>
<rect width="1440" height="92" fill="#DCDCDC"/>
<path d="M1229.19 31.375H1226.38V30.8125C1226.38 30.3649 1226.2 29.9357 1225.88 29.6193C1225.56 29.3028 1225.14 29.125 1224.69 29.125H1223.56C1223.11 29.125 1222.69 29.3028 1222.37 29.6193C1222.05 29.9357 1221.88 30.3649 1221.88 30.8125V31.375H1206.12V30.8125C1206.12 30.3649 1205.95 29.9357 1205.63 29.6193C1205.31 29.3028 1204.89 29.125 1204.44 29.125H1203.31C1202.86 29.125 1202.44 29.3028 1202.12 29.6193C1201.8 29.9357 1201.62 30.3649 1201.62 30.8125V31.375H1198.81C1198.36 31.375 1197.94 31.5528 1197.62 31.8693C1197.3 32.1857 1197.12 32.6149 1197.12 33.0625V61.1875C1197.12 61.6351 1197.3 62.0643 1197.62 62.3807C1197.94 62.6972 1198.36 62.875 1198.81 62.875H1229.19C1229.64 62.875 1230.06 62.6972 1230.38 62.3807C1230.7 62.0643 1230.88 61.6351 1230.88 61.1875V33.0625C1230.88 32.6149 1230.7 32.1857 1230.38 31.8693C1230.06 31.5528 1229.64 31.375 1229.19 31.375ZM1223 30.8125C1223 30.6633 1223.06 30.5202 1223.16 30.4148C1223.27 30.3093 1223.41 30.25 1223.56 30.25H1224.69C1224.84 30.25 1224.98 30.3093 1225.09 30.4148C1225.19 30.5202 1225.25 30.6633 1225.25 30.8125V34.1875C1225.25 34.3367 1225.19 34.4798 1225.09 34.5852C1224.98 34.6907 1224.84 34.75 1224.69 34.75H1223.56C1223.41 34.75 1223.27 34.6907 1223.16 34.5852C1223.06 34.4798 1223 34.3367 1223 34.1875V30.8125ZM1202.75 30.8125C1202.75 30.6633 1202.81 30.5202 1202.91 30.4148C1203.02 30.3093 1203.16 30.25 1203.31 30.25H1204.44C1204.59 30.25 1204.73 30.3093 1204.84 30.4148C1204.94 30.5202 1205 30.6633 1205 30.8125V34.1875C1205 34.3367 1204.94 34.4798 1204.84 34.5852C1204.73 34.6907 1204.59 34.75 1204.44 34.75H1203.31C1203.16 34.75 1203.02 34.6907 1202.91 34.5852C1202.81 34.4798 1202.75 34.3367 1202.75 34.1875V30.8125ZM1198.25 33.0625C1198.25 32.9133 1198.31 32.7702 1198.41 32.6648C1198.52 32.5593 1198.66 32.5 1198.81 32.5H1201.62V34.1875C1201.62 34.6351 1201.8 35.0643 1202.12 35.3807C1202.44 35.6972 1202.86 35.875 1203.31 35.875H1204.44C1204.89 35.875 1205.31 35.6972 1205.63 35.3807C1205.95 35.0643 1206.12 34.6351 1206.12 34.1875V32.5H1221.88V34.1875C1221.88 34.6351 1222.05 35.0643 1222.37 35.3807C1222.69 35.6972 1223.11 35.875 1223.56 35.875H1224.69C1225.14 35.875 1225.56 35.6972 1225.88 35.3807C1226.2 35.0643 1226.38 34.6351 1226.38 34.1875V32.5H1229.19C1229.34 32.5 1229.48 32.5593 1229.59 32.6648C1229.69 32.7702 1229.75 32.9133 1229.75 33.0625V37H1198.25V33.0625ZM1229.75 61.1875C1229.75 61.3367 1229.69 61.4798 1229.59 61.5852C1229.48 61.6907 1229.34 61.75 1229.19 61.75H1198.81C1198.66 61.75 1198.52 61.6907 1198.41 61.5852C1198.31 61.4798 1198.25 61.3367 1198.25 61.1875V38.125H1229.75V61.1875Z" fill="#3A3A3A"/>
<path d="M1215.12 51.625H1212.88C1212.73 51.625 1212.58 51.5657 1212.48 51.4602C1212.37 51.3548 1212.31 51.2117 1212.31 51.0625V48.8125C1212.31 48.6633 1212.37 48.5202 1212.48 48.4148C1212.58 48.3093 1212.73 48.25 1212.88 48.25H1215.12C1215.27 48.25 1215.42 48.3093 1215.52 48.4148C1215.63 48.5202 1215.69 48.6633 1215.69 48.8125V51.0625C1215.69 51.2117 1215.63 51.3548 1215.52 51.4602C1215.42 51.5657 1215.27 51.625 1215.12 51.625ZM1213.44 50.5H1214.56V49.375H1213.44V50.5Z" fill="#3A3A3A"/>
<path d="M1220.75 51.625H1218.5C1218.35 51.625 1218.21 51.5657 1218.1 51.4602C1218 51.3548 1217.94 51.2117 1217.94 51.0625V48.8125C1217.94 48.6633 1218 48.5202 1218.1 48.4148C1218.21 48.3093 1218.35 48.25 1218.5 48.25H1220.75C1220.9 48.25 1221.04 48.3093 1221.15 48.4148C1221.25 48.5202 1221.31 48.6633 1221.31 48.8125V51.0625C1221.31 51.2117 1221.25 51.3548 1221.15 51.4602C1221.04 51.5657 1220.9 51.625 1220.75 51.625ZM1219.06 50.5H1220.19V49.375H1219.06V50.5Z" fill="#3A3A3A"/>
<path d="M1209.5 51.625H1207.25C1207.1 51.625 1206.96 51.5657 1206.85 51.4602C1206.75 51.3548 1206.69 51.2117 1206.69 51.0625V48.8125C1206.69 48.6633 1206.75 48.5202 1206.85 48.4148C1206.96 48.3093 1207.1 48.25 1207.25 48.25H1209.5C1209.65 48.25 1209.79 48.3093 1209.9 48.4148C1210 48.5202 1210.06 48.6633 1210.06 48.8125V51.0625C1210.06 51.2117 1210 51.3548 1209.9 51.4602C1209.79 51.5657 1209.65 51.625 1209.5 51.625ZM1207.81 50.5H1208.94V49.375H1207.81V50.5Z" fill="#3A3A3A"/>
<path d="M1226.38 51.625H1224.12C1223.98 51.625 1223.83 51.5657 1223.73 51.4602C1223.62 51.3548 1223.56 51.2117 1223.56 51.0625V48.8125C1223.56 48.6633 1223.62 48.5202 1223.73 48.4148C1223.83 48.3093 1223.98 48.25 1224.12 48.25H1226.38C1226.52 48.25 1226.67 48.3093 1226.77 48.4148C1226.88 48.5202 1226.94 48.6633 1226.94 48.8125V51.0625C1226.94 51.2117 1226.88 51.3548 1226.77 51.4602C1226.67 51.5657 1226.52 51.625 1226.38 51.625ZM1224.69 50.5H1225.81V49.375H1224.69V50.5Z" fill="#3A3A3A"/>
<path d="M1203.88 51.625H1201.62C1201.48 51.625 1201.33 51.5657 1201.23 51.4602C1201.12 51.3548 1201.06 51.2117 1201.06 51.0625V48.8125C1201.06 48.6633 1201.12 48.5202 1201.23 48.4148C1201.33 48.3093 1201.48 48.25 1201.62 48.25H1203.88C1204.02 48.25 1204.17 48.3093 1204.27 48.4148C1204.38 48.5202 1204.44 48.6633 1204.44 48.8125V51.0625C1204.44 51.2117 1204.38 51.3548 1204.27 51.4602C1204.17 51.5657 1204.02 51.625 1203.88 51.625ZM1202.19 50.5H1203.31V49.375H1202.19V50.5Z" fill="#3A3A3A"/>
<path d="M1215.12 46H1212.88C1212.73 46 1212.58 45.9407 1212.48 45.8352C1212.37 45.7298 1212.31 45.5867 1212.31 45.4375V43.1875C1212.31 43.0383 1212.37 42.8952 1212.48 42.7898C1212.58 42.6843 1212.73 42.625 1212.88 42.625H1215.12C1215.27 42.625 1215.42 42.6843 1215.52 42.7898C1215.63 42.8952 1215.69 43.0383 1215.69 43.1875V45.4375C1215.69 45.5867 1215.63 45.7298 1215.52 45.8352C1215.42 45.9407 1215.27 46 1215.12 46ZM1213.44 44.875H1214.56V43.75H1213.44V44.875Z" fill="#3A3A3A"/>
<path d="M1220.75 46H1218.5C1218.35 46 1218.21 45.9407 1218.1 45.8352C1218 45.7298 1217.94 45.5867 1217.94 45.4375V43.1875C1217.94 43.0383 1218 42.8952 1218.1 42.7898C1218.21 42.6843 1218.35 42.625 1218.5 42.625H1220.75C1220.9 42.625 1221.04 42.6843 1221.15 42.7898C1221.25 42.8952 1221.31 43.0383 1221.31 43.1875V45.4375C1221.31 45.5867 1221.25 45.7298 1221.15 45.8352C1221.04 45.9407 1220.9 46 1220.75 46ZM1219.06 44.875H1220.19V43.75H1219.06V44.875Z" fill="#3A3A3A"/>
<path d="M1209.5 46H1207.25C1207.1 46 1206.96 45.9407 1206.85 45.8352C1206.75 45.7298 1206.69 45.5867 1206.69 45.4375V43.1875C1206.69 43.0383 1206.75 42.8952 1206.85 42.7898C1206.96 42.6843 1207.1 42.625 1207.25 42.625H1209.5C1209.65 42.625 1209.79 42.6843 1209.9 42.7898C1210 42.8952 1210.06 43.0383 1210.06 43.1875V45.4375C1210.06 45.5867 1210 45.7298 1209.9 45.8352C1209.79 45.9407 1209.65 46 1209.5 46ZM1207.81 44.875H1208.94V43.75H1207.81V44.875Z" fill="#3A3A3A"/>
<path d="M1226.38 46H1224.12C1223.98 46 1223.83 45.9407 1223.73 45.8352C1223.62 45.7298 1223.56 45.5867 1223.56 45.4375V43.1875C1223.56 43.0383 1223.62 42.8952 1223.73 42.7898C1223.83 42.6843 1223.98 42.625 1224.12 42.625H1226.38C1226.52 42.625 1226.67 42.6843 1226.77 42.7898C1226.88 42.8952 1226.94 43.0383 1226.94 43.1875V45.4375C1226.94 45.5867 1226.88 45.7298 1226.77 45.8352C1226.67 45.9407 1226.52 46 1226.38 46ZM1224.69 44.875H1225.81V43.75H1224.69V44.875Z" fill="#3A3A3A"/>
<path d="M1203.88 46H1201.62C1201.48 46 1201.33 45.9407 1201.23 45.8352C1201.12 45.7298 1201.06 45.5867 1201.06 45.4375V43.1875C1201.06 43.0383 1201.12 42.8952 1201.23 42.7898C1201.33 42.6843 1201.48 42.625 1201.62 42.625H1203.88C1204.02 42.625 1204.17 42.6843 1204.27 42.7898C1204.38 42.8952 1204.44 43.0383 1204.44 43.1875V45.4375C1204.44 45.5867 1204.38 45.7298 1204.27 45.8352C1204.17 45.9407 1204.02 46 1203.88 46ZM1202.19 44.875H1203.31V43.75H1202.19V44.875Z" fill="#3A3A3A"/>
<path d="M1215.12 57.25H1212.88C1212.73 57.25 1212.58 57.1907 1212.48 57.0852C1212.37 56.9798 1212.31 56.8367 1212.31 56.6875V54.4375C1212.31 54.2883 1212.37 54.1452 1212.48 54.0398C1212.58 53.9343 1212.73 53.875 1212.88 53.875H1215.12C1215.27 53.875 1215.42 53.9343 1215.52 54.0398C1215.63 54.1452 1215.69 54.2883 1215.69 54.4375V56.6875C1215.69 56.8367 1215.63 56.9798 1215.52 57.0852C1215.42 57.1907 1215.27 57.25 1215.12 57.25ZM1213.44 56.125H1214.56V55H1213.44V56.125Z" fill="#3A3A3A"/>
<path d="M1220.75 57.25H1218.5C1218.35 57.25 1218.21 57.1907 1218.1 57.0852C1218 56.9798 1217.94 56.8367 1217.94 56.6875V54.4375C1217.94 54.2883 1218 54.1452 1218.1 54.0398C1218.21 53.9343 1218.35 53.875 1218.5 53.875H1220.75C1220.9 53.875 1221.04 53.9343 1221.15 54.0398C1221.25 54.1452 1221.31 54.2883 1221.31 54.4375V56.6875C1221.31 56.8367 1221.25 56.9798 1221.15 57.0852C1221.04 57.1907 1220.9 57.25 1220.75 57.25ZM1219.06 56.125H1220.19V55H1219.06V56.125Z" fill="#3A3A3A"/>
<path d="M1209.5 57.25H1207.25C1207.1 57.25 1206.96 57.1907 1206.85 57.0852C1206.75 56.9798 1206.69 56.8367 1206.69 56.6875V54.4375C1206.69 54.2883 1206.75 54.1452 1206.85 54.0398C1206.96 53.9343 1207.1 53.875 1207.25 53.875H1209.5C1209.65 53.875 1209.79 53.9343 1209.9 54.0398C1210 54.1452 1210.06 54.2883 1210.06 54.4375V56.6875C1210.06 56.8367 1210 56.9798 1209.9 57.0852C1209.79 57.1907 1209.65 57.25 1209.5 57.25ZM1207.81 56.125H1208.94V55H1207.81V56.125Z" fill="#3A3A3A"/>
<path d="M1226.38 57.25H1224.12C1223.98 57.25 1223.83 57.1907 1223.73 57.0852C1223.62 56.9798 1223.56 56.8367 1223.56 56.6875V54.4375C1223.56 54.2883 1223.62 54.1452 1223.73 54.0398C1223.83 53.9343 1223.98 53.875 1224.12 53.875H1226.38C1226.52 53.875 1226.67 53.9343 1226.77 54.0398C1226.88 54.1452 1226.94 54.2883 1226.94 54.4375V56.6875C1226.94 56.8367 1226.88 56.9798 1226.77 57.0852C1226.67 57.1907 1226.52 57.25 1226.38 57.25ZM1224.69 56.125H1225.81V55H1224.69V56.125Z" fill="#3A3A3A"/>
<path d="M1203.88 57.25H1201.62C1201.48 57.25 1201.33 57.1907 1201.23 57.0852C1201.12 56.9798 1201.06 56.8367 1201.06 56.6875V54.4375C1201.06 54.2883 1201.12 54.1452 1201.23 54.0398C1201.33 53.9343 1201.48 53.875 1201.62 53.875H1203.88C1204.02 53.875 1204.17 53.9343 1204.27 54.0398C1204.38 54.1452 1204.44 54.2883 1204.44 54.4375V56.6875C1204.44 56.8367 1204.38 56.9798 1204.27 57.0852C1204.17 57.1907 1204.02 57.25 1203.88 57.25ZM1202.19 56.125H1203.31V55H1202.19V56.125Z" fill="#3A3A3A"/>
<path d="M646.552 59L646.48 47.516L641.008 56.732H637.264L631.792 47.912V59H624.052V33.8H631.036L639.244 47.228L647.236 33.8H654.22L654.292 59H646.552ZM671.612 59.576C668.9 59.576 666.464 59.012 664.304 57.884C662.144 56.756 660.452 55.196 659.228 53.204C658.004 51.188 657.392 48.92 657.392 46.4C657.392 43.88 658.004 41.624 659.228 39.632C660.452 37.616 662.144 36.044 664.304 34.916C666.464 33.788 668.9 33.224 671.612 33.224C674.324 33.224 676.76 33.788 678.92 34.916C681.08 36.044 682.772 37.616 683.996 39.632C685.22 41.624 685.832 43.88 685.832 46.4C685.832 48.92 685.22 51.188 683.996 53.204C682.772 55.196 681.08 56.756 678.92 57.884C676.76 59.012 674.324 59.576 671.612 59.576ZM671.612 52.7C672.668 52.7 673.616 52.448 674.456 51.944C675.32 51.416 676.004 50.684 676.508 49.748C677.012 48.788 677.264 47.672 677.264 46.4C677.264 45.128 677.012 44.024 676.508 43.088C676.004 42.128 675.32 41.396 674.456 40.892C673.616 40.364 672.668 40.1 671.612 40.1C670.556 40.1 669.596 40.364 668.732 40.892C667.892 41.396 667.22 42.128 666.716 43.088C666.212 44.024 665.96 45.128 665.96 46.4C665.96 47.672 666.212 48.788 666.716 49.748C667.22 50.684 667.892 51.416 668.732 51.944C669.596 52.448 670.556 52.7 671.612 52.7ZM702.127 59.576C699.415 59.576 696.979 59.012 694.819 57.884C692.659 56.756 690.967 55.196 689.743 53.204C688.519 51.188 687.907 48.92 687.907 46.4C687.907 43.88 688.519 41.624 689.743 39.632C690.967 37.616 692.659 36.044 694.819 34.916C696.979 33.788 699.415 33.224 702.127 33.224C704.839 33.224 707.275 33.788 709.435 34.916C711.595 36.044 713.287 37.616 714.511 39.632C715.735 41.624 716.347 43.88 716.347 46.4C716.347 48.92 715.735 51.188 714.511 53.204C713.287 55.196 711.595 56.756 709.435 57.884C707.275 59.012 704.839 59.576 702.127 59.576ZM702.127 52.7C703.183 52.7 704.131 52.448 704.971 51.944C705.835 51.416 706.519 50.684 707.023 49.748C707.527 48.788 707.779 47.672 707.779 46.4C707.779 45.128 707.527 44.024 707.023 43.088C706.519 42.128 705.835 41.396 704.971 40.892C704.131 40.364 703.183 40.1 702.127 40.1C701.071 40.1 700.111 40.364 699.247 40.892C698.407 41.396 697.735 42.128 697.231 43.088C696.727 44.024 696.475 45.128 696.475 46.4C696.475 47.672 696.727 48.788 697.231 49.748C697.735 50.684 698.407 51.416 699.247 51.944C700.111 52.448 701.071 52.7 702.127 52.7ZM728.827 59.576C726.739 59.576 724.699 59.348 722.707 58.892C720.739 58.412 719.119 57.776 717.847 56.984L720.583 50.792C721.783 51.488 723.127 52.052 724.615 52.484C726.103 52.892 727.531 53.096 728.899 53.096C730.075 53.096 730.915 52.988 731.419 52.772C731.923 52.532 732.175 52.184 732.175 51.728C732.175 51.2 731.839 50.804 731.167 50.54C730.519 50.276 729.439 49.988 727.927 49.676C725.983 49.268 724.363 48.836 723.067 48.38C721.771 47.9 720.643 47.132 719.683 46.076C718.723 44.996 718.243 43.544 718.243 41.72C718.243 40.136 718.687 38.696 719.575 37.4C720.463 36.104 721.783 35.084 723.535 34.34C725.311 33.596 727.459 33.224 729.979 33.224C731.707 33.224 733.399 33.416 735.055 33.8C736.735 34.16 738.211 34.7 739.483 35.42L736.927 41.576C734.455 40.328 732.115 39.704 729.907 39.704C727.723 39.704 726.631 40.232 726.631 41.288C726.631 41.792 726.955 42.176 727.603 42.44C728.251 42.68 729.319 42.944 730.807 43.232C732.727 43.592 734.347 44.012 735.667 44.492C736.987 44.948 738.127 45.704 739.087 46.76C740.071 47.816 740.563 49.256 740.563 51.08C740.563 52.664 740.119 54.104 739.231 55.4C738.343 56.672 737.011 57.692 735.235 58.46C733.483 59.204 731.347 59.576 728.827 59.576ZM764.043 52.592V59H743.091V33.8H763.575V40.208H751.443V43.16H762.099V49.28H751.443V52.592H764.043Z" fill="#3A3A3A"/>
<circle cx="799" cy="45" r="18" fill="#C4C4C4"/>
<circle cx="1388" cy="46" r="28" fill="#C4C4C4"/>
<path d="M589.079 191L585.839 186.32H585.647H582.263V191H578.375V174.2H585.647C587.135 174.2 588.423 174.448 589.511 174.944C590.615 175.44 591.463 176.144 592.055 177.056C592.647 177.968 592.943 179.048 592.943 180.296C592.943 181.544 592.639 182.624 592.031 183.536C591.439 184.432 590.591 185.12 589.487 185.6L593.255 191H589.079ZM589.007 180.296C589.007 179.352 588.703 178.632 588.095 178.136C587.487 177.624 586.599 177.368 585.431 177.368H582.263V183.224H585.431C586.599 183.224 587.487 182.968 588.095 182.456C588.703 181.944 589.007 181.224 589.007 180.296ZM608.407 184.592C608.407 184.64 608.383 184.976 608.335 185.6H598.567C598.743 186.4 599.159 187.032 599.815 187.496C600.471 187.96 601.287 188.192 602.263 188.192C602.935 188.192 603.527 188.096 604.039 187.904C604.567 187.696 605.055 187.376 605.503 186.944L607.495 189.104C606.279 190.496 604.503 191.192 602.167 191.192C600.711 191.192 599.423 190.912 598.303 190.352C597.183 189.776 596.319 188.984 595.711 187.976C595.103 186.968 594.799 185.824 594.799 184.544C594.799 183.28 595.095 182.144 595.687 181.136C596.295 180.112 597.119 179.32 598.159 178.76C599.215 178.184 600.391 177.896 601.687 177.896C602.951 177.896 604.095 178.168 605.119 178.712C606.143 179.256 606.943 180.04 607.519 181.064C608.111 182.072 608.407 183.248 608.407 184.592ZM601.711 180.728C600.863 180.728 600.151 180.968 599.575 181.448C598.999 181.928 598.647 182.584 598.519 183.416H604.879C604.751 182.6 604.399 181.952 603.823 181.472C603.247 180.976 602.543 180.728 601.711 180.728ZM617.14 191.192C615.764 191.192 614.524 190.912 613.42 190.352C612.332 189.776 611.476 188.984 610.852 187.976C610.244 186.968 609.94 185.824 609.94 184.544C609.94 183.264 610.244 182.12 610.852 181.112C611.476 180.104 612.332 179.32 613.42 178.76C614.524 178.184 615.764 177.896 617.14 177.896C618.5 177.896 619.684 178.184 620.692 178.76C621.716 179.32 622.46 180.128 622.924 181.184L620.02 182.744C619.348 181.56 618.38 180.968 617.116 180.968C616.14 180.968 615.332 181.288 614.692 181.928C614.052 182.568 613.732 183.44 613.732 184.544C613.732 185.648 614.052 186.52 614.692 187.16C615.332 187.8 616.14 188.12 617.116 188.12C618.396 188.12 619.364 187.528 620.02 186.344L622.924 187.928C622.46 188.952 621.716 189.752 620.692 190.328C619.684 190.904 618.5 191.192 617.14 191.192ZM631.06 191.192C629.7 191.192 628.476 190.912 627.388 190.352C626.316 189.776 625.476 188.984 624.868 187.976C624.26 186.968 623.956 185.824 623.956 184.544C623.956 183.264 624.26 182.12 624.868 181.112C625.476 180.104 626.316 179.32 627.388 178.76C628.476 178.184 629.7 177.896 631.06 177.896C632.42 177.896 633.636 178.184 634.708 178.76C635.78 179.32 636.62 180.104 637.228 181.112C637.836 182.12 638.14 183.264 638.14 184.544C638.14 185.824 637.836 186.968 637.228 187.976C636.62 188.984 635.78 189.776 634.708 190.352C633.636 190.912 632.42 191.192 631.06 191.192ZM631.06 188.12C632.02 188.12 632.804 187.8 633.412 187.16C634.036 186.504 634.348 185.632 634.348 184.544C634.348 183.456 634.036 182.592 633.412 181.952C632.804 181.296 632.02 180.968 631.06 180.968C630.1 180.968 629.308 181.296 628.684 181.952C628.06 182.592 627.748 183.456 627.748 184.544C627.748 185.632 628.06 186.504 628.684 187.16C629.308 187.8 630.1 188.12 631.06 188.12ZM657.178 177.896C658.794 177.896 660.074 178.376 661.018 179.336C661.978 180.28 662.458 181.704 662.458 183.608V191H658.714V184.184C658.714 183.16 658.498 182.4 658.066 181.904C657.65 181.392 657.05 181.136 656.266 181.136C655.386 181.136 654.69 181.424 654.178 182C653.666 182.56 653.41 183.4 653.41 184.52V191H649.666V184.184C649.666 182.152 648.85 181.136 647.218 181.136C646.354 181.136 645.666 181.424 645.154 182C644.642 182.56 644.386 183.4 644.386 184.52V191H640.642V178.088H644.218V179.576C644.698 179.032 645.282 178.616 645.97 178.328C646.674 178.04 647.442 177.896 648.274 177.896C649.186 177.896 650.01 178.08 650.746 178.448C651.482 178.8 652.074 179.32 652.522 180.008C653.05 179.336 653.714 178.816 654.514 178.448C655.33 178.08 656.218 177.896 657.178 177.896ZM682.35 177.896C683.966 177.896 685.246 178.376 686.19 179.336C687.15 180.28 687.63 181.704 687.63 183.608V191H683.886V184.184C683.886 183.16 683.67 182.4 683.238 181.904C682.822 181.392 682.222 181.136 681.438 181.136C680.558 181.136 679.862 181.424 679.35 182C678.838 182.56 678.582 183.4 678.582 184.52V191H674.838V184.184C674.838 182.152 674.022 181.136 672.39 181.136C671.526 181.136 670.838 181.424 670.326 182C669.814 182.56 669.558 183.4 669.558 184.52V191H665.814V178.088H669.39V179.576C669.87 179.032 670.454 178.616 671.142 178.328C671.846 178.04 672.614 177.896 673.446 177.896C674.358 177.896 675.182 178.08 675.918 178.448C676.654 178.8 677.246 179.32 677.694 180.008C678.222 179.336 678.886 178.816 679.686 178.448C680.502 178.08 681.39 177.896 682.35 177.896ZM703.774 184.592C703.774 184.64 703.75 184.976 703.702 185.6H693.934C694.11 186.4 694.526 187.032 695.182 187.496C695.838 187.96 696.654 188.192 697.63 188.192C698.302 188.192 698.894 188.096 699.406 187.904C699.934 187.696 700.422 187.376 700.87 186.944L702.862 189.104C701.646 190.496 699.87 191.192 697.534 191.192C696.078 191.192 694.79 190.912 693.67 190.352C692.55 189.776 691.686 188.984 691.078 187.976C690.47 186.968 690.166 185.824 690.166 184.544C690.166 183.28 690.462 182.144 691.054 181.136C691.662 180.112 692.486 179.32 693.526 178.76C694.582 178.184 695.758 177.896 697.054 177.896C698.318 177.896 699.462 178.168 700.486 178.712C701.51 179.256 702.31 180.04 702.886 181.064C703.478 182.072 703.774 183.248 703.774 184.592ZM697.078 180.728C696.23 180.728 695.518 180.968 694.942 181.448C694.366 181.928 694.014 182.584 693.886 183.416H700.246C700.118 182.6 699.766 181.952 699.19 181.472C698.614 180.976 697.91 180.728 697.078 180.728ZM714.115 177.896C715.715 177.896 717.003 178.376 717.979 179.336C718.971 180.296 719.467 181.72 719.467 183.608V191H715.723V184.184C715.723 183.16 715.499 182.4 715.051 181.904C714.603 181.392 713.955 181.136 713.107 181.136C712.163 181.136 711.411 181.432 710.851 182.024C710.291 182.6 710.011 183.464 710.011 184.616V191H706.267V178.088H709.843V179.6C710.339 179.056 710.955 178.64 711.691 178.352C712.427 178.048 713.235 177.896 714.115 177.896ZM736.153 173.192V191H732.577V189.512C731.649 190.632 730.305 191.192 728.545 191.192C727.329 191.192 726.225 190.92 725.233 190.376C724.257 189.832 723.489 189.056 722.929 188.048C722.369 187.04 722.089 185.872 722.089 184.544C722.089 183.216 722.369 182.048 722.929 181.04C723.489 180.032 724.257 179.256 725.233 178.712C726.225 178.168 727.329 177.896 728.545 177.896C730.193 177.896 731.481 178.416 732.409 179.456V173.192H736.153ZM729.193 188.12C730.137 188.12 730.921 187.8 731.545 187.16C732.169 186.504 732.481 185.632 732.481 184.544C732.481 183.456 732.169 182.592 731.545 181.952C730.921 181.296 730.137 180.968 729.193 180.968C728.233 180.968 727.441 181.296 726.817 181.952C726.193 182.592 725.881 183.456 725.881 184.544C725.881 185.632 726.193 186.504 726.817 187.16C727.441 187.8 728.233 188.12 729.193 188.12ZM752.267 184.592C752.267 184.64 752.243 184.976 752.195 185.6H742.427C742.603 186.4 743.019 187.032 743.675 187.496C744.331 187.96 745.147 188.192 746.123 188.192C746.795 188.192 747.387 188.096 747.899 187.904C748.427 187.696 748.915 187.376 749.363 186.944L751.355 189.104C750.139 190.496 748.363 191.192 746.027 191.192C744.571 191.192 743.283 190.912 742.163 190.352C741.043 189.776 740.179 188.984 739.571 187.976C738.963 186.968 738.659 185.824 738.659 184.544C738.659 183.28 738.955 182.144 739.547 181.136C740.155 180.112 740.979 179.32 742.019 178.76C743.075 178.184 744.251 177.896 745.547 177.896C746.811 177.896 747.955 178.168 748.979 178.712C750.003 179.256 750.803 180.04 751.379 181.064C751.971 182.072 752.267 183.248 752.267 184.592ZM745.571 180.728C744.723 180.728 744.011 180.968 743.435 181.448C742.859 181.928 742.507 182.584 742.379 183.416H748.739C748.611 182.6 748.259 181.952 747.683 181.472C747.107 180.976 746.403 180.728 745.571 180.728ZM767.911 173.192V191H764.335V189.512C763.407 190.632 762.063 191.192 760.303 191.192C759.087 191.192 757.983 190.92 756.991 190.376C756.015 189.832 755.247 189.056 754.687 188.048C754.127 187.04 753.847 185.872 753.847 184.544C753.847 183.216 754.127 182.048 754.687 181.04C755.247 180.032 756.015 179.256 756.991 178.712C757.983 178.168 759.087 177.896 760.303 177.896C761.951 177.896 763.239 178.416 764.167 179.456V173.192H767.911ZM760.951 188.12C761.895 188.12 762.679 187.8 763.303 187.16C763.927 186.504 764.239 185.632 764.239 184.544C764.239 183.456 763.927 182.592 763.303 181.952C762.679 181.296 761.895 180.968 760.951 180.968C759.991 180.968 759.199 181.296 758.575 181.952C757.951 182.592 757.639 183.456 757.639 184.544C757.639 185.632 757.951 186.504 758.575 187.16C759.199 187.8 759.991 188.12 760.951 188.12ZM782.277 178.376H785.589V181.256H782.373V191H778.629V181.256H776.637V178.376H778.629V177.8C778.629 176.328 779.061 175.16 779.925 174.296C780.805 173.432 782.037 173 783.621 173C784.181 173 784.709 173.064 785.205 173.192C785.717 173.304 786.141 173.472 786.477 173.696L785.493 176.408C785.061 176.104 784.557 175.952 783.981 175.952C782.845 175.952 782.277 176.576 782.277 177.824V178.376ZM793.435 191.192C792.075 191.192 790.851 190.912 789.763 190.352C788.691 189.776 787.851 188.984 787.243 187.976C786.635 186.968 786.331 185.824 786.331 184.544C786.331 183.264 786.635 182.12 787.243 181.112C787.851 180.104 788.691 179.32 789.763 178.76C790.851 178.184 792.075 177.896 793.435 177.896C794.795 177.896 796.011 178.184 797.083 178.76C798.155 179.32 798.995 180.104 799.603 181.112C800.211 182.12 800.515 183.264 800.515 184.544C800.515 185.824 800.211 186.968 799.603 187.976C798.995 188.984 798.155 189.776 797.083 190.352C796.011 190.912 794.795 191.192 793.435 191.192ZM793.435 188.12C794.395 188.12 795.179 187.8 795.787 187.16C796.411 186.504 796.723 185.632 796.723 184.544C796.723 183.456 796.411 182.592 795.787 181.952C795.179 181.296 794.395 180.968 793.435 180.968C792.475 180.968 791.683 181.296 791.059 181.952C790.435 182.592 790.123 183.456 790.123 184.544C790.123 185.632 790.435 186.504 791.059 187.16C791.683 187.8 792.475 188.12 793.435 188.12ZM806.593 179.792C807.041 179.168 807.641 178.696 808.393 178.376C809.161 178.056 810.041 177.896 811.033 177.896V181.352C810.617 181.32 810.337 181.304 810.193 181.304C809.121 181.304 808.281 181.608 807.673 182.216C807.065 182.808 806.761 183.704 806.761 184.904V191H803.017V178.088H806.593V179.792ZM832.966 178.088L827.134 191.792C826.542 193.28 825.806 194.328 824.926 194.936C824.062 195.544 823.014 195.848 821.782 195.848C821.11 195.848 820.446 195.744 819.79 195.536C819.134 195.328 818.598 195.04 818.182 194.672L819.55 192.008C819.838 192.264 820.166 192.464 820.534 192.608C820.918 192.752 821.294 192.824 821.662 192.824C822.174 192.824 822.59 192.696 822.91 192.44C823.23 192.2 823.518 191.792 823.774 191.216L823.822 191.096L818.23 178.088H822.094L825.718 186.848L829.366 178.088H832.966ZM840.286 191.192C838.926 191.192 837.702 190.912 836.614 190.352C835.542 189.776 834.702 188.984 834.094 187.976C833.486 186.968 833.182 185.824 833.182 184.544C833.182 183.264 833.486 182.12 834.094 181.112C834.702 180.104 835.542 179.32 836.614 178.76C837.702 178.184 838.926 177.896 840.286 177.896C841.646 177.896 842.862 178.184 843.934 178.76C845.006 179.32 845.846 180.104 846.454 181.112C847.062 182.12 847.366 183.264 847.366 184.544C847.366 185.824 847.062 186.968 846.454 187.976C845.846 188.984 845.006 189.776 843.934 190.352C842.862 190.912 841.646 191.192 840.286 191.192ZM840.286 188.12C841.246 188.12 842.03 187.8 842.638 187.16C843.262 186.504 843.574 185.632 843.574 184.544C843.574 183.456 843.262 182.592 842.638 181.952C842.03 181.296 841.246 180.968 840.286 180.968C839.326 180.968 838.534 181.296 837.91 181.952C837.286 182.592 836.974 183.456 836.974 184.544C836.974 185.632 837.286 186.504 837.91 187.16C838.534 187.8 839.326 188.12 840.286 188.12ZM862.877 178.088V191H859.325V189.464C858.829 190.024 858.237 190.456 857.549 190.76C856.861 191.048 856.117 191.192 855.317 191.192C853.621 191.192 852.277 190.704 851.285 189.728C850.293 188.752 849.797 187.304 849.797 185.384V178.088H853.541V184.832C853.541 186.912 854.413 187.952 856.157 187.952C857.053 187.952 857.773 187.664 858.317 187.088C858.861 186.496 859.133 185.624 859.133 184.472V178.088H862.877Z" fill="#3A3A3A"/>
<rect x="128" y="261" width="200" height="200" rx="20" fill="#C4C4C4"/>
<rect x="128" y="523" width="200" height="200" rx="20" fill="#C4C4C4"/>
<rect x="128" y="785" width="200" height="200" rx="20" fill="#C4C4C4"/>
<rect x="374" y="261" width="200" height="200" rx="20" fill="#C4C4C4"/>
<rect x="374" y="523" width="200" height="200" rx="20" fill="#C4C4C4"/>
<rect x="374" y="785" width="200" height="200" rx="20" fill="#C4C4C4"/>
<rect x="620" y="261" width="200" height="200" rx="20" fill="#C4C4C4"/>
<rect x="620" y="523" width="200" height="200" rx="20" fill="#C4C4C4"/>
<rect x="620" y="785" width="200" height="200" rx="20" fill="#C4C4C4"/>
<rect x="866" y="261" width="200" height="200" rx="20" fill="#C4C4C4"/>
<rect x="866" y="523" width="200" height="200" rx="20" fill="#C4C4C4"/>
<rect x="866" y="785" width="200" height="200" rx="20" fill="#C4C4C4"/>
<rect x="1112" y="261" width="200" height="200" rx="20" fill="#C4C4C4"/>
<rect x="1112" y="523" width="200" height="200" rx="20" fill="#C4C4C4"/>
<rect x="1112" y="785" width="200" height="200" rx="20" fill="#C4C4C4"/>
<rect x="1158" y="168" width="154" height="31" rx="10" fill="#C4C4C4"/>
<g clip-path="url(#clip0)">
<path d="M1298 184.888L1293.46 180.256C1293.13 179.915 1292.59 179.915 1292.25 180.256C1291.92 180.598 1291.92 181.152 1292.25 181.494L1297.39 186.744C1297.73 187.085 1298.27 187.085 1298.61 186.744L1303.75 181.494C1304.08 181.152 1304.08 180.598 1303.75 180.256C1303.41 179.915 1302.87 179.915 1302.54 180.256L1298 184.888Z" fill="#3A3A3A"/>
</g>
<path d="M1268.73 39.4V52H1266.93V46.384H1259.69V52H1257.89V39.4H1259.69V44.818H1266.93V39.4H1268.73ZM1272.25 42.46H1273.97V52H1272.25V42.46ZM1273.11 40.624C1272.77 40.624 1272.49 40.516 1272.26 40.3C1272.05 40.084 1271.94 39.82 1271.94 39.508C1271.94 39.196 1272.05 38.932 1272.26 38.716C1272.49 38.488 1272.77 38.374 1273.11 38.374C1273.45 38.374 1273.72 38.482 1273.94 38.698C1274.17 38.902 1274.28 39.16 1274.28 39.472C1274.28 39.796 1274.17 40.072 1273.94 40.3C1273.72 40.516 1273.45 40.624 1273.11 40.624ZM1277.7 49.642C1278.04 49.642 1278.32 49.762 1278.53 50.002C1278.76 50.23 1278.87 50.518 1278.87 50.866C1278.87 51.046 1278.85 51.22 1278.8 51.388C1278.77 51.556 1278.69 51.814 1278.57 52.162L1277.72 54.664H1276.59L1277.25 51.982C1277.03 51.898 1276.84 51.76 1276.7 51.568C1276.56 51.364 1276.5 51.13 1276.5 50.866C1276.5 50.506 1276.61 50.212 1276.84 49.984C1277.07 49.756 1277.36 49.642 1277.7 49.642ZM1288.06 52.144C1287.3 52.144 1286.6 51.988 1285.95 51.676C1285.3 51.352 1284.78 50.902 1284.38 50.326L1285.43 49.102C1286.12 50.098 1287 50.596 1288.06 50.596C1288.76 50.596 1289.3 50.38 1289.66 49.948C1290.03 49.516 1290.22 48.88 1290.22 48.04V40.966H1285.66V39.4H1292V47.95C1292 49.342 1291.66 50.392 1290.99 51.1C1290.33 51.796 1289.35 52.144 1288.06 52.144ZM1304.04 47.284C1304.04 47.416 1304.02 47.59 1304 47.806H1296.26C1296.37 48.646 1296.73 49.324 1297.36 49.84C1297.99 50.344 1298.78 50.596 1299.72 50.596C1300.86 50.596 1301.77 50.212 1302.47 49.444L1303.42 50.56C1302.99 51.064 1302.45 51.448 1301.8 51.712C1301.17 51.976 1300.45 52.108 1299.66 52.108C1298.65 52.108 1297.76 51.904 1296.98 51.496C1296.2 51.076 1295.59 50.494 1295.16 49.75C1294.74 49.006 1294.53 48.166 1294.53 47.23C1294.53 46.306 1294.74 45.472 1295.14 44.728C1295.56 43.984 1296.13 43.408 1296.85 43C1297.59 42.58 1298.41 42.37 1299.32 42.37C1300.23 42.37 1301.04 42.58 1301.75 43C1302.47 43.408 1303.03 43.984 1303.42 44.728C1303.83 45.472 1304.04 46.324 1304.04 47.284ZM1299.32 43.828C1298.49 43.828 1297.8 44.08 1297.23 44.584C1296.68 45.088 1296.36 45.748 1296.26 46.564H1302.38C1302.28 45.76 1301.95 45.106 1301.39 44.602C1300.84 44.086 1300.15 43.828 1299.32 43.828ZM1311.53 42.37C1312.74 42.37 1313.7 42.724 1314.41 43.432C1315.13 44.128 1315.49 45.154 1315.49 46.51V52H1313.76V46.708C1313.76 45.784 1313.54 45.088 1313.09 44.62C1312.65 44.152 1312.01 43.918 1311.19 43.918C1310.25 43.918 1309.51 44.194 1308.97 44.746C1308.43 45.286 1308.16 46.066 1308.16 47.086V52H1306.43V42.46H1308.09V43.9C1308.44 43.408 1308.91 43.03 1309.49 42.766C1310.09 42.502 1310.77 42.37 1311.53 42.37ZM1323.78 42.37C1324.99 42.37 1325.95 42.724 1326.66 43.432C1327.38 44.128 1327.74 45.154 1327.74 46.51V52H1326.01V46.708C1326.01 45.784 1325.79 45.088 1325.35 44.62C1324.9 44.152 1324.27 43.918 1323.44 43.918C1322.5 43.918 1321.76 44.194 1321.22 44.746C1320.68 45.286 1320.41 46.066 1320.41 47.086V52H1318.69V42.46H1320.34V43.9C1320.69 43.408 1321.16 43.03 1321.75 42.766C1322.35 42.502 1323.02 42.37 1323.78 42.37ZM1339.21 42.46L1334.58 52.954C1334.17 53.926 1333.69 54.61 1333.14 55.006C1332.6 55.402 1331.95 55.6 1331.18 55.6C1330.71 55.6 1330.25 55.522 1329.81 55.366C1329.38 55.222 1329.02 55.006 1328.73 54.718L1329.47 53.422C1329.96 53.89 1330.53 54.124 1331.18 54.124C1331.6 54.124 1331.95 54.01 1332.22 53.782C1332.51 53.566 1332.77 53.188 1333 52.648L1333.3 51.982L1329.09 42.46H1330.89L1334.22 50.092L1337.51 42.46H1339.21ZM1340.58 39.4H1342.62L1342.28 48.022H1340.91L1340.58 39.4ZM1341.61 52.108C1341.27 52.108 1340.99 52 1340.76 51.784C1340.54 51.556 1340.42 51.28 1340.42 50.956C1340.42 50.632 1340.54 50.362 1340.76 50.146C1340.99 49.918 1341.27 49.804 1341.61 49.804C1341.95 49.804 1342.22 49.918 1342.44 50.146C1342.65 50.362 1342.76 50.632 1342.76 50.956C1342.76 51.28 1342.65 51.556 1342.42 51.784C1342.2 52 1341.93 52.108 1341.61 52.108Z" fill="black"/>
<path d="M133.634 240.216C132.638 240.216 131.672 240.084 130.736 239.82C129.812 239.544 129.068 239.19 128.504 238.758L129.494 236.562C130.034 236.958 130.676 237.276 131.42 237.516C132.164 237.756 132.908 237.876 133.652 237.876C134.48 237.876 135.092 237.756 135.488 237.516C135.884 237.264 136.082 236.934 136.082 236.526C136.082 236.226 135.962 235.98 135.722 235.788C135.494 235.584 135.194 235.422 134.822 235.302C134.462 235.182 133.97 235.05 133.346 234.906C132.386 234.678 131.6 234.45 130.988 234.222C130.376 233.994 129.848 233.628 129.404 233.124C128.972 232.62 128.756 231.948 128.756 231.108C128.756 230.376 128.954 229.716 129.35 229.128C129.746 228.528 130.34 228.054 131.132 227.706C131.936 227.358 132.914 227.184 134.066 227.184C134.87 227.184 135.656 227.28 136.424 227.472C137.192 227.664 137.864 227.94 138.44 228.3L137.54 230.514C136.376 229.854 135.212 229.524 134.048 229.524C133.232 229.524 132.626 229.656 132.23 229.92C131.846 230.184 131.654 230.532 131.654 230.964C131.654 231.396 131.876 231.72 132.32 231.936C132.776 232.14 133.466 232.344 134.39 232.548C135.35 232.776 136.136 233.004 136.748 233.232C137.36 233.46 137.882 233.82 138.314 234.312C138.758 234.804 138.98 235.47 138.98 236.31C138.98 237.03 138.776 237.69 138.368 238.29C137.972 238.878 137.372 239.346 136.568 239.694C135.764 240.042 134.786 240.216 133.634 240.216ZM144.933 236.202L143.583 237.534V240H140.775V226.644H143.583V234.204L147.687 230.316H151.035L147.003 234.42L151.395 240H147.993L144.933 236.202ZM152.587 230.316H155.395V240H152.587V230.316ZM153.991 228.966C153.475 228.966 153.055 228.816 152.731 228.516C152.407 228.216 152.245 227.844 152.245 227.4C152.245 226.956 152.407 226.584 152.731 226.284C153.055 225.984 153.475 225.834 153.991 225.834C154.507 225.834 154.927 225.978 155.251 226.266C155.575 226.554 155.737 226.914 155.737 227.346C155.737 227.814 155.575 228.204 155.251 228.516C154.927 228.816 154.507 228.966 153.991 228.966ZM158.001 226.644H160.809V240H158.001V226.644ZM163.415 226.644H166.223V240H163.415V226.644ZM178.193 227.4V240H175.277V229.74H172.757V227.4H178.193Z" fill="black"/>
<path d="M133.634 502.216C132.638 502.216 131.672 502.084 130.736 501.82C129.812 501.544 129.068 501.19 128.504 500.758L129.494 498.562C130.034 498.958 130.676 499.276 131.42 499.516C132.164 499.756 132.908 499.876 133.652 499.876C134.48 499.876 135.092 499.756 135.488 499.516C135.884 499.264 136.082 498.934 136.082 498.526C136.082 498.226 135.962 497.98 135.722 497.788C135.494 497.584 135.194 497.422 134.822 497.302C134.462 497.182 133.97 497.05 133.346 496.906C132.386 496.678 131.6 496.45 130.988 496.222C130.376 495.994 129.848 495.628 129.404 495.124C128.972 494.62 128.756 493.948 128.756 493.108C128.756 492.376 128.954 491.716 129.35 491.128C129.746 490.528 130.34 490.054 131.132 489.706C131.936 489.358 132.914 489.184 134.066 489.184C134.87 489.184 135.656 489.28 136.424 489.472C137.192 489.664 137.864 489.94 138.44 490.3L137.54 492.514C136.376 491.854 135.212 491.524 134.048 491.524C133.232 491.524 132.626 491.656 132.23 491.92C131.846 492.184 131.654 492.532 131.654 492.964C131.654 493.396 131.876 493.72 132.32 493.936C132.776 494.14 133.466 494.344 134.39 494.548C135.35 494.776 136.136 495.004 136.748 495.232C137.36 495.46 137.882 495.82 138.314 496.312C138.758 496.804 138.98 497.47 138.98 498.31C138.98 499.03 138.776 499.69 138.368 500.29C137.972 500.878 137.372 501.346 136.568 501.694C135.764 502.042 134.786 502.216 133.634 502.216ZM144.933 498.202L143.583 499.534V502H140.775V488.644H143.583V496.204L147.687 492.316H151.035L147.003 496.42L151.395 502H147.993L144.933 498.202ZM152.587 492.316H155.395V502H152.587V492.316ZM153.991 490.966C153.475 490.966 153.055 490.816 152.731 490.516C152.407 490.216 152.245 489.844 152.245 489.4C152.245 488.956 152.407 488.584 152.731 488.284C153.055 487.984 153.475 487.834 153.991 487.834C154.507 487.834 154.927 487.978 155.251 488.266C155.575 488.554 155.737 488.914 155.737 489.346C155.737 489.814 155.575 490.204 155.251 490.516C154.927 490.816 154.507 490.966 153.991 490.966ZM158.001 488.644H160.809V502H158.001V488.644ZM163.415 488.644H166.223V502H163.415V488.644ZM182.747 499.624V502H173.225V500.11L178.085 495.52C178.601 495.028 178.949 494.608 179.129 494.26C179.309 493.9 179.399 493.546 179.399 493.198C179.399 492.694 179.225 492.31 178.877 492.046C178.541 491.77 178.043 491.632 177.383 491.632C176.831 491.632 176.333 491.74 175.889 491.956C175.445 492.16 175.073 492.472 174.773 492.892L172.649 491.524C173.141 490.792 173.819 490.222 174.683 489.814C175.547 489.394 176.537 489.184 177.653 489.184C178.589 489.184 179.405 489.34 180.101 489.652C180.809 489.952 181.355 490.384 181.739 490.948C182.135 491.5 182.333 492.154 182.333 492.91C182.333 493.594 182.189 494.236 181.901 494.836C181.613 495.436 181.055 496.12 180.227 496.888L177.329 499.624H182.747Z" fill="black"/>
<path d="M133.634 764.216C132.638 764.216 131.672 764.084 130.736 763.82C129.812 763.544 129.068 763.19 128.504 762.758L129.494 760.562C130.034 760.958 130.676 761.276 131.42 761.516C132.164 761.756 132.908 761.876 133.652 761.876C134.48 761.876 135.092 761.756 135.488 761.516C135.884 761.264 136.082 760.934 136.082 760.526C136.082 760.226 135.962 759.98 135.722 759.788C135.494 759.584 135.194 759.422 134.822 759.302C134.462 759.182 133.97 759.05 133.346 758.906C132.386 758.678 131.6 758.45 130.988 758.222C130.376 757.994 129.848 757.628 129.404 757.124C128.972 756.62 128.756 755.948 128.756 755.108C128.756 754.376 128.954 753.716 129.35 753.128C129.746 752.528 130.34 752.054 131.132 751.706C131.936 751.358 132.914 751.184 134.066 751.184C134.87 751.184 135.656 751.28 136.424 751.472C137.192 751.664 137.864 751.94 138.44 752.3L137.54 754.514C136.376 753.854 135.212 753.524 134.048 753.524C133.232 753.524 132.626 753.656 132.23 753.92C131.846 754.184 131.654 754.532 131.654 754.964C131.654 755.396 131.876 755.72 132.32 755.936C132.776 756.14 133.466 756.344 134.39 756.548C135.35 756.776 136.136 757.004 136.748 757.232C137.36 757.46 137.882 757.82 138.314 758.312C138.758 758.804 138.98 759.47 138.98 760.31C138.98 761.03 138.776 761.69 138.368 762.29C137.972 762.878 137.372 763.346 136.568 763.694C135.764 764.042 134.786 764.216 133.634 764.216ZM144.933 760.202L143.583 761.534V764H140.775V750.644H143.583V758.204L147.687 754.316H151.035L147.003 758.42L151.395 764H147.993L144.933 760.202ZM152.587 754.316H155.395V764H152.587V754.316ZM153.991 752.966C153.475 752.966 153.055 752.816 152.731 752.516C152.407 752.216 152.245 751.844 152.245 751.4C152.245 750.956 152.407 750.584 152.731 750.284C153.055 749.984 153.475 749.834 153.991 749.834C154.507 749.834 154.927 749.978 155.251 750.266C155.575 750.554 155.737 750.914 155.737 751.346C155.737 751.814 155.575 752.204 155.251 752.516C154.927 752.816 154.507 752.966 153.991 752.966ZM158.001 750.644H160.809V764H158.001V750.644ZM163.415 750.644H166.223V764H163.415V750.644ZM179.219 756.53C180.323 756.71 181.169 757.124 181.757 757.772C182.345 758.408 182.639 759.2 182.639 760.148C182.639 760.88 182.447 761.558 182.063 762.182C181.679 762.794 181.091 763.286 180.299 763.658C179.519 764.03 178.559 764.216 177.419 764.216C176.531 764.216 175.655 764.102 174.791 763.874C173.939 763.634 173.213 763.298 172.613 762.866L173.747 760.634C174.227 760.994 174.779 761.276 175.403 761.48C176.039 761.672 176.687 761.768 177.347 761.768C178.079 761.768 178.655 761.63 179.075 761.354C179.495 761.066 179.705 760.664 179.705 760.148C179.705 759.116 178.919 758.6 177.347 758.6H176.015V756.674L178.607 753.74H173.243V751.4H182.063V753.29L179.219 756.53Z" fill="black"/>
<path d="M37.572 52L37.554 42.82L33 50.47H32.172L27.618 42.874V52H25.89V39.4H27.366L32.622 48.256L37.806 39.4H39.282L39.3 52H37.572ZM51.4514 47.284C51.4514 47.416 51.4394 47.59 51.4154 47.806H43.6754C43.7834 48.646 44.1494 49.324 44.7734 49.84C45.4094 50.344 46.1954 50.596 47.1314 50.596C48.2714 50.596 49.1894 50.212 49.8854 49.444L50.8394 50.56C50.4074 51.064 49.8674 51.448 49.2194 51.712C48.5834 51.976 47.8694 52.108 47.0774 52.108C46.0694 52.108 45.1754 51.904 44.3954 51.496C43.6154 51.076 43.0094 50.494 42.5774 49.75C42.1574 49.006 41.9474 48.166 41.9474 47.23C41.9474 46.306 42.1514 45.472 42.5594 44.728C42.9794 43.984 43.5494 43.408 44.2694 43C45.0014 42.58 45.8234 42.37 46.7354 42.37C47.6474 42.37 48.4574 42.58 49.1654 43C49.8854 43.408 50.4434 43.984 50.8394 44.728C51.2474 45.472 51.4514 46.324 51.4514 47.284ZM46.7354 43.828C45.9074 43.828 45.2114 44.08 44.6474 44.584C44.0954 45.088 43.7714 45.748 43.6754 46.564H49.7954C49.6994 45.76 49.3694 45.106 48.8054 44.602C48.2534 44.086 47.5634 43.828 46.7354 43.828ZM58.9449 42.37C60.1569 42.37 61.1169 42.724 61.8249 43.432C62.5449 44.128 62.9049 45.154 62.9049 46.51V52H61.1769V46.708C61.1769 45.784 60.9549 45.088 60.5109 44.62C60.0669 44.152 59.4309 43.918 58.6029 43.918C57.6669 43.918 56.9289 44.194 56.3889 44.746C55.8489 45.286 55.5789 46.066 55.5789 47.086V52H53.8509V42.46H55.5069V43.9C55.8549 43.408 56.3229 43.03 56.9109 42.766C57.5109 42.502 58.1889 42.37 58.9449 42.37ZM71.4668 51.442C71.2148 51.658 70.9028 51.826 70.5308 51.946C70.1588 52.054 69.7748 52.108 69.3788 52.108C68.4188 52.108 67.6748 51.85 67.1468 51.334C66.6188 50.818 66.3548 50.08 66.3548 49.12V43.882H64.7348V42.46H66.3548V40.372H68.0828V42.46H70.8188V43.882H68.0828V49.048C68.0828 49.564 68.2088 49.96 68.4608 50.236C68.7248 50.512 69.0968 50.65 69.5768 50.65C70.1048 50.65 70.5548 50.5 70.9268 50.2L71.4668 51.442ZM77.03 42.37C78.35 42.37 79.358 42.694 80.054 43.342C80.762 43.99 81.116 44.956 81.116 46.24V52H79.478V50.74C79.19 51.184 78.776 51.526 78.236 51.766C77.708 51.994 77.078 52.108 76.346 52.108C75.278 52.108 74.42 51.85 73.772 51.334C73.136 50.818 72.818 50.14 72.818 49.3C72.818 48.46 73.124 47.788 73.736 47.284C74.348 46.768 75.32 46.51 76.652 46.51H79.388V46.168C79.388 45.424 79.172 44.854 78.74 44.458C78.308 44.062 77.672 43.864 76.832 43.864C76.268 43.864 75.716 43.96 75.176 44.152C74.636 44.332 74.18 44.578 73.808 44.89L73.088 43.594C73.58 43.198 74.168 42.898 74.852 42.694C75.536 42.478 76.262 42.37 77.03 42.37ZM76.634 50.776C77.294 50.776 77.864 50.632 78.344 50.344C78.824 50.044 79.172 49.624 79.388 49.084V47.752H76.724C75.26 47.752 74.528 48.244 74.528 49.228C74.528 49.708 74.714 50.086 75.086 50.362C75.458 50.638 75.974 50.776 76.634 50.776ZM84.3138 38.644H86.0418V52H84.3138V38.644ZM105.263 39.4V52H103.463V46.384H96.2271V52H94.4271V39.4H96.2271V44.818H103.463V39.4H105.263ZM117.405 47.284C117.405 47.416 117.393 47.59 117.369 47.806H109.629C109.737 48.646 110.103 49.324 110.727 49.84C111.363 50.344 112.149 50.596 113.085 50.596C114.225 50.596 115.143 50.212 115.839 49.444L116.793 50.56C116.361 51.064 115.821 51.448 115.173 51.712C114.537 51.976 113.823 52.108 113.031 52.108C112.023 52.108 111.129 51.904 110.349 51.496C109.569 51.076 108.963 50.494 108.531 49.75C108.111 49.006 107.901 48.166 107.901 47.23C107.901 46.306 108.105 45.472 108.513 44.728C108.933 43.984 109.503 43.408 110.223 43C110.955 42.58 111.777 42.37 112.689 42.37C113.601 42.37 114.411 42.58 115.119 43C115.839 43.408 116.397 43.984 116.793 44.728C117.201 45.472 117.405 46.324 117.405 47.284ZM112.689 43.828C111.861 43.828 111.165 44.08 110.601 44.584C110.049 45.088 109.725 45.748 109.629 46.564H115.749C115.653 45.76 115.323 45.106 114.759 44.602C114.207 44.086 113.517 43.828 112.689 43.828ZM123.014 42.37C124.334 42.37 125.342 42.694 126.038 43.342C126.746 43.99 127.1 44.956 127.1 46.24V52H125.462V50.74C125.174 51.184 124.76 51.526 124.22 51.766C123.692 51.994 123.062 52.108 122.33 52.108C121.262 52.108 120.404 51.85 119.756 51.334C119.12 50.818 118.802 50.14 118.802 49.3C118.802 48.46 119.108 47.788 119.72 47.284C120.332 46.768 121.304 46.51 122.636 46.51H125.372V46.168C125.372 45.424 125.156 44.854 124.724 44.458C124.292 44.062 123.656 43.864 122.816 43.864C122.252 43.864 121.7 43.96 121.16 44.152C120.62 44.332 120.164 44.578 119.792 44.89L119.072 43.594C119.564 43.198 120.152 42.898 120.836 42.694C121.52 42.478 122.246 42.37 123.014 42.37ZM122.618 50.776C123.278 50.776 123.848 50.632 124.328 50.344C124.808 50.044 125.156 49.624 125.372 49.084V47.752H122.708C121.244 47.752 120.512 48.244 120.512 49.228C120.512 49.708 120.698 50.086 121.07 50.362C121.442 50.638 121.958 50.776 122.618 50.776ZM130.298 38.644H132.026V52H130.298V38.644ZM140.918 51.442C140.666 51.658 140.354 51.826 139.982 51.946C139.61 52.054 139.226 52.108 138.83 52.108C137.87 52.108 137.126 51.85 136.598 51.334C136.07 50.818 135.806 50.08 135.806 49.12V43.882H134.186V42.46H135.806V40.372H137.534V42.46H140.27V43.882H137.534V49.048C137.534 49.564 137.66 49.96 137.912 50.236C138.176 50.512 138.548 50.65 139.028 50.65C139.556 50.65 140.006 50.5 140.378 50.2L140.918 51.442ZM148.101 42.37C149.313 42.37 150.273 42.724 150.981 43.432C151.701 44.128 152.061 45.154 152.061 46.51V52H150.333V46.708C150.333 45.784 150.111 45.088 149.667 44.62C149.223 44.152 148.587 43.918 147.759 43.918C146.823 43.918 146.085 44.194 145.545 44.746C145.005 45.286 144.735 46.066 144.735 47.086V52H143.007V38.644H144.735V43.81C145.095 43.354 145.563 43 146.139 42.748C146.727 42.496 147.381 42.37 148.101 42.37ZM168.769 52L166.051 48.13C165.715 48.154 165.451 48.166 165.259 48.166H162.145V52H160.345V39.4H165.259C166.891 39.4 168.175 39.79 169.111 40.57C170.047 41.35 170.515 42.424 170.515 43.792C170.515 44.764 170.275 45.592 169.795 46.276C169.315 46.96 168.631 47.458 167.743 47.77L170.731 52H168.769ZM165.205 46.636C166.345 46.636 167.215 46.39 167.815 45.898C168.415 45.406 168.715 44.704 168.715 43.792C168.715 42.88 168.415 42.184 167.815 41.704C167.215 41.212 166.345 40.966 165.205 40.966H162.145V46.636H165.205ZM181.793 47.284C181.793 47.416 181.781 47.59 181.757 47.806H174.017C174.125 48.646 174.491 49.324 175.115 49.84C175.751 50.344 176.537 50.596 177.473 50.596C178.613 50.596 179.531 50.212 180.227 49.444L181.181 50.56C180.749 51.064 180.209 51.448 179.561 51.712C178.925 51.976 178.211 52.108 177.419 52.108C176.411 52.108 175.517 51.904 174.737 51.496C173.957 51.076 173.351 50.494 172.919 49.75C172.499 49.006 172.289 48.166 172.289 47.23C172.289 46.306 172.493 45.472 172.901 44.728C173.321 43.984 173.891 43.408 174.611 43C175.343 42.58 176.165 42.37 177.077 42.37C177.989 42.37 178.799 42.58 179.507 43C180.227 43.408 180.785 43.984 181.181 44.728C181.589 45.472 181.793 46.324 181.793 47.284ZM177.077 43.828C176.249 43.828 175.553 44.08 174.989 44.584C174.437 45.088 174.113 45.748 174.017 46.564H180.137C180.041 45.76 179.711 45.106 179.147 44.602C178.595 44.086 177.905 43.828 177.077 43.828ZM186.929 52.108C186.149 52.108 185.399 52.006 184.679 51.802C183.959 51.586 183.395 51.316 182.987 50.992L183.707 49.624C184.127 49.924 184.637 50.164 185.237 50.344C185.837 50.524 186.443 50.614 187.055 50.614C188.567 50.614 189.323 50.182 189.323 49.318C189.323 49.03 189.221 48.802 189.017 48.634C188.813 48.466 188.555 48.346 188.243 48.274C187.943 48.19 187.511 48.1 186.947 48.004C186.179 47.884 185.549 47.746 185.057 47.59C184.577 47.434 184.163 47.17 183.815 46.798C183.467 46.426 183.293 45.904 183.293 45.232C183.293 44.368 183.653 43.678 184.373 43.162C185.093 42.634 186.059 42.37 187.271 42.37C187.907 42.37 188.543 42.448 189.179 42.604C189.815 42.76 190.337 42.97 190.745 43.234L190.007 44.602C189.227 44.098 188.309 43.846 187.253 43.846C186.521 43.846 185.963 43.966 185.579 44.206C185.195 44.446 185.003 44.764 185.003 45.16C185.003 45.472 185.111 45.718 185.327 45.898C185.543 46.078 185.807 46.21 186.119 46.294C186.443 46.378 186.893 46.474 187.469 46.582C188.237 46.714 188.855 46.858 189.323 47.014C189.803 47.158 190.211 47.41 190.547 47.77C190.883 48.13 191.051 48.634 191.051 49.282C191.051 50.146 190.679 50.836 189.935 51.352C189.203 51.856 188.201 52.108 186.929 52.108ZM197.296 52.108C196.348 52.108 195.496 51.898 194.74 51.478C193.984 51.058 193.39 50.482 192.958 49.75C192.538 49.006 192.328 48.166 192.328 47.23C192.328 46.294 192.538 45.46 192.958 44.728C193.39 43.984 193.984 43.408 194.74 43C195.496 42.58 196.348 42.37 197.296 42.37C198.244 42.37 199.09 42.58 199.834 43C200.59 43.408 201.178 43.984 201.598 44.728C202.03 45.46 202.246 46.294 202.246 47.23C202.246 48.166 202.03 49.006 201.598 49.75C201.178 50.482 200.59 51.058 199.834 51.478C199.09 51.898 198.244 52.108 197.296 52.108ZM197.296 50.596C197.908 50.596 198.454 50.458 198.934 50.182C199.426 49.894 199.81 49.498 200.086 48.994C200.362 48.478 200.5 47.89 200.5 47.23C200.5 46.57 200.362 45.988 200.086 45.484C199.81 44.968 199.426 44.572 198.934 44.296C198.454 44.02 197.908 43.882 197.296 43.882C196.684 43.882 196.132 44.02 195.64 44.296C195.16 44.572 194.776 44.968 194.488 45.484C194.212 45.988 194.074 46.57 194.074 47.23C194.074 47.89 194.212 48.478 194.488 48.994C194.776 49.498 195.16 49.894 195.64 50.182C196.132 50.458 196.684 50.596 197.296 50.596ZM213.528 42.46V52H211.89V50.56C211.542 51.052 211.08 51.436 210.504 51.712C209.94 51.976 209.322 52.108 208.65 52.108C207.378 52.108 206.376 51.76 205.644 51.064C204.912 50.356 204.546 49.318 204.546 47.95V42.46H206.274V47.752C206.274 48.676 206.496 49.378 206.94 49.858C207.384 50.326 208.02 50.56 208.848 50.56C209.76 50.56 210.48 50.284 211.008 49.732C211.536 49.18 211.8 48.4 211.8 47.392V42.46H213.528ZM218.474 44.062C218.774 43.51 219.218 43.09 219.806 42.802C220.394 42.514 221.108 42.37 221.948 42.37V44.044C221.852 44.032 221.72 44.026 221.552 44.026C220.616 44.026 219.878 44.308 219.338 44.872C218.81 45.424 218.546 46.216 218.546 47.248V52H216.818V42.46H218.474V44.062ZM228.148 52.108C227.176 52.108 226.306 51.898 225.538 51.478C224.782 51.058 224.188 50.482 223.756 49.75C223.324 49.006 223.108 48.166 223.108 47.23C223.108 46.294 223.324 45.46 223.756 44.728C224.188 43.984 224.782 43.408 225.538 43C226.306 42.58 227.176 42.37 228.148 42.37C229.012 42.37 229.78 42.544 230.452 42.892C231.136 43.24 231.664 43.744 232.036 44.404L230.722 45.25C230.422 44.794 230.05 44.452 229.606 44.224C229.162 43.996 228.67 43.882 228.13 43.882C227.506 43.882 226.942 44.02 226.438 44.296C225.946 44.572 225.556 44.968 225.268 45.484C224.992 45.988 224.854 46.57 224.854 47.23C224.854 47.902 224.992 48.496 225.268 49.012C225.556 49.516 225.946 49.906 226.438 50.182C226.942 50.458 227.506 50.596 228.13 50.596C228.67 50.596 229.162 50.482 229.606 50.254C230.05 50.026 230.422 49.684 230.722 49.228L232.036 50.056C231.664 50.716 231.136 51.226 230.452 51.586C229.78 51.934 229.012 52.108 228.148 52.108ZM242.754 47.284C242.754 47.416 242.742 47.59 242.718 47.806H234.978C235.086 48.646 235.452 49.324 236.076 49.84C236.712 50.344 237.498 50.596 238.434 50.596C239.574 50.596 240.492 50.212 241.188 49.444L242.142 50.56C241.71 51.064 241.17 51.448 240.522 51.712C239.886 51.976 239.172 52.108 238.38 52.108C237.372 52.108 236.478 51.904 235.698 51.496C234.918 51.076 234.312 50.494 233.88 49.75C233.46 49.006 233.25 48.166 233.25 47.23C233.25 46.306 233.454 45.472 233.862 44.728C234.282 43.984 234.852 43.408 235.572 43C236.304 42.58 237.126 42.37 238.038 42.37C238.95 42.37 239.76 42.58 240.468 43C241.188 43.408 241.746 43.984 242.142 44.728C242.55 45.472 242.754 46.324 242.754 47.284ZM238.038 43.828C237.21 43.828 236.514 44.08 235.95 44.584C235.398 45.088 235.074 45.748 234.978 46.564H241.098C241.002 45.76 240.672 45.106 240.108 44.602C239.556 44.086 238.866 43.828 238.038 43.828ZM247.89 52.108C247.11 52.108 246.36 52.006 245.64 51.802C244.92 51.586 244.356 51.316 243.948 50.992L244.668 49.624C245.088 49.924 245.598 50.164 246.198 50.344C246.798 50.524 247.404 50.614 248.016 50.614C249.528 50.614 250.284 50.182 250.284 49.318C250.284 49.03 250.182 48.802 249.978 48.634C249.774 48.466 249.516 48.346 249.204 48.274C248.904 48.19 248.472 48.1 247.908 48.004C247.14 47.884 246.51 47.746 246.018 47.59C245.538 47.434 245.124 47.17 244.776 46.798C244.428 46.426 244.254 45.904 244.254 45.232C244.254 44.368 244.614 43.678 245.334 43.162C246.054 42.634 247.02 42.37 248.232 42.37C248.868 42.37 249.504 42.448 250.14 42.604C250.776 42.76 251.298 42.97 251.706 43.234L250.968 44.602C250.188 44.098 249.27 43.846 248.214 43.846C247.482 43.846 246.924 43.966 246.54 44.206C246.156 44.446 245.964 44.764 245.964 45.16C245.964 45.472 246.072 45.718 246.288 45.898C246.504 46.078 246.768 46.21 247.08 46.294C247.404 46.378 247.854 46.474 248.43 46.582C249.198 46.714 249.816 46.858 250.284 47.014C250.764 47.158 251.172 47.41 251.508 47.77C251.844 48.13 252.012 48.634 252.012 49.282C252.012 50.146 251.64 50.836 250.896 51.352C250.164 51.856 249.162 52.108 247.89 52.108Z" fill="black"/>
<path d="M1151.45 36.0116C1150.89 36.0116 1150.44 36.4647 1150.44 37.0237V45.1708H1145.31C1144.75 45.1708 1144.3 45.624 1144.3 46.1829V46.689C1144.3 47.2478 1144.75 47.701 1145.31 47.701H1151.96C1152.52 47.701 1152.97 47.2478 1152.97 46.689V37.0237C1152.97 36.4647 1152.52 36.0116 1151.96 36.0116H1151.45Z" fill="#3A3A3A"/>
<path d="M1155.94 59.2694L1155.94 59.2297C1155.94 59.2272 1155.94 59.2247 1155.94 59.2221V58.1783C1154.62 58.6238 1153.21 58.8657 1151.74 58.8657C1144.45 58.8657 1138.53 52.9415 1138.53 45.66C1138.53 38.3785 1144.45 32.4545 1151.74 32.4545C1158.4 32.4545 1163.92 37.4125 1164.81 43.832C1165.72 43.8448 1166.58 43.9091 1167.39 44.0187C1166.56 36.1104 1159.86 29.9243 1151.74 29.9243C1143.06 29.9243 1136 36.9833 1136 45.66C1136 54.3367 1143.06 61.3957 1151.74 61.3957C1153.33 61.3957 1154.87 61.1569 1156.32 60.7144C1156.07 60.3846 1155.94 60.0307 1155.94 59.6593L1155.94 59.2694Z" fill="#3A3A3A"/>
<path d="M1156.96 47.2575C1156.96 48.2666 1159.82 49.674 1164.48 49.674C1169.14 49.674 1172 48.2666 1172 47.2575C1172 46.2484 1169.14 44.8409 1164.48 44.8409C1159.82 44.8409 1156.96 46.2485 1156.96 47.2575ZM1164.64 46.1549L1164.71 46.2909C1165.13 46.3008 1165.55 46.3393 1165.89 46.3998C1165.99 46.4175 1166.03 46.4575 1165.99 46.4896L1165.7 46.7205C1165.66 46.7524 1165.55 46.7642 1165.45 46.7466C1165.21 46.703 1164.82 46.6778 1164.51 46.6855C1164.19 46.6936 1163.65 46.7394 1163.71 46.8593C1163.77 46.9775 1163.97 47.0171 1164.82 47.0822C1165.55 47.1376 1166.65 47.2217 1166.85 47.6367C1166.99 47.8981 1166.53 48.1104 1165.69 48.1891L1165.76 48.3321C1165.78 48.3684 1165.71 48.3998 1165.61 48.4025L1164.86 48.4213C1164.75 48.4238 1164.65 48.3965 1164.63 48.3601L1164.56 48.21C1164.04 48.1826 1163.54 48.1065 1163.16 47.9968C1163.07 47.9722 1163.05 47.9305 1163.11 47.9036L1163.57 47.7092C1163.6 47.6962 1163.64 47.6888 1163.69 47.6879C1163.75 47.6871 1163.8 47.6934 1163.84 47.705C1164.11 47.785 1164.57 47.8342 1164.96 47.8246C1165.27 47.817 1165.78 47.7743 1165.72 47.6631C1165.67 47.5626 1165.5 47.5299 1164.69 47.4683C1163.94 47.4108 1162.81 47.3241 1162.58 46.8876C1162.45 46.6387 1162.84 46.433 1163.59 46.3408L1163.51 46.1831C1163.49 46.1468 1163.56 46.1153 1163.66 46.1127L1164.42 46.0939C1164.52 46.0914 1164.62 46.1186 1164.64 46.1549Z" fill="#3A3A3A"/>
<path d="M1156.96 48.9435V50.9994V51.0013V51.4572C1157.08 52.4603 1159.91 53.8067 1164.47 53.8067C1169.13 53.8067 1171.99 52.3994 1171.99 51.3902L1172 48.9454C1170.46 50.0851 1167.4 50.6861 1164.48 50.6861C1161.55 50.686 1158.49 50.0843 1156.96 48.9435Z" fill="#3A3A3A"/>
<path d="M1156.96 57.2145V59.2683C1156.96 59.2769 1156.95 59.285 1156.95 59.2935C1156.95 59.3078 1156.95 59.3217 1156.95 59.3357L1156.95 59.6594C1156.95 60.6683 1159.81 62.0757 1164.47 62.0757C1169.13 62.0757 1171.99 60.6683 1171.99 59.6591L1172 57.2076C1170.46 58.3498 1167.4 58.9525 1164.47 58.9525C1161.55 58.9526 1158.5 58.3524 1156.96 57.2145Z" fill="#3A3A3A"/>
<path d="M1156.96 53.0806V55.1332V55.1362V55.5909C1157.08 56.594 1159.91 57.9405 1164.47 57.9405C1169.13 57.9405 1171.99 56.5331 1171.99 55.524L1172 53.0737C1170.46 54.2159 1167.4 54.8186 1164.47 54.8186C1161.55 54.8187 1158.49 54.2186 1156.96 53.0806Z" fill="#3A3A3A"/>
<circle cx="1136" cy="32" r="10" fill="#C4C4C4"/>
<path d="M1135.94 36H1137.25V27.5449H1135.95L1133.72 29.127V30.416L1135.84 28.8984H1135.94V36Z" fill="black"/>
<defs>
<clipPath id="clip0">
<rect x="1304" y="180" width="7" height="12" transform="rotate(90 1304 180)" fill="white"/>
</clipPath>
</defs>
</svg>
