<svg width="1440" height="1024" viewBox="0 0 1440 1024" fill="none" xmlns="http://www.w3.org/2000/svg">
<rect width="1440" height="1024" fill="white"/>
<rect width="1440" height="92" fill="#DCDCDC"/>
<path d="M646.552 59L646.48 47.516L641.008 56.732H637.264L631.792 47.912V59H624.052V33.8H631.036L639.244 47.228L647.236 33.8H654.22L654.292 59H646.552ZM671.612 59.576C668.9 59.576 666.464 59.012 664.304 57.884C662.144 56.756 660.452 55.196 659.228 53.204C658.004 51.188 657.392 48.92 657.392 46.4C657.392 43.88 658.004 41.624 659.228 39.632C660.452 37.616 662.144 36.044 664.304 34.916C666.464 33.788 668.9 33.224 671.612 33.224C674.324 33.224 676.76 33.788 678.92 34.916C681.08 36.044 682.772 37.616 683.996 39.632C685.22 41.624 685.832 43.88 685.832 46.4C685.832 48.92 685.22 51.188 683.996 53.204C682.772 55.196 681.08 56.756 678.92 57.884C676.76 59.012 674.324 59.576 671.612 59.576ZM671.612 52.7C672.668 52.7 673.616 52.448 674.456 51.944C675.32 51.416 676.004 50.684 676.508 49.748C677.012 48.788 677.264 47.672 677.264 46.4C677.264 45.128 677.012 44.024 676.508 43.088C676.004 42.128 675.32 41.396 674.456 40.892C673.616 40.364 672.668 40.1 671.612 40.1C670.556 40.1 669.596 40.364 668.732 40.892C667.892 41.396 667.22 42.128 666.716 43.088C666.212 44.024 665.96 45.128 665.96 46.4C665.96 47.672 666.212 48.788 666.716 49.748C667.22 50.684 667.892 51.416 668.732 51.944C669.596 52.448 670.556 52.7 671.612 52.7ZM702.127 59.576C699.415 59.576 696.979 59.012 694.819 57.884C692.659 56.756 690.967 55.196 689.743 53.204C688.519 51.188 687.907 48.92 687.907 46.4C687.907 43.88 688.519 41.624 689.743 39.632C690.967 37.616 692.659 36.044 694.819 34.916C696.979 33.788 699.415 33.224 702.127 33.224C704.839 33.224 707.275 33.788 709.435 34.916C711.595 36.044 713.287 37.616 714.511 39.632C715.735 41.624 716.347 43.88 716.347 46.4C716.347 48.92 715.735 51.188 714.511 53.204C713.287 55.196 711.595 56.756 709.435 57.884C707.275 59.012 704.839 59.576 702.127 59.576ZM702.127 52.7C703.183 52.7 704.131 52.448 704.971 51.944C705.835 51.416 706.519 50.684 707.023 49.748C707.527 48.788 707.779 47.672 707.779 46.4C707.779 45.128 707.527 44.024 707.023 43.088C706.519 42.128 705.835 41.396 704.971 40.892C704.131 40.364 703.183 40.1 702.127 40.1C701.071 40.1 700.111 40.364 699.247 40.892C698.407 41.396 697.735 42.128 697.231 43.088C696.727 44.024 696.475 45.128 696.475 46.4C696.475 47.672 696.727 48.788 697.231 49.748C697.735 50.684 698.407 51.416 699.247 51.944C700.111 52.448 701.071 52.7 702.127 52.7ZM728.827 59.576C726.739 59.576 724.699 59.348 722.707 58.892C720.739 58.412 719.119 57.776 717.847 56.984L720.583 50.792C721.783 51.488 723.127 52.052 724.615 52.484C726.103 52.892 727.531 53.096 728.899 53.096C730.075 53.096 730.915 52.988 731.419 52.772C731.923 52.532 732.175 52.184 732.175 51.728C732.175 51.2 731.839 50.804 731.167 50.54C730.519 50.276 729.439 49.988 727.927 49.676C725.983 49.268 724.363 48.836 723.067 48.38C721.771 47.9 720.643 47.132 719.683 46.076C718.723 44.996 718.243 43.544 718.243 41.72C718.243 40.136 718.687 38.696 719.575 37.4C720.463 36.104 721.783 35.084 723.535 34.34C725.311 33.596 727.459 33.224 729.979 33.224C731.707 33.224 733.399 33.416 735.055 33.8C736.735 34.16 738.211 34.7 739.483 35.42L736.927 41.576C734.455 40.328 732.115 39.704 729.907 39.704C727.723 39.704 726.631 40.232 726.631 41.288C726.631 41.792 726.955 42.176 727.603 42.44C728.251 42.68 729.319 42.944 730.807 43.232C732.727 43.592 734.347 44.012 735.667 44.492C736.987 44.948 738.127 45.704 739.087 46.76C740.071 47.816 740.563 49.256 740.563 51.08C740.563 52.664 740.119 54.104 739.231 55.4C738.343 56.672 737.011 57.692 735.235 58.46C733.483 59.204 731.347 59.576 728.827 59.576ZM764.043 52.592V59H743.091V33.8H763.575V40.208H751.443V43.16H762.099V49.28H751.443V52.592H764.043Z" fill="#3A3A3A"/>
<circle cx="799" cy="45" r="18" fill="#C4C4C4"/>
<circle cx="1388" cy="46" r="28" fill="#C4C4C4"/>
<path d="M1268.73 39.4V52H1266.93V46.384H1259.69V52H1257.89V39.4H1259.69V44.818H1266.93V39.4H1268.73ZM1272.25 42.46H1273.97V52H1272.25V42.46ZM1273.11 40.624C1272.77 40.624 1272.49 40.516 1272.26 40.3C1272.05 40.084 1271.94 39.82 1271.94 39.508C1271.94 39.196 1272.05 38.932 1272.26 38.716C1272.49 38.488 1272.77 38.374 1273.11 38.374C1273.45 38.374 1273.72 38.482 1273.94 38.698C1274.17 38.902 1274.28 39.16 1274.28 39.472C1274.28 39.796 1274.17 40.072 1273.94 40.3C1273.72 40.516 1273.45 40.624 1273.11 40.624ZM1277.7 49.642C1278.04 49.642 1278.32 49.762 1278.53 50.002C1278.76 50.23 1278.87 50.518 1278.87 50.866C1278.87 51.046 1278.85 51.22 1278.8 51.388C1278.77 51.556 1278.69 51.814 1278.57 52.162L1277.72 54.664H1276.59L1277.25 51.982C1277.03 51.898 1276.84 51.76 1276.7 51.568C1276.56 51.364 1276.5 51.13 1276.5 50.866C1276.5 50.506 1276.61 50.212 1276.84 49.984C1277.07 49.756 1277.36 49.642 1277.7 49.642ZM1288.06 52.144C1287.3 52.144 1286.6 51.988 1285.95 51.676C1285.3 51.352 1284.78 50.902 1284.38 50.326L1285.43 49.102C1286.12 50.098 1287 50.596 1288.06 50.596C1288.76 50.596 1289.3 50.38 1289.66 49.948C1290.03 49.516 1290.22 48.88 1290.22 48.04V40.966H1285.66V39.4H1292V47.95C1292 49.342 1291.66 50.392 1290.99 51.1C1290.33 51.796 1289.35 52.144 1288.06 52.144ZM1304.04 47.284C1304.04 47.416 1304.02 47.59 1304 47.806H1296.26C1296.37 48.646 1296.73 49.324 1297.36 49.84C1297.99 50.344 1298.78 50.596 1299.72 50.596C1300.86 50.596 1301.77 50.212 1302.47 49.444L1303.42 50.56C1302.99 51.064 1302.45 51.448 1301.8 51.712C1301.17 51.976 1300.45 52.108 1299.66 52.108C1298.65 52.108 1297.76 51.904 1296.98 51.496C1296.2 51.076 1295.59 50.494 1295.16 49.75C1294.74 49.006 1294.53 48.166 1294.53 47.23C1294.53 46.306 1294.74 45.472 1295.14 44.728C1295.56 43.984 1296.13 43.408 1296.85 43C1297.59 42.58 1298.41 42.37 1299.32 42.37C1300.23 42.37 1301.04 42.58 1301.75 43C1302.47 43.408 1303.03 43.984 1303.42 44.728C1303.83 45.472 1304.04 46.324 1304.04 47.284ZM1299.32 43.828C1298.49 43.828 1297.8 44.08 1297.23 44.584C1296.68 45.088 1296.36 45.748 1296.26 46.564H1302.38C1302.28 45.76 1301.95 45.106 1301.39 44.602C1300.84 44.086 1300.15 43.828 1299.32 43.828ZM1311.53 42.37C1312.74 42.37 1313.7 42.724 1314.41 43.432C1315.13 44.128 1315.49 45.154 1315.49 46.51V52H1313.76V46.708C1313.76 45.784 1313.54 45.088 1313.09 44.62C1312.65 44.152 1312.01 43.918 1311.19 43.918C1310.25 43.918 1309.51 44.194 1308.97 44.746C1308.43 45.286 1308.16 46.066 1308.16 47.086V52H1306.43V42.46H1308.09V43.9C1308.44 43.408 1308.91 43.03 1309.49 42.766C1310.09 42.502 1310.77 42.37 1311.53 42.37ZM1323.78 42.37C1324.99 42.37 1325.95 42.724 1326.66 43.432C1327.38 44.128 1327.74 45.154 1327.74 46.51V52H1326.01V46.708C1326.01 45.784 1325.79 45.088 1325.35 44.62C1324.9 44.152 1324.27 43.918 1323.44 43.918C1322.5 43.918 1321.76 44.194 1321.22 44.746C1320.68 45.286 1320.41 46.066 1320.41 47.086V52H1318.69V42.46H1320.34V43.9C1320.69 43.408 1321.16 43.03 1321.75 42.766C1322.35 42.502 1323.02 42.37 1323.78 42.37ZM1339.21 42.46L1334.58 52.954C1334.17 53.926 1333.69 54.61 1333.14 55.006C1332.6 55.402 1331.95 55.6 1331.18 55.6C1330.71 55.6 1330.25 55.522 1329.81 55.366C1329.38 55.222 1329.02 55.006 1328.73 54.718L1329.47 53.422C1329.96 53.89 1330.53 54.124 1331.18 54.124C1331.6 54.124 1331.95 54.01 1332.22 53.782C1332.51 53.566 1332.77 53.188 1333 52.648L1333.3 51.982L1329.09 42.46H1330.89L1334.22 50.092L1337.51 42.46H1339.21ZM1340.58 39.4H1342.62L1342.28 48.022H1340.91L1340.58 39.4ZM1341.61 52.108C1341.27 52.108 1340.99 52 1340.76 51.784C1340.54 51.556 1340.42 51.28 1340.42 50.956C1340.42 50.632 1340.54 50.362 1340.76 50.146C1340.99 49.918 1341.27 49.804 1341.61 49.804C1341.95 49.804 1342.22 49.918 1342.44 50.146C1342.65 50.362 1342.76 50.632 1342.76 50.956C1342.76 51.28 1342.65 51.556 1342.42 51.784C1342.2 52 1341.93 52.108 1341.61 52.108Z" fill="black"/>
<path d="M37.572 52L37.554 42.82L33 50.47H32.172L27.618 42.874V52H25.89V39.4H27.366L32.622 48.256L37.806 39.4H39.282L39.3 52H37.572ZM51.4514 47.284C51.4514 47.416 51.4394 47.59 51.4154 47.806H43.6754C43.7834 48.646 44.1494 49.324 44.7734 49.84C45.4094 50.344 46.1954 50.596 47.1314 50.596C48.2714 50.596 49.1894 50.212 49.8854 49.444L50.8394 50.56C50.4074 51.064 49.8674 51.448 49.2194 51.712C48.5834 51.976 47.8694 52.108 47.0774 52.108C46.0694 52.108 45.1754 51.904 44.3954 51.496C43.6154 51.076 43.0094 50.494 42.5774 49.75C42.1574 49.006 41.9474 48.166 41.9474 47.23C41.9474 46.306 42.1514 45.472 42.5594 44.728C42.9794 43.984 43.5494 43.408 44.2694 43C45.0014 42.58 45.8234 42.37 46.7354 42.37C47.6474 42.37 48.4574 42.58 49.1654 43C49.8854 43.408 50.4434 43.984 50.8394 44.728C51.2474 45.472 51.4514 46.324 51.4514 47.284ZM46.7354 43.828C45.9074 43.828 45.2114 44.08 44.6474 44.584C44.0954 45.088 43.7714 45.748 43.6754 46.564H49.7954C49.6994 45.76 49.3694 45.106 48.8054 44.602C48.2534 44.086 47.5634 43.828 46.7354 43.828ZM58.9449 42.37C60.1569 42.37 61.1169 42.724 61.8249 43.432C62.5449 44.128 62.9049 45.154 62.9049 46.51V52H61.1769V46.708C61.1769 45.784 60.9549 45.088 60.5109 44.62C60.0669 44.152 59.4309 43.918 58.6029 43.918C57.6669 43.918 56.9289 44.194 56.3889 44.746C55.8489 45.286 55.5789 46.066 55.5789 47.086V52H53.8509V42.46H55.5069V43.9C55.8549 43.408 56.3229 43.03 56.9109 42.766C57.5109 42.502 58.1889 42.37 58.9449 42.37ZM71.4668 51.442C71.2148 51.658 70.9028 51.826 70.5308 51.946C70.1588 52.054 69.7748 52.108 69.3788 52.108C68.4188 52.108 67.6748 51.85 67.1468 51.334C66.6188 50.818 66.3548 50.08 66.3548 49.12V43.882H64.7348V42.46H66.3548V40.372H68.0828V42.46H70.8188V43.882H68.0828V49.048C68.0828 49.564 68.2088 49.96 68.4608 50.236C68.7248 50.512 69.0968 50.65 69.5768 50.65C70.1048 50.65 70.5548 50.5 70.9268 50.2L71.4668 51.442ZM77.03 42.37C78.35 42.37 79.358 42.694 80.054 43.342C80.762 43.99 81.116 44.956 81.116 46.24V52H79.478V50.74C79.19 51.184 78.776 51.526 78.236 51.766C77.708 51.994 77.078 52.108 76.346 52.108C75.278 52.108 74.42 51.85 73.772 51.334C73.136 50.818 72.818 50.14 72.818 49.3C72.818 48.46 73.124 47.788 73.736 47.284C74.348 46.768 75.32 46.51 76.652 46.51H79.388V46.168C79.388 45.424 79.172 44.854 78.74 44.458C78.308 44.062 77.672 43.864 76.832 43.864C76.268 43.864 75.716 43.96 75.176 44.152C74.636 44.332 74.18 44.578 73.808 44.89L73.088 43.594C73.58 43.198 74.168 42.898 74.852 42.694C75.536 42.478 76.262 42.37 77.03 42.37ZM76.634 50.776C77.294 50.776 77.864 50.632 78.344 50.344C78.824 50.044 79.172 49.624 79.388 49.084V47.752H76.724C75.26 47.752 74.528 48.244 74.528 49.228C74.528 49.708 74.714 50.086 75.086 50.362C75.458 50.638 75.974 50.776 76.634 50.776ZM84.3138 38.644H86.0418V52H84.3138V38.644ZM105.263 39.4V52H103.463V46.384H96.2271V52H94.4271V39.4H96.2271V44.818H103.463V39.4H105.263ZM117.405 47.284C117.405 47.416 117.393 47.59 117.369 47.806H109.629C109.737 48.646 110.103 49.324 110.727 49.84C111.363 50.344 112.149 50.596 113.085 50.596C114.225 50.596 115.143 50.212 115.839 49.444L116.793 50.56C116.361 51.064 115.821 51.448 115.173 51.712C114.537 51.976 113.823 52.108 113.031 52.108C112.023 52.108 111.129 51.904 110.349 51.496C109.569 51.076 108.963 50.494 108.531 49.75C108.111 49.006 107.901 48.166 107.901 47.23C107.901 46.306 108.105 45.472 108.513 44.728C108.933 43.984 109.503 43.408 110.223 43C110.955 42.58 111.777 42.37 112.689 42.37C113.601 42.37 114.411 42.58 115.119 43C115.839 43.408 116.397 43.984 116.793 44.728C117.201 45.472 117.405 46.324 117.405 47.284ZM112.689 43.828C111.861 43.828 111.165 44.08 110.601 44.584C110.049 45.088 109.725 45.748 109.629 46.564H115.749C115.653 45.76 115.323 45.106 114.759 44.602C114.207 44.086 113.517 43.828 112.689 43.828ZM123.014 42.37C124.334 42.37 125.342 42.694 126.038 43.342C126.746 43.99 127.1 44.956 127.1 46.24V52H125.462V50.74C125.174 51.184 124.76 51.526 124.22 51.766C123.692 51.994 123.062 52.108 122.33 52.108C121.262 52.108 120.404 51.85 119.756 51.334C119.12 50.818 118.802 50.14 118.802 49.3C118.802 48.46 119.108 47.788 119.72 47.284C120.332 46.768 121.304 46.51 122.636 46.51H125.372V46.168C125.372 45.424 125.156 44.854 124.724 44.458C124.292 44.062 123.656 43.864 122.816 43.864C122.252 43.864 121.7 43.96 121.16 44.152C120.62 44.332 120.164 44.578 119.792 44.89L119.072 43.594C119.564 43.198 120.152 42.898 120.836 42.694C121.52 42.478 122.246 42.37 123.014 42.37ZM122.618 50.776C123.278 50.776 123.848 50.632 124.328 50.344C124.808 50.044 125.156 49.624 125.372 49.084V47.752H122.708C121.244 47.752 120.512 48.244 120.512 49.228C120.512 49.708 120.698 50.086 121.07 50.362C121.442 50.638 121.958 50.776 122.618 50.776ZM130.298 38.644H132.026V52H130.298V38.644ZM140.918 51.442C140.666 51.658 140.354 51.826 139.982 51.946C139.61 52.054 139.226 52.108 138.83 52.108C137.87 52.108 137.126 51.85 136.598 51.334C136.07 50.818 135.806 50.08 135.806 49.12V43.882H134.186V42.46H135.806V40.372H137.534V42.46H140.27V43.882H137.534V49.048C137.534 49.564 137.66 49.96 137.912 50.236C138.176 50.512 138.548 50.65 139.028 50.65C139.556 50.65 140.006 50.5 140.378 50.2L140.918 51.442ZM148.101 42.37C149.313 42.37 150.273 42.724 150.981 43.432C151.701 44.128 152.061 45.154 152.061 46.51V52H150.333V46.708C150.333 45.784 150.111 45.088 149.667 44.62C149.223 44.152 148.587 43.918 147.759 43.918C146.823 43.918 146.085 44.194 145.545 44.746C145.005 45.286 144.735 46.066 144.735 47.086V52H143.007V38.644H144.735V43.81C145.095 43.354 145.563 43 146.139 42.748C146.727 42.496 147.381 42.37 148.101 42.37ZM168.769 52L166.051 48.13C165.715 48.154 165.451 48.166 165.259 48.166H162.145V52H160.345V39.4H165.259C166.891 39.4 168.175 39.79 169.111 40.57C170.047 41.35 170.515 42.424 170.515 43.792C170.515 44.764 170.275 45.592 169.795 46.276C169.315 46.96 168.631 47.458 167.743 47.77L170.731 52H168.769ZM165.205 46.636C166.345 46.636 167.215 46.39 167.815 45.898C168.415 45.406 168.715 44.704 168.715 43.792C168.715 42.88 168.415 42.184 167.815 41.704C167.215 41.212 166.345 40.966 165.205 40.966H162.145V46.636H165.205ZM181.793 47.284C181.793 47.416 181.781 47.59 181.757 47.806H174.017C174.125 48.646 174.491 49.324 175.115 49.84C175.751 50.344 176.537 50.596 177.473 50.596C178.613 50.596 179.531 50.212 180.227 49.444L181.181 50.56C180.749 51.064 180.209 51.448 179.561 51.712C178.925 51.976 178.211 52.108 177.419 52.108C176.411 52.108 175.517 51.904 174.737 51.496C173.957 51.076 173.351 50.494 172.919 49.75C172.499 49.006 172.289 48.166 172.289 47.23C172.289 46.306 172.493 45.472 172.901 44.728C173.321 43.984 173.891 43.408 174.611 43C175.343 42.58 176.165 42.37 177.077 42.37C177.989 42.37 178.799 42.58 179.507 43C180.227 43.408 180.785 43.984 181.181 44.728C181.589 45.472 181.793 46.324 181.793 47.284ZM177.077 43.828C176.249 43.828 175.553 44.08 174.989 44.584C174.437 45.088 174.113 45.748 174.017 46.564H180.137C180.041 45.76 179.711 45.106 179.147 44.602C178.595 44.086 177.905 43.828 177.077 43.828ZM186.929 52.108C186.149 52.108 185.399 52.006 184.679 51.802C183.959 51.586 183.395 51.316 182.987 50.992L183.707 49.624C184.127 49.924 184.637 50.164 185.237 50.344C185.837 50.524 186.443 50.614 187.055 50.614C188.567 50.614 189.323 50.182 189.323 49.318C189.323 49.03 189.221 48.802 189.017 48.634C188.813 48.466 188.555 48.346 188.243 48.274C187.943 48.19 187.511 48.1 186.947 48.004C186.179 47.884 185.549 47.746 185.057 47.59C184.577 47.434 184.163 47.17 183.815 46.798C183.467 46.426 183.293 45.904 183.293 45.232C183.293 44.368 183.653 43.678 184.373 43.162C185.093 42.634 186.059 42.37 187.271 42.37C187.907 42.37 188.543 42.448 189.179 42.604C189.815 42.76 190.337 42.97 190.745 43.234L190.007 44.602C189.227 44.098 188.309 43.846 187.253 43.846C186.521 43.846 185.963 43.966 185.579 44.206C185.195 44.446 185.003 44.764 185.003 45.16C185.003 45.472 185.111 45.718 185.327 45.898C185.543 46.078 185.807 46.21 186.119 46.294C186.443 46.378 186.893 46.474 187.469 46.582C188.237 46.714 188.855 46.858 189.323 47.014C189.803 47.158 190.211 47.41 190.547 47.77C190.883 48.13 191.051 48.634 191.051 49.282C191.051 50.146 190.679 50.836 189.935 51.352C189.203 51.856 188.201 52.108 186.929 52.108ZM197.296 52.108C196.348 52.108 195.496 51.898 194.74 51.478C193.984 51.058 193.39 50.482 192.958 49.75C192.538 49.006 192.328 48.166 192.328 47.23C192.328 46.294 192.538 45.46 192.958 44.728C193.39 43.984 193.984 43.408 194.74 43C195.496 42.58 196.348 42.37 197.296 42.37C198.244 42.37 199.09 42.58 199.834 43C200.59 43.408 201.178 43.984 201.598 44.728C202.03 45.46 202.246 46.294 202.246 47.23C202.246 48.166 202.03 49.006 201.598 49.75C201.178 50.482 200.59 51.058 199.834 51.478C199.09 51.898 198.244 52.108 197.296 52.108ZM197.296 50.596C197.908 50.596 198.454 50.458 198.934 50.182C199.426 49.894 199.81 49.498 200.086 48.994C200.362 48.478 200.5 47.89 200.5 47.23C200.5 46.57 200.362 45.988 200.086 45.484C199.81 44.968 199.426 44.572 198.934 44.296C198.454 44.02 197.908 43.882 197.296 43.882C196.684 43.882 196.132 44.02 195.64 44.296C195.16 44.572 194.776 44.968 194.488 45.484C194.212 45.988 194.074 46.57 194.074 47.23C194.074 47.89 194.212 48.478 194.488 48.994C194.776 49.498 195.16 49.894 195.64 50.182C196.132 50.458 196.684 50.596 197.296 50.596ZM213.528 42.46V52H211.89V50.56C211.542 51.052 211.08 51.436 210.504 51.712C209.94 51.976 209.322 52.108 208.65 52.108C207.378 52.108 206.376 51.76 205.644 51.064C204.912 50.356 204.546 49.318 204.546 47.95V42.46H206.274V47.752C206.274 48.676 206.496 49.378 206.94 49.858C207.384 50.326 208.02 50.56 208.848 50.56C209.76 50.56 210.48 50.284 211.008 49.732C211.536 49.18 211.8 48.4 211.8 47.392V42.46H213.528ZM218.474 44.062C218.774 43.51 219.218 43.09 219.806 42.802C220.394 42.514 221.108 42.37 221.948 42.37V44.044C221.852 44.032 221.72 44.026 221.552 44.026C220.616 44.026 219.878 44.308 219.338 44.872C218.81 45.424 218.546 46.216 218.546 47.248V52H216.818V42.46H218.474V44.062ZM228.148 52.108C227.176 52.108 226.306 51.898 225.538 51.478C224.782 51.058 224.188 50.482 223.756 49.75C223.324 49.006 223.108 48.166 223.108 47.23C223.108 46.294 223.324 45.46 223.756 44.728C224.188 43.984 224.782 43.408 225.538 43C226.306 42.58 227.176 42.37 228.148 42.37C229.012 42.37 229.78 42.544 230.452 42.892C231.136 43.24 231.664 43.744 232.036 44.404L230.722 45.25C230.422 44.794 230.05 44.452 229.606 44.224C229.162 43.996 228.67 43.882 228.13 43.882C227.506 43.882 226.942 44.02 226.438 44.296C225.946 44.572 225.556 44.968 225.268 45.484C224.992 45.988 224.854 46.57 224.854 47.23C224.854 47.902 224.992 48.496 225.268 49.012C225.556 49.516 225.946 49.906 226.438 50.182C226.942 50.458 227.506 50.596 228.13 50.596C228.67 50.596 229.162 50.482 229.606 50.254C230.05 50.026 230.422 49.684 230.722 49.228L232.036 50.056C231.664 50.716 231.136 51.226 230.452 51.586C229.78 51.934 229.012 52.108 228.148 52.108ZM242.754 47.284C242.754 47.416 242.742 47.59 242.718 47.806H234.978C235.086 48.646 235.452 49.324 236.076 49.84C236.712 50.344 237.498 50.596 238.434 50.596C239.574 50.596 240.492 50.212 241.188 49.444L242.142 50.56C241.71 51.064 241.17 51.448 240.522 51.712C239.886 51.976 239.172 52.108 238.38 52.108C237.372 52.108 236.478 51.904 235.698 51.496C234.918 51.076 234.312 50.494 233.88 49.75C233.46 49.006 233.25 48.166 233.25 47.23C233.25 46.306 233.454 45.472 233.862 44.728C234.282 43.984 234.852 43.408 235.572 43C236.304 42.58 237.126 42.37 238.038 42.37C238.95 42.37 239.76 42.58 240.468 43C241.188 43.408 241.746 43.984 242.142 44.728C242.55 45.472 242.754 46.324 242.754 47.284ZM238.038 43.828C237.21 43.828 236.514 44.08 235.95 44.584C235.398 45.088 235.074 45.748 234.978 46.564H241.098C241.002 45.76 240.672 45.106 240.108 44.602C239.556 44.086 238.866 43.828 238.038 43.828ZM247.89 52.108C247.11 52.108 246.36 52.006 245.64 51.802C244.92 51.586 244.356 51.316 243.948 50.992L244.668 49.624C245.088 49.924 245.598 50.164 246.198 50.344C246.798 50.524 247.404 50.614 248.016 50.614C249.528 50.614 250.284 50.182 250.284 49.318C250.284 49.03 250.182 48.802 249.978 48.634C249.774 48.466 249.516 48.346 249.204 48.274C248.904 48.19 248.472 48.1 247.908 48.004C247.14 47.884 246.51 47.746 246.018 47.59C245.538 47.434 245.124 47.17 244.776 46.798C244.428 46.426 244.254 45.904 244.254 45.232C244.254 44.368 244.614 43.678 245.334 43.162C246.054 42.634 247.02 42.37 248.232 42.37C248.868 42.37 249.504 42.448 250.14 42.604C250.776 42.76 251.298 42.97 251.706 43.234L250.968 44.602C250.188 44.098 249.27 43.846 248.214 43.846C247.482 43.846 246.924 43.966 246.54 44.206C246.156 44.446 245.964 44.764 245.964 45.16C245.964 45.472 246.072 45.718 246.288 45.898C246.504 46.078 246.768 46.21 247.08 46.294C247.404 46.378 247.854 46.474 248.43 46.582C249.198 46.714 249.816 46.858 250.284 47.014C250.764 47.158 251.172 47.41 251.508 47.77C251.844 48.13 252.012 48.634 252.012 49.282C252.012 50.146 251.64 50.836 250.896 51.352C250.164 51.856 249.162 52.108 247.89 52.108Z" fill="black"/>
<path d="M1229.19 31.375H1226.38V30.8125C1226.38 30.3649 1226.2 29.9357 1225.88 29.6193C1225.56 29.3028 1225.14 29.125 1224.69 29.125H1223.56C1223.11 29.125 1222.69 29.3028 1222.37 29.6193C1222.05 29.9357 1221.88 30.3649 1221.88 30.8125V31.375H1206.12V30.8125C1206.12 30.3649 1205.95 29.9357 1205.63 29.6193C1205.31 29.3028 1204.89 29.125 1204.44 29.125H1203.31C1202.86 29.125 1202.44 29.3028 1202.12 29.6193C1201.8 29.9357 1201.62 30.3649 1201.62 30.8125V31.375H1198.81C1198.36 31.375 1197.94 31.5528 1197.62 31.8693C1197.3 32.1857 1197.12 32.6149 1197.12 33.0625V61.1875C1197.12 61.6351 1197.3 62.0643 1197.62 62.3807C1197.94 62.6972 1198.36 62.875 1198.81 62.875H1229.19C1229.64 62.875 1230.06 62.6972 1230.38 62.3807C1230.7 62.0643 1230.88 61.6351 1230.88 61.1875V33.0625C1230.88 32.6149 1230.7 32.1857 1230.38 31.8693C1230.06 31.5528 1229.64 31.375 1229.19 31.375ZM1223 30.8125C1223 30.6633 1223.06 30.5202 1223.16 30.4148C1223.27 30.3093 1223.41 30.25 1223.56 30.25H1224.69C1224.84 30.25 1224.98 30.3093 1225.09 30.4148C1225.19 30.5202 1225.25 30.6633 1225.25 30.8125V34.1875C1225.25 34.3367 1225.19 34.4798 1225.09 34.5852C1224.98 34.6907 1224.84 34.75 1224.69 34.75H1223.56C1223.41 34.75 1223.27 34.6907 1223.16 34.5852C1223.06 34.4798 1223 34.3367 1223 34.1875V30.8125ZM1202.75 30.8125C1202.75 30.6633 1202.81 30.5202 1202.91 30.4148C1203.02 30.3093 1203.16 30.25 1203.31 30.25H1204.44C1204.59 30.25 1204.73 30.3093 1204.84 30.4148C1204.94 30.5202 1205 30.6633 1205 30.8125V34.1875C1205 34.3367 1204.94 34.4798 1204.84 34.5852C1204.73 34.6907 1204.59 34.75 1204.44 34.75H1203.31C1203.16 34.75 1203.02 34.6907 1202.91 34.5852C1202.81 34.4798 1202.75 34.3367 1202.75 34.1875V30.8125ZM1198.25 33.0625C1198.25 32.9133 1198.31 32.7702 1198.41 32.6648C1198.52 32.5593 1198.66 32.5 1198.81 32.5H1201.62V34.1875C1201.62 34.6351 1201.8 35.0643 1202.12 35.3807C1202.44 35.6972 1202.86 35.875 1203.31 35.875H1204.44C1204.89 35.875 1205.31 35.6972 1205.63 35.3807C1205.95 35.0643 1206.12 34.6351 1206.12 34.1875V32.5H1221.88V34.1875C1221.88 34.6351 1222.05 35.0643 1222.37 35.3807C1222.69 35.6972 1223.11 35.875 1223.56 35.875H1224.69C1225.14 35.875 1225.56 35.6972 1225.88 35.3807C1226.2 35.0643 1226.38 34.6351 1226.38 34.1875V32.5H1229.19C1229.34 32.5 1229.48 32.5593 1229.59 32.6648C1229.69 32.7702 1229.75 32.9133 1229.75 33.0625V37H1198.25V33.0625ZM1229.75 61.1875C1229.75 61.3367 1229.69 61.4798 1229.59 61.5852C1229.48 61.6907 1229.34 61.75 1229.19 61.75H1198.81C1198.66 61.75 1198.52 61.6907 1198.41 61.5852C1198.31 61.4798 1198.25 61.3367 1198.25 61.1875V38.125H1229.75V61.1875Z" fill="#3A3A3A"/>
<path d="M1215.12 51.625H1212.88C1212.73 51.625 1212.58 51.5657 1212.48 51.4602C1212.37 51.3548 1212.31 51.2117 1212.31 51.0625V48.8125C1212.31 48.6633 1212.37 48.5202 1212.48 48.4148C1212.58 48.3093 1212.73 48.25 1212.88 48.25H1215.12C1215.27 48.25 1215.42 48.3093 1215.52 48.4148C1215.63 48.5202 1215.69 48.6633 1215.69 48.8125V51.0625C1215.69 51.2117 1215.63 51.3548 1215.52 51.4602C1215.42 51.5657 1215.27 51.625 1215.12 51.625ZM1213.44 50.5H1214.56V49.375H1213.44V50.5Z" fill="#3A3A3A"/>
<path d="M1220.75 51.625H1218.5C1218.35 51.625 1218.21 51.5657 1218.1 51.4602C1218 51.3548 1217.94 51.2117 1217.94 51.0625V48.8125C1217.94 48.6633 1218 48.5202 1218.1 48.4148C1218.21 48.3093 1218.35 48.25 1218.5 48.25H1220.75C1220.9 48.25 1221.04 48.3093 1221.15 48.4148C1221.25 48.5202 1221.31 48.6633 1221.31 48.8125V51.0625C1221.31 51.2117 1221.25 51.3548 1221.15 51.4602C1221.04 51.5657 1220.9 51.625 1220.75 51.625ZM1219.06 50.5H1220.19V49.375H1219.06V50.5Z" fill="#3A3A3A"/>
<path d="M1209.5 51.625H1207.25C1207.1 51.625 1206.96 51.5657 1206.85 51.4602C1206.75 51.3548 1206.69 51.2117 1206.69 51.0625V48.8125C1206.69 48.6633 1206.75 48.5202 1206.85 48.4148C1206.96 48.3093 1207.1 48.25 1207.25 48.25H1209.5C1209.65 48.25 1209.79 48.3093 1209.9 48.4148C1210 48.5202 1210.06 48.6633 1210.06 48.8125V51.0625C1210.06 51.2117 1210 51.3548 1209.9 51.4602C1209.79 51.5657 1209.65 51.625 1209.5 51.625ZM1207.81 50.5H1208.94V49.375H1207.81V50.5Z" fill="#3A3A3A"/>
<path d="M1226.38 51.625H1224.12C1223.98 51.625 1223.83 51.5657 1223.73 51.4602C1223.62 51.3548 1223.56 51.2117 1223.56 51.0625V48.8125C1223.56 48.6633 1223.62 48.5202 1223.73 48.4148C1223.83 48.3093 1223.98 48.25 1224.12 48.25H1226.38C1226.52 48.25 1226.67 48.3093 1226.77 48.4148C1226.88 48.5202 1226.94 48.6633 1226.94 48.8125V51.0625C1226.94 51.2117 1226.88 51.3548 1226.77 51.4602C1226.67 51.5657 1226.52 51.625 1226.38 51.625ZM1224.69 50.5H1225.81V49.375H1224.69V50.5Z" fill="#3A3A3A"/>
<path d="M1203.88 51.625H1201.62C1201.48 51.625 1201.33 51.5657 1201.23 51.4602C1201.12 51.3548 1201.06 51.2117 1201.06 51.0625V48.8125C1201.06 48.6633 1201.12 48.5202 1201.23 48.4148C1201.33 48.3093 1201.48 48.25 1201.62 48.25H1203.88C1204.02 48.25 1204.17 48.3093 1204.27 48.4148C1204.38 48.5202 1204.44 48.6633 1204.44 48.8125V51.0625C1204.44 51.2117 1204.38 51.3548 1204.27 51.4602C1204.17 51.5657 1204.02 51.625 1203.88 51.625ZM1202.19 50.5H1203.31V49.375H1202.19V50.5Z" fill="#3A3A3A"/>
<path d="M1215.12 46H1212.88C1212.73 46 1212.58 45.9407 1212.48 45.8352C1212.37 45.7298 1212.31 45.5867 1212.31 45.4375V43.1875C1212.31 43.0383 1212.37 42.8952 1212.48 42.7898C1212.58 42.6843 1212.73 42.625 1212.88 42.625H1215.12C1215.27 42.625 1215.42 42.6843 1215.52 42.7898C1215.63 42.8952 1215.69 43.0383 1215.69 43.1875V45.4375C1215.69 45.5867 1215.63 45.7298 1215.52 45.8352C1215.42 45.9407 1215.27 46 1215.12 46ZM1213.44 44.875H1214.56V43.75H1213.44V44.875Z" fill="#3A3A3A"/>
<path d="M1220.75 46H1218.5C1218.35 46 1218.21 45.9407 1218.1 45.8352C1218 45.7298 1217.94 45.5867 1217.94 45.4375V43.1875C1217.94 43.0383 1218 42.8952 1218.1 42.7898C1218.21 42.6843 1218.35 42.625 1218.5 42.625H1220.75C1220.9 42.625 1221.04 42.6843 1221.15 42.7898C1221.25 42.8952 1221.31 43.0383 1221.31 43.1875V45.4375C1221.31 45.5867 1221.25 45.7298 1221.15 45.8352C1221.04 45.9407 1220.9 46 1220.75 46ZM1219.06 44.875H1220.19V43.75H1219.06V44.875Z" fill="#3A3A3A"/>
<path d="M1209.5 46H1207.25C1207.1 46 1206.96 45.9407 1206.85 45.8352C1206.75 45.7298 1206.69 45.5867 1206.69 45.4375V43.1875C1206.69 43.0383 1206.75 42.8952 1206.85 42.7898C1206.96 42.6843 1207.1 42.625 1207.25 42.625H1209.5C1209.65 42.625 1209.79 42.6843 1209.9 42.7898C1210 42.8952 1210.06 43.0383 1210.06 43.1875V45.4375C1210.06 45.5867 1210 45.7298 1209.9 45.8352C1209.79 45.9407 1209.65 46 1209.5 46ZM1207.81 44.875H1208.94V43.75H1207.81V44.875Z" fill="#3A3A3A"/>
<path d="M1226.38 46H1224.12C1223.98 46 1223.83 45.9407 1223.73 45.8352C1223.62 45.7298 1223.56 45.5867 1223.56 45.4375V43.1875C1223.56 43.0383 1223.62 42.8952 1223.73 42.7898C1223.83 42.6843 1223.98 42.625 1224.12 42.625H1226.38C1226.52 42.625 1226.67 42.6843 1226.77 42.7898C1226.88 42.8952 1226.94 43.0383 1226.94 43.1875V45.4375C1226.94 45.5867 1226.88 45.7298 1226.77 45.8352C1226.67 45.9407 1226.52 46 1226.38 46ZM1224.69 44.875H1225.81V43.75H1224.69V44.875Z" fill="#3A3A3A"/>
<path d="M1203.88 46H1201.62C1201.48 46 1201.33 45.9407 1201.23 45.8352C1201.12 45.7298 1201.06 45.5867 1201.06 45.4375V43.1875C1201.06 43.0383 1201.12 42.8952 1201.23 42.7898C1201.33 42.6843 1201.48 42.625 1201.62 42.625H1203.88C1204.02 42.625 1204.17 42.6843 1204.27 42.7898C1204.38 42.8952 1204.44 43.0383 1204.44 43.1875V45.4375C1204.44 45.5867 1204.38 45.7298 1204.27 45.8352C1204.17 45.9407 1204.02 46 1203.88 46ZM1202.19 44.875H1203.31V43.75H1202.19V44.875Z" fill="#3A3A3A"/>
<path d="M1215.12 57.25H1212.88C1212.73 57.25 1212.58 57.1907 1212.48 57.0852C1212.37 56.9798 1212.31 56.8367 1212.31 56.6875V54.4375C1212.31 54.2883 1212.37 54.1452 1212.48 54.0398C1212.58 53.9343 1212.73 53.875 1212.88 53.875H1215.12C1215.27 53.875 1215.42 53.9343 1215.52 54.0398C1215.63 54.1452 1215.69 54.2883 1215.69 54.4375V56.6875C1215.69 56.8367 1215.63 56.9798 1215.52 57.0852C1215.42 57.1907 1215.27 57.25 1215.12 57.25ZM1213.44 56.125H1214.56V55H1213.44V56.125Z" fill="#3A3A3A"/>
<path d="M1220.75 57.25H1218.5C1218.35 57.25 1218.21 57.1907 1218.1 57.0852C1218 56.9798 1217.94 56.8367 1217.94 56.6875V54.4375C1217.94 54.2883 1218 54.1452 1218.1 54.0398C1218.21 53.9343 1218.35 53.875 1218.5 53.875H1220.75C1220.9 53.875 1221.04 53.9343 1221.15 54.0398C1221.25 54.1452 1221.31 54.2883 1221.31 54.4375V56.6875C1221.31 56.8367 1221.25 56.9798 1221.15 57.0852C1221.04 57.1907 1220.9 57.25 1220.75 57.25ZM1219.06 56.125H1220.19V55H1219.06V56.125Z" fill="#3A3A3A"/>
<path d="M1209.5 57.25H1207.25C1207.1 57.25 1206.96 57.1907 1206.85 57.0852C1206.75 56.9798 1206.69 56.8367 1206.69 56.6875V54.4375C1206.69 54.2883 1206.75 54.1452 1206.85 54.0398C1206.96 53.9343 1207.1 53.875 1207.25 53.875H1209.5C1209.65 53.875 1209.79 53.9343 1209.9 54.0398C1210 54.1452 1210.06 54.2883 1210.06 54.4375V56.6875C1210.06 56.8367 1210 56.9798 1209.9 57.0852C1209.79 57.1907 1209.65 57.25 1209.5 57.25ZM1207.81 56.125H1208.94V55H1207.81V56.125Z" fill="#3A3A3A"/>
<path d="M1226.38 57.25H1224.12C1223.98 57.25 1223.83 57.1907 1223.73 57.0852C1223.62 56.9798 1223.56 56.8367 1223.56 56.6875V54.4375C1223.56 54.2883 1223.62 54.1452 1223.73 54.0398C1223.83 53.9343 1223.98 53.875 1224.12 53.875H1226.38C1226.52 53.875 1226.67 53.9343 1226.77 54.0398C1226.88 54.1452 1226.94 54.2883 1226.94 54.4375V56.6875C1226.94 56.8367 1226.88 56.9798 1226.77 57.0852C1226.67 57.1907 1226.52 57.25 1226.38 57.25ZM1224.69 56.125H1225.81V55H1224.69V56.125Z" fill="#3A3A3A"/>
<path d="M1203.88 57.25H1201.62C1201.48 57.25 1201.33 57.1907 1201.23 57.0852C1201.12 56.9798 1201.06 56.8367 1201.06 56.6875V54.4375C1201.06 54.2883 1201.12 54.1452 1201.23 54.0398C1201.33 53.9343 1201.48 53.875 1201.62 53.875H1203.88C1204.02 53.875 1204.17 53.9343 1204.27 54.0398C1204.38 54.1452 1204.44 54.2883 1204.44 54.4375V56.6875C1204.44 56.8367 1204.38 56.9798 1204.27 57.0852C1204.17 57.1907 1204.02 57.25 1203.88 57.25ZM1202.19 56.125H1203.31V55H1202.19V56.125Z" fill="#3A3A3A"/>
<path d="M296.319 446.4V480H291.519V465.024H272.223V480H267.423V446.4H272.223V460.848H291.519V446.4H296.319ZM316.6 480.288C314.072 480.288 311.8 479.728 309.784 478.608C307.768 477.488 306.184 475.952 305.032 474C303.912 472.016 303.352 469.776 303.352 467.28C303.352 464.784 303.912 462.56 305.032 460.608C306.184 458.624 307.768 457.088 309.784 456C311.8 454.88 314.072 454.32 316.6 454.32C319.128 454.32 321.384 454.88 323.368 456C325.384 457.088 326.952 458.624 328.072 460.608C329.224 462.56 329.8 464.784 329.8 467.28C329.8 469.776 329.224 472.016 328.072 474C326.952 475.952 325.384 477.488 323.368 478.608C321.384 479.728 319.128 480.288 316.6 480.288ZM316.6 476.256C318.232 476.256 319.688 475.888 320.968 475.152C322.28 474.384 323.304 473.328 324.04 471.984C324.776 470.608 325.144 469.04 325.144 467.28C325.144 465.52 324.776 463.968 324.04 462.624C323.304 461.248 322.28 460.192 320.968 459.456C319.688 458.72 318.232 458.352 316.6 458.352C314.968 458.352 313.496 458.72 312.184 459.456C310.904 460.192 309.88 461.248 309.112 462.624C308.376 463.968 308.008 465.52 308.008 467.28C308.008 469.04 308.376 470.608 309.112 471.984C309.88 473.328 310.904 474.384 312.184 475.152C313.496 475.888 314.968 476.256 316.6 476.256ZM373.966 454.56L364.462 480H360.046L352.702 460.704L345.262 480H340.846L331.39 454.56H335.758L343.15 474.816L350.83 454.56H354.718L362.254 474.912L369.838 454.56H373.966ZM430.028 454.56L420.524 480H416.108L408.764 460.704L401.324 480H396.908L387.452 454.56H391.82L399.212 474.816L406.892 454.56H410.78L418.316 474.912L425.9 454.56H430.028ZM443.171 454.32C446.691 454.32 449.379 455.184 451.235 456.912C453.123 458.64 454.067 461.216 454.067 464.64V480H449.699V476.64C448.931 477.824 447.827 478.736 446.387 479.376C444.979 479.984 443.299 480.288 441.347 480.288C438.499 480.288 436.211 479.6 434.483 478.224C432.787 476.848 431.939 475.04 431.939 472.8C431.939 470.56 432.755 468.768 434.387 467.424C436.019 466.048 438.611 465.36 442.163 465.36H449.459V464.448C449.459 462.464 448.883 460.944 447.731 459.888C446.579 458.832 444.883 458.304 442.643 458.304C441.139 458.304 439.667 458.56 438.227 459.072C436.787 459.552 435.571 460.208 434.579 461.04L432.659 457.584C433.971 456.528 435.539 455.728 437.363 455.184C439.187 454.608 441.123 454.32 443.171 454.32ZM442.115 476.736C443.875 476.736 445.395 476.352 446.675 475.584C447.955 474.784 448.883 473.664 449.459 472.224V468.672H442.355C438.451 468.672 436.499 469.984 436.499 472.608C436.499 473.888 436.995 474.896 437.987 475.632C438.979 476.368 440.355 476.736 442.115 476.736ZM469.891 480.288C467.811 480.288 465.811 480.016 463.891 479.472C461.971 478.896 460.467 478.176 459.379 477.312L461.299 473.664C462.419 474.464 463.779 475.104 465.379 475.584C466.979 476.064 468.595 476.304 470.227 476.304C474.259 476.304 476.275 475.152 476.275 472.848C476.275 472.08 476.003 471.472 475.459 471.024C474.915 470.576 474.227 470.256 473.395 470.064C472.595 469.84 471.443 469.6 469.939 469.344C467.891 469.024 466.211 468.656 464.899 468.24C463.619 467.824 462.515 467.12 461.587 466.128C460.659 465.136 460.195 463.744 460.195 461.952C460.195 459.648 461.155 457.808 463.075 456.432C464.995 455.024 467.571 454.32 470.803 454.32C472.499 454.32 474.195 454.528 475.891 454.944C477.587 455.36 478.979 455.92 480.067 456.624L478.099 460.272C476.019 458.928 473.571 458.256 470.755 458.256C468.803 458.256 467.315 458.576 466.291 459.216C465.267 459.856 464.755 460.704 464.755 461.76C464.755 462.592 465.043 463.248 465.619 463.728C466.195 464.208 466.899 464.56 467.731 464.784C468.595 465.008 469.795 465.264 471.331 465.552C473.379 465.904 475.027 466.288 476.275 466.704C477.555 467.088 478.643 467.76 479.539 468.72C480.435 469.68 480.883 471.024 480.883 472.752C480.883 475.056 479.891 476.896 477.907 478.272C475.955 479.616 473.283 480.288 469.891 480.288ZM499.532 444.384H504.14V480H499.532V444.384ZM535.93 467.424C535.93 467.776 535.898 468.24 535.834 468.816H515.194C515.482 471.056 516.458 472.864 518.122 474.24C519.818 475.584 521.914 476.256 524.41 476.256C527.45 476.256 529.898 475.232 531.754 473.184L534.298 476.16C533.146 477.504 531.706 478.528 529.978 479.232C528.282 479.936 526.378 480.288 524.266 480.288C521.578 480.288 519.194 479.744 517.114 478.656C515.034 477.536 513.418 475.984 512.266 474C511.146 472.016 510.586 469.776 510.586 467.28C510.586 464.816 511.13 462.592 512.218 460.608C513.338 458.624 514.858 457.088 516.778 456C518.73 454.88 520.922 454.32 523.354 454.32C525.786 454.32 527.946 454.88 529.834 456C531.754 457.088 533.242 458.624 534.298 460.608C535.386 462.592 535.93 464.864 535.93 467.424ZM523.354 458.208C521.146 458.208 519.29 458.88 517.786 460.224C516.314 461.568 515.45 463.328 515.194 465.504H531.514C531.258 463.36 530.378 461.616 528.874 460.272C527.402 458.896 525.562 458.208 523.354 458.208ZM550.89 454.32C554.41 454.32 557.098 455.184 558.954 456.912C560.842 458.64 561.786 461.216 561.786 464.64V480H557.418V476.64C556.65 477.824 555.546 478.736 554.106 479.376C552.698 479.984 551.018 480.288 549.066 480.288C546.218 480.288 543.93 479.6 542.202 478.224C540.506 476.848 539.658 475.04 539.658 472.8C539.658 470.56 540.474 468.768 542.106 467.424C543.738 466.048 546.33 465.36 549.882 465.36H557.178V464.448C557.178 462.464 556.602 460.944 555.45 459.888C554.298 458.832 552.602 458.304 550.362 458.304C548.858 458.304 547.386 458.56 545.946 459.072C544.506 459.552 543.29 460.208 542.298 461.04L540.378 457.584C541.69 456.528 543.258 455.728 545.082 455.184C546.906 454.608 548.842 454.32 550.89 454.32ZM549.834 476.736C551.594 476.736 553.114 476.352 554.394 475.584C555.674 474.784 556.602 473.664 557.178 472.224V468.672H550.074C546.17 468.672 544.218 469.984 544.218 472.608C544.218 473.888 544.714 474.896 545.706 475.632C546.698 476.368 548.074 476.736 549.834 476.736ZM574.729 458.832C575.529 457.36 576.713 456.24 578.281 455.472C579.849 454.704 581.753 454.32 583.993 454.32V458.784C583.737 458.752 583.385 458.736 582.937 458.736C580.441 458.736 578.473 459.488 577.033 460.992C575.625 462.464 574.921 464.576 574.921 467.328V480H570.313V454.56H574.729V458.832ZM603.257 454.32C606.489 454.32 609.049 455.264 610.937 457.152C612.857 459.008 613.817 461.744 613.817 465.36V480H609.209V465.888C609.209 463.424 608.617 461.568 607.433 460.32C606.249 459.072 604.553 458.448 602.345 458.448C599.849 458.448 597.881 459.184 596.441 460.656C595.001 462.096 594.281 464.176 594.281 466.896V480H589.673V454.56H594.089V458.4C595.017 457.088 596.265 456.08 597.833 455.376C599.433 454.672 601.241 454.32 603.257 454.32ZM622.345 454.56H626.953V480H622.345V454.56ZM624.649 449.664C623.753 449.664 623.001 449.376 622.393 448.8C621.817 448.224 621.529 447.52 621.529 446.688C621.529 445.856 621.817 445.152 622.393 444.576C623.001 443.968 623.753 443.664 624.649 443.664C625.545 443.664 626.281 443.952 626.857 444.528C627.465 445.072 627.769 445.76 627.769 446.592C627.769 447.456 627.465 448.192 626.857 448.8C626.281 449.376 625.545 449.664 624.649 449.664ZM649.335 454.32C652.567 454.32 655.127 455.264 657.015 457.152C658.935 459.008 659.895 461.744 659.895 465.36V480H655.287V465.888C655.287 463.424 654.695 461.568 653.511 460.32C652.327 459.072 650.631 458.448 648.423 458.448C645.927 458.448 643.959 459.184 642.519 460.656C641.079 462.096 640.359 464.176 640.359 466.896V480H635.751V454.56H640.167V458.4C641.095 457.088 642.343 456.08 643.911 455.376C645.511 454.672 647.319 454.32 649.335 454.32ZM692.899 454.56V476.544C692.899 480.992 691.795 484.272 689.587 486.384C687.379 488.528 684.083 489.6 679.699 489.6C677.299 489.6 675.011 489.264 672.835 488.592C670.659 487.952 668.899 487.024 667.555 485.808L669.763 482.256C670.947 483.28 672.403 484.08 674.131 484.656C675.891 485.264 677.699 485.568 679.555 485.568C682.531 485.568 684.723 484.864 686.131 483.456C687.571 482.048 688.291 479.904 688.291 477.024V475.008C687.203 476.32 685.859 477.312 684.259 477.984C682.691 478.624 680.979 478.944 679.123 478.944C676.691 478.944 674.483 478.432 672.499 477.408C670.547 476.352 669.011 474.896 667.891 473.04C666.771 471.152 666.211 469.008 666.211 466.608C666.211 464.208 666.771 462.08 667.891 460.224C669.011 458.336 670.547 456.88 672.499 455.856C674.483 454.832 676.691 454.32 679.123 454.32C681.043 454.32 682.819 454.672 684.451 455.376C686.115 456.08 687.475 457.12 688.531 458.496V454.56H692.899ZM679.651 474.912C681.315 474.912 682.803 474.56 684.115 473.856C685.459 473.152 686.499 472.176 687.235 470.928C688.003 469.648 688.387 468.208 688.387 466.608C688.387 464.144 687.571 462.16 685.939 460.656C684.307 459.12 682.211 458.352 679.651 458.352C677.059 458.352 674.947 459.12 673.315 460.656C671.683 462.16 670.867 464.144 670.867 466.608C670.867 468.208 671.235 469.648 671.971 470.928C672.739 472.176 673.779 473.152 675.091 473.856C676.435 474.56 677.955 474.912 679.651 474.912ZM739.651 475.824V480H715.267V446.4H738.979V450.576H720.067V460.896H736.915V464.976H720.067V475.824H739.651ZM760.335 454.32C763.567 454.32 766.127 455.264 768.015 457.152C769.935 459.008 770.895 461.744 770.895 465.36V480H766.287V465.888C766.287 463.424 765.695 461.568 764.511 460.32C763.327 459.072 761.631 458.448 759.423 458.448C756.927 458.448 754.959 459.184 753.519 460.656C752.079 462.096 751.359 464.176 751.359 466.896V480H746.751V454.56H751.167V458.4C752.095 457.088 753.343 456.08 754.911 455.376C756.511 454.672 758.319 454.32 760.335 454.32ZM803.899 454.56V476.544C803.899 480.992 802.795 484.272 800.587 486.384C798.379 488.528 795.083 489.6 790.699 489.6C788.299 489.6 786.011 489.264 783.835 488.592C781.659 487.952 779.899 487.024 778.555 485.808L780.763 482.256C781.947 483.28 783.403 484.08 785.131 484.656C786.891 485.264 788.699 485.568 790.555 485.568C793.531 485.568 795.723 484.864 797.131 483.456C798.571 482.048 799.291 479.904 799.291 477.024V475.008C798.203 476.32 796.859 477.312 795.259 477.984C793.691 478.624 791.979 478.944 790.123 478.944C787.691 478.944 785.483 478.432 783.499 477.408C781.547 476.352 780.011 474.896 778.891 473.04C777.771 471.152 777.211 469.008 777.211 466.608C777.211 464.208 777.771 462.08 778.891 460.224C780.011 458.336 781.547 456.88 783.499 455.856C785.483 454.832 787.691 454.32 790.123 454.32C792.043 454.32 793.819 454.672 795.451 455.376C797.115 456.08 798.475 457.12 799.531 458.496V454.56H803.899ZM790.651 474.912C792.315 474.912 793.803 474.56 795.115 473.856C796.459 473.152 797.499 472.176 798.235 470.928C799.003 469.648 799.387 468.208 799.387 466.608C799.387 464.144 798.571 462.16 796.939 460.656C795.307 459.12 793.211 458.352 790.651 458.352C788.059 458.352 785.947 459.12 784.315 460.656C782.683 462.16 781.867 464.144 781.867 466.608C781.867 468.208 782.235 469.648 782.971 470.928C783.739 472.176 784.779 473.152 786.091 473.856C787.435 474.56 788.955 474.912 790.651 474.912ZM812.704 444.384H817.312V480H812.704V444.384ZM826.11 454.56H830.718V480H826.11V454.56ZM828.414 449.664C827.518 449.664 826.766 449.376 826.158 448.8C825.582 448.224 825.294 447.52 825.294 446.688C825.294 445.856 825.582 445.152 826.158 444.576C826.766 443.968 827.518 443.664 828.414 443.664C829.31 443.664 830.046 443.952 830.622 444.528C831.23 445.072 831.534 445.76 831.534 446.592C831.534 447.456 831.23 448.192 830.622 448.8C830.046 449.376 829.31 449.664 828.414 449.664ZM846.812 480.288C844.732 480.288 842.732 480.016 840.812 479.472C838.892 478.896 837.388 478.176 836.3 477.312L838.22 473.664C839.34 474.464 840.7 475.104 842.3 475.584C843.9 476.064 845.516 476.304 847.148 476.304C851.18 476.304 853.196 475.152 853.196 472.848C853.196 472.08 852.924 471.472 852.38 471.024C851.836 470.576 851.148 470.256 850.316 470.064C849.516 469.84 848.364 469.6 846.86 469.344C844.812 469.024 843.132 468.656 841.82 468.24C840.54 467.824 839.436 467.12 838.508 466.128C837.58 465.136 837.116 463.744 837.116 461.952C837.116 459.648 838.076 457.808 839.996 456.432C841.916 455.024 844.492 454.32 847.724 454.32C849.42 454.32 851.116 454.528 852.812 454.944C854.508 455.36 855.9 455.92 856.988 456.624L855.02 460.272C852.94 458.928 850.492 458.256 847.676 458.256C845.724 458.256 844.236 458.576 843.212 459.216C842.188 459.856 841.676 460.704 841.676 461.76C841.676 462.592 841.964 463.248 842.54 463.728C843.116 464.208 843.82 464.56 844.652 464.784C845.516 465.008 846.716 465.264 848.252 465.552C850.3 465.904 851.948 466.288 853.196 466.704C854.476 467.088 855.564 467.76 856.46 468.72C857.356 469.68 857.804 471.024 857.804 472.752C857.804 475.056 856.812 476.896 854.828 478.272C852.876 479.616 850.204 480.288 846.812 480.288ZM877.147 454.32C880.379 454.32 882.939 455.264 884.827 457.152C886.747 459.008 887.707 461.744 887.707 465.36V480H883.099V465.888C883.099 463.424 882.507 461.568 881.323 460.32C880.139 459.072 878.443 458.448 876.235 458.448C873.739 458.448 871.771 459.184 870.331 460.656C868.891 462.096 868.171 464.176 868.171 466.896V480H863.563V444.384H868.171V458.16C869.131 456.944 870.379 456 871.915 455.328C873.483 454.656 875.227 454.32 877.147 454.32ZM947.622 454.56L938.118 480H933.702L926.358 460.704L918.918 480H914.502L905.046 454.56H909.414L916.806 474.816L924.486 454.56H928.374L935.91 474.912L943.494 454.56H947.622ZM952.298 454.56H956.906V480H952.298V454.56ZM954.602 449.664C953.706 449.664 952.954 449.376 952.346 448.8C951.77 448.224 951.482 447.52 951.482 446.688C951.482 445.856 951.77 445.152 952.346 444.576C952.954 443.968 953.706 443.664 954.602 443.664C955.498 443.664 956.234 443.952 956.81 444.528C957.418 445.072 957.722 445.76 957.722 446.592C957.722 447.456 957.418 448.192 956.81 448.8C956.234 449.376 955.498 449.664 954.602 449.664ZM980.008 478.512C979.336 479.088 978.504 479.536 977.512 479.856C976.52 480.144 975.496 480.288 974.44 480.288C971.88 480.288 969.896 479.6 968.488 478.224C967.08 476.848 966.376 474.88 966.376 472.32V458.352H962.056V454.56H966.376V448.992H970.984V454.56H978.28V458.352H970.984V472.128C970.984 473.504 971.32 474.56 971.992 475.296C972.696 476.032 973.688 476.4 974.968 476.4C976.376 476.4 977.576 476 978.568 475.2L980.008 478.512ZM999.163 454.32C1002.39 454.32 1004.95 455.264 1006.84 457.152C1008.76 459.008 1009.72 461.744 1009.72 465.36V480H1005.11V465.888C1005.11 463.424 1004.52 461.568 1003.34 460.32C1002.15 459.072 1000.46 458.448 998.251 458.448C995.755 458.448 993.787 459.184 992.347 460.656C990.907 462.096 990.187 464.176 990.187 466.896V480H985.579V444.384H990.187V458.16C991.147 456.944 992.395 456 993.931 455.328C995.499 454.656 997.243 454.32 999.163 454.32ZM1062.97 480L1062.92 455.52L1050.77 475.92H1048.57L1036.42 455.664V480H1031.81V446.4H1035.75L1049.77 470.016L1063.59 446.4H1067.53L1067.57 480H1062.97ZM1086.25 454.32C1089.77 454.32 1092.46 455.184 1094.31 456.912C1096.2 458.64 1097.15 461.216 1097.15 464.64V480H1092.78V476.64C1092.01 477.824 1090.91 478.736 1089.47 479.376C1088.06 479.984 1086.38 480.288 1084.43 480.288C1081.58 480.288 1079.29 479.6 1077.56 478.224C1075.87 476.848 1075.02 475.04 1075.02 472.8C1075.02 470.56 1075.83 468.768 1077.47 467.424C1079.1 466.048 1081.69 465.36 1085.24 465.36H1092.54V464.448C1092.54 462.464 1091.96 460.944 1090.81 459.888C1089.66 458.832 1087.96 458.304 1085.72 458.304C1084.22 458.304 1082.75 458.56 1081.31 459.072C1079.87 459.552 1078.65 460.208 1077.66 461.04L1075.74 457.584C1077.05 456.528 1078.62 455.728 1080.44 455.184C1082.27 454.608 1084.2 454.32 1086.25 454.32ZM1085.19 476.736C1086.95 476.736 1088.47 476.352 1089.75 475.584C1091.03 474.784 1091.96 473.664 1092.54 472.224V468.672H1085.43C1081.53 468.672 1079.58 469.984 1079.58 472.608C1079.58 473.888 1080.07 474.896 1081.07 475.632C1082.06 476.368 1083.43 476.736 1085.19 476.736ZM1110.09 458.832C1110.89 457.36 1112.07 456.24 1113.64 455.472C1115.21 454.704 1117.11 454.32 1119.35 454.32V458.784C1119.1 458.752 1118.74 458.736 1118.3 458.736C1115.8 458.736 1113.83 459.488 1112.39 460.992C1110.98 462.464 1110.28 464.576 1110.28 467.328V480H1105.67V454.56H1110.09V458.832ZM1148.58 454.56L1136.24 482.544C1135.15 485.136 1133.87 486.96 1132.4 488.016C1130.96 489.072 1129.22 489.6 1127.17 489.6C1125.92 489.6 1124.7 489.392 1123.52 488.976C1122.37 488.592 1121.41 488.016 1120.64 487.248L1122.61 483.792C1123.92 485.04 1125.44 485.664 1127.17 485.664C1128.29 485.664 1129.22 485.36 1129.95 484.752C1130.72 484.176 1131.41 483.168 1132.02 481.728L1132.83 479.952L1121.6 454.56H1126.4L1135.28 474.912L1144.06 454.56H1148.58ZM1161.05 469.392C1161.05 468.112 1161.25 466.992 1161.67 466.032C1162.12 465.04 1162.65 464.208 1163.25 463.536C1163.89 462.864 1164.73 462.064 1165.75 461.136C1167.03 460.016 1167.97 459.056 1168.58 458.256C1169.19 457.424 1169.49 456.432 1169.49 455.28C1169.49 453.712 1168.89 452.464 1167.67 451.536C1166.45 450.576 1164.77 450.096 1162.63 450.096C1158.89 450.096 1156.02 451.36 1154.04 453.888L1150.53 451.392C1151.88 449.664 1153.59 448.336 1155.67 447.408C1157.78 446.48 1160.21 446.016 1162.97 446.016C1166.45 446.016 1169.22 446.784 1171.27 448.32C1173.32 449.824 1174.34 451.904 1174.34 454.56C1174.34 455.872 1174.12 457.04 1173.67 458.064C1173.25 459.056 1172.74 459.888 1172.13 460.56C1171.53 461.232 1170.71 462.032 1169.69 462.96C1168.37 464.144 1167.4 465.184 1166.76 466.08C1166.15 466.976 1165.85 468.08 1165.85 469.392H1161.05ZM1163.49 480.288C1162.6 480.288 1161.85 480 1161.24 479.424C1160.66 478.816 1160.37 478.08 1160.37 477.216C1160.37 476.352 1160.66 475.632 1161.24 475.056C1161.85 474.448 1162.6 474.144 1163.49 474.144C1164.39 474.144 1165.13 474.448 1165.7 475.056C1166.28 475.632 1166.57 476.352 1166.57 477.216C1166.57 478.08 1166.26 478.816 1165.65 479.424C1165.08 480 1164.36 480.288 1163.49 480.288Z" fill="black"/>
<path d="M594 528L601.184 550.111H624.434L605.625 563.777L612.809 585.889L594 572.223L575.191 585.889L582.375 563.777L563.566 550.111H586.816L594 528Z" fill="#C4C4C4"/>
<path d="M658 528L665.184 550.111H688.434L669.625 563.777L676.809 585.889L658 572.223L639.191 585.889L646.375 563.777L627.566 550.111H650.816L658 528Z" fill="#C4C4C4"/>
<path d="M722 528L729.184 550.111H752.434L733.625 563.777L740.809 585.889L722 572.223L703.191 585.889L710.375 563.777L691.566 550.111H714.816L722 528Z" fill="#C4C4C4"/>
<path d="M784 528L791.184 550.111H814.434L795.625 563.777L802.809 585.889L784 572.223L765.191 585.889L772.375 563.777L753.566 550.111H776.816L784 528Z" fill="#C4C4C4"/>
<path d="M846 528L853.184 550.111H876.434L857.625 563.777L864.809 585.889L846 572.223L827.191 585.889L834.375 563.777L815.566 550.111H838.816L846 528Z" fill="#C4C4C4"/>
<path d="M1151.45 36.0116C1150.89 36.0116 1150.44 36.4647 1150.44 37.0237V45.1708H1145.31C1144.75 45.1708 1144.3 45.6239 1144.3 46.1829V46.6889C1144.3 47.2478 1144.75 47.701 1145.31 47.701H1151.96C1152.52 47.701 1152.97 47.2478 1152.97 46.6889V37.0237C1152.97 36.4647 1152.52 36.0116 1151.96 36.0116H1151.45Z" fill="#3A3A3A"/>
<path d="M1155.94 59.2694L1155.94 59.2297C1155.94 59.2272 1155.94 59.2246 1155.94 59.2221V58.1782C1154.62 58.6238 1153.21 58.8656 1151.74 58.8656C1144.45 58.8656 1138.53 52.9415 1138.53 45.66C1138.53 38.3784 1144.45 32.4545 1151.74 32.4545C1158.4 32.4545 1163.92 37.4125 1164.81 43.832C1165.72 43.8448 1166.58 43.9091 1167.39 44.0187C1166.56 36.1104 1159.86 29.9243 1151.74 29.9243C1143.06 29.9243 1136 36.9833 1136 45.66C1136 54.3366 1143.06 61.3957 1151.74 61.3957C1153.33 61.3957 1154.87 61.1569 1156.32 60.7144C1156.07 60.3846 1155.94 60.0306 1155.94 59.6593L1155.94 59.2694Z" fill="#3A3A3A"/>
<path d="M1156.96 47.2574C1156.96 48.2665 1159.82 49.6739 1164.48 49.6739C1169.14 49.6739 1172 48.2665 1172 47.2574C1172 46.2484 1169.14 44.8409 1164.48 44.8409C1159.82 44.8409 1156.96 46.2485 1156.96 47.2574ZM1164.64 46.1549L1164.71 46.2909C1165.13 46.3007 1165.55 46.3393 1165.89 46.3998C1165.99 46.4175 1166.03 46.4575 1165.99 46.4895L1165.7 46.7204C1165.66 46.7524 1165.55 46.7641 1165.45 46.7465C1165.21 46.703 1164.82 46.6778 1164.51 46.6855C1164.19 46.6936 1163.65 46.7393 1163.71 46.8593C1163.77 46.9775 1163.97 47.017 1164.82 47.0821C1165.55 47.1376 1166.65 47.2217 1166.85 47.6366C1166.99 47.898 1166.53 48.1104 1165.69 48.189L1165.76 48.332C1165.78 48.3683 1165.71 48.3997 1165.61 48.4025L1164.86 48.4213C1164.75 48.4237 1164.65 48.3965 1164.63 48.3601L1164.56 48.21C1164.04 48.1825 1163.54 48.1064 1163.16 47.9967C1163.07 47.9721 1163.05 47.9304 1163.11 47.9035L1163.57 47.7092C1163.6 47.6961 1163.64 47.6887 1163.69 47.6878C1163.75 47.687 1163.8 47.6933 1163.84 47.7049C1164.11 47.7849 1164.57 47.8342 1164.96 47.8246C1165.27 47.817 1165.78 47.7743 1165.72 47.663C1165.67 47.5625 1165.5 47.5298 1164.69 47.4682C1163.94 47.4107 1162.81 47.324 1162.58 46.8875C1162.45 46.6386 1162.84 46.433 1163.59 46.3408L1163.51 46.1831C1163.49 46.1468 1163.56 46.1153 1163.66 46.1126L1164.42 46.0938C1164.52 46.0913 1164.62 46.1185 1164.64 46.1549Z" fill="#3A3A3A"/>
<path d="M1156.96 48.9435V50.9994V51.0013V51.4572C1157.08 52.4603 1159.91 53.8067 1164.47 53.8067C1169.13 53.8067 1171.99 52.3994 1171.99 51.3902L1172 48.9454C1170.46 50.0851 1167.4 50.6861 1164.48 50.6861C1161.55 50.686 1158.49 50.0843 1156.96 48.9435Z" fill="#3A3A3A"/>
<path d="M1156.96 57.2145V59.2683C1156.96 59.2769 1156.95 59.285 1156.95 59.2935C1156.95 59.3077 1156.95 59.3217 1156.95 59.3357L1156.95 59.6593C1156.95 60.6683 1159.81 62.0756 1164.47 62.0756C1169.13 62.0756 1171.99 60.6683 1171.99 59.6591L1172 57.2076C1170.46 58.3498 1167.4 58.9525 1164.47 58.9525C1161.55 58.9526 1158.5 58.3523 1156.96 57.2145Z" fill="#3A3A3A"/>
<path d="M1156.96 53.0806V55.1331V55.1362V55.5909C1157.08 56.5939 1159.91 57.9404 1164.47 57.9404C1169.13 57.9404 1171.99 56.533 1171.99 55.524L1172 53.0737C1170.46 54.2159 1167.4 54.8186 1164.47 54.8186C1161.55 54.8187 1158.49 54.2185 1156.96 53.0806Z" fill="#3A3A3A"/>
<circle cx="1136" cy="32" r="10" fill="#C4C4C4"/>
<path d="M1135.9 36.2051C1137.87 36.2051 1139.02 34.582 1139.02 31.7812C1139.02 28.9746 1137.85 27.3398 1135.9 27.3398C1133.94 27.3398 1132.77 28.9746 1132.77 31.7637C1132.77 34.5762 1133.93 36.2051 1135.9 36.2051ZM1135.9 35.1152C1134.75 35.1152 1134.1 33.9434 1134.1 31.7637C1134.1 29.6133 1134.77 28.4355 1135.9 28.4355C1137.04 28.4355 1137.7 29.6016 1137.7 31.7637C1137.7 33.9492 1137.05 35.1152 1135.9 35.1152Z" fill="black"/>
</svg>
