<svg width="730" height="297" viewBox="0 0 730 297" fill="none" xmlns="http://www.w3.org/2000/svg">
<mask id="path-1-inside-1" fill="white">
<path fill-rule="evenodd" clip-rule="evenodd" d="M37.2698 16.3803C34 22.7976 34 31.1984 34 48V127.826L0 148.5L34 169.174V249C34 265.802 34 274.202 37.2698 280.62C40.146 286.265 44.7354 290.854 50.3803 293.73C56.7976 297 65.1984 297 82 297H682C698.802 297 707.202 297 713.62 293.73C719.265 290.854 723.854 286.265 726.73 280.62C730 274.202 730 265.802 730 249V48C730 31.1984 730 22.7976 726.73 16.3803C723.854 10.7354 719.265 6.14601 713.62 3.2698C707.202 0 698.802 0 682 0H82C65.1984 0 56.7976 0 50.3803 3.2698C44.7354 6.14601 40.146 10.7354 37.2698 16.3803Z"/>
</mask>
<path d="M37.2698 16.3803L39.0518 17.2883L39.0518 17.2883L37.2698 16.3803ZM34 127.826L35.0391 129.535L36 128.951V127.826H34ZM0 148.5L-1.0391 146.791L-3.84948 148.5L-1.0391 150.209L0 148.5ZM34 169.174H36V168.049L35.0391 167.465L34 169.174ZM37.2698 280.62L39.0518 279.712L39.0518 279.712L37.2698 280.62ZM50.3803 293.73L51.2883 291.948L51.2883 291.948L50.3803 293.73ZM713.62 293.73L712.712 291.948L712.712 291.948L713.62 293.73ZM726.73 280.62L728.512 281.528L728.512 281.528L726.73 280.62ZM726.73 16.3803L728.512 15.4723L728.512 15.4723L726.73 16.3803ZM713.62 3.2698L712.712 5.05181L712.712 5.05182L713.62 3.2698ZM50.3803 3.2698L49.4723 1.48779L49.4723 1.48779L50.3803 3.2698ZM36 48C36 39.5662 36.0016 33.3611 36.4021 28.4589C36.8007 23.58 37.5845 20.168 39.0518 17.2883L35.4878 15.4723C33.6853 19.0099 32.8342 23.0069 32.4154 28.1332C31.9984 33.2361 32 39.6322 32 48H36ZM36 127.826V48H32V127.826H36ZM1.0391 150.209L35.0391 129.535L32.9609 126.117L-1.0391 146.791L1.0391 150.209ZM35.0391 167.465L1.0391 146.791L-1.0391 150.209L32.9609 170.883L35.0391 167.465ZM36 249V169.174H32V249H36ZM39.0518 279.712C37.5845 276.832 36.8007 273.42 36.4021 268.541C36.0016 263.639 36 257.434 36 249H32C32 257.368 31.9984 263.764 32.4154 268.867C32.8342 273.993 33.6853 277.99 35.4878 281.528L39.0518 279.712ZM51.2883 291.948C46.0197 289.264 41.7363 284.98 39.0518 279.712L35.4878 281.528C38.5557 287.549 43.4511 292.444 49.4723 295.512L51.2883 291.948ZM82 295C73.5662 295 67.3611 294.998 62.4589 294.598C57.58 294.199 54.168 293.415 51.2883 291.948L49.4723 295.512C53.0099 297.315 57.0069 298.166 62.1332 298.585C67.2361 299.002 73.6322 299 82 299V295ZM682 295H82V299H682V295ZM712.712 291.948C709.832 293.415 706.42 294.199 701.541 294.598C696.639 294.998 690.434 295 682 295V299C690.368 299 696.764 299.002 701.867 298.585C706.993 298.166 710.99 297.315 714.528 295.512L712.712 291.948ZM724.948 279.712C722.264 284.98 717.98 289.264 712.712 291.948L714.528 295.512C720.549 292.444 725.444 287.549 728.512 281.528L724.948 279.712ZM728 249C728 257.434 727.998 263.639 727.598 268.541C727.199 273.42 726.415 276.832 724.948 279.712L728.512 281.528C730.315 277.99 731.166 273.993 731.585 268.867C732.002 263.764 732 257.368 732 249H728ZM728 48V249H732V48H728ZM724.948 17.2883C726.415 20.168 727.199 23.58 727.598 28.4589C727.998 33.3612 728 39.5662 728 48H732C732 39.6322 732.002 33.2361 731.585 28.1332C731.166 23.007 730.315 19.0099 728.512 15.4723L724.948 17.2883ZM712.712 5.05182C717.98 7.73627 722.264 12.0197 724.948 17.2883L728.512 15.4723C725.444 9.45112 720.549 4.55574 714.528 1.48779L712.712 5.05182ZM682 2C690.434 2 696.639 2.00156 701.541 2.40208C706.42 2.8007 709.832 3.58452 712.712 5.05181L714.528 1.48779C710.99 -0.314712 706.993 -1.1658 701.867 -1.58463C696.764 -2.00156 690.368 -2 682 -2V2ZM82 2H682V-2H82V2ZM51.2883 5.05182C54.168 3.58452 57.58 2.8007 62.4589 2.40208C67.3612 2.00156 73.5662 2 82 2V-2C73.6322 -2 67.2361 -2.00156 62.1332 -1.58463C57.007 -1.1658 53.0099 -0.314712 49.4723 1.48779L51.2883 5.05182ZM39.0518 17.2883C41.7363 12.0197 46.0197 7.73627 51.2883 5.05182L49.4723 1.48779C43.4511 4.55574 38.5557 9.45112 35.4878 15.4723L39.0518 17.2883Z" fill="#333333" mask="url(#path-1-inside-1)"/>
</svg>
